<svg xmlns="http://www.w3.org/2000/svg" xmlns:xlink="http://www.w3.org/1999/xlink" width="508" height="430" viewBox="0 0 508 430">
  <defs>
    <clipPath id="clip-path">
      <rect id="Rectángulo_404965" data-name="Rectángulo 404965" width="508" height="430" transform="translate(0 81)" fill="#fff" stroke="#707070" stroke-width="1"/>
    </clipPath>
    <clipPath id="clip-path-2">
      <rect id="Rectángulo_404953" data-name="Rectángulo 404953" width="505.376" height="437.697" fill="none"/>
    </clipPath>
    <clipPath id="clip-path-3">
      <path id="Trazado_889569" data-name="Trazado 889569" d="M196.845,25.082l43.829,1.479a22.275,22.275,0,0,1,21.515,23.015l-1.477,43.829a22.278,22.278,0,0,1-23.017,21.515l-43.829-1.477a22.281,22.281,0,0,1-21.516-23.017L173.828,46.6A22.278,22.278,0,0,1,196.08,25.069c.253,0,.51,0,.765.013" transform="translate(-172.336 -25.069)" fill="#3a1d71"/>
    </clipPath>
  </defs>
  <g id="Enmascarar_grupo_1098788" data-name="Enmascarar grupo 1098788" transform="translate(0 -81)" clip-path="url(#clip-path)">
    <g id="Grupo_1105286" data-name="Grupo 1105286" transform="translate(-0.457 70.972)">
      <g id="Grupo_1105285" data-name="Grupo 1105285" clip-path="url(#clip-path-2)">
        <path id="Trazado_889525" data-name="Trazado 889525" d="M400.7,226.64s47.246-32.142,28.673-50.03-31.095,5.006-31.095,5.006,30.174-67.84-4.026-77.4S357.9,142.842,357.9,142.842s-19.2-88.2-65.06-81.571,25.043,93.559,25.043,93.559-54.851-15.415-53.528,28.411,71.86,14.811,71.86,14.811-60.939,24.466-26.981,51.672S400.7,226.64,400.7,226.64" transform="translate(-264.332 16.517)" fill="#9be3fc"/>
        <path id="Trazado_889526" data-name="Trazado 889526" d="M376.769,158.68l-39.4,33.734-61.053,14.1" transform="translate(-222.633 43.025)" fill="none" stroke="#103140" stroke-linecap="round" stroke-linejoin="round" stroke-width="1.553"/>
        <line id="Línea_960" data-name="Línea 960" x1="82.474" y1="143.827" transform="translate(34.771 96.394)" fill="none" stroke="#103140" stroke-linecap="round" stroke-linejoin="round" stroke-width="1.553"/>
        <path id="Trazado_889527" data-name="Trazado 889527" d="M397.471,121,373.4,165.427H305.34" transform="translate(-280.226 32.808)" fill="none" stroke="#103140" stroke-linecap="round" stroke-linejoin="round" stroke-width="1.553"/>
        <path id="Trazado_889528" data-name="Trazado 889528" d="M376,96.6s26.886-29.882,11.2-38.987-20.4,8.634-20.4,8.634,9.237-51.406-15.732-52.2S332.7,46.532,332.7,46.532,304.789-10.5,274.574,1.716s32.8,59.717,32.8,59.717-40.059-1.332-31.8,28.386,51.577-1.932,51.577-1.932-37.528,26.934-9.766,39.825S376,96.6,376,96.6" transform="translate(-224.311 14.568)" fill="#fdc614"/>
        <path id="Trazado_889529" data-name="Trazado 889529" d="M335.572,51.373,314.316,81.027,274.971,100.9" transform="translate(-178.704 28.498)" fill="none" stroke="#103140" stroke-linecap="round" stroke-linejoin="round" stroke-width="1.553"/>
        <line id="Línea_961" data-name="Línea 961" x1="80.466" y1="84.427" transform="translate(57.66 27.945)" fill="none" stroke="#103140" stroke-linecap="round" stroke-linejoin="round" stroke-width="1.553"/>
        <path id="Trazado_889530" data-name="Trazado 889530" d="M356.607,30.5l-9,34.39L301.117,76.3" transform="translate(-232.974 22.838)" fill="none" stroke="#103140" stroke-linecap="round" stroke-linejoin="round" stroke-width="1.553"/>
        <path id="Trazado_889531" data-name="Trazado 889531" d="M69.61,368.964s69.608,2.6,74.619-14.83-13.342-17.688-13.342-17.688,52.108-3.558,46.8-27.969-35.977-9.9-35.977-9.9,48.521-40.959,29.311-67.289-49.932,46.354-49.932,46.354-8.463-39.177-35.277-23.934,14.434,49.553,14.434,49.553-35.262-29.84-41.006.225,10.37,65.475,10.37,65.475" transform="translate(253.581 61.155)" fill="#fdc614"/>
        <path id="Trazado_889532" data-name="Trazado 889532" d="M154.434,333.553l-33.937-13.4-28.856-33.32" transform="translate(234.454 77.774)" fill="none" stroke="#103140" stroke-linecap="round" stroke-linejoin="round" stroke-width="1.553"/>
        <line id="Línea_962" data-name="Línea 962" y1="122.351" x2="77.297" transform="translate(337.798 302.461)" fill="none" stroke="#103140" stroke-linecap="round" stroke-linejoin="round" stroke-width="1.553"/>
        <path id="Trazado_889533" data-name="Trazado 889533" d="M135.7,302.248l-35.545-.352L77.761,259.581" transform="translate(270.834 70.384)" fill="none" stroke="#103140" stroke-linecap="round" stroke-linejoin="round" stroke-width="1.553"/>
        <path id="Trazado_889534" data-name="Trazado 889534" d="M6.455,347.087H460.032a6.455,6.455,0,1,0,0-12.91H6.455a6.455,6.455,0,1,0,0,12.91" transform="translate(38.889 90.61)" fill="#0f303f"/>
        <path id="Trazado_889535" data-name="Trazado 889535" d="M24.813,349.332h26.8A16.689,16.689,0,0,0,68.3,332.643v-53.6H8.124v53.6a16.689,16.689,0,0,0,16.689,16.689" transform="translate(426.746 75.66)" fill="#03bafc"/>
        <path id="Trazado_889536" data-name="Trazado 889536" d="M61.009,288.267c8.915,0,16.141,8.662,16.141,19.344s-7.226,19.344-16.141,19.344-16.141-8.66-16.141-19.344,7.226-19.344,16.141-19.344m0,30.591c5.182,0,9.384-5.035,9.384-11.247s-4.2-11.246-9.384-11.246-9.384,5.035-9.384,11.246,4.2,11.247,9.384,11.247" transform="translate(371.193 78.162)" fill="#03bafc"/>
        <path id="Trazado_889537" data-name="Trazado 889537" d="M142.585,43.509s2-25.258,37.565-21.963c18.4,1.7,29.335,26.664,37.505,40.274,16.019,26.685,32.164,49.966,62.439,60.9,13.017,4.7,26.582,8.1,38.874,14.459,31.737,16.421,39,53.68,39.314,86.538.292,30.391-7.816,61.382-25.534,86.326-27.822,39.168-74.839,53.079-121.182,50.167-5.246-.331-10.481-.852-15.692-1.533C-5.568,332.324,85.684,56.823,85.684,56.823Z" transform="translate(64.379 5.762)" fill="#0f303f"/>
        <path id="Trazado_889538" data-name="Trazado 889538" d="M272.833,46.685s33.314,90.429-18.564,97.564S198.835,111.9,198.835,111.9l-6-59.023Z" transform="translate(-23.112 12.658)" fill="#f84a3f"/>
        <path id="Trazado_889539" data-name="Trazado 889539" d="M224.714,84.07c.475,2.367-.552,4.57-2.3,4.921s-3.543-1.284-4.019-3.651.552-4.57,2.3-4.921,3.544,1.284,4.019,3.651" transform="translate(3.078 21.792)" fill="#103140"/>
        <path id="Trazado_889540" data-name="Trazado 889540" d="M205.829,83.313c.043,2.414-1.364,4.4-3.142,4.429s-3.255-1.9-3.3-4.313,1.364-4.4,3.142-4.429,3.255,1.9,3.3,4.313" transform="translate(46.096 21.42)" fill="#103140"/>
        <path id="Trazado_889541" data-name="Trazado 889541" d="M230.546,108.919s-11.609,5.789-19.96-1.879" transform="translate(7.146 29.023)" fill="none" stroke="#103140" stroke-linecap="round" stroke-linejoin="round" stroke-width="1.493"/>
        <path id="Trazado_889542" data-name="Trazado 889542" d="M217.54,76.472s6.393-9.357,13.883-2.723" transform="translate(-2.572 19.352)" fill="none" stroke="#103140" stroke-linecap="round" stroke-linejoin="round" stroke-width="1.493"/>
        <path id="Trazado_889543" data-name="Trazado 889543" d="M199.552,73.311s5.074-6.314,9.727,1.372" transform="translate(42.438 19.216)" fill="none" stroke="#103140" stroke-linecap="round" stroke-linejoin="round" stroke-width="1.493"/>
        <path id="Trazado_889544" data-name="Trazado 889544" d="M202.574,83.165s-.347,13.58,3.182,14.169c6.61,1.1,2.827,10.245-2.326,8.149" transform="translate(38.604 22.55)" fill="none" stroke="#103140" stroke-linecap="round" stroke-linejoin="round" stroke-width="1.493"/>
        <path id="Trazado_889545" data-name="Trazado 889545" d="M302.508,54.443s-31.862,40.82-76.274,42.821-25.392-80.471,21.781-79.178,54.339,21.908,54.493,36.357" transform="translate(-52.787 4.9)" fill="#0f303f"/>
        <path id="Trazado_889546" data-name="Trazado 889546" d="M248.273,87.895c0,6.457,4.139,11.692,9.244,11.692s9.243-5.235,9.243-11.692S262.62,76.2,257.517,76.2s-9.244,5.235-9.244,11.692" transform="translate(-76.974 20.662)" fill="#f84a3f"/>
        <path id="Trazado_889547" data-name="Trazado 889547" d="M162.66,186.829v141.9H341.315v-141.9a47.891,47.891,0,0,0-47.932-47.92H210.591a47.92,47.92,0,0,0-47.931,47.92" transform="translate(-42.703 37.664)" fill="#fdc614"/>
        <path id="Trazado_889548" data-name="Trazado 889548" d="M254.265,116.687l.413,33.49c-1.515.189-5.9.338-7.437.446-1.05.075-2.1.136-3.14.169-11.468.421-16.3.568-26.562-3.019l.487-35.189Z" transform="translate(-25.825 30.527)" fill="#f84a3f"/>
        <path id="Trazado_889549" data-name="Trazado 889549" d="M184.64,143.91c12.19,13.572,35.288,22.731,61.773,22.731,26.913,0,50.328-9.451,62.336-23.379a47.685,47.685,0,0,0-19.991-4.352H205.965a47.613,47.613,0,0,0-21.325,5" transform="translate(-38.076 37.664)" fill="#f84a3f"/>
        <path id="Trazado_889550" data-name="Trazado 889550" d="M132.059,225.861V358.614A22.339,22.339,0,0,0,154.4,380.953h212.2a22.34,22.34,0,0,0,22.339-22.339V225.861a22.34,22.34,0,0,0-22.339-22.339H154.4a22.339,22.339,0,0,0-22.339,22.339" transform="translate(-51.423 55.184)" fill="#0f303f"/>
        <path id="Trazado_889551" data-name="Trazado 889551" d="M227.538,312.368l11.074-5.453a7.412,7.412,0,0,1,6.9.183l10.77,6.03a7.417,7.417,0,0,0,10.964-7.532l-1.764-12.216a7.417,7.417,0,0,1,2.306-6.506l9.063-8.379a7.417,7.417,0,0,0-3.774-12.755l-12.164-2.1a7.412,7.412,0,0,1-5.475-4.2l-5.168-11.21a7.416,7.416,0,0,0-13.3-.351l-5.754,10.92a7.409,7.409,0,0,1-5.688,3.908l-12.258,1.452a7.417,7.417,0,0,0-4.444,12.537l8.608,8.846a7.413,7.413,0,0,1,1.959,6.619l-2.408,12.106a7.417,7.417,0,0,0,10.55,8.1" transform="translate(-36.632 66.138)" fill="#fdc614"/>
        <path id="Trazado_889552" data-name="Trazado 889552" d="M170.957,304.068v-77.1a22.453,22.453,0,0,0-13.4-20.656c-5.729-2.479-13.761-3.164-25.5-2.767" transform="translate(166.553 55.161)" fill="none" stroke="#eef0f5" stroke-linecap="round" stroke-miterlimit="10" stroke-width="1.924"/>
        <g id="Grupo_1105284" data-name="Grupo 1105284" transform="translate(396.41 69.25)">
          <path id="Trazado_889553" data-name="Trazado 889553" d="M64.654,133.523h72.51a7.2,7.2,0,0,0,7.2-7.2V85.178a7.2,7.2,0,0,0-7.2-7.2H64.654a7.2,7.2,0,0,0-7.2,7.2v41.146a7.2,7.2,0,0,0,7.2,7.2" transform="translate(-57.456 -77.98)" fill="#fdc614"/>
          <path id="Trazado_889554" data-name="Trazado 889554" d="M66.271,101.426a7.493,7.493,0,1,0,7.492-7.493,7.493,7.493,0,0,0-7.492,7.493" transform="translate(-5.555 -73.654)" fill="#fff"/>
          <path id="Trazado_889555" data-name="Trazado 889555" d="M85.746,101.426a7.493,7.493,0,1,0,7.493-7.493,7.494,7.494,0,0,0-7.493,7.493" transform="translate(-49.785 -73.654)" fill="#fff"/>
          <path id="Trazado_889556" data-name="Trazado 889556" d="M105.222,101.426a7.493,7.493,0,1,0,7.493-7.493,7.494,7.494,0,0,0-7.493,7.493" transform="translate(-94.018 -73.654)" fill="#fff"/>
          <path id="Trazado_889557" data-name="Trazado 889557" d="M118.287,117.669l-16.11,22.476V117.669Z" transform="translate(-88.225 -67.218)" fill="#fdc614"/>
        </g>
      </g>
    </g>
    <g id="Grupo_1105291" data-name="Grupo 1105291" transform="translate(429.526 268.211)">
      <g id="Grupo_1105289" data-name="Grupo 1105289" transform="translate(67.578 67.543) rotate(180)">
        <rect id="Rectángulo_404954" data-name="Rectángulo 404954" width="67.044" height="67.044" rx="8" transform="translate(0.286 0.213)" fill="#3a1d71"/>
        <path id="Trazado_889561" data-name="Trazado 889561" d="M55.9.213a12.265,12.265,0,0,1,2.486.341,11.4,11.4,0,0,1,6.039,3.663A10.968,10.968,0,0,1,66.8,8.76c.528,1.826.33,3.927.363,6.16-.011,4.466-.022,9.559-.044,15.169,0,5.621-.022,11.781-.033,18.392v5.038a19.8,19.8,0,0,1-.374,5.1,11.2,11.2,0,0,1-9.471,8.272,26.091,26.091,0,0,1-2.8.088H11.715a11.229,11.229,0,0,1-5.907-1.7A10.717,10.717,0,0,1,3.454,63.3a10.166,10.166,0,0,1-1.716-2.53A11.188,11.188,0,0,1,.77,57.9a16.319,16.319,0,0,1-.2-3.036V48.744C.572,40.659.561,32.85.55,25.414q0-5.577-.011-10.868a28.174,28.174,0,0,1,.22-5.137A11.371,11.371,0,0,1,2.772,4.943,11.123,11.123,0,0,1,10.7.5c3.025-.11,6.006-.044,8.8-.066C30.733.4,39.819.367,46.133.345,49.257.323,51.7.3,53.371.29Q54.592.274,55.252.257A4.593,4.593,0,0,0,55.89.224S55.67.2,55.252.191C54.8.191,54.185.18,53.371.158,51.7.147,49.257.125,46.133.1,39.819.081,30.733.048,19.5.015c-2.816.022-5.742-.066-8.844.033A11.562,11.562,0,0,0,2.387,4.657,11.659,11.659,0,0,0,.275,9.31a28.707,28.707,0,0,0-.242,5.236c0,3.52,0,7.15-.011,10.868,0,7.436,0,15.235-.022,23.331V54.86A15.927,15.927,0,0,0,.209,58,11.527,11.527,0,0,0,1.221,61.02a11.406,11.406,0,0,0,1.8,2.651A11.2,11.2,0,0,0,5.5,65.75a11.75,11.75,0,0,0,6.215,1.793H54.438a25.216,25.216,0,0,0,2.871-.1,11.379,11.379,0,0,0,2.772-.693A11.67,11.67,0,0,0,67.2,58.776a19.748,19.748,0,0,0,.374-5.236V48.5c-.011-6.611-.022-12.771-.033-18.392s-.033-10.7-.044-15.169c-.044-2.211.143-4.345-.418-6.226A11.074,11.074,0,0,0,64.6,4.1,11.32,11.32,0,0,0,58.42.466a9.8,9.8,0,0,0-1.87-.22c-.429-.011-.638,0-.638,0Z" transform="translate(0)" fill="#263238"/>
      </g>
      <g id="Grupo_1105290" data-name="Grupo 1105290" transform="translate(55.371 54.853) rotate(180)">
        <rect id="Rectángulo_404955" data-name="Rectángulo 404955" width="8.459" height="6.479" transform="translate(0.55 0)" fill="#f0c518"/>
        <rect id="Rectángulo_404956" data-name="Rectángulo 404956" width="8.459" height="21.417" transform="translate(11.253 0)" fill="#f0c518"/>
        <rect id="Rectángulo_404957" data-name="Rectángulo 404957" width="8.459" height="12.188" transform="translate(23.023 0.011)" fill="#f0c518"/>
        <rect id="Rectángulo_404958" data-name="Rectángulo 404958" width="8.459" height="27.62" transform="translate(34.253 0)" fill="#f0c518"/>
        <path id="Trazado_889562" data-name="Trazado 889562" d="M4.213,0A4.213,4.213,0,1,0,8.426,4.213,4.22,4.22,0,0,0,4.213,0Zm0,7.326A3.113,3.113,0,1,1,7.326,4.213,3.117,3.117,0,0,1,4.213,7.326Z" transform="translate(0 13.145)" fill="#f0c518"/>
        <path id="Trazado_889563" data-name="Trazado 889563" d="M4.213,0A4.213,4.213,0,1,0,8.426,4.213,4.22,4.22,0,0,0,4.213,0Zm0,7.315A3.113,3.113,0,1,1,7.326,4.2,3.117,3.117,0,0,1,4.213,7.315Z" transform="translate(12.1 29.171)" fill="#f0c518"/>
        <path id="Trazado_889564" data-name="Trazado 889564" d="M4.213,0A4.213,4.213,0,1,0,8.426,4.213,4.22,4.22,0,0,0,4.213,0Zm0,7.326A3.113,3.113,0,1,1,7.326,4.213,3.117,3.117,0,0,1,4.213,7.326Z" transform="translate(23.045 19.019)" fill="#f0c518"/>
        <path id="Trazado_889565" data-name="Trazado 889565" d="M4.213,0A4.213,4.213,0,1,0,8.426,4.213,4.22,4.22,0,0,0,4.213,0Zm0,7.315A3.113,3.113,0,1,1,7.326,4.2,3.117,3.117,0,0,1,4.213,7.315Z" transform="translate(34.737 33.736)" fill="#f0c518"/>
        <rect id="Rectángulo_404959" data-name="Rectángulo 404959" width="11.814" height="1.1" transform="translate(30.119 25.284) rotate(54.9)" fill="#f0c518"/>
        <rect id="Rectángulo_404960" data-name="Rectángulo 404960" width="1.1" height="7.48" transform="matrix(0.723, 0.691, -0.691, 0.723, 23.909, 24.634)" fill="#f0c518"/>
        <rect id="Rectángulo_404961" data-name="Rectángulo 404961" width="12.43" height="1.1" transform="matrix(0.613, 0.79, -0.79, 0.613, 6.656, 20.082)" fill="#f0c518"/>
      </g>
    </g>
    <g id="Grupo_1105294" data-name="Grupo 1105294" transform="translate(291.012 83.972)">
      <g id="Grupo_1105292" data-name="Grupo 1105292" transform="translate(63.262 63.23) rotate(180)">
        <rect id="Rectángulo_404962" data-name="Rectángulo 404962" width="62.762" height="62.762" rx="10.38" transform="translate(0.268 0.179)" fill="#0b47db"/>
        <path id="Trazado_889566" data-name="Trazado 889566" d="M52.331.189a11.481,11.481,0,0,1,2.327.319,10.672,10.672,0,0,1,5.653,3.429A10.268,10.268,0,0,1,62.536,8.19a22.977,22.977,0,0,1,.34,5.766c-.01,4.181-.021,8.948-.041,14.2,0,5.262-.021,11.028-.031,17.217V50.09a18.534,18.534,0,0,1-.35,4.778,10.482,10.482,0,0,1-8.866,7.744,24.423,24.423,0,0,1-2.626.082h-40a10.512,10.512,0,0,1-5.53-1.6,10.032,10.032,0,0,1-2.2-1.854,9.516,9.516,0,0,1-1.606-2.368,10.473,10.473,0,0,1-.906-2.688,15.275,15.275,0,0,1-.185-2.842c0-1.926,0-3.841,0-5.725,0-7.568-.01-14.88-.021-21.841q0-5.221-.01-10.174A26.375,26.375,0,0,1,.71,8.8a10.536,10.536,0,0,1,1.884-4.17A10.393,10.393,0,0,1,10.019.467c2.832-.1,5.622-.041,8.238-.062C28.771.375,37.276.344,43.187.323,46.112.3,48.4.282,49.963.272Q51.106.256,51.724.241a4.3,4.3,0,0,0,.6-.031s-.206-.021-.6-.031c-.422,0-1-.01-1.761-.031C48.4.138,46.112.117,43.187.1,37.276.076,28.771.045,18.257.014c-2.636.021-5.375-.062-8.279.031A10.824,10.824,0,0,0,2.234,4.36,10.914,10.914,0,0,0,.257,8.715a26.873,26.873,0,0,0-.227,4.9c0,3.3,0,6.693-.01,10.174,0,6.961,0,14.262-.021,21.841v5.725a14.908,14.908,0,0,0,.2,2.935,10.791,10.791,0,0,0,.947,2.832A10.368,10.368,0,0,0,2.832,59.6a10.482,10.482,0,0,0,2.317,1.946,11,11,0,0,0,5.818,1.678H50.962a23.6,23.6,0,0,0,2.688-.093,10.652,10.652,0,0,0,2.595-.649,10.925,10.925,0,0,0,6.662-7.466,18.486,18.486,0,0,0,.35-4.9V45.4c-.01-6.189-.021-11.955-.031-17.217s-.031-10.019-.041-14.2a22.655,22.655,0,0,0-.391-5.828,10.368,10.368,0,0,0-2.317-4.325,10.6,10.6,0,0,0-5.787-3.4A9.177,9.177,0,0,0,52.939.23c-.4-.01-.6,0-.6,0Z" transform="translate(0)" fill="#263238"/>
      </g>
      <g id="Grupo_1105293" data-name="Grupo 1105293" transform="matrix(-0.978, 0.208, -0.208, -0.978, 48.217, 43.352)">
        <path id="Trazado_889567" data-name="Trazado 889567" d="M11.427,0a11.2,11.2,0,0,0-3.5.556A11.447,11.447,0,1,0,22.332,7.929h0A11.467,11.467,0,0,0,11.438,0Zm.01,20.831A9.381,9.381,0,1,1,20.355,8.567h0a9.379,9.379,0,0,1-8.917,12.264Z" transform="translate(0 6.868)" fill="#fff"/>
        <path id="Trazado_889568" data-name="Trazado 889568" d="M9.539,0a1.054,1.054,0,0,0-.762.33L.271,9.587a1.028,1.028,0,0,0,1.514,1.39L10.29,1.72A1.026,1.026,0,0,0,10.229.268,1,1,0,0,0,9.528,0Z" transform="translate(17.036 0)" fill="#fff"/>
      </g>
    </g>
    <g id="Grupo_1105296" data-name="Grupo 1105296" transform="translate(43.147 373.746)">
      <g id="Grupo_1105295" data-name="Grupo 1105295" clip-path="url(#clip-path-3)">
        <rect id="Rectángulo_404963" data-name="Rectángulo 404963" width="93.66" height="93.271" transform="translate(90.165 93.321) rotate(-178.069)" fill="#3a1d71"/>
      </g>
      <path id="Trazado_889570" data-name="Trazado 889570" d="M215,93.151a1.742,1.742,0,0,0,.333-.018,29.3,29.3,0,0,0,4.857-1.118,1.881,1.881,0,0,0,1.3-1.76l.043-2.461a26.211,26.211,0,0,0,3.632-1.942l2.063,1.335a1.88,1.88,0,0,0,2.188-.1,29.731,29.731,0,0,0,3.642-3.4,1.879,1.879,0,0,0,.25-2.178l-1.191-2.148A26.143,26.143,0,0,0,234.3,75.86l2.459.124a1.827,1.827,0,0,0,1.843-1.184,29.338,29.338,0,0,0,1.442-4.771,1.884,1.884,0,0,0-.873-2.007l-2.108-1.267q.119-1.043.154-2.053c.023-.671.018-1.36-.015-2.058l2.189-1.121a1.885,1.885,0,0,0,1.005-1.944,29.412,29.412,0,0,0-1.118-4.857,1.877,1.877,0,0,0-1.76-1.307l-2.461-.041a26.293,26.293,0,0,0-1.942-3.632l1.333-2.063a1.888,1.888,0,0,0-.1-2.191,29.888,29.888,0,0,0-3.4-3.638,1.877,1.877,0,0,0-2.176-.252l-2.148,1.192a26.357,26.357,0,0,0-3.492-2.183l.123-2.459a1.881,1.881,0,0,0-1.182-1.843,29.306,29.306,0,0,0-4.771-1.444,1.884,1.884,0,0,0-2.01.873l-1.264,2.11a24.928,24.928,0,0,0-4.113-.139l-1.121-2.189a1.882,1.882,0,0,0-1.946-1.007,29.45,29.45,0,0,0-4.855,1.119,1.883,1.883,0,0,0-1.3,1.76l-.043,2.461a26.032,26.032,0,0,0-3.632,1.942l-2.063-1.335a1.877,1.877,0,0,0-2.188.1,29.964,29.964,0,0,0-3.642,3.4,1.883,1.883,0,0,0-.25,2.178l1.191,2.149a26.251,26.251,0,0,0-2.183,3.493l-2.459-.124a1.9,1.9,0,0,0-1.843,1.184,29.643,29.643,0,0,0-1.444,4.771A1.884,1.884,0,0,0,183,59.621l2.11,1.265c-.08.7-.131,1.383-.154,2.053s-.018,1.36.015,2.058l-2.189,1.121a1.886,1.886,0,0,0-1.007,1.946,29.678,29.678,0,0,0,1.119,4.857,1.949,1.949,0,0,0,1.76,1.3l2.461.041A26.02,26.02,0,0,0,189.06,77.9l-1.333,2.063a1.885,1.885,0,0,0,.1,2.189,29.778,29.778,0,0,0,3.4,3.642,1.882,1.882,0,0,0,2.176.25l2.148-1.192a26.193,26.193,0,0,0,3.493,2.184l-.123,2.458a1.879,1.879,0,0,0,1.182,1.843,29.524,29.524,0,0,0,4.771,1.444,1.882,1.882,0,0,0,2.009-.873l1.265-2.11a24.91,24.91,0,0,0,4.114.139l1.119,2.189A1.884,1.884,0,0,0,215,93.151m2.752-4.345q-.81.214-1.641.376l-1.058-2.068A1.873,1.873,0,0,0,213.2,86.1a21.9,21.9,0,0,1-5.718-.192,1.877,1.877,0,0,0-1.916.889l-1.2,1.992c-.545-.146-1.083-.306-1.61-.485l.118-2.315a1.887,1.887,0,0,0-1.1-1.808,22.367,22.367,0,0,1-4.854-3.032,1.884,1.884,0,0,0-2.106-.19l-2.027,1.124q-.594-.6-1.151-1.232L192.9,78.9a1.878,1.878,0,0,0-.046-2.115,22.367,22.367,0,0,1-2.7-5.046,1.864,1.864,0,0,0-1.729-1.217l-2.32-.04c-.142-.538-.267-1.086-.376-1.639l2.068-1.058a1.889,1.889,0,0,0,1.018-1.853,22.442,22.442,0,0,1-.093-2.867,22.806,22.806,0,0,1,.285-2.852,1.89,1.89,0,0,0-.889-1.918l-1.994-1.2q.218-.817.487-1.611l2.317.118a1.858,1.858,0,0,0,1.805-1.1,22.386,22.386,0,0,1,3.034-4.852,1.886,1.886,0,0,0,.189-2.108l-1.123-2.025c.4-.4.808-.782,1.23-1.151l1.946,1.259a1.884,1.884,0,0,0,2.115-.048,22.458,22.458,0,0,1,5.047-2.7,1.887,1.887,0,0,0,1.217-1.729l.038-2.318c.538-.142,1.086-.268,1.639-.376l1.06,2.068a1.885,1.885,0,0,0,1.853,1.017,21.9,21.9,0,0,1,5.718.194,1.881,1.881,0,0,0,1.916-.891l1.2-1.992q.82.219,1.611.485l-.118,2.317a1.886,1.886,0,0,0,1.1,1.807,22.455,22.455,0,0,1,4.854,3.032,1.884,1.884,0,0,0,2.106.19l2.027-1.124q.594.6,1.151,1.232l-1.257,1.946a1.878,1.878,0,0,0,.046,2.115,22.3,22.3,0,0,1,2.7,5.046,1.852,1.852,0,0,0,1.729,1.217l2.32.04c.142.538.267,1.086.374,1.639l-2.067,1.06a1.889,1.889,0,0,0-1.018,1.853,22.391,22.391,0,0,1,.093,2.863,22.8,22.8,0,0,1-.285,2.853,1.886,1.886,0,0,0,.889,1.916l1.992,1.2q-.216.817-.485,1.611l-2.317-.118a1.847,1.847,0,0,0-1.805,1.1,22.413,22.413,0,0,1-3.034,4.852,1.886,1.886,0,0,0-.189,2.108l1.124,2.025c-.4.4-.81.782-1.232,1.153l-1.946-1.259a1.887,1.887,0,0,0-2.115.046,22.386,22.386,0,0,1-5.047,2.7,1.889,1.889,0,0,0-1.217,1.729Z" transform="translate(-166.157 -18.888)" fill="#f0c518"/>
      <path id="Trazado_889571" data-name="Trazado 889571" d="M206.636,79.8a19.774,19.774,0,1,0-19.1-20.428,19.8,19.8,0,0,0,19.1,20.428m1.206-35.76A16.006,16.006,0,1,1,191.3,59.5a16.026,16.026,0,0,1,16.537-15.457" transform="translate(-162.37 -15.103)" fill="#f0c518"/>
    </g>
    <g id="Grupo_1105301" data-name="Grupo 1105301" transform="translate(308.388 205.727)">
      <g id="Grupo_1105300" data-name="Grupo 1105300" transform="matrix(-0.985, 0.174, -0.174, -0.985, 91.773, 77.993)">
        <g id="Grupo_1105299" data-name="Grupo 1105299" transform="translate(0 0)">
          <g id="Grupo_1105297" data-name="Grupo 1105297" transform="translate(12.888 0) rotate(11)">
            <path id="Trazado_889572" data-name="Trazado 889572" d="M13.194,67.044H53.849c4.256,0,8.235-1.126,10.878-4.563,1.488-1.919,2.316-5.6,2.316-8.632V13.194c0-3.527-.836-7.774-3.358-10.415C61.55.529,57.609,0,53.849,0H13.194C10.017,0,6.286.507,3.71,2.63,1.062,4.8,0,9.085,0,13.194V53.849c0,3.906,1.012,7.873,4,10.54C6.044,66.229,9.813,67.044,13.194,67.044Z" transform="translate(0.286 0.202)" fill="#0b47db"/>
            <path id="Trazado_889573" data-name="Trazado 889573" d="M55.9.2a12.264,12.264,0,0,1,2.486.341,11.4,11.4,0,0,1,6.039,3.663A10.969,10.969,0,0,1,66.8,8.749c.528,1.826.33,3.927.363,6.16-.011,4.466-.022,9.559-.044,15.169,0,5.621-.022,11.781-.033,18.392v5.038a19.8,19.8,0,0,1-.374,5.1,11.2,11.2,0,0,1-9.471,8.272,26.093,26.093,0,0,1-2.8.088H11.715a11.229,11.229,0,0,1-5.907-1.7,10.717,10.717,0,0,1-2.354-1.98,10.165,10.165,0,0,1-1.716-2.53A11.187,11.187,0,0,1,.77,57.885a16.318,16.318,0,0,1-.2-3.036V48.733C.572,40.648.561,32.839.55,25.4q0-5.577-.011-10.868A28.173,28.173,0,0,1,.759,9.4,11.255,11.255,0,0,1,2.772,4.943,11.123,11.123,0,0,1,10.7.5c3.025-.11,6.006-.044,8.8-.066C30.733.4,39.819.367,46.133.345,49.257.323,51.7.3,53.371.29Q54.592.274,55.252.257A4.592,4.592,0,0,0,55.89.224S55.67.2,55.252.191C54.8.191,54.185.18,53.371.158,51.7.147,49.257.125,46.133.1,39.819.081,30.733.048,19.5.015c-2.816.022-5.742-.066-8.844.033A11.562,11.562,0,0,0,2.387,4.657,11.66,11.66,0,0,0,.275,9.31a28.707,28.707,0,0,0-.242,5.236c0,3.52,0,7.15-.011,10.868,0,7.436,0,15.235-.022,23.331V54.86A15.927,15.927,0,0,0,.209,58,11.525,11.525,0,0,0,1.221,61.02a11.4,11.4,0,0,0,1.8,2.651A11.2,11.2,0,0,0,5.5,65.75a11.75,11.75,0,0,0,6.215,1.793H54.438a25.218,25.218,0,0,0,2.871-.1,11.38,11.38,0,0,0,2.772-.693A11.67,11.67,0,0,0,67.2,58.776a19.752,19.752,0,0,0,.374-5.236V48.5c-.011-6.611-.022-12.771-.033-18.392s-.033-10.7-.044-15.169c-.044-2.211.143-4.345-.418-6.226A11.074,11.074,0,0,0,64.6,4.1,11.319,11.319,0,0,0,58.42.466a9.8,9.8,0,0,0-1.87-.22c-.429-.011-.638,0-.638,0Z" transform="translate(0)" fill="#8722e2"/>
          </g>
          <g id="Grupo_1105298" data-name="Grupo 1105298" transform="matrix(0.985, 0.174, -0.174, 0.985, 23.95, 15.965)">
            <path id="Trazado_889574" data-name="Trazado 889574" d="M20.383,0A20.383,20.383,0,1,0,40.765,20.383,20.4,20.4,0,0,0,20.383,0Zm0,39.665A19.283,19.283,0,1,1,39.665,20.383,19.306,19.306,0,0,1,20.383,39.665Z" fill="#fff"/>
            <path id="Trazado_889575" data-name="Trazado 889575" d="M10.018,0A18.871,18.871,0,0,0,4.793,4.807,24.13,24.13,0,0,0,.019,20.735a24.991,24.991,0,0,0,5.588,15.51,18.172,18.172,0,0,0,5.236,4.411l.484-.99c-.1-.044-9.691-4.961-10.208-18.975S10.458,1.012,10.557.957Z" transform="translate(9.749 0.066)" fill="#fff"/>
            <path id="Trazado_889576" data-name="Trazado 889576" d="M1.254.011.671.946C.77,1,10.307,7.084,9.79,21.109c-.517,14-9.7,18.5-9.79,18.546l.462.99c.407-.187,9.878-4.8,10.428-19.5C11.429,6.457,1.353.066,1.254,0Z" transform="translate(19.415 0.066)" fill="#fff"/>
            <path id="Trazado_889577" data-name="Trazado 889577" d="M16.588,0C8.327,0,3.014,2.8,0,5.159l.682.869C3.553,3.784,8.646,1.111,16.6,1.111S29.16,3.773,31.888,6.006l.693-.847C29.71,2.816,24.607.011,16.588.011Z" transform="translate(4.059 26.851)" fill="#fff"/>
            <path id="Trazado_889578" data-name="Trazado 889578" d="M31.9.011c-2.871,2.178-7.975,4.774-15.917,4.774S3.421,2.2.682.033L0,.891C2.871,3.168,7.975,5.885,15.983,5.885S29.556,3.168,32.57.88L31.91,0Z" transform="translate(4.103 8.492)" fill="#fff"/>
            <rect id="Rectángulo_404964" data-name="Rectángulo 404964" width="39.203" height="1.1" transform="translate(1.034 19.778)" fill="#fff"/>
          </g>
        </g>
      </g>
    </g>
  </g>
</svg>
