<svg xmlns="http://www.w3.org/2000/svg" xmlns:xlink="http://www.w3.org/1999/xlink" width="117.252" height="117.934" viewBox="0 0 117.252 117.934">
  <defs>
    <filter id="Elipse_9685" x="0" y="0.682" width="117.252" height="117.252" filterUnits="userSpaceOnUse">
      <feOffset dy="3" input="SourceAlpha"/>
      <feGaussianBlur stdDeviation="3" result="blur"/>
      <feFlood flood-opacity="0.161"/>
      <feComposite operator="in" in2="blur"/>
      <feComposite in="SourceGraphic"/>
    </filter>
  </defs>
  <g id="Grupo_1105429" data-name="Grupo 1105429" transform="translate(-321.374 -10071.471)">
    <g id="Grupo_1098796" data-name="Grupo 1098796" transform="translate(-417.307 323.943)">
      <circle id="Elipse_11310" data-name="Elipse 11310" cx="56.307" cy="56.307" r="56.307" transform="translate(741 9747.527)" fill="#fff"/>
      <g id="Grupo_1098210" data-name="Grupo 1098210" transform="translate(747.68 9754.209)">
        <g transform="matrix(1, 0, 0, 1, -9, -6.68)" filter="url(#Elipse_9685)">
          <g id="Elipse_9685-2" data-name="Elipse 9685" transform="translate(9 6.68)" fill="#f2e5fd" stroke="#a854f3" stroke-width="5">
            <circle cx="49.626" cy="49.626" r="49.626" stroke="none"/>
            <circle cx="49.626" cy="49.626" r="47.126" fill="none"/>
          </g>
        </g>
      </g>
      <g id="signo-de-interrogacion_1_" data-name="signo-de-interrogacion (1)" transform="translate(681.139 9770.108)">
        <g id="Grupo_1105435" data-name="Grupo 1105435" transform="translate(95.939 0.988)">
          <g id="Grupo_1105432" data-name="Grupo 1105432" transform="translate(0 0.001)">
            <g id="Grupo_1105431" data-name="Grupo 1105431">
              <path id="Trazado_890109" data-name="Trazado 890109" d="M122.681,56.45a5.555,5.555,0,0,1-5.555-5.555V48.539a12.947,12.947,0,0,1,8.592-12.2,9.121,9.121,0,1,0-12.068-9.881,9.28,9.28,0,0,0-.088,1.279,5.555,5.555,0,1,1-11.11,0,20.23,20.23,0,1,1,26.97,19.076,1.82,1.82,0,0,0-1.185,1.73v2.356a5.555,5.555,0,0,1-5.555,5.555Z" transform="translate(-102.452 -7.504)" fill="#6fd7a3"/>
            </g>
            <path id="Trazado_890110" data-name="Trazado 890110" d="M219.393,430.975a5.555,5.555,0,0,1-5.555-5.555v-.046a5.555,5.555,0,0,1,11.11,0v.046A5.555,5.555,0,0,1,219.393,430.975Z" transform="translate(-199.164 -365.5)" fill="#6fd7a3"/>
          </g>
          <g id="Grupo_1105434" data-name="Grupo 1105434" transform="translate(0)">
            <g id="Grupo_1105433" data-name="Grupo 1105433">
              <path id="Trazado_890111" data-name="Trazado 890111" d="M107.558,24.915a20.253,20.253,0,0,0-.194,2.813,5.551,5.551,0,0,0,3.1,4.983,5.556,5.556,0,0,1-8.01-4.983A20.233,20.233,0,0,1,124.034,7.543q.566.037,1.124.108a20.322,20.322,0,0,0-17.6,17.264Z" transform="translate(-102.453 -7.499)" fill="#3ec3a4"/>
              <path id="Trazado_890112" data-name="Trazado 890112" d="M227.348,109.558a12.951,12.951,0,0,0-8.593,12.206v2.356a5.553,5.553,0,0,0,3.1,4.983,5.556,5.556,0,0,1-8.01-4.983v-2.356a12.947,12.947,0,0,1,8.593-12.206,9.122,9.122,0,0,0-.566-17.38,9.116,9.116,0,0,1,5.474,17.38Z" transform="translate(-199.172 -80.728)" fill="#3ec3a4"/>
            </g>
            <path id="Trazado_890113" data-name="Trazado 890113" d="M221.857,430.394a5.556,5.556,0,0,1-8.01-4.983v-.047a5.556,5.556,0,0,1,8.01-4.983,5.559,5.559,0,0,0-3.1,4.983v.047A5.553,5.553,0,0,0,221.857,430.394Z" transform="translate(-199.172 -365.491)" fill="#3ec3a4"/>
          </g>
        </g>
        <g id="Grupo_1105438" data-name="Grupo 1105438" transform="translate(94.951 0)">
          <g id="Grupo_1105437" data-name="Grupo 1105437" transform="translate(0 0)">
            <g id="Grupo_1105436" data-name="Grupo 1105436">
              <path id="Trazado_890114" data-name="Trazado 890114" d="M116.168,50.924a6.55,6.55,0,0,1-6.542-6.544V42.024a13.94,13.94,0,0,1,9.249-13.137,8.133,8.133,0,1,0-10.759-8.813,8.4,8.4,0,0,0-.079,1.142,6.543,6.543,0,1,1-13.086,0A21.206,21.206,0,0,1,117.584.046,21.044,21.044,0,0,1,128.947,4.3a.988.988,0,0,1-1.193,1.575,19.074,19.074,0,0,0-10.3-3.853,19.23,19.23,0,0,0-20.528,19.2,4.567,4.567,0,1,0,9.134,0,10.391,10.391,0,0,1,.1-1.414A10.109,10.109,0,1,1,119.534,30.75,11.961,11.961,0,0,0,111.6,42.024V44.38a4.567,4.567,0,1,0,9.134,0V42.024a2.811,2.811,0,0,1,1.844-2.662,19.31,19.31,0,0,0,12.778-19.575,19.024,19.024,0,0,0-4.447-10.912A.988.988,0,1,1,132.424,7.6a20.987,20.987,0,0,1,4.9,12.04,21.29,21.29,0,0,1-14.09,21.581.833.833,0,0,0-.527.8V44.38a6.552,6.552,0,0,1-6.544,6.543Z" transform="translate(-94.951 0)"/>
            </g>
            <path id="Trazado_890115" data-name="Trazado 890115" d="M212.884,425.452a6.552,6.552,0,0,1-1.37-.145.988.988,0,0,1,.414-1.932,4.57,4.57,0,0,0,5.524-4.467v-.046a4.567,4.567,0,0,0-9.134,0v.046a4.564,4.564,0,0,0,.575,2.22.988.988,0,1,1-1.725.964,6.542,6.542,0,0,1-.826-3.184v-.046a6.543,6.543,0,0,1,13.086,0v.046A6.551,6.551,0,0,1,212.884,425.452Z" transform="translate(-191.667 -358)"/>
          </g>
        </g>
      </g>
    </g>
  </g>
</svg>
