<svg xmlns="http://www.w3.org/2000/svg" width="78" height="78" viewBox="0 0 78 78">
  <g id="Grupo_1105283" data-name="Grupo 1105283" transform="translate(0 0)">
    <g id="Grupo_1095345" data-name="Grupo 1095345" transform="translate(0 0)">
      <path id="Trazado_875520" data-name="Trazado 875520" d="M39,0A39,39,0,1,1,0,39,39,39,0,0,1,39,0Z" fill="#d6e1fd"/>
    </g>
    <g id="video-conferencia_1_" data-name="video-conferencia (1)" transform="translate(12.172 -48.824)">
      <path id="Trazado_890261" data-name="Trazado 890261" d="M84.929,124.433H39.565V94.19a2.52,2.52,0,0,1,2.52-2.52H82.409a2.52,2.52,0,0,1,2.52,2.52Z" transform="translate(-35.419 -21.067)" fill="#6f6571"/>
      <path id="Trazado_890262" data-name="Trazado 890262" d="M304.867,91.669h-16.8v12.6a5.041,5.041,0,0,0,5.04,5.041h14.281V94.189A2.52,2.52,0,0,0,304.867,91.669Z" transform="translate(-257.876 -21.066)" fill="#5d5360"/>
      <path id="Trazado_890283" data-name="Trazado 890283" d="M0,0H38.643V25.2H0Z" transform="translate(7.507 73.963)" fill="#ff9811"/>
      <path id="Trazado_890263" data-name="Trazado 890263" d="M303.606,123.734H288.065v9.241a5.041,5.041,0,0,0,5.04,5.04h10.921V124.154A.42.42,0,0,0,303.606,123.734Z" transform="translate(-257.876 -49.771)" fill="#d98415"/>
      <g id="Grupo_1105560" data-name="Grupo 1105560" transform="translate(0.786 68.923)">
        <path id="Trazado_890264" data-name="Trazado 890264" d="M58.745,396.283H8.34a.84.84,0,0,0-.84.84v1.68a1.68,1.68,0,0,0,1.68,1.68H57.9a1.68,1.68,0,0,0,1.68-1.68v-1.68A.84.84,0,0,0,58.745,396.283Z" transform="translate(-7.5 -362.68)" fill="#edebed"/>
        <path id="Trazado_890265" data-name="Trazado 890265" d="M279.191,78.157v5.881l-3.606,3.606a.84.84,0,0,0,.594,1.434h3.012v.84a2.52,2.52,0,0,0,2.52,2.52h15.121a2.52,2.52,0,0,0,2.52-2.52V78.157a2.52,2.52,0,0,0-2.52-2.52H281.711A2.52,2.52,0,0,0,279.191,78.157Z" transform="translate(-247.268 -75.637)" fill="#edebed"/>
      </g>
      <path id="Trazado_890266" data-name="Trazado 890266" d="M9.18,422.011H57.9a1.68,1.68,0,0,0,1.68-1.68H7.5A1.68,1.68,0,0,0,9.18,422.011Z" transform="translate(-6.714 -315.285)" fill="#dbd9dc"/>
      <path id="Trazado_890267" data-name="Trazado 890267" d="M120.032,257.039l-3.507-1.364a1.68,1.68,0,0,1-1.071-1.566v-2.118h-5.04v2.118a1.68,1.68,0,0,1-1.071,1.566l-3.507,1.364a3.36,3.36,0,0,0-2.142,3.132v3.582h18.482v-3.582A3.36,3.36,0,0,0,120.032,257.039Z" transform="translate(-92.826 -164.587)" fill="#b67f5f"/>
      <path id="Trazado_890268" data-name="Trazado 890268" d="M120.033,290.908l-2.318-.9-3.725,2.661a1.68,1.68,0,0,1-2.052-.076l-3.318-2.765-2.784,1.082a3.36,3.36,0,0,0-2.142,3.132v3.582h18.482V294.04A3.361,3.361,0,0,0,120.033,290.908Z" transform="translate(-92.827 -198.456)" fill="#c9c6ca"/>
      <path id="Trazado_890269" data-name="Trazado 890269" d="M167.822,247.335a5.805,5.805,0,0,0,5.04,0v-3.36h-5.041v3.36Z" transform="translate(-150.234 -157.41)" fill="#a06e50"/>
      <path id="Trazado_890270" data-name="Trazado 890270" d="M155.99,173.895h0a4.2,4.2,0,0,1-4.2-4.2v-1.68a4.2,4.2,0,0,1,4.2-4.2h0a4.2,4.2,0,0,1,4.2,4.2v1.68A4.2,4.2,0,0,1,155.99,173.895Z" transform="translate(-135.883 -85.65)" fill="#cd916e"/>
      <g id="Grupo_1105561" data-name="Grupo 1105561" transform="translate(10.867 91.083)">
        <path id="Trazado_890271" data-name="Trazado 890271" d="M149.642,287.1l-.009-.005-3.583,3.042-3.583-3.042-.009.005-1.773.689,4.291,3.563a1.68,1.68,0,0,0,2.147,0l4.291-3.563Z" transform="translate(-136.809 -287.092)" fill="#b7b2b8"/>
        <path id="Trazado_890272" data-name="Trazado 890272" d="M107.053,322.566a2.52,2.52,0,0,0-.738-1.782l-2.383-2.383a3.342,3.342,0,0,0-.239,1.22V323.2h3.36Z" transform="translate(-103.693 -315.12)" fill="#b7b2b8"/>
        <path id="Trazado_890273" data-name="Trazado 890273" d="M247.984,322.566a2.52,2.52,0,0,1,.738-1.782l2.383-2.383a3.342,3.342,0,0,1,.239,1.22V323.2h-3.36v-.636Z" transform="translate(-232.863 -315.12)" fill="#b7b2b8"/>
      </g>
      <path id="Trazado_890274" data-name="Trazado 890274" d="M157.093,200.915a3.053,3.053,0,0,1-2.782-3.1,1.934,1.934,0,0,0-1.934-1.934h-.5a4.217,4.217,0,0,0-.085.84v1.68a4.2,4.2,0,1,0,8.4,0v-.42A2.941,2.941,0,0,1,157.093,200.915Z" transform="translate(-135.884 -114.355)" fill="#b67f5f"/>
      <path id="Trazado_890275" data-name="Trazado 890275" d="M52.031,116.093H50.3V103.438a.786.786,0,1,0-1.572,0v12.655H9.187a.786.786,0,0,0,0,1.572h13.5a.786.786,0,0,0,.786.785h6.721a.786.786,0,0,0,.786-.785H52.031a.054.054,0,0,1,.054.054v1.68a.9.9,0,0,1-.894.894H2.466a.9.9,0,0,1-.894-.894v-1.68a.054.054,0,0,1,.054-.054h4.2a.786.786,0,0,0,0-1.572H4.932V87.476a1.736,1.736,0,0,1,1.734-1.734H29.349a.786.786,0,1,0,0-1.572H6.667A3.31,3.31,0,0,0,3.36,87.476v28.617H1.626A1.628,1.628,0,0,0,0,117.719v1.68a2.469,2.469,0,0,0,2.466,2.466H51.191a2.469,2.469,0,0,0,2.466-2.466v-1.68A1.628,1.628,0,0,0,52.031,116.093Z" transform="translate(0 -14.353)"/>
      <path id="Trazado_890276" data-name="Trazado 890276" d="M86.757,117.806a.786.786,0,1,0,0-1.572H64.915a.786.786,0,0,0-.786.786v25.2a.786.786,0,0,0,.786.786h38.644a.786.786,0,0,0,.786-.786V132.142a.786.786,0,0,0-1.572,0v9.295H87.543v-2.8a4.121,4.121,0,0,0-2.644-3.864l-3.507-1.364a.889.889,0,0,1-.57-.833v-1.75A4.975,4.975,0,0,0,82.5,127.1v-1.68a4.986,4.986,0,1,0-9.973,0v1.68a4.974,4.974,0,0,0,1.68,3.728v1.75a.888.888,0,0,1-.57.833l-3.507,1.364a4.12,4.12,0,0,0-2.644,3.864v2.8H65.7v-23.63ZM74.1,125.421a3.414,3.414,0,1,1,6.829,0v1.68a3.414,3.414,0,0,1-6.829,0v-1.68Zm3.414,6.667a4.963,4.963,0,0,0,1.734-.312v.8a2.455,2.455,0,0,0,.573,1.583l-2.308,1.983-2.308-1.983a2.455,2.455,0,0,0,.573-1.583v-.8A4.965,4.965,0,0,0,77.516,132.087Zm-8.455,6.553a2.558,2.558,0,0,1,1.641-2.4l3.107-1.208L77,137.778a.786.786,0,0,0,1.025,0l3.194-2.745,3.107,1.208a2.558,2.558,0,0,1,1.641,2.4v2.8H84.183V139.7a.786.786,0,0,0-1.572,0v1.734H72.422V139.7a.786.786,0,0,0-1.572,0v1.734H69.061v-2.8Z" transform="translate(-57.408 -43.056)"/>
      <path id="Trazado_890277" data-name="Trazado 890277" d="M279.984,68.137H264.863a3.31,3.31,0,0,0-3.306,3.306V77l-4.81,4.81a.786.786,0,0,0,.556,1.342h4.255V83.2a3.31,3.31,0,0,0,3.306,3.306h15.121A3.31,3.31,0,0,0,283.29,83.2V71.443A3.31,3.31,0,0,0,279.984,68.137ZM281.718,83.2a1.736,1.736,0,0,1-1.734,1.734H264.863a1.736,1.736,0,0,1-1.734-1.734v-.84a.786.786,0,0,0-.786-.786H259.2l3.7-3.7a.786.786,0,0,0,.23-.556V71.443a1.736,1.736,0,0,1,1.734-1.734h15.121a1.736,1.736,0,0,1,1.734,1.734V83.2Z" transform="translate(-229.633)"/>
      <path id="Trazado_890278" data-name="Trazado 890278" d="M400.3,108.218h-6.721a.786.786,0,1,0,0,1.572H400.3a.786.786,0,0,0,0-1.572Z" transform="translate(-351.626 -35.881)"/>
      <path id="Trazado_890279" data-name="Trazado 890279" d="M345.479,109.79h1.68a.786.786,0,0,0,0-1.572h-1.68a.786.786,0,1,0,0,1.572Z" transform="translate(-308.57 -35.881)"/>
      <path id="Trazado_890280" data-name="Trazado 890280" d="M357.24,148.3H345.479a.786.786,0,1,0,0,1.572H357.24a.786.786,0,1,0,0-1.572Z" transform="translate(-308.57 -71.76)"/>
      <path id="Trazado_890281" data-name="Trazado 890281" d="M443.35,188.379h-1.68a.786.786,0,1,0,0,1.572h1.68a.786.786,0,0,0,0-1.572Z" transform="translate(-394.68 -107.641)"/>
      <path id="Trazado_890282" data-name="Trazado 890282" d="M352.2,188.379h-6.721a.786.786,0,0,0,0,1.572H352.2a.786.786,0,1,0,0-1.572Z" transform="translate(-308.57 -107.641)"/>
    </g>
  </g>
</svg>
