<svg xmlns="http://www.w3.org/2000/svg" xmlns:xlink="http://www.w3.org/1999/xlink" width="1292" height="493" viewBox="0 0 1292 493">
  <defs>
    <filter id="Rectángulo_404544" x="0" y="0" width="1292" height="493" filterUnits="userSpaceOnUse">
      <feOffset dy="3" input="SourceAlpha"/>
      <feGaussianBlur stdDeviation="3" result="blur"/>
      <feFlood flood-opacity="0.161"/>
      <feComposite operator="in" in2="blur"/>
      <feComposite in="SourceGraphic"/>
    </filter>
  </defs>
  <g id="Grupo_1105599" data-name="Grupo 1105599" transform="translate(-154.5 -2965.5)">
    <g id="Grupo_1105368" data-name="Grupo 1105368" transform="translate(-16.5 92.232)">
      <g transform="matrix(1, 0, 0, 1, 171, 2873.27)" filter="url(#Rectángulo_404544)">
        <rect id="Rectángulo_404544-2" data-name="Rectángulo 404544" width="1274" height="475" rx="20" transform="translate(9 6)" fill="#fff"/>
      </g>
      <path id="Rectángulo_404993" data-name="Rectángulo 404993" d="M10,0H1265a10,10,0,0,1,10,10v0a10,10,0,0,1-10,10H0a0,0,0,0,1,0,0V10A10,10,0,0,1,10,0Z" transform="translate(179 2879.268)" fill="#dee3e7"/>
      <path id="Rectángulo_404537" data-name="Rectángulo 404537" d="M0,0H1238a0,0,0,0,1,0,0V215a20,20,0,0,1-20,20H20A20,20,0,0,1,0,215V0A0,0,0,0,1,0,0Z" transform="translate(196 3063.268)" fill="#f2f3f2"/>
      <rect id="Rectángulo_404538" data-name="Rectángulo 404538" width="1238" height="87" transform="translate(196 2976.268)" fill="#fff" opacity="0.29"/>
      <g id="Rectángulo_404539" data-name="Rectángulo 404539" transform="translate(457 2990.268)" fill="none" stroke="#75d0e1" stroke-width="2">
        <rect width="774" height="52" rx="15" stroke="none"/>
        <rect x="1" y="1" width="772" height="50" rx="14" fill="none"/>
      </g>
      <g id="Grupo_1104150" data-name="Grupo 1104150" transform="translate(6697.91 11012.268)">
        <path id="home_1946488" d="M29.7,13.053l0,0L17.458.809a2.763,2.763,0,0,0-3.907,0L1.315,13.044l-.012.013a2.762,2.762,0,0,0,1.838,4.707c.028,0,.057,0,.085,0h.488v9.009a3.237,3.237,0,0,0,3.234,3.234h4.79a.879.879,0,0,0,.879-.879V22.068a1.477,1.477,0,0,1,1.475-1.475h2.825a1.477,1.477,0,0,1,1.475,1.475v7.063a.879.879,0,0,0,.879.879h4.79a3.237,3.237,0,0,0,3.234-3.234V17.768h.452A2.763,2.763,0,0,0,29.7,13.053Zm-1.245,2.662a1,1,0,0,1-.71.294H26.415a.879.879,0,0,0-.879.879v9.888a1.477,1.477,0,0,1-1.475,1.475H20.15V22.068a3.237,3.237,0,0,0-3.234-3.234H14.092a3.238,3.238,0,0,0-3.234,3.234v6.184H6.947a1.477,1.477,0,0,1-1.475-1.475V16.889a.879.879,0,0,0-.879-.879H3.284l-.041,0a1,1,0,0,1-.692-1.713h0L14.794,2.052a1,1,0,0,1,1.42,0L28.453,14.291l.006.005a1.007,1.007,0,0,1,0,1.419Zm0,0" transform="translate(-6297.463 -8012.566)" fill="#acb0b4"/>
        <g id="miu" transform="matrix(0.719, -0.695, 0.695, 0.719, -6358.915, -7997.137)">
          <g id="editor_redo_arrow_reload_outline_stroke-2" transform="translate(-0.357)">
            <path id="Trazado_888182" data-name="Trazado 888182" d="M2.86,14.291A13.094,13.094,0,1,0,16.318,0V1.191A11.9,11.9,0,1,1,4.078,14.5l1.813,1.813.842-.842L3.367,12.1,0,15.467l.842.842Z" transform="translate(29.416 26.18) rotate(180)" fill="#acb0b4"/>
            <path id="Trazado_888183" data-name="Trazado 888183" d="M2.5,11.889A13.094,13.094,0,1,1,15.962,26.18V24.989a11.9,11.9,0,1,0-12.24-13.3L5.535,9.871l.842.842L3.01,14.079-.357,10.713l.842-.842Z" transform="translate(0.357)" fill="none"/>
          </g>
        </g>
        <g id="Grupo_1104148" data-name="Grupo 1104148" transform="translate(-6664 -11471)">
          <path id="Trazado_888186" data-name="Trazado 888186" d="M-4792.085-8238.021c.661.661,13.863,11.789,13.863,11.789l-13.863,11.882" transform="translate(5057 11700)" fill="none" stroke="#acb0b4" stroke-width="2"/>
          <path id="Trazado_888187" data-name="Trazado 888187" d="M-4778.222-8226.186h-26.688" transform="translate(5057 11700)" fill="#acb0b4" stroke="#acb0b4" stroke-width="2"/>
        </g>
        <g id="Grupo_1104149" data-name="Grupo 1104149" transform="translate(-6470.91 -8009.021)">
          <path id="Trazado_888186-2" data-name="Trazado 888186" d="M-4778.222-8238.021c-.661.661-13.863,11.789-13.863,11.789l13.863,11.882" transform="translate(4792.085 8238.021)" fill="none" stroke="#acb0b4" stroke-width="2"/>
          <path id="Trazado_888187-2" data-name="Trazado 888187" d="M-4804.91-8226.186h26.688" transform="translate(4804.91 8238.021)" fill="none" stroke="#acb0b4" stroke-width="2"/>
        </g>
      </g>
      <g id="Grupo_1104152" data-name="Grupo 1104152" transform="translate(17 -456.732)">
        <g id="Grupo_1104151" data-name="Grupo 1104151">
          <circle id="Elipse_11825" data-name="Elipse 11825" cx="3" cy="3" r="3" transform="translate(1356 3463)" fill="#acb0b4"/>
          <path id="Trazado_888191" data-name="Trazado 888191" d="M3,0A3,3,0,1,1,0,3,3,3,0,0,1,3,0Z" transform="translate(1356 3482)" fill="#acb0b4"/>
          <path id="Trazado_888190" data-name="Trazado 888190" d="M3,0A3,3,0,1,1,0,3,3,3,0,0,1,3,0Z" transform="translate(1356 3472)" fill="#acb0b4"/>
        </g>
        <path id="star_1828970" d="M6.076,26.507a1.445,1.445,0,0,1-1.406-1.765l1.746-7.693L.494,11.856a1.444,1.444,0,0,1,.818-2.525l7.836-.711,3.1-7.25a1.443,1.443,0,0,1,2.654,0L18,8.619l7.835.711a1.444,1.444,0,0,1,.82,2.525l-5.923,5.193,1.746,7.693A1.442,1.442,0,0,1,20.331,26.3l-6.757-4.038L6.816,26.3a1.446,1.446,0,0,1-.74.2Zm7.5-5.985a1.446,1.446,0,0,1,.74.2l6.377,3.814L19.042,17.28a1.443,1.443,0,0,1,.457-1.406l5.592-4.9-7.4-.672a1.441,1.441,0,0,1-1.2-.874l-2.92-6.842L10.649,9.425a1.437,1.437,0,0,1-1.2.871l-7.4.672,5.592,4.9A1.44,1.44,0,0,1,8.1,17.279L6.456,24.54l6.377-3.813a1.446,1.446,0,0,1,.74-.2ZM9.089,8.76a0,0,0,0,1,0,0Zm8.967,0v0S18.057,8.757,18.056,8.756Zm0,0" transform="translate(1234 3460.172)" fill="#acb0b4"/>
      </g>
      <path id="Rectángulo_404541" data-name="Rectángulo 404541" d="M0,0H339a20,20,0,0,1,20,20V67a0,0,0,0,1,0,0H19A19,19,0,0,1,0,48V0A0,0,0,0,1,0,0Z" transform="translate(1095 2879.268)" fill="#dee3e7"/>
      <g id="Grupo_1104143" data-name="Grupo 1104143" transform="translate(52.19 -469.25)">
        <g id="Grupo_1104142" data-name="Grupo 1104142" transform="translate(1338.854 3369)">
          <g id="Grupo_1104141" data-name="Grupo 1104141" transform="translate(0 0)">
            <path id="Trazado_888177" data-name="Trazado 888177" d="M153.039,116.364h-2.221l-6.081,8.446-5.954-8.446h-2.348l7.086,9.831-7.491,10.439h2.23l6.478-8.944,6.317,8.944h2.4l-7.559-10.388Z" transform="translate(-136.029 -116.364)" fill="#acb0b4"/>
          </g>
        </g>
        <g id="Trazado_888179" data-name="Trazado 888179" transform="translate(1285.625 3369)" fill="none">
          <path d="M0,0H20.19V20.19H0Z" stroke="none"/>
          <path d="M 2 2 L 2 18.19045829772949 L 18.19045829772949 18.19045829772949 L 18.19045829772949 2 L 2 2 M 0 0 L 20.19045829772949 0 L 20.19045829772949 20.19045829772949 L 0 20.19045829772949 L 0 0 Z" stroke="none" fill="#acb0b4"/>
        </g>
        <path id="Trazado_888178" data-name="Trazado 888178" d="M-3820.191-8318.2h17.89" transform="translate(5057 11698.947)" fill="none" stroke="#acb0b4" stroke-width="3"/>
      </g>
      <g id="Grupo_1104144" data-name="Grupo 1104144" transform="translate(-281.278 -456)">
        <g id="Grupo_1104142-2" data-name="Grupo 1104142" transform="translate(1338.854 3369)">
          <g id="Grupo_1104141-2" data-name="Grupo 1104141" transform="translate(0 0)">
            <path id="Trazado_888177-2" data-name="Trazado 888177" d="M153.039,116.364h-2.221l-6.081,8.446-5.954-8.446h-2.348l7.086,9.831-7.491,10.439h2.23l6.478-8.944,6.317,8.944h2.4l-7.559-10.388Z" transform="translate(-136.029 -116.364)" fill="#acb0b4"/>
          </g>
        </g>
      </g>
      <g id="Grupo_1104145" data-name="Grupo 1104145" transform="translate(36 -477.667)">
        <path id="Trazado_888180" data-name="Trazado 888180" d="M-3953.873-8310.333v20.965" transform="translate(5057 11700)" fill="none" stroke="#acb0b4" stroke-width="2"/>
        <path id="Trazado_888181" data-name="Trazado 888181" d="M-3965.4-8299.851c1.349-.062,22.681,0,22.681,0" transform="translate(5057 11700)" fill="none" stroke="#acb0b4" stroke-width="2"/>
      </g>
      <path id="Rectángulo_404540" data-name="Rectángulo 404540" d="M0,0H458a0,0,0,0,1,0,0V52a10,10,0,0,1-10,10H0a0,0,0,0,1,0,0V0A0,0,0,0,1,0,0Z" transform="translate(179 2899)" fill="#f2f3f2"/>
      <path id="Trazado_890297" data-name="Trazado 890297" d="M17.854,20.691a11.37,11.37,0,1,1,2-1.779l8.481,8.481a.2.2,0,0,1,.005.277l-1.619,1.619a.2.2,0,0,1-.277-.005Zm-6.491.7A10.026,10.026,0,1,0,1.337,11.363,10.026,10.026,0,0,0,11.363,21.389ZM6.684,10.695v1.337h9.358V10.695H6.684Z" transform="translate(1190 3002.268)" fill="#acb0b4"/>
    </g>
    <g id="Grupo_1105377" data-name="Grupo 1105377" transform="translate(326.793 3058.969)">
      <circle id="Elipse_11831" data-name="Elipse 11831" cx="14.353" cy="14.353" r="14.353" transform="translate(0 0)" fill="#579ae4" opacity="0.4"/>
      <circle id="Elipse_11879" data-name="Elipse 11879" cx="11.164" cy="11.164" r="11.164" transform="translate(3.19 3.19)" fill="#579ae4"/>
    </g>
    <g id="Grupo_1105378" data-name="Grupo 1105378" transform="translate(205.23 3125.761)">
      <circle id="Elipse_11830" data-name="Elipse 11830" cx="14.353" cy="14.353" r="14.353" transform="translate(0 0)" fill="#5ea699" opacity="0.4"/>
      <circle id="Elipse_11881" data-name="Elipse 11881" cx="11.164" cy="11.164" r="11.164" transform="translate(3.19 3.19)" fill="#5ea699"/>
    </g>
    <g id="Grupo_1105379" data-name="Grupo 1105379" transform="translate(386.167 3128.761)">
      <circle id="Elipse_11832" data-name="Elipse 11832" cx="14.353" cy="14.353" r="14.353" transform="translate(0 0)" fill="#75d0e1" opacity="0.4"/>
      <circle id="Elipse_11880" data-name="Elipse 11880" cx="11.164" cy="11.164" r="11.164" transform="translate(3.19 3.19)" fill="#5abbcd"/>
    </g>
    <g id="Grupo_1105380" data-name="Grupo 1105380" transform="translate(461.567 3093.055)">
      <circle id="Elipse_11829" data-name="Elipse 11829" cx="14.353" cy="14.353" r="14.353" transform="translate(0 0)" fill="#e9a626" opacity="0.4"/>
      <circle id="Elipse_11882" data-name="Elipse 11882" cx="11.164" cy="11.164" r="11.164" transform="translate(3.19 3.19)" fill="#e29e1c"/>
    </g>
    <g id="Grupo_1105381" data-name="Grupo 1105381" transform="translate(999.959 2999.291)">
      <circle id="Elipse_11828" data-name="Elipse 11828" cx="14.353" cy="14.353" r="14.353" transform="translate(0 0)" fill="#f0ca2f" opacity="0.4"/>
      <circle id="Elipse_11883" data-name="Elipse 11883" cx="11.164" cy="11.164" r="11.164" transform="translate(3.19 3.19)" fill="#f0ca2f"/>
    </g>
    <g id="Grupo_1105382" data-name="Grupo 1105382" transform="translate(1234.754 3130.735)">
      <circle id="Elipse_11827" data-name="Elipse 11827" cx="14.353" cy="14.353" r="14.353" transform="translate(0 0)" fill="#75d0e1" opacity="0.4"/>
      <circle id="Elipse_11884" data-name="Elipse 11884" cx="11.164" cy="11.164" r="11.164" transform="translate(3.19 3.19)" fill="#75d0e1"/>
    </g>
    <g id="Grupo_1105383" data-name="Grupo 1105383" transform="translate(1346.063 3130.735)">
      <circle id="Elipse_11826" data-name="Elipse 11826" cx="14.353" cy="14.353" r="14.353" transform="translate(0 0)" fill="#3965bf" opacity="0.4"/>
      <circle id="Elipse_11885" data-name="Elipse 11885" cx="11.164" cy="11.164" r="11.164" transform="translate(3.19 3.19)" fill="#3965bf"/>
    </g>
    <g id="Grupo_1105315" data-name="Grupo 1105315" transform="translate(-1 97.908)">
      <rect id="Rectángulo_404545" data-name="Rectángulo 404545" width="139.5" height="67.496" rx="8" transform="translate(181 3081)" fill="#d6e1fd"/>
      <text id="Retroceder_Avanzar_página" data-name="Retroceder/ Avanzar página" transform="translate(187 3094)" fill="#12263f" font-size="16" font-family="Roboto-Regular, Roboto"><tspan x="-42.148" y="15">Retroceder/ </tspan><tspan x="-54.645" y="35">Avanzar página</tspan></text>
    </g>
    <g id="Grupo_1105314" data-name="Grupo 1105314" transform="translate(-67.23 98.16)">
      <rect id="Rectángulo_404546" data-name="Rectángulo 404546" width="139.5" height="67.496" rx="8" transform="translate(398 3071)" fill="#d6e1fd"/>
      <text id="Home_o_página_principal" data-name="Home o página principal" transform="translate(403 3084)" fill="#12263f" font-size="16" font-family="Roboto-Italic, Roboto" font-style="italic"><tspan x="-53.563" y="17">Home </tspan><tspan y="17" font-family="Roboto-Regular, Roboto" font-style="normal">o página </tspan><tspan x="-30.461" y="37" font-family="Roboto-Regular, Roboto" font-style="normal">principal</tspan></text>
    </g>
    <g id="Grupo_1105316" data-name="Grupo 1105316" transform="translate(-19 97.659)">
      <rect id="Rectángulo_404547" data-name="Rectángulo 404547" width="139.5" height="67.496" rx="8" transform="translate(530 2976)" fill="#d6e1fd"/>
      <text id="Barra_de_búsqueda" data-name="Barra de búsqueda" transform="translate(535 2987)" fill="#12263f" font-size="16" font-family="Roboto-Regular, Roboto"><tspan x="-29.672" y="15">Barra de </tspan><tspan x="-35.082" y="39">búsqueda</tspan></text>
    </g>
    <g id="Grupo_1105310" data-name="Grupo 1105310" transform="translate(-4.626 53.779)">
      <rect id="Rectángulo_404548" data-name="Rectángulo 404548" width="139.5" height="46.496" rx="8" transform="translate(280 2943)" fill="#d6e1fd"/>
      <text id="Actualiza_página" data-name="Actualiza página" transform="translate(285 2956)" fill="#12263f" font-size="16" font-family="Roboto-Regular, Roboto"><tspan x="-58.996" y="15">Actualiza página</tspan></text>
    </g>
    <g id="Grupo_1105313" data-name="Grupo 1105313" transform="translate(22.732 83.16)">
      <rect id="Rectángulo_404549" data-name="Rectángulo 404549" width="116.75" height="37.496" rx="8" transform="translate(1168 3084)" fill="#d6e1fd"/>
      <text id="Marcadores" transform="translate(1178 3092)" fill="#12263f" font-size="16" font-family="Roboto-Regular, Roboto"><tspan x="-42.578" y="15">Marcadores</tspan></text>
    </g>
    <g id="Grupo_1105318" data-name="Grupo 1105318" transform="translate(0 125)">
      <rect id="Rectángulo_404550" data-name="Rectángulo 404550" width="120.5" height="67.496" rx="8" transform="translate(1308 3084)" fill="#d6e1fd"/>
      <text id="Gestor_de_descargas" data-name="Gestor de descargas" transform="translate(1324 3097)" fill="#12263f" font-size="16" font-family="Roboto-Regular, Roboto"><tspan x="-34.348" y="15">Gestor de </tspan><tspan x="-37.012" y="35">descargas</tspan></text>
    </g>
    <g id="Grupo_1105317" data-name="Grupo 1105317" transform="translate(-26 64.896)">
      <rect id="Rectángulo_404551" data-name="Rectángulo 404551" width="139.5" height="67.496" rx="8" transform="translate(875 2915)" fill="#d6e1fd"/>
      <text id="Navegación_por_pestañas" data-name="Navegación por pestañas" transform="translate(880 2928)" fill="#12263f" font-size="16" font-family="Roboto-Regular, Roboto"><tspan x="-55.742" y="15">Navegación por </tspan><tspan x="-32.707" y="35">pestañas</tspan></text>
    </g>
  </g>
</svg>
