<svg xmlns="http://www.w3.org/2000/svg" xmlns:xlink="http://www.w3.org/1999/xlink" width="117.252" height="117.934" viewBox="0 0 117.252 117.934">
  <defs>
    <filter id="Elipse_9685" x="0" y="0.682" width="117.252" height="117.252" filterUnits="userSpaceOnUse">
      <feOffset dy="3" input="SourceAlpha"/>
      <feGaussianBlur stdDeviation="3" result="blur"/>
      <feFlood flood-opacity="0.161"/>
      <feComposite operator="in" in2="blur"/>
      <feComposite in="SourceGraphic"/>
    </filter>
  </defs>
  <g id="Grupo_1105430" data-name="Grupo 1105430" transform="translate(-321.374 -10071.471)">
    <g id="Grupo_1098796" data-name="Grupo 1098796" transform="translate(-417.307 323.943)">
      <circle id="Elipse_11310" data-name="Elipse 11310" cx="56.307" cy="56.307" r="56.307" transform="translate(741 9747.527)" fill="#fff"/>
      <g id="Grupo_1098210" data-name="Grupo 1098210" transform="translate(747.68 9754.209)">
        <g transform="matrix(1, 0, 0, 1, -9, -6.68)" filter="url(#Elipse_9685)">
          <g id="Elipse_9685-2" data-name="Elipse 9685" transform="translate(9 6.68)" fill="#f2e5fd" stroke="#a854f3" stroke-width="5">
            <circle cx="49.626" cy="49.626" r="49.626" stroke="none"/>
            <circle cx="49.626" cy="49.626" r="47.126" fill="none"/>
          </g>
        </g>
      </g>
      <g id="simbolo-de-dolar" transform="translate(750.531 9765.44)">
        <path id="Trazado_890116" data-name="Trazado 890116" d="M51.3,66.831v5.026H44.155V66.6a32.191,32.191,0,0,1-18.3-8.4l5.654-6.99a26.871,26.871,0,0,0,12.644,6.755V42.643c-9.66-2.513-16.178-5.967-16.178-15.235,0-8.481,6.518-15,16.178-16.178V6.44H51.3v4.869a29.213,29.213,0,0,1,16.492,7.3l-5.342,7.225A25.667,25.667,0,0,0,51.3,19.948V34.712c10.759,2.434,17.905,6.125,17.905,15.706C69.207,59.449,62.688,66.046,51.3,66.831Zm-7.147-34V19.791c-3.848.942-6.283,3.691-6.283,6.754C37.872,29.686,39.914,31.335,44.155,32.827ZM59.39,51.36c0-3.612-2.513-5.261-8.089-6.911V58.428c5.34-.628,8.089-3.612,8.089-7.068Z" transform="translate(-0.756 -0.756)" fill="#72bd39"/>
        <g id="Grupo_1105439" data-name="Grupo 1105439" transform="translate(24.106 4.689)">
          <path id="Trazado_890117" data-name="Trazado 890117" d="M44.036,13.782a20.527,20.527,0,0,1,7.444-2.321.994.994,0,0,0,.874-.987v-3.8h5.158v3.875a.994.994,0,0,0,.889.989,28.149,28.149,0,0,1,15.241,6.475l-4.157,5.626A26.026,26.026,0,0,0,58.719,18.22a.994.994,0,0,0-1.208.971V33.954a1,1,0,0,0,.775.972,52.371,52.371,0,0,1,7.277,2.122.981.981,0,0,0,.359.067.994.994,0,0,0,.359-1.922,51.866,51.866,0,0,0-6.78-2.029v-12.7a25.3,25.3,0,0,1,9.507,5.365.994.994,0,0,0,1.45-.161L75.8,18.448a.994.994,0,0,0-.151-1.344A30.307,30.307,0,0,0,59.5,9.671V5.683a.994.994,0,0,0-.994-.994H51.359a.994.994,0,0,0-.994.994V9.608a22.185,22.185,0,0,0-7.286,2.431.994.994,0,1,0,.958,1.742Z" transform="translate(-32.066 -4.689)" fill="#26180d"/>
          <path id="Trazado_890118" data-name="Trazado 890118" d="M70.16,71.619a.994.994,0,0,0-1.276.954V86.551a.994.994,0,0,0,.994.994,1.025,1.025,0,0,0,.116-.007c5.447-.642,8.966-3.8,8.966-8.056C78.961,75.083,75.734,73.268,70.16,71.619Zm.713,13.769V73.92c4.584,1.5,6.1,2.933,6.1,5.561,0,2.951-2.308,5.151-6.1,5.908Z" transform="translate(-43.439 -33.568)" fill="#26180d"/>
          <path id="Trazado_890119" data-name="Trazado 890119" d="M89.549,61.244a.994.994,0,1,0-.983,1.729c.5.284.97.58,1.407.888a.995.995,0,0,0,1.143-1.628c-.489-.344-1.017-.676-1.568-.989Z" transform="translate(-51.72 -29.05)" fill="#26180d"/>
          <path id="Trazado_890120" data-name="Trazado 890120" d="M66.447,67.524a.994.994,0,1,0-1.534,1.264,11.817,11.817,0,0,1,2.544,7.837c0,8.79-6.506,14.7-16.979,15.421a.994.994,0,0,0-.926.992v4.035H44.393V92.8a.994.994,0,0,0-.876-.987A31.1,31.1,0,0,1,26.47,84.29l4.405-5.445a27.674,27.674,0,0,0,12.317,6.292.994.994,0,0,0,1.2-.972v-5.6a.994.994,0,0,0-1.989,0V82.9a26.045,26.045,0,0,1-10.978-6.226.994.994,0,0,0-1.444.108l-5.654,6.99a.994.994,0,0,0,.1,1.357A33.019,33.019,0,0,0,42.4,93.675v4.39a.994.994,0,0,0,.994.994h7.147a.994.994,0,0,0,.994-.994V93.954c11.071-1.084,17.905-7.66,17.905-17.328A13.72,13.72,0,0,0,66.447,67.524Z" transform="translate(-24.106 -31.652)" fill="#26180d"/>
          <path id="Trazado_890121" data-name="Trazado 890121" d="M44.015,50.146V54.6A.994.994,0,1,0,46,54.6v-5.22a.994.994,0,0,0-.744-.962c-9.528-2.479-15.433-5.732-15.433-14.273a14.02,14.02,0,0,1,4.445-10.388A.994.994,0,1,0,32.9,22.315a16.178,16.178,0,0,0-5.063,11.829c0,9.549,6.435,13.366,16.178,16Z" transform="translate(-25.717 -12.18)" fill="#26180d"/>
          <path id="Trazado_890122" data-name="Trazado 890122" d="M52.292,28.212c-4.211,1.031-7.041,4.133-7.041,7.72,0,4.2,3.339,5.951,6.947,7.22a.995.995,0,0,0,1.325-.938V29.178a.994.994,0,0,0-1.231-.966Zm-.758,12.563c-3.142-1.293-4.294-2.641-4.294-4.842,0-2.308,1.681-4.369,4.294-5.4Z" transform="translate(-33.236 -14.833)" fill="#26180d"/>
        </g>
      </g>
    </g>
  </g>
</svg>
