<svg xmlns="http://www.w3.org/2000/svg" xmlns:xlink="http://www.w3.org/1999/xlink" width="400" height="297" viewBox="0 0 400 297">
  <defs>
    <clipPath id="clip-path">
      <rect id="person-front-computer-working-html_1_" data-name="person-front-computer-working-html (1)" width="400" height="297" rx="15" transform="translate(600 2605)" fill="#3a1d71" opacity="0.84"/>
    </clipPath>
    <filter id="Elipse_11700" x="325.012" y="3.822" width="76" height="76" filterUnits="userSpaceOnUse">
      <feOffset dy="1" input="SourceAlpha"/>
      <feGaussianBlur stdDeviation="5.5" result="blur"/>
      <feFlood flood-color="#fff" flood-opacity="0.902"/>
      <feComposite operator="in" in2="blur"/>
      <feComposite in="SourceGraphic"/>
    </filter>
    <filter id="Trazado_884145" x="-3.821" y="184.822" width="76" height="76" filterUnits="userSpaceOnUse">
      <feOffset dy="1" input="SourceAlpha"/>
      <feGaussianBlur stdDeviation="5.5" result="blur-2"/>
      <feFlood flood-color="#fff" flood-opacity="0.902"/>
      <feComposite operator="in" in2="blur-2"/>
      <feComposite in="SourceGraphic"/>
    </filter>
    <linearGradient id="linear-gradient" x1="0.35" y1="0.433" x2="0.935" y2="0.848" gradientUnits="objectBoundingBox">
      <stop offset="0" stop-color="#f0c518"/>
      <stop offset="0.371" stop-color="#d1ae1f"/>
      <stop offset="1" stop-color="#78630c"/>
    </linearGradient>
    <clipPath id="clip-path-2">
      <rect id="Rectángulo_403681" data-name="Rectángulo 403681" width="51" height="111" transform="translate(614 2605)" fill="#fff" stroke="#707070" stroke-width="1"/>
    </clipPath>
    <filter id="Trazado_884406" x="-68.697" y="17.855" width="128.488" height="128.488" filterUnits="userSpaceOnUse">
      <feOffset dy="1" input="SourceAlpha"/>
      <feGaussianBlur stdDeviation="5.5" result="blur-3"/>
      <feFlood flood-color="#fff" flood-opacity="0.902"/>
      <feComposite operator="in" in2="blur-3"/>
      <feComposite in="SourceGraphic"/>
    </filter>
    <clipPath id="clip-path-3">
      <rect id="Rectángulo_403685" data-name="Rectángulo 403685" width="346.055" height="273.019" fill="none"/>
    </clipPath>
    <clipPath id="clip-path-4">
      <rect id="Rectángulo_403684" data-name="Rectángulo 403684" width="346.055" height="267.019" fill="none"/>
    </clipPath>
    <clipPath id="clip-path-5">
      <rect id="Rectángulo_403682" data-name="Rectángulo 403682" width="159.352" height="143.831" transform="translate(38.377 52.264)" fill="none"/>
    </clipPath>
  </defs>
  <g id="Grupo_1102839" data-name="Grupo 1102839" transform="translate(-600 -427)">
    <g id="Enmascarar_grupo_1098740" data-name="Enmascarar grupo 1098740" transform="translate(0 -2178)" clip-path="url(#clip-path)">
      <g id="Grupo_1102804" data-name="Grupo 1102804">
        <g id="Grupo_1102288" data-name="Grupo 1102288" transform="translate(407.112 -4017.178)">
          <g id="Grupo_1102287" data-name="Grupo 1102287" transform="translate(200.989 6622.178)">
            <g id="Grupo_1102286" data-name="Grupo 1102286" transform="translate(0 0)">
              <rect id="Rectángulo_403424" data-name="Rectángulo 403424" width="371.899" height="277.864" rx="15" transform="translate(19 19)" fill="#8722e2"/>
              <rect id="person-front-computer-working-html_1_2" data-name="person-front-computer-working-html (1)" width="371.899" height="277.864" rx="15" fill="#3a1d71"/>
            </g>
          </g>
          <g transform="matrix(1, 0, 0, 1, 192.89, 6622.18)" filter="url(#Elipse_11700)">
            <g id="Elipse_11700-2" data-name="Elipse 11700" transform="translate(341.51 19.32)" fill="none" stroke="#a854f3" stroke-width="6">
              <circle cx="21.5" cy="21.5" r="21.5" stroke="none"/>
              <circle cx="21.5" cy="21.5" r="18.5" fill="none"/>
            </g>
          </g>
          <g transform="matrix(1, 0, 0, 1, 192.89, 6622.18)" filter="url(#Trazado_884145)">
            <g id="Trazado_884145-2" data-name="Trazado 884145" transform="translate(12.68 200.32)" fill="none">
              <path d="M21.5,0A21.5,21.5,0,1,1,0,21.5,21.5,21.5,0,0,1,21.5,0Z" stroke="none"/>
              <path d="M 21.5 5 C 17.09268951416016 5 12.94918060302734 6.716300964355469 9.832740783691406 9.832740783691406 C 6.716300964355469 12.94918060302734 5 17.09268951416016 5 21.5 C 5 25.90731048583984 6.716300964355469 30.05081939697266 9.832740783691406 33.16725921630859 C 12.94918060302734 36.28369903564453 17.09268951416016 38 21.5 38 C 25.90731048583984 38 30.05081939697266 36.28369903564453 33.16725921630859 33.16725921630859 C 36.28369903564453 30.05081939697266 38 25.90731048583984 38 21.5 C 38 17.09268951416016 36.28369903564453 12.94918060302734 33.16725921630859 9.832740783691406 C 30.05081939697266 6.716300964355469 25.90731048583984 5 21.5 5 M 21.5 0 C 33.37411880493164 0 43 9.625881195068359 43 21.5 C 43 33.37411880493164 33.37411880493164 43 21.5 43 C 9.625881195068359 43 0 33.37411880493164 0 21.5 C 0 9.625881195068359 9.625881195068359 0 21.5 0 Z" stroke="none" fill="#fff"/>
            </g>
          </g>
          <line id="Línea_671" data-name="Línea 671" x1="45" y2="31" transform="translate(521.388 6653.678)" fill="none" stroke="#00ffdf" stroke-linecap="round" stroke-linejoin="round" stroke-width="3"/>
          <circle id="Elipse_11701" data-name="Elipse 11701" cx="16" cy="16" r="16" transform="translate(555.899 6631)" fill="url(#linear-gradient)"/>
        </g>
        <g id="Enmascarar_grupo_1098739" data-name="Enmascarar grupo 1098739" transform="translate(-14 26)" clip-path="url(#clip-path-2)">
          <g transform="matrix(1, 0, 0, 1, 614, 2579)" filter="url(#Trazado_884406)">
            <g id="Trazado_884406-2" data-name="Trazado 884406" transform="translate(-52.2 33.36)" fill="none">
              <path d="M47.744,0A47.744,47.744,0,1,1,0,47.744,47.744,47.744,0,0,1,47.744,0Z" stroke="none"/>
              <path d="M 47.74413681030273 16 C 30.2403564453125 16 16 30.2403564453125 16 47.74413681030273 C 16 65.24791717529297 30.2403564453125 79.48827362060547 47.74413681030273 79.48827362060547 C 65.24791717529297 79.48827362060547 79.48827362060547 65.24791717529297 79.48827362060547 47.74413681030273 C 79.48827362060547 30.2403564453125 65.24791717529297 16 47.74413681030273 16 M 47.74413681030273 0 C 74.11249542236328 0 95.48827362060547 21.37577819824219 95.48827362060547 47.74413681030273 C 95.48827362060547 74.11249542236328 74.11249542236328 95.48827362060547 47.74413681030273 95.48827362060547 C 21.37577819824219 95.48827362060547 0 74.11249542236328 0 47.74413681030273 C 0 21.37577819824219 21.37577819824219 0 47.74413681030273 0 Z" stroke="none" fill="#f0c518"/>
            </g>
          </g>
        </g>
        <g id="Grupo_1102805" data-name="Grupo 1102805" transform="translate(647.546 2631)">
          <g id="Grupo_1102810" data-name="Grupo 1102810" transform="translate(0 -7)" clip-path="url(#clip-path-3)">
            <g id="Grupo_1102809" data-name="Grupo 1102809">
              <g id="Grupo_1102808" data-name="Grupo 1102808" transform="translate(0 6)" clip-path="url(#clip-path-4)">
                <path id="Trazado_884408" data-name="Trazado 884408" d="M42.33,252.259l166.591.717c40.491-31.795,44.672-83.9,15.786-112.455-17.483-17.271-39.683-13.786-60.822-16.534-.021,0-.041-.01-.061-.01-7.363-.959-14.585-2.676-21.443-6.292C120.616,106.2,108.344,79.113,90.033,56.327q-3.424-4.287-7.171-8.312c-15.059-16.08-45.031-16.6-60.708,6C-17.68,111.456.567,201.948,42.33,252.259" fill="#efbd2e"/>
                <g id="Grupo_1102807" data-name="Grupo 1102807" opacity="0.1">
                  <g id="Grupo_1102806" data-name="Grupo 1102806">
                    <g id="Grupo_1102805-2" data-name="Grupo 1102805" clip-path="url(#clip-path-5)">
                      <path id="Trazado_884409" data-name="Trazado 884409" d="M38.634,115.836c4.363,68.347,83.3,93.86,132.594,73.387,42.865-17.806,28.836-58.439-7.343-65.236-.02,0-.04-.01-.06-.01-7.363-.96-14.585-2.677-21.443-6.293C120.616,106.2,108.345,79.112,90.033,56.326c-27.28-14.17-54.6,9.464-51.4,59.51"/>
                    </g>
                  </g>
                </g>
                <path id="Trazado_884410" data-name="Trazado 884410" d="M195.463,258.022c-2.571-.942-60.626-47.34-61.722-50.509-.422-1.2,5.842-10.049,13.715-20.527,1.7-2.263,3.469-4.589,5.279-6.941,11.733-15.287,24.538-31.233,24.538-31.233L216.2,179.736l-25.61,30.382-5.616,6.674s14.282,27.706,15.111,31.31-2.051,10.862-4.621,9.92" fill="#ad6359"/>
                <path id="Trazado_884411" data-name="Trazado 884411" d="M195.458,258.019c-2.564-.942-60.618-47.333-61.715-50.505-.346-.978,3.733-7.024,9.505-14.871,8.443,10.089,37.875,40.129,45.913,44.148,5.105,2.552,4.091-2.456,2.183-7.441,3.923,7.835,8.288,16.8,8.741,18.747.811,3.6-2.051,10.864-4.627,9.922" fill="#263238"/>
                <path id="Trazado_884412" data-name="Trazado 884412" d="M255.515,120.271c-2.667,20.224-52.507,78.6-58.266,85.3l-1.312,1.524-41.226-31.681.475-.612,36.3-47.535S131.457,162.3,101.419,146.4c-13.484-7.138-23.486-19.829-23.486-19.829l39.2-20.9s10.847,3.507,17.781,2.495c23.9-3.5,77.448-23.83,90.153-23.317,16.391.674,32.892,16.874,30.445,35.429" fill="#37474f"/>
                <path id="Trazado_884413" data-name="Trazado 884413" d="M204.528,109.6a48.6,48.6,0,0,0-3.745,4.8c-1.283,1.682-2.587,3.348-3.868,5.033-.013.016-.025.033-.038.05.228-.493.45-.989.686-1.478.809-1.675,1.457-3.406,2.413-5.007a.088.088,0,0,0-.151-.092c-.983,1.59-2.124,3.1-2.965,4.775-.4.789-.771,1.585-1.12,2.395-.192.443-.388.887-.56,1.339a6.426,6.426,0,0,0-.235.647c-.574.781-1.142,1.567-1.693,2.365-1.222,1.77-2.3,3.642-3.538,5.4-.067.094.083.181.15.092,1.253-1.652,2.658-3.191,3.931-4.831,1.295-1.668,2.525-3.383,3.738-5.112,1.184-1.687,2.345-3.39,3.527-5.077a50.552,50.552,0,0,0,3.57-5.215c.034-.064-.047-.139-.1-.083" fill="#263238"/>
                <path id="Trazado_884414" data-name="Trazado 884414" d="M130.687,55.626a.527.527,0,0,1-.373.587c-.6.1-1.32.2-2.129.328-2.355-4.827-4.771-8.614-4.093-7.112a25.772,25.772,0,0,1,2,7.424c-.939.136-3.118.432-4.209.58-2.434-8.648-5.141-14.982-4.832-12.981,1.247,8.069,1,10.72.676,13.557-10.161,1.37-23.5,3.021-33.17,4.008-1.545-4.763-2.984-9.939-3.121-9.556-1.079,2.864-1.089,6.88-.849,9.952-3.081.292-5.548.469-7.058.5,0,0-1.078-4.024-1.3-5.359a28.2,28.2,0,0,1,.183-10.336,50.721,50.721,0,0,1,3.644-9.9.293.293,0,0,1,.036-.071c0-.01,0-.014.011-.028a29,29,0,0,0,2.019-6.568.144.144,0,0,0,.013-.05,28.03,28.03,0,0,0,.37-4.941c-.077-6.044,2.849-11.534,8.352-13.617,9.777-10.974,20.823-7.7,24.721-.281.377.722.753,1.556,1.128,2.469l.011.028c1.4,3.373,2.768,7.79,3.976,11.191a.015.015,0,0,0,.007.019c0,.013,0,.023.014.038l0,.009a33.069,33.069,0,0,0,1.618,3.909c3.24,6.026,9.705,9.041,12.351,26.2" fill="#263238"/>
                <path id="Trazado_884415" data-name="Trazado 884415" d="M84.544,13.919A11.389,11.389,0,0,0,78.8,23.63a29.369,29.369,0,0,1-.832,7.589,26.51,26.51,0,0,1-3.685,6.944c-2.333,3.47-3.875,6.856-3.906,11.193-.03,4.4.633,9.54,2.463,13.484a.019.019,0,1,0,.034-.015,35.154,35.154,0,0,1-1.732-14.137c.392-4.826,2.821-8.055,5.257-11.912a19.906,19.906,0,0,0,3.2-10.061c.086-2.191-.143-4.441.55-6.559.825-2.528,2.765-4.261,4.7-5.817a.258.258,0,0,0-.3-.42" fill="#263238"/>
                <path id="Trazado_884416" data-name="Trazado 884416" d="M125.13,35.6c-2.911-3.172-5.886-5.833-7.786-9.922-1.732-3.725-2.886-7.721-4.642-11.439a.05.05,0,1,0-.092.037c2.786,6.632,3.813,13.482,8.724,18.833,2.668,2.906,5.316,5.585,7.223,9.186a33.459,33.459,0,0,1,3.563,12.124c.017.151.21.125.211-.021a27.7,27.7,0,0,0-7.2-18.8" fill="#263238"/>
                <path id="Trazado_884417" data-name="Trazado 884417" d="M88.016,10.808c-.006,1.455-6.706,5.3-11.839,1.853C71.121,9.267,72.719,1.766,79.5,2.136c4.288.234,8.525,5.594,8.512,8.672" fill="#263238"/>
                <path id="Trazado_884418" data-name="Trazado 884418" d="M73.339,6.249a8.521,8.521,0,0,1,3.534-4.377A5.145,5.145,0,0,1,82,1.6a10.382,10.382,0,0,1,4,3.829,15.865,15.865,0,0,1,1.316,2.561,7.851,7.851,0,0,1,.7,2.815,6.9,6.9,0,0,0-.191-2.98,12.8,12.8,0,0,0-1.089-2.821A10.009,10.009,0,0,0,82.48.629a5.726,5.726,0,0,0-6.072.539,7.519,7.519,0,0,0-3.069,5.081" fill="#263238"/>
                <path id="Trazado_884419" data-name="Trazado 884419" d="M96.842,64.311c7.339,10.538,32.411,39.5,49.809,43.463,9.588,2.185,55.915,8.665,62.265,2.889,7.436-6.766,3.987-32.273-1.925-32.505-18.044-.709-51.437,2.822-59.778.98-3.774-.833-23.773-13.732-45.13-24.051-8.076-3.9-9.977,2.424-5.241,9.224" fill="#e1aaa2"/>
                <path id="Trazado_884420" data-name="Trazado 884420" d="M114.763,89.578l7.007-25.8s-11.749-6.519-18.759-9.209c-9.277-3.56-12.774-.95-7.085,9.822,3.806,7.206,18.837,25.184,18.837,25.184" fill="#ebebeb"/>
                <path id="Trazado_884421" data-name="Trazado 884421" d="M113.028,86.3c.76-3.825,1.573-7.629,2.557-11.4q.735-2.823,1.556-5.623c.547-1.865,1.287-3.679,1.806-5.548.028-.1.192-.05.158.052-.616,1.837-.988,3.777-1.5,5.646s-1.025,3.754-1.521,5.635c-.991,3.757-1.991,7.515-2.9,11.293-.025.106-.178.052-.158-.051" fill="#263238"/>
                <path id="Trazado_884422" data-name="Trazado 884422" d="M120.668,67.841l-5.9,21.74S99.738,71.6,95.922,64.395c-1.753-3.328-2.635-5.88-2.743-7.7Z" fill="#263238"/>
                <path id="Trazado_884423" data-name="Trazado 884423" d="M59.114,135.7c2.3.742,67.842-18.22,67.842-18.22l-7.739-22.755s3.821-7.317,2.047-14.356c-2.371-9.4-19.777-24.864-21.143-25.772-5.492-3.64-10.64-3.578-15.189-1.162C65.983,63.5,59.114,135.7,59.114,135.7" fill="#ebebeb"/>
                <path id="Trazado_884424" data-name="Trazado 884424" d="M109.113,62.786c1.687,1.965,3.5,3.833,5.243,5.756-.815-1.433-1.621-2.872-2.487-4.275-.017-.029.021-.062.042-.033a31.965,31.965,0,0,1,3.323,5.292,43.9,43.9,0,0,1,3.613,4.612,20.572,20.572,0,0,1,2.977,6.345,17.41,17.41,0,0,1,.2,7.018,45.111,45.111,0,0,1-2.213,7.841c-.121.339-.6.126-.509-.206,1.231-4.443,2.627-9.136,1.639-13.769-.975-4.576-3.847-8.467-6.634-12.11a64.8,64.8,0,0,0-5.332-6.36c-.079-.08.063-.2.138-.111" fill="#263238"/>
                <path id="Trazado_884425" data-name="Trazado 884425" d="M98.192,93.083a58.04,58.04,0,0,1,8.537-.945c1.425-.032,2.841,0,4.265.066.709.032,1.415.04,2.125.045a9.136,9.136,0,0,0,2.214-.193.051.051,0,0,1,.026.1,15.535,15.535,0,0,1-2.036.53,15.184,15.184,0,0,1-2.032.177c-1.445.046-2.891.025-4.336.057-2.915.063-5.829.127-8.734.4-.133.013-.162-.213-.029-.236" fill="#263238"/>
                <path id="Trazado_884426" data-name="Trazado 884426" d="M92.081,97.422a62.885,62.885,0,0,1,6.726-2.239c1.144-.305,2.3-.542,3.461-.751.556-.1,1.114-.188,1.673-.271.615-.091,1.243-.1,1.856-.2.064-.01.091.087.026.1-.575.112-1.135.319-1.7.464s-1.143.286-1.714.431c-1.143.291-2.283.594-3.429.874-2.294.56-4.573,1.141-6.847,1.78-.123.034-.162-.144-.049-.188" fill="#263238"/>
                <path id="Trazado_884427" data-name="Trazado 884427" d="M89.027,54.712c.26,1.189,5.8,8.961,11.223,8.784,1.765-.06,1.865-9.707,1.865-9.707l.171-.71,2.374-9.947-13.293-8.71s-2.443,19.785-2.34,20.29" fill="#e1aaa2"/>
                <path id="Trazado_884428" data-name="Trazado 884428" d="M104.661,43.128l-2.376,9.948a20.55,20.55,0,0,1-11.737-11.9c.407-3.429.758-6.281.8-6.7a.187.187,0,0,0,.012-.056l1.686,1.018Z" fill="#263238"/>
                <path id="Trazado_884429" data-name="Trazado 884429" d="M117.555,24.805c4.427,17.393-5.491,22.009-9.242,22.959C104.907,48.627,93.2,51.132,87,34.289s.487-24.4,8.171-26.784,17.956-.093,22.383,17.3" fill="#e1aaa2"/>
                <path id="Trazado_884430" data-name="Trazado 884430" d="M114.574,23.154a11.926,11.926,0,0,1-1.24-.035,2,2,0,0,1-1.257-.278.639.639,0,0,1-.138-.767,1.585,1.585,0,0,1,1.471-.642,2.33,2.33,0,0,1,1.583.549.681.681,0,0,1-.419,1.173" fill="#263238"/>
                <path id="Trazado_884431" data-name="Trazado 884431" d="M102.729,26.735a11.8,11.8,0,0,0,1.148-.468,2.005,2.005,0,0,0,1.08-.7.637.637,0,0,0-.141-.766,1.579,1.579,0,0,0-1.6-.086,2.322,2.322,0,0,0-1.29,1.07.681.681,0,0,0,.8.951" fill="#263238"/>
                <path id="Trazado_884432" data-name="Trazado 884432" d="M105.711,28.926c-.018-.044-.082.076-.07.125.284,1.189.409,2.6-.593,3.218-.031.02-.015.079.024.065,1.283-.457,1.1-2.327.639-3.408" fill="#263238"/>
                <path id="Trazado_884433" data-name="Trazado 884433" d="M104.385,27.9c-1.955.249-1.313,4.142.5,3.911,1.782-.228,1.14-4.12-.5-3.911" fill="#263238"/>
                <path id="Trazado_884434" data-name="Trazado 884434" d="M103.655,28.227c-.3.276-.572.72-.975.828-.467.125-.893-.223-1.267-.564-.039-.035-.067,0-.059.056.112.748.525,1.465,1.343,1.445.746-.019,1.161-.766,1.223-1.547.012-.144-.143-.329-.265-.218" fill="#263238"/>
                <path id="Trazado_884435" data-name="Trazado 884435" d="M112.773,27.445c0-.047.1.042.11.092.151,1.213.529,2.577,1.684,2.806.036.008.042.069,0,.069-1.362.022-1.845-1.793-1.794-2.967" fill="#263238"/>
                <path id="Trazado_884436" data-name="Trazado 884436" d="M113.653,26.015c1.918-.452,2.682,3.418.9,3.837-1.749.413-2.513-3.457-.9-3.837" fill="#263238"/>
                <path id="Trazado_884437" data-name="Trazado 884437" d="M114.51,26.11c.346.145.722.458,1.092.41.429-.056.66-.536.851-.991.02-.047.057-.021.068.03.167.736.074,1.554-.608,1.837-.623.257-1.224-.284-1.546-.985-.06-.13,0-.359.143-.3" fill="#263238"/>
                <path id="Trazado_884438" data-name="Trazado 884438" d="M107.1,39.19c.317.259.643.625,1.089.622a3.245,3.245,0,0,0,1.28-.424.042.042,0,0,1,.058.057,1.646,1.646,0,0,1-1.485.8,1.3,1.3,0,0,1-1.054-.99c-.025-.069.066-.1.112-.066" fill="#263238"/>
                <path id="Trazado_884439" data-name="Trazado 884439" d="M111.542,33.677s.517,1.769.644,2.62c.011.08-.189.148-.476.208-.013.006-.02.013-.033.006a4.091,4.091,0,0,1-4.156-.929c-.071-.074.024-.178.109-.137a6.163,6.163,0,0,0,3.854.511c.025-.244-.987-3-.853-3.029a7.5,7.5,0,0,1,2,.151c-.97-3.715-2.528-7.244-3.439-10.957a.117.117,0,0,1,.214-.088,62.14,62.14,0,0,1,4.206,11.644c.142.474-1.706.094-2.068,0" fill="#263238"/>
                <path id="Trazado_884440" data-name="Trazado 884440" d="M111.619,36.173a5.007,5.007,0,0,1-1.569,1.995,2.264,2.264,0,0,1-1.308.415c-1.024-.013-1.268-.888-1.28-1.687a5.377,5.377,0,0,1,.141-1.263,6.49,6.49,0,0,0,4.016.54" fill="#263238"/>
                <path id="Trazado_884441" data-name="Trazado 884441" d="M110.05,38.168a2.25,2.25,0,0,1-1.308.415c-1.024-.012-1.268-.888-1.28-1.687a2.33,2.33,0,0,1,2.588,1.272" fill="#ff9cbd"/>
                <path id="Trazado_884442" data-name="Trazado 884442" d="M88.246,35.593c1.872-.622,5.424-7.182,3.117-16.409,0,0,1.5,8.429,1.2,9.8s1.981-3.687.224-11.155a31.045,31.045,0,0,0,8.657,1.907c3.761.045,5.892-.562,6.075-.881s-5.4-.564-7.222-1.8c0,0,10.465,1.836,14.842,1.015.506-.1-1.633-10.458-9.424-13.014S88.673,10,86.578,13.481c0,0-3.191,1.359-5.483,7.23s5.135,15.552,7.151,14.882" fill="#263238"/>
                <path id="Trazado_884443" data-name="Trazado 884443" d="M108.549,28.323a5.948,5.948,0,1,0-4.96,7.98,5.59,5.59,0,0,0,1.44-.34,5.941,5.941,0,0,0,3.52-7.64m-3.79,6.9a5.154,5.154,0,1,1-3.57-9.67,5.066,5.066,0,0,1,1.24-.29,5.154,5.154,0,0,1,2.33,9.96" fill="#ffc727"/>
                <path id="Trazado_884444" data-name="Trazado 884444" d="M108.549,28.323a5.948,5.948,0,1,0-4.96,7.98,5.59,5.59,0,0,0,1.44-.34,5.941,5.941,0,0,0,3.52-7.64m-3.79,6.9a5.154,5.154,0,1,1-3.57-9.67,5.066,5.066,0,0,1,1.24-.29,5.154,5.154,0,0,1,2.33,9.96" fill="#ffc727"/>
                <path id="Trazado_884445" data-name="Trazado 884445" d="M120.3,26.393a7.17,7.17,0,0,0-2.14-3.78,3.707,3.707,0,0,0-6.19,1.39,7.125,7.125,0,0,0-.32,4.34c.69,3.02,2.98,5.13,5.25,4.89.13-.01.26-.04.38-.06,2.39-.54,3.74-3.58,3.02-6.78m-3.19,6c-1.96.44-4.05-1.46-4.68-4.23a6.274,6.274,0,0,1,.27-3.84,3.184,3.184,0,0,1,2.14-1.99c.1-.02.2-.03.3-.04a3.279,3.279,0,0,1,2.49.91,6.391,6.391,0,0,1,1.89,3.36c.62,2.78-.46,5.39-2.41,5.83" fill="#ffc727"/>
                <path id="Trazado_884446" data-name="Trazado 884446" d="M120.3,26.393a7.17,7.17,0,0,0-2.14-3.78,3.707,3.707,0,0,0-6.19,1.39,7.125,7.125,0,0,0-.32,4.34c.69,3.02,2.98,5.13,5.25,4.89.13-.01.26-.04.38-.06,2.39-.54,3.74-3.58,3.02-6.78m-3.19,6c-1.96.44-4.05-1.46-4.68-4.23a6.274,6.274,0,0,1,.27-3.84,3.184,3.184,0,0,1,2.14-1.99c.1-.02.2-.03.3-.04a3.279,3.279,0,0,1,2.49.91,6.391,6.391,0,0,1,1.89,3.36c.62,2.78-.46,5.39-2.41,5.83" fill="#ffc727"/>
                <path id="Trazado_884447" data-name="Trazado 884447" d="M112.159,27.363l-.45.66c-1.57-1.08-3.13.93-3.2,1.02l-.63-.49c.71-.93,2.52-2.39,4.28-1.19" fill="#ffc727"/>
                <path id="Trazado_884448" data-name="Trazado 884448" d="M112.159,27.363l-.45.66c-1.57-1.08-3.13.93-3.2,1.02l-.63-.49c.71-.93,2.52-2.39,4.28-1.19" fill="#ffc727"/>
                <path id="Trazado_884449" data-name="Trazado 884449" d="M97.579,30.7c-3.04.38-11.23,1.51-12.43,1.99-1.1.45-1.94,2.8-2.16,3.66l-.77-.2c.09-.36.96-3.52,2.63-4.19,1.56-.63,12.18-2,12.63-2.05Z" fill="#ffc727"/>
                <path id="Trazado_884450" data-name="Trazado 884450" d="M97.579,30.7c-3.04.38-11.23,1.51-12.43,1.99-1.1.45-1.94,2.8-2.16,3.66l-.77-.2c.09-.36.96-3.52,2.63-4.19,1.56-.63,12.18-2,12.63-2.05Z" fill="#ffc727"/>
                <path id="Trazado_884451" data-name="Trazado 884451" d="M90.105,34.922s-4.773-4.894-7.055-3.1,1.94,9.327,5.065,9.94a3.035,3.035,0,0,0,3.748-2.269Z" fill="#e1aaa2"/>
                <path id="Trazado_884452" data-name="Trazado 884452" d="M84.314,33.949c-.048,0-.046.071,0,.081,2.2.5,3.6,2.234,4.691,4.094a1.675,1.675,0,0,0-2.548-.045c-.048.047.018.122.074.1a1.866,1.866,0,0,1,2.133.31,9.037,9.037,0,0,1,1.24,1.48c.127.169.444.016.339-.185l-.025-.045c-.38-2.642-3.031-5.99-5.9-5.791" fill="#263238"/>
                <path id="Trazado_884453" data-name="Trazado 884453" d="M75.938,67.78c-9.448,28.846-7.575,51.732-2.941,55.2,12.476,9.324,47.111-1.017,56.7-2.684,3.878-.674-8.958-31.425-12.99-30.219-9.5,2.842-22.983,8.047-23.479,7.923-.988-.248-1.081-7.967-3.105-30.719-1.636-18.407-10.326-11.292-14.189.5" fill="#e1aaa2"/>
                <path id="Trazado_884454" data-name="Trazado 884454" d="M115.618,90.406s15-6.088,23.227-8.345c4.593-1.26,12.66-2.717,16.458-2.1,5.68.925,28.845,8.419,27.149,14.074-1.535,5.12-20.62-3.845-20.62-3.845s20.058,7.344,17.076,13.169-23.2-7.173-23.2-7.173,20.439,8.008,16.414,13.528c-3.042,4.172-22.015-6.568-22.015-6.568s17.52,7,14.577,11.43c-3.253,4.889-21.388-3.925-21.388-3.925-9.376,9.988-17.926,10.908-24.086,10.839-1.491-.017-3.594-31.085-3.594-31.085" fill="#e1aaa2"/>
                <path id="Trazado_884455" data-name="Trazado 884455" d="M155.058,87.206c2.387.777,4.809,1.548,7.119,2.535s4.588,2.056,6.795,3.253a42.938,42.938,0,0,1,8.147,5.477c-4.709-3.457-12.924-7.119-15.235-8.106s-4.561-2.085-6.867-3.072c-.058-.025-.016-.106.041-.087" fill="#263238"/>
                <path id="Trazado_884456" data-name="Trazado 884456" d="M151.343,95.482c3.005,1.125,6.03,2.131,8.987,3.389s7.007,3.145,9.855,4.6c.219.112.15.474-.074.371-2.9-1.336-7.138-3.077-10.057-4.379s-5.79-2.718-8.743-3.908c-.047-.018-.014-.086.032-.069" fill="#263238"/>
                <path id="Trazado_884457" data-name="Trazado 884457" d="M146.877,102.013a71.661,71.661,0,0,1,13.345,6.233c.212.12.03.2-.194.1-4.4-2.156-7.831-3.878-13.2-6.166-.084-.036-.047-.194.052-.163" fill="#263238"/>
                <path id="Trazado_884458" data-name="Trazado 884458" d="M116.08,90.086c5.659-1.838,22.562-8.73,28.355-10.088a27.664,27.664,0,0,1,14.68.014A69.487,69.487,0,0,1,180.142,89.9c1.274.985,3.186,2.589,2.467,4.359-.875,2.153-6.631,2.148-13.727-1.093-.255-.117-.166-.269.09-.168,9.73,3.819,12.585,2.116,13.052.787.3-.86-.583-1.9-1.344-2.671a18.726,18.726,0,0,0-3.9-2.778,80.487,80.487,0,0,0-14.967-6.553,31.512,31.512,0,0,0-17.53-.912c-5.943,1.361-22.193,8.165-28.156,9.442-.127.027-.17-.184-.048-.223" fill="#263238"/>
                <path id="Trazado_884459" data-name="Trazado 884459" d="M179.04,100.578a13.263,13.263,0,0,0-3.661-3.5,30.2,30.2,0,0,0-5.086-3.295c-.08-.04-.159.067-.079.119a47.378,47.378,0,0,1,4.607,3.264,26.04,26.04,0,0,1,2.247,2.1,4.679,4.679,0,0,1,1.562,2.57c.182,1.971-2.171,2.668-3.713,2.609a16.556,16.556,0,0,1-2.979-.435,27.077,27.077,0,0,1-3.92-1.384c-.11-.05-.32.05-.208.105,2.688,1.314,7.893,4.163,10.609,1.65a3.025,3.025,0,0,0,.621-3.795" fill="#263238"/>
                <path id="Trazado_884460" data-name="Trazado 884460" d="M67.227,92.8l25.345-8.5s-1.1-13.391-2.757-20.715c-2.191-9.692-6.3-11.151-12.1-.439C73.832,70.313,67.227,92.8,67.227,92.8" fill="#ebebeb"/>
                <path id="Trazado_884461" data-name="Trazado 884461" d="M68.994,89.53c3.6-1.492,7.219-2.928,10.9-4.206q2.757-.956,5.541-1.828c1.854-.581,3.774-.972,5.616-1.579.1-.033.149.132.045.161-1.87.507-3.69,1.276-5.53,1.885s-3.691,1.233-5.531,1.865c-3.674,1.262-7.355,2.517-11,3.862-.1.038-.142-.12-.045-.16" fill="#263238"/>
                <path id="Trazado_884462" data-name="Trazado 884462" d="M70.259,91.779c-.982.424-1.978.808-2.97,1.2l-.347.138.1-.38q1.239-4.829,2.795-9.56c1.043-3.152,2.163-6.282,3.5-9.332-.426,1.609-.884,3.2-1.359,4.793-.458,1.6-.942,3.18-1.44,4.762q-1.473,4.75-3.116,9.449l-.25-.241c1.029-.284,2.055-.577,3.094-.831" fill="#263238"/>
                <path id="Trazado_884463" data-name="Trazado 884463" d="M71.567,76.924a20.02,20.02,0,0,1-.273,2.284,19.546,19.546,0,0,1-.519,2.241,19.8,19.8,0,0,1,.273-2.284,20.2,20.2,0,0,1,.519-2.241" fill="#263238"/>
                <path id="Trazado_884464" data-name="Trazado 884464" d="M89.484,85.342c.256-.141,2.83-1.1,3.034-1.114-.169-1.572-.359-3.142-.51-4.715-.076-.786-.139-1.577-.189-2.364-.056-.87-.166-1.855-.215-2.623-.008-.121.144-.143.163-.023.164.992.254,1.738.391,2.6.122.768.226,1.543.314,2.315.184,1.636.452,3.371.556,5.013a26.84,26.84,0,0,1-3.518,1.006c-.05.007-.066-.071-.026-.093" fill="#263238"/>
                <path id="Trazado_884465" data-name="Trazado 884465" d="M92.779,75.782a7.761,7.761,0,0,1-.079,1.432,7.578,7.578,0,0,1-.326,1.4,7.761,7.761,0,0,1,.079-1.432,7.85,7.85,0,0,1,.326-1.4" fill="#263238"/>
                <rect id="Rectángulo_403683" data-name="Rectángulo 403683" width="69.539" height="3.119" transform="translate(117.766 112.371)" fill="#c7c7c7"/>
                <path id="Trazado_884466" data-name="Trazado 884466" d="M132.645,112.371l-2.381,3.119H187.3v-3.119Z" fill="#a6a6a6"/>
                <path id="Trazado_884467" data-name="Trazado 884467" d="M135.619,115.487H203.39l5.642-46.028H141.261Z" fill="#c7c7c7"/>
                <path id="Trazado_884468" data-name="Trazado 884468" d="M168.2,92.473a4.039,4.039,0,0,0,4.053,4.125,4.214,4.214,0,0,0,4.2-4.125,4.039,4.039,0,0,0-4.052-4.125,4.214,4.214,0,0,0-4.2,4.125" fill="#fff"/>
                <path id="Trazado_884469" data-name="Trazado 884469" d="M208.482,73.91c2.553,3.943,8.86,8.554,9.726,11.937a4.005,4.005,0,0,1-1.65,4.485s3.655,1.257,3.936,4.456c.144,1.646-2.359,3.323-2.359,3.323s2.885,1.135,2.959,4c.059,2.279-2.458,3.618-2.458,3.618s2.26,2.379,1.576,4.72c-1.388,4.747-20.788,7.311-24.729.561-1.837-3.146,2.936-3.515,2.936-3.515s-6.991-1.127-7.622-5.113,5.6-4.091,5.6-4.091-6.766-1.151-7-5.35c-.247-4.37,6-3.408,6-3.408s-4.7-2.355-4.145-5.611c.915-5.376,11.979.339,16.109-1.237Z" fill="#e1aaa2"/>
                <path id="Trazado_884470" data-name="Trazado 884470" d="M218.27,105.994a.052.052,0,0,1,.033.1,33.956,33.956,0,0,1-20.142,1.45c-.212-.056-.214-.423.031-.407a69.5,69.5,0,0,0,20.078-1.141" fill="#263238"/>
                <path id="Trazado_884471" data-name="Trazado 884471" d="M218.235,98.14c.074-.016.1.107.026.136-6.377,2.437-14.87,3.04-22.071.216-.247-.1-.371-.431-.078-.341,4.93,1.514,15.945,1.348,22.123-.011" fill="#263238"/>
                <path id="Trazado_884472" data-name="Trazado 884472" d="M194.936,89.157c7.008,2.44,14.1,2.388,21.366,1.288.094-.014.106.121.029.155-3.41,1.507-8.117,1.725-11.795,1.585A19.569,19.569,0,0,1,194.85,89.4c-.117-.071-.065-.3.086-.245" fill="#263238"/>
                <path id="Trazado_884473" data-name="Trazado 884473" d="M345.967,205.436c-.951,2.567-47.535,60.473-50.707,61.559-1.2.418-10.03-5.874-20.483-13.781-2.258-1.707-4.578-3.484-6.924-5.3C252.6,236.131,236.7,223.274,236.7,223.274l31.05-38.826,30.3,25.708,6.655,5.637s27.752-14.192,31.359-15.01,10.856,2.086,9.9,4.653" fill="#ad6359"/>
                <path id="Trazado_884474" data-name="Trazado 884474" d="M345.972,205.439c-.954,2.564-47.536,60.475-50.708,61.56-1.049.37-7.93-4.4-16.636-10.888,8.884-6.464,42.622-36.862,47.154-45.091,2.385-4.329-1.1-4.293-5.355-3.1,6.953-3.422,13.941-6.75,15.635-7.131,3.6-.811,10.852,2.087,9.91,4.651" fill="#263238"/>
                <path id="Trazado_884475" data-name="Trazado 884475" d="M296.427,204.3l-32.312,43.6L155.079,172.235l-10.515-7.3s-2.976,2-7.458,4.481c-6.225,3.441-15.347,7.8-23.417,8.987-13.536,2-36.137,1.788-47.546-13.468-9.609-12.846-4.39-29.606-4.39-29.606l14.863-6.382s35.172-29.305,57.955-30.188c9.676-.385,23.767,6.949,36.817,14.611S296.427,204.3,296.427,204.3" fill="#37474f"/>
                <path id="Trazado_884476" data-name="Trazado 884476" d="M144.564,164.934s-2.977,2-7.458,4.482c-7.923-9.485-24.7-26.711-25.205-27.322Z" fill="#263238"/>
                <path id="Trazado_884477" data-name="Trazado 884477" d="M89.5,119.137c-2.1,1.46-4.136,3.011-6.21,4.51-2.04,1.474-4.147,2.858-6.086,4.468-1.972,1.636-3.842,3.384-5.7,5.148-.9.851-1.786,1.709-2.653,2.59a24.261,24.261,0,0,0-2.532,2.748c-.066.093.068.2.155.148a28.731,28.731,0,0,0,2.818-2.294c.985-.827,1.957-1.668,2.937-2.5,1.891-1.607,3.818-3.169,5.7-4.781s3.61-3.353,5.465-4.974c1.987-1.736,4.081-3.352,6.144-4.994.039-.031,0-.1-.042-.068" fill="#263238"/>
                <path id="Trazado_884478" data-name="Trazado 884478" d="M288.839,202.734c-2.1,2.264-4.039,4.7-5.994,7.088s-3.913,4.807-5.85,7.226c-3.875,4.841-7.784,9.66-11.592,14.554-2.093,2.689-4.158,5.4-6.1,8.194-.087.125.112.266.212.156,4.169-4.584,7.98-9.475,11.847-14.311s7.735-9.705,11.536-14.608c2.079-2.684,4.223-5.354,6.135-8.159.077-.113-.1-.238-.191-.14" fill="#263238"/>
                <path id="Trazado_884479" data-name="Trazado 884479" d="M199.355,203.178c-5.425-4.275-11.05-8.311-16.675-12.321-5.6-3.99-11.189-7.991-16.869-11.861-1.631-1.111-3.276-2.2-4.919-3.291s-3.347-2.1-4.954-3.229c-.093-.066-.177.089-.086.155,1.476,1.057,2.87,2.244,4.32,3.342,1.384,1.048,2.758,2.109,4.154,3.142,2.724,2.017,5.475,4,8.222,5.982q8.355,6.04,16.852,11.892c3.218,2.207,6.422,4.423,9.711,6.522.2.125.43-.186.244-.333" fill="#263238"/>
                <path id="Trazado_884480" data-name="Trazado 884480" d="M234.225,158.2c-5.014-4.155-10.387-7.891-15.641-11.731-5.315-3.886-10.6-7.807-15.938-11.665l-15.881-11.48c-5.131-3.709-10.238-7.479-15.657-10.763-2.966-1.8-6.008-3.463-9.135-4.964a59.855,59.855,0,0,0-9.441-3.856.089.089,0,0,0-.064.163c2.671,1.492,5.477,2.748,8.18,4.187q4.008,2.135,7.894,4.491c5.38,3.262,10.46,6.966,15.565,10.637,10.6,7.623,21.177,15.277,31.852,22.794,5.972,4.206,11.824,8.647,18.027,12.512.194.121.418-.177.239-.325" fill="#263238"/>
              </g>
            </g>
          </g>
          <path id="Trazado_884490" data-name="Trazado 884490" d="M343.415,332.642a14.822,14.822,0,1,1-14.822-14.822A14.823,14.823,0,0,1,343.415,332.642Z" transform="translate(-329.715 -145.819)" fill="none" stroke="#a653f1" stroke-miterlimit="10" stroke-width="2.5"/>
          <line id="Línea_672" data-name="Línea 672" x1="45" y2="31" transform="translate(-38.445 182.5)" fill="none" stroke="#00ffdf" stroke-linecap="round" stroke-linejoin="round" stroke-width="3"/>
        </g>
      </g>
    </g>
    <path id="Trazado_877328" data-name="Trazado 877328" d="M67.627,34.475m3.921-14.931a7.543,7.543,0,1,1-2.209,5.336,7.528,7.528,0,0,1,2.209-5.336m1.63-7.475a13.189,13.189,0,0,0-2.956,1.259,13.338,13.338,0,0,0-2.6,1.955.459.459,0,0,1-.55.068L63.57,13.327l-.018-.013a.873.873,0,0,0-1.165.329l-.017.024L59.9,17.939a.873.873,0,0,0,.321,1.189l.022.015,3.476,2.007a.463.463,0,0,1,.219.509,13.038,13.038,0,0,0-.293,1.6,13.567,13.567,0,0,0,0,3.25,13,13,0,0,0,.294,1.594.468.468,0,0,1-.247.526l-3.475,2.005h0a.87.87,0,0,0-.321,1.186l2.48,4.3h0a.854.854,0,0,0,.525.4.873.873,0,0,0,.659-.084l.027-.015,3.482-2.009a.462.462,0,0,1,.548.067A13.347,13.347,0,0,0,73.2,37.7a.465.465,0,0,1,.338.444v4.044a.867.867,0,0,0,.865.868h4.962a.874.874,0,0,0,.868-.868V38.14a.465.465,0,0,1,.356-.451,13.265,13.265,0,0,0,2.957-1.259,13.459,13.459,0,0,0,2.593-1.955.463.463,0,0,1,.575-.053l3.482,2.011a.875.875,0,0,0,1.188-.32l.015-.024,2.466-4.273h0a.865.865,0,0,0,.084-.657.848.848,0,0,0-.4-.527l-3.5-2.023c-.181-.1-.218-.509-.218-.509s.223-1.051.292-1.594a13.765,13.765,0,0,0,0-3.25,14.2,14.2,0,0,0-.292-1.6.46.46,0,0,1,.243-.525l3.476-2.007a.851.851,0,0,0,.4-.529.874.874,0,0,0-.084-.66l-.014-.024-2.466-4.271h0a.879.879,0,0,0-1.188-.32v0l-3.5,2.023a.459.459,0,0,1-.561-.078,13.457,13.457,0,0,0-2.584-1.945,13.233,13.233,0,0,0-2.977-1.263.465.465,0,0,1-.336-.447V7.574a.874.874,0,0,0-.868-.867H74.4a.867.867,0,0,0-.865.867v4.044a.465.465,0,0,1-.359.451" transform="translate(584.023 440.121)" fill="#fff" fill-rule="evenodd" opacity="0.84"/>
    <path id="Trazado_884510" data-name="Trazado 884510" d="M65.145,25.682m2.68-10.2a5.154,5.154,0,1,1-1.51,3.646,5.144,5.144,0,0,1,1.51-3.646m1.114-5.108a9.012,9.012,0,0,0-2.02.86,9.114,9.114,0,0,0-1.774,1.336.313.313,0,0,1-.376.047l-2.4-1.383-.012-.009a.6.6,0,0,0-.8.225l-.011.016-1.685,2.919a.6.6,0,0,0,.219.812l.015.01,2.375,1.371a.317.317,0,0,1,.15.348,8.911,8.911,0,0,0-.2,1.09,9.272,9.272,0,0,0,0,2.221,8.883,8.883,0,0,0,.2,1.089.32.32,0,0,1-.169.359l-2.374,1.37h0a.594.594,0,0,0-.219.811L61.563,26.8h0a.583.583,0,0,0,.359.276.6.6,0,0,0,.45-.057l.018-.01,2.379-1.373a.316.316,0,0,1,.375.046,9.12,9.12,0,0,0,3.808,2.2.318.318,0,0,1,.231.3V30.95a.593.593,0,0,0,.591.593h3.391a.6.6,0,0,0,.593-.593V28.186A.318.318,0,0,1,74,27.878a9.064,9.064,0,0,0,2.021-.86,9.2,9.2,0,0,0,1.772-1.336.316.316,0,0,1,.393-.036l2.379,1.374a.6.6,0,0,0,.811-.218l.01-.016,1.685-2.92h0a.591.591,0,0,0,.057-.449.58.58,0,0,0-.275-.36l-2.393-1.383c-.124-.07-.149-.348-.149-.348s.153-.718.2-1.089a9.407,9.407,0,0,0,0-2.221,9.7,9.7,0,0,0-.2-1.09.314.314,0,0,1,.166-.359l2.375-1.371a.581.581,0,0,0,.275-.361.6.6,0,0,0-.057-.451l-.01-.016-1.685-2.919h0a.6.6,0,0,0-.811-.218v0l-2.394,1.383a.314.314,0,0,1-.383-.053,9.2,9.2,0,0,0-1.766-1.329,9.043,9.043,0,0,0-2.034-.863.318.318,0,0,1-.23-.305V7.3a.6.6,0,0,0-.593-.592H69.775a.593.593,0,0,0-.591.592v2.763a.318.318,0,0,1-.245.308" transform="translate(843.699 577.642)" fill="none" stroke="#fff" stroke-width="1" fill-rule="evenodd" opacity="0.84"/>
  </g>
</svg>
