<svg xmlns="http://www.w3.org/2000/svg" xmlns:xlink="http://www.w3.org/1999/xlink" width="295" height="249" viewBox="0 0 295 249">
  <defs>
    <clipPath id="clip-path">
      <rect id="Rectángulo_402802" data-name="Rectángulo 402802" width="295" height="249" transform="translate(180 380)" fill="#fff" stroke="#707070" stroke-width="1"/>
    </clipPath>
    <filter id="Trazado_877725" x="15.508" y="4.008" width="140.992" height="140.992" filterUnits="userSpaceOnUse">
      <feOffset dy="3" input="SourceAlpha"/>
      <feGaussianBlur stdDeviation="3" result="blur"/>
      <feFlood flood-color="#fff" flood-opacity="0.678"/>
      <feComposite operator="in" in2="blur"/>
      <feComposite in="SourceGraphic"/>
    </filter>
    <clipPath id="clip-path-2">
      <rect id="Rectángulo_402799" data-name="Rectángulo 402799" width="68" height="103" transform="translate(0.244 0.172)" fill="#fff" stroke="#fff" stroke-width="1"/>
    </clipPath>
    <filter id="Trazado_878123" x="234.06" y="139.13" width="120.335" height="120.335" filterUnits="userSpaceOnUse">
      <feOffset dy="1" input="SourceAlpha"/>
      <feGaussianBlur stdDeviation="5.5" result="blur-2"/>
      <feFlood flood-color="#fff" flood-opacity="0.902"/>
      <feComposite operator="in" in2="blur-2"/>
      <feComposite in="SourceGraphic"/>
    </filter>
    <clipPath id="clip-path-3">
      <rect id="Rectángulo_403875" data-name="Rectángulo 403875" width="17.693" height="17.693" fill="none"/>
    </clipPath>
    <clipPath id="clip-path-4">
      <rect id="Rectángulo_403876" data-name="Rectángulo 403876" width="11.519" height="11.519" fill="none"/>
    </clipPath>
    <linearGradient id="linear-gradient" x1="0.5" y1="-0.046" x2="0.498" y2="1.377" gradientUnits="objectBoundingBox">
      <stop offset="0" stop-color="#fff" stop-opacity="0"/>
      <stop offset="1" stop-color="#fff"/>
    </linearGradient>
    <clipPath id="clip-path-5">
      <rect id="Rectángulo_404970" data-name="Rectángulo 404970" width="54.01" height="38.101" fill="#f0c518"/>
    </clipPath>
  </defs>
  <g id="Enmascarar_grupo_1098751" data-name="Enmascarar grupo 1098751" transform="translate(-180 -380)" clip-path="url(#clip-path)">
    <g id="Grupo_1102936" data-name="Grupo 1102936" transform="translate(180 410.789)">
      <rect id="Rectángulo_402796" data-name="Rectángulo 402796" width="1227.683" height="217.815" rx="10" fill="#3a1d71"/>
      <path id="Trazado_878125" data-name="Trazado 878125" d="M57.905,414.044l15.9-15.9a9.107,9.107,0,0,0,0-12.891h0a9.107,9.107,0,0,0-12.891,0l-15.9,15.9-15.9-15.9a9.107,9.107,0,0,0-12.891,0h0a9.107,9.107,0,0,0,0,12.891l15.9,15.9-15.9,15.9a9.107,9.107,0,0,0,0,12.891h0a9.107,9.107,0,0,0,12.891,0l15.9-15.9,15.9,15.9a9.107,9.107,0,0,0,12.891,0h0a9.107,9.107,0,0,0,0-12.891l-15.9-15.9Z" transform="translate(1123.265 -245.136)" fill="#fff" opacity="0.3"/>
      <path id="Trazado_878126" data-name="Trazado 878126" d="M81.511,466.68h-7.1v-7.1a2.881,2.881,0,1,0-5.762,0v7.1h-7.1a2.884,2.884,0,0,0-2.881,2.881h0a2.878,2.878,0,0,0,2.881,2.881h7.1v7.1a2.881,2.881,0,1,0,5.762,0v-7.1h7.1a2.877,2.877,0,0,0,2.881-2.881h0A2.884,2.884,0,0,0,81.511,466.68Z" transform="translate(565.072 -282.049)" fill="#e0bc8c" opacity="0.33"/>
      <path id="Trazado_878127" data-name="Trazado 878127" d="M198.85,465.528l7.138-7.138a4.093,4.093,0,0,0,0-5.782h0a4.093,4.093,0,0,0-5.782,0l-7.138,7.138-7.138-7.138a4.093,4.093,0,0,0-5.782,0h0a4.093,4.093,0,0,0,0,5.782l7.138,7.138-7.138,7.138a4.093,4.093,0,0,0,0,5.782h0a4.093,4.093,0,0,0,5.782,0l7.138-7.138,7.138,7.138a4.093,4.093,0,0,0,5.782,0h0a4.093,4.093,0,0,0,0-5.782Z" transform="translate(782.029 -433.932)" fill="#85586f"/>
    </g>
    <path id="Trazado_878124" data-name="Trazado 878124" d="M0,0H211.874a20.791,20.791,0,0,1,20.791,20.791V85.146H7.921A7.921,7.921,0,0,1,0,77.225Z" transform="translate(180 543.649)" fill="#b4a9c9"/>
    <g transform="matrix(1, 0, 0, 1, 180, 380)" filter="url(#Trazado_877725)">
      <g id="Trazado_877725-2" data-name="Trazado 877725" transform="translate(24.51 10.01)" fill="none">
        <path d="M61.5,0A61.5,61.5,0,1,1,0,61.5,61.5,61.5,0,0,1,61.5,0Z" stroke="none"/>
        <path d="M 61.49584197998047 19.99998474121094 C 38.61495208740234 19.99998474121094 19.99998474121094 38.61495208740234 19.99998474121094 61.49584197998047 C 19.99998474121094 84.37673950195312 38.61495208740234 102.99169921875 61.49584197998047 102.99169921875 C 84.37673950195312 102.99169921875 102.99169921875 84.37673950195312 102.99169921875 61.49584197998047 C 102.99169921875 38.61495208740234 84.37673950195312 19.99998474121094 61.49584197998047 19.99998474121094 M 61.49584197998047 -1.52587890625e-05 C 95.45906066894531 -1.52587890625e-05 122.99169921875 27.53263092041016 122.99169921875 61.49584197998047 C 122.99169921875 95.45906066894531 95.45906066894531 122.99169921875 61.49584197998047 122.99169921875 C 27.53263092041016 122.99169921875 -1.52587890625e-05 95.45906066894531 -1.52587890625e-05 61.49584197998047 C -1.52587890625e-05 27.53263092041016 27.53263092041016 -1.52587890625e-05 61.49584197998047 -1.52587890625e-05 Z" stroke="none" fill="#fff"/>
      </g>
    </g>
    <g id="Grupo_1098698" data-name="Grupo 1098698" transform="translate(406.755 525.828)" clip-path="url(#clip-path-2)">
      <g id="Grupo_1101077" data-name="Grupo 1101077" transform="translate(23.805 8.802)">
        <g transform="matrix(1, 0, 0, 1, -250.56, -154.63)" filter="url(#Trazado_878123)">
          <g id="Trazado_878123-2" data-name="Trazado 878123" transform="translate(250.56 154.63)" fill="none">
            <path d="M43.667,0A43.667,43.667,0,1,0,87.335,43.667,43.667,43.667,0,0,0,43.667,0Z" stroke="none"/>
            <path d="M 43.66745758056641 15.00000762939453 C 27.86016845703125 15.00000762939453 15.00000762939453 27.86016845703125 15.00000762939453 43.66745758056641 C 15.00000762939453 59.47474670410156 27.86016845703125 72.33490753173828 43.66745758056641 72.33490753173828 C 59.47474670410156 72.33490753173828 72.33490753173828 59.47474670410156 72.33490753173828 43.66745758056641 C 72.33490753173828 27.86016845703125 59.47474670410156 15.00000762939453 43.66745758056641 15.00000762939453 M 43.66745758056641 7.62939453125e-06 C 67.78432464599609 7.62939453125e-06 87.33490753173828 19.55059051513672 87.33490753173828 43.66745758056641 C 87.33490753173828 67.78432464599609 67.78432464599609 87.33490753173828 43.66745758056641 87.33490753173828 C 19.55059051513672 87.33490753173828 7.62939453125e-06 67.78432464599609 7.62939453125e-06 43.66745758056641 C 7.62939453125e-06 19.55059051513672 19.55059051513672 7.62939453125e-06 43.66745758056641 7.62939453125e-06 Z" stroke="none" fill="#25f9df"/>
          </g>
        </g>
      </g>
    </g>
    <g id="Grupo_1103102" data-name="Grupo 1103102" transform="translate(188.481 490.423)">
      <g id="Grupo_1103101" data-name="Grupo 1103101" transform="translate(0 0)" clip-path="url(#clip-path-3)">
        <line id="Línea_792" data-name="Línea 792" x2="17.693" transform="translate(0 8.846)" fill="none" stroke="#ebae3d" stroke-miterlimit="10" stroke-width="2"/>
        <line id="Línea_793" data-name="Línea 793" y2="17.693" transform="translate(8.846 0)" fill="none" stroke="#ebae3d" stroke-miterlimit="10" stroke-width="2"/>
      </g>
    </g>
    <g id="Grupo_1103104" data-name="Grupo 1103104" transform="translate(206.174 552.992)">
      <g id="Grupo_1103103" data-name="Grupo 1103103" transform="translate(0 0)" clip-path="url(#clip-path-4)">
        <line id="Línea_794" data-name="Línea 794" y1="10.725" x2="10.725" transform="translate(0.397 0.397)" fill="none" stroke="#56998a" stroke-miterlimit="10" stroke-width="2"/>
        <line id="Línea_795" data-name="Línea 795" x2="10.725" y2="10.725" transform="translate(0.397 0.397)" fill="none" stroke="#56998a" stroke-miterlimit="10" stroke-width="2"/>
      </g>
    </g>
    <g id="Grupo_1105310" data-name="Grupo 1105310" transform="translate(220.191 399.429)">
      <g id="Grupo_1105303" data-name="Grupo 1105303" transform="translate(13.839 0)">
        <path id="Trazado_889579" data-name="Trazado 889579" d="M794.567,757.628a9.448,9.448,0,0,0,4.861-17.549.778.778,0,1,0-.8,1.333,7.895,7.895,0,1,1-8.124,0,.778.778,0,0,0-.8-1.333,9.449,9.449,0,0,0,4.865,17.549Z" transform="translate(-731.994 -680.909)" fill="#6df4b2"/>
        <path id="Trazado_889580" data-name="Trazado 889580" d="M622.656,751.808a9.448,9.448,0,0,0,4.861-17.549.778.778,0,1,0-.8,1.333,7.9,7.9,0,0,1-4.06,14.666,7.924,7.924,0,0,1-5.783-2.52.776.776,0,0,0-1.135,1.057A9.472,9.472,0,0,0,622.656,751.808Z" transform="translate(-505.082 -676.976)" fill="#6df4b2"/>
        <path id="Trazado_889581" data-name="Trazado 889581" d="M730.712,623.526c8.582-6.626,15.755-25.073,4.482-33s-37.692,7.284-51.55,18.872-16.514,18.5-19.063,24.489c-20.374,2.507-25.018,22.319-14.572,31.439-19.524.379-28.092,20.156-21.415,31.491-11.465,4.787-15.369,15.369-15.369,18.392h93.925" transform="translate(-613.225 -578.453)" fill="#545fec"/>
        <path id="Trazado_889582" data-name="Trazado 889582" d="M539.365,755.294c6.678-11.338-1.891-31.115-21.415-31.491,8.439-15.116-.253-25.193-8.818-28.932-6.827-2.98-9.739-11-17.656-20H431.17A25.753,25.753,0,0,0,437.248,682l23.558,91.691h93.925c0-3.023-3.9-13.605-15.369-18.392Z" transform="translate(-367.919 -636.922)" fill="#545fec"/>
        <path id="Trazado_889583" data-name="Trazado 889583" d="M816.275,809.857a.788.788,0,0,0,.607-.289,25.7,25.7,0,0,1,10.245-7.673.784.784,0,0,0,.438-.47.774.774,0,0,0-.068-.639c-3.049-5.176-2.789-12.509.662-18.684,4.038-7.226,11.364-11.468,20.1-11.636a.775.775,0,0,0,.662-1.155c-3.35-6-4.193-11.581-2.5-16.592,2.306-6.846,8.429-10.148,10.955-11.25a.776.776,0,0,0-.62-1.424,21.041,21.041,0,0,0-11.805,12.178c-1.729,5.127-1.044,10.754,2.03,16.741a24.2,24.2,0,0,0-20.169,12.382c-3.606,6.454-3.989,13.822-1.07,19.466a27.218,27.218,0,0,0-10.064,7.79.777.777,0,0,0,.117,1.093.763.763,0,0,0,.486.172Z" transform="translate(-795.668 -680.916)" fill="#003c70"/>
        <path id="Trazado_889584" data-name="Trazado 889584" d="M759.445,809.857a.788.788,0,0,0,.607-.289A25.719,25.719,0,0,1,770.3,801.9a.784.784,0,0,0,.438-.47.774.774,0,0,0-.068-.639c-3.049-5.176-2.789-12.509.662-18.684,4.038-7.226,11.364-11.468,20.1-11.636a.775.775,0,0,0,.662-1.155c-3.35-6-4.193-11.581-2.5-16.592,2.306-6.846,8.429-10.148,10.955-11.25a.776.776,0,1,0-.619-1.424,21.041,21.041,0,0,0-11.805,12.178c-1.729,5.127-1.044,10.754,2.03,16.741a24.206,24.206,0,0,0-20.169,12.379c-3.607,6.454-3.989,13.822-1.07,19.465a27.22,27.22,0,0,0-10.064,7.79.778.778,0,0,0,.117,1.093.764.764,0,0,0,.487.172Z" transform="translate(-720.407 -680.916)" fill="#003c70"/>
        <path id="Trazado_889585" data-name="Trazado 889585" d="M533.771,809.842a.763.763,0,0,0,.487-.172.778.778,0,0,0,.117-1.093,27.22,27.22,0,0,0-10.064-7.79c2.922-5.643,2.536-13.012-1.07-19.466a24.2,24.2,0,0,0-20.169-12.379c3.075-5.987,3.756-11.614,2.03-16.741A21.041,21.041,0,0,0,493.3,740.024a.776.776,0,1,0-.619,1.424c2.526,1.1,8.646,4.4,10.955,11.251,1.686,5.011.847,10.592-2.5,16.592a.775.775,0,0,0,.662,1.155c8.734.169,16.06,4.411,20.1,11.636,3.451,6.175,3.71,13.508.662,18.684a.774.774,0,0,0,.37,1.109,25.737,25.737,0,0,1,10.245,7.673.772.772,0,0,0,.606.289Z" transform="translate(-367.529 -680.902)" fill="#003c70"/>
        <path id="Trazado_889586" data-name="Trazado 889586" d="M590.6,809.836a.763.763,0,0,0,.486-.172.777.777,0,0,0,.117-1.093,27.22,27.22,0,0,0-10.064-7.79c2.922-5.643,2.539-13.011-1.067-19.465A24.21,24.21,0,0,0,559.9,768.933c3.074-5.987,3.756-11.614,2.03-16.741a21.041,21.041,0,0,0-11.805-12.178.776.776,0,1,0-.619,1.424c2.526,1.1,8.649,4.4,10.955,11.25,1.686,5.011.846,10.592-2.5,16.592a.784.784,0,0,0,0,.765.772.772,0,0,0,.658.389c8.734.169,16.06,4.411,20.1,11.636,3.451,6.175,3.71,13.508.662,18.684a.775.775,0,0,0-.068.639.767.767,0,0,0,.438.47,25.736,25.736,0,0,1,10.245,7.673.772.772,0,0,0,.606.289Z" transform="translate(-442.787 -680.895)" fill="#003c70"/>
        <path id="Trazado_889587" data-name="Trazado 889587" d="M604.078,853.49h-40.5c-9.613,4.469-12.7,10.015-14.364,15.081s4.21,34.141,4.21,34.141h101.3s5.88-29.078,4.21-34.141-4.751-10.612-14.364-15.081h-40.5Z" transform="translate(-510.61 -757.613)" fill="#e9a486"/>
        <path id="Trazado_889588" data-name="Trazado 889588" d="M551.824,906.054h101.3a.778.778,0,0,0,.762-.623c.243-1.2,5.9-29.338,4.187-34.54a23.24,23.24,0,0,0-10.4-13.177.776.776,0,0,0-.827,1.313,21.52,21.52,0,0,1,9.759,12.35c1.284,3.9-2.419,24.648-4.109,33.122H552.463c-1.69-8.474-5.393-29.227-4.109-33.122,1.31-3.976,3.551-8.588,10.242-12.648a.777.777,0,0,0-.808-1.326c-7.161,4.349-9.593,9.493-10.91,13.492-1.713,5.2,3.947,33.343,4.187,34.54a.778.778,0,0,0,.762.623Z" transform="translate(-509.005 -760.18)" fill="#d59275"/>
        <path id="Trazado_889589" data-name="Trazado 889589" d="M634.4,871.081H603.291c.461-12.869-4.268-32.237-9.389-38.477,0,0-.655-.788,1.313-1.878a98.306,98.306,0,0,1,78.368,0c1.969,1.09,1.313,1.878,1.313,1.878-5.121,6.237-9.85,25.608-9.389,38.477Z" transform="translate(-540.931 -736.728)" fill="#f99ec7"/>
        <path id="Trazado_889590" data-name="Trazado 889590" d="M602.121,668.294c.665-4.476,5.332-7.495,10.424-6.739a10.4,10.4,0,0,1,3.584,1.219,24.338,24.338,0,0,1,46.942-1.641,10.474,10.474,0,0,1,3.409-1.125c5.092-.756,9.759,2.261,10.424,6.739s-2.925,8.718-8.02,9.473a10.182,10.182,0,0,1-5.4-.636,24.931,24.931,0,0,1-14.348,16.663c-.1,3.457-.181,12.872,1.605,16.761-.259,8.319-10.475,18.009-11.737,18.009s-11.474-9.691-11.737-18.009c1.952-4.249,1.674-15.081,1.579-17.552a24.975,24.975,0,0,1-12.353-14.8,10.054,10.054,0,0,1-6.36,1.1c-5.092-.756-8.685-5-8.02-9.473Z" transform="translate(-545.583 -616.064)" fill="#e9a486"/>
        <g id="Grupo_1105302" data-name="Grupo 1105302" transform="translate(53.703 83.757)">
          <path id="Trazado_889591" data-name="Trazado 889591" d="M611.6,916.083h.049l3.937-.237a.776.776,0,1,0-.091-1.55l-3.937.237a.776.776,0,0,0,.045,1.55Z" transform="translate(-541.472 -882.455)" fill="#b13a70"/>
          <path id="Trazado_889592" data-name="Trazado 889592" d="M600.273,871.835a.776.776,0,0,0,.136-1.54l-3.422-.62a.776.776,0,1,0-.276,1.528l3.422.619A.677.677,0,0,0,600.273,871.835Z" transform="translate(-521.418 -852.298)" fill="#b13a70"/>
          <path id="Trazado_889593" data-name="Trazado 889593" d="M673.28,900.195a.952.952,0,0,0,.166-.016.778.778,0,0,0,.593-.924l-.8-3.678a.777.777,0,0,0-1.518.331l.8,3.678a.779.779,0,0,0,.759.613Z" transform="translate(-618.957 -869.394)" fill="#b13a70"/>
          <path id="Trazado_889594" data-name="Trazado 889594" d="M646.292,913.955a.779.779,0,0,0,.629-.318l2.063-2.831a.776.776,0,1,0-1.252-.918l-2.063,2.831a.777.777,0,0,0,.626,1.236Z" transform="translate(-585.541 -879.263)" fill="#b13a70"/>
          <path id="Trazado_889595" data-name="Trazado 889595" d="M814.315,924.32h2.6a.775.775,0,0,0,0-1.55h-2.6a.775.775,0,1,0,0,1.55Z" transform="translate(-808.588 -888.182)" fill="#b13a70"/>
          <path id="Trazado_889596" data-name="Trazado 889596" d="M797.715,864.66a.775.775,0,0,0,.577-1.294l-2.153-2.4A.776.776,0,0,0,794.984,862l2.153,2.4a.773.773,0,0,0,.577.259Z" transform="translate(-783.309 -846.245)" fill="#b13a70"/>
          <path id="Trazado_889597" data-name="Trazado 889597" d="M772.127,861.16a.776.776,0,0,0,.73-.516l.827-2.306a.777.777,0,0,0-1.463-.522l-.827,2.306a.775.775,0,0,0,.47.992A.746.746,0,0,0,772.127,861.16Z" transform="translate(-750.945 -843.945)" fill="#b13a70"/>
          <path id="Trazado_889598" data-name="Trazado 889598" d="M759.795,900.2a.775.775,0,0,0,.775-.775v-3.678a.775.775,0,1,0-1.55,0v3.678A.775.775,0,0,0,759.795,900.2Z" transform="translate(-733.788 -869.398)" fill="#b13a70"/>
          <path id="Trazado_889599" data-name="Trazado 889599" d="M776.52,924.827a.768.768,0,0,0,.46-.152.78.78,0,0,0,.166-1.086l-3.126-4.245a.777.777,0,1,0-1.252.921l3.126,4.245a.77.77,0,0,0,.626.315Z" transform="translate(-754.924 -885.653)" fill="#b13a70"/>
          <path id="Trazado_889600" data-name="Trazado 889600" d="M788.045,891.4a.762.762,0,0,0,.509-.191.776.776,0,0,0,.075-1.1l-2.137-2.455a.777.777,0,0,0-1.171,1.022l2.137,2.455A.778.778,0,0,0,788.045,891.4Z" transform="translate(-770.505 -864.275)" fill="#b13a70"/>
          <path id="Trazado_889601" data-name="Trazado 889601" d="M650.3,950.175a.781.781,0,0,0,.71-.46l1.534-3.422a.776.776,0,0,0-1.417-.633l-1.534,3.422a.774.774,0,0,0,.392,1.025.79.79,0,0,0,.318.068Z" transform="translate(-590.313 -903.338)" fill="#b13a70"/>
          <path id="Trazado_889602" data-name="Trazado 889602" d="M786.961,953.971a.774.774,0,0,0,.681-1.148l-1.07-1.952a.777.777,0,1,0-1.362.746l1.07,1.952A.777.777,0,0,0,786.961,953.971Z" transform="translate(-769.418 -906.896)" fill="#b13a70"/>
          <path id="Trazado_889603" data-name="Trazado 889603" d="M619.078,925.225a.777.777,0,0,0,.24-1.515l-2.77-.911a.776.776,0,1,0-.483,1.476l2.77.911A.791.791,0,0,0,619.078,925.225Z" transform="translate(-546.535 -888.175)" fill="#b13a70"/>
          <path id="Trazado_889604" data-name="Trazado 889604" d="M695.632,874.68a.775.775,0,0,0,.636-1.219l-1.978-2.831a.776.776,0,0,0-1.271.889L695,874.349A.773.773,0,0,0,695.632,874.68Z" transform="translate(-648.175 -852.727)" fill="#b13a70"/>
          <path id="Trazado_889605" data-name="Trazado 889605" d="M732.643,878.459a.777.777,0,0,0,.526-.2l2.436-2.241a.776.776,0,1,0-1.051-1.142l-2.436,2.241a.775.775,0,0,0,.525,1.346Z" transform="translate(-700.266 -855.679)" fill="#b13a70"/>
          <path id="Trazado_889606" data-name="Trazado 889606" d="M736.783,871.659a.773.773,0,0,0,.571-.25l2.5-2.711a.776.776,0,1,0-1.142-1.051l-2.5,2.711a.775.775,0,0,0,.571,1.3Z" transform="translate(-705.814 -850.767)" fill="#b13a70"/>
          <path id="Trazado_889607" data-name="Trazado 889607" d="M772.125,821.857a.775.775,0,0,0,.775-.775V816.9a.775.775,0,1,0-1.55,0v4.187A.775.775,0,0,0,772.125,821.857Z" transform="translate(-750.117 -816.12)" fill="#b13a70"/>
          <path id="Trazado_889608" data-name="Trazado 889608" d="M801.149,828.273a.756.756,0,0,0,.331-.075.775.775,0,0,0,.373-1.031l-1.953-4.158a.775.775,0,0,0-1.4.658l1.952,4.158a.778.778,0,0,0,.7.448Z" transform="translate(-787.924 -820.473)" fill="#b13a70"/>
          <path id="Trazado_889609" data-name="Trazado 889609" d="M810.039,834.66a.776.776,0,0,0,.266-1.5l-3-1.093a.777.777,0,1,0-.532,1.459l3,1.093a.77.77,0,0,0,.266.049Z" transform="translate(-799.356 -826.861)" fill="#b13a70"/>
          <path id="Trazado_889610" data-name="Trazado 889610" d="M830.088,841.391a.831.831,0,0,0,.247-.039.781.781,0,0,0,.493-.983l-.872-2.627a.777.777,0,1,0-1.475.49l.872,2.627A.778.778,0,0,0,830.088,841.391Z" transform="translate(-826.598 -830.371)" fill="#b13a70"/>
          <path id="Trazado_889611" data-name="Trazado 889611" d="M830.568,870.542a.756.756,0,0,0,.37-.094l2.277-1.239a.777.777,0,1,0-.743-1.365l-2.277,1.239a.777.777,0,0,0,.373,1.459Z" transform="translate(-829.79 -851.005)" fill="#b13a70"/>
          <path id="Trazado_889612" data-name="Trazado 889612" d="M817.85,910.227a.775.775,0,0,0,.328-1.479l-3.538-1.651a.776.776,0,1,0-.655,1.407l3.538,1.651a.784.784,0,0,0,.327.071Z" transform="translate(-809.525 -877.543)" fill="#b13a70"/>
          <path id="Trazado_889613" data-name="Trazado 889613" d="M600.419,839.669a.782.782,0,0,0,.59-.269l2.967-3.454a.777.777,0,1,0-1.18-1.012l-2.967,3.454a.778.778,0,0,0,.59,1.284Z" transform="translate(-525.694 -828.648)" fill="#b13a70"/>
          <path id="Trazado_889614" data-name="Trazado 889614" d="M625.938,831.489a.779.779,0,0,0,.746-.564l1.093-3.837a.777.777,0,1,0-1.495-.425l-1.093,3.837a.778.778,0,0,0,.535.96.809.809,0,0,0,.214.029Z" transform="translate(-557.611 -822.863)" fill="#b13a70"/>
          <path id="Trazado_889615" data-name="Trazado 889615" d="M632.24,828.467a.771.771,0,0,0,.752-.594l.947-3.892a.776.776,0,0,0-1.508-.367l-.947,3.892a.775.775,0,0,0,.571.937A.723.723,0,0,0,632.24,828.467Z" transform="translate(-565.81 -820.784)" fill="#b13a70"/>
          <path id="Trazado_889616" data-name="Trazado 889616" d="M666.784,825.569h.023a.776.776,0,0,0,.752-.8l-.117-3.837a.77.77,0,0,0-.8-.752.778.778,0,0,0-.752.8l.117,3.837a.775.775,0,0,0,.775.753Z" transform="translate(-610.574 -818.862)" fill="#b13a70"/>
          <path id="Trazado_889617" data-name="Trazado 889617" d="M629.31,861.056a.763.763,0,0,0,.493-.178l2.682-2.212a.776.776,0,0,0-.989-1.2l-2.682,2.212a.777.777,0,0,0,.5,1.375Z" transform="translate(-563.665 -843.939)" fill="#b13a70"/>
          <path id="Trazado_889618" data-name="Trazado 889618" d="M662.551,857.429a.762.762,0,0,0,.516-.2.776.776,0,0,0,.062-1.1l-2.063-2.316a.776.776,0,0,0-1.158,1.035l2.063,2.316A.774.774,0,0,0,662.551,857.429Z" transform="translate(-604.336 -841.418)" fill="#b13a70"/>
        </g>
        <path id="Trazado_889619" data-name="Trazado 889619" d="M727.787,635.728c-5.568,2.935-18.1,27.862-29.707,21.272C700.853,642.108,710.878,633.805,727.787,635.728Z" transform="translate(-627.538 -610.29)" fill="#545fec"/>
        <path id="Trazado_889620" data-name="Trazado 889620" d="M666.369,685.643a13.673,13.673,0,0,0-.983-1.1c-.337-.344-.694-.668-1.064-.986a15.912,15.912,0,0,0-2.423-1.693,13.468,13.468,0,0,0-2.818-1.223,13.329,13.329,0,0,0-3.159-.568,2.252,2.252,0,0,0-2.426,2.059,2.122,2.122,0,0,0,1.463,2.215,5.064,5.064,0,0,0,2.085.1,10.323,10.323,0,0,1,3.694.182,13.288,13.288,0,0,1,2.335.83c.379.182.759.373,1.125.587s.739.454,1.051.675l.062.042a.777.777,0,0,0,1.054-1.122Z" transform="translate(-551.827 -640.434)" fill="#545fec"/>
        <path id="Trazado_889621" data-name="Trazado 889621" d="M723.106,686.693a13.686,13.686,0,0,1,.983-1.1c.337-.344.694-.668,1.064-.986a15.924,15.924,0,0,1,2.422-1.693,13.478,13.478,0,0,1,2.818-1.223,13.33,13.33,0,0,1,3.159-.568,2.252,2.252,0,0,1,2.426,2.059,2.123,2.123,0,0,1-1.463,2.215,5.067,5.067,0,0,1-2.085.1,10.324,10.324,0,0,0-3.694.182,13.3,13.3,0,0,0-2.335.83c-.379.182-.759.373-1.125.587s-.74.454-1.051.674l-.062.042a.777.777,0,0,1-1.054-1.122Z" transform="translate(-643.798 -641.143)" fill="#545fec"/>
        <path id="Trazado_889622" data-name="Trazado 889622" d="M645.11,660.019a.776.776,0,0,0,.4-1.443,6.834,6.834,0,0,1-2.588-8.338c.632-1.563,2.108-4.333,4.874-5.316,2.15-.766,4.751-.392,7.728,1.112a9.267,9.267,0,0,0,4.232,1.048c6.866,0,13.459-7.917,20.373-16.216l1.252-1.5c8.63-10.323,18.3-10.7,21.557-8.6a.777.777,0,0,0,.84-1.307c-4.4-2.831-15.048-1.307-23.587,8.912l-1.252,1.5c-7.913,9.5-15.389,18.473-22.712,14.776-3.37-1.7-6.383-2.1-8.948-1.19-2.474.879-4.531,3.081-5.8,6.2a8.41,8.41,0,0,0,3.233,10.255A.761.761,0,0,0,645.11,660.019Z" transform="translate(-585.329 -598.63)" fill="#003c70"/>
        <ellipse id="Elipse_11863" data-name="Elipse 11863" cx="16.997" cy="16.997" rx="16.997" ry="16.997" transform="matrix(-0.16, -0.987, 0.987, -0.16, 55.626, 39.003)" fill="#545fec"/>
        <path id="Trazado_889623" data-name="Trazado 889623" d="M734.551,622.014a3.276,3.276,0,0,0,2.351-1.054c8.556-9.214,23.312-17.75,23.458-17.834a3.3,3.3,0,0,0-3.289-5.721c-.639.366-15.759,9.11-25,19.063a3.3,3.3,0,0,0,2.484,5.546Z" transform="translate(-672.503 -584.283)" fill="#003c70"/>
        <path id="Trazado_889624" data-name="Trazado 889624" d="M766.2,600.63a.757.757,0,0,0,.331-.075.775.775,0,0,0,.37-1.035l-4.631-9.8a.777.777,0,1,0-1.4.665l4.631,9.8A.78.78,0,0,0,766.2,600.63Z" transform="translate(-687.061 -579.089)" fill="#003c70"/>
        <path id="Trazado_889625" data-name="Trazado 889625" d="M787.53,610.422a.777.777,0,0,0,.619-1.245l-7.573-9.976a.775.775,0,0,0-1.236.937l7.573,9.976a.779.779,0,0,0,.619.308Z" transform="translate(-714.361 -585.586)" fill="#003c70"/>
        <path id="Trazado_889626" data-name="Trazado 889626" d="M803.634,628.212a.777.777,0,0,0,.529-1.346l-7.748-7.177a.776.776,0,0,0-1.054,1.138L803.109,628a.767.767,0,0,0,.529.208Z" transform="translate(-735.632 -599.498)" fill="#003c70"/>
        <ellipse id="Elipse_11864" data-name="Elipse 11864" cx="3.097" cy="3.671" rx="3.097" ry="3.671" transform="translate(102.481 47.161)" fill="#003c70"/>
        <path id="Trazado_889627" data-name="Trazado 889627" d="M668.25,707.838a1.738,1.738,0,1,0,1.738-1.738A1.738,1.738,0,0,0,668.25,707.838Z" transform="translate(-561.803 -658.024)" fill="#fff"/>
        <ellipse id="Elipse_11865" data-name="Elipse 11865" cx="3.097" cy="3.671" rx="3.097" ry="3.671" transform="translate(83.852 47.161)" fill="#003c70"/>
        <path id="Trazado_889628" data-name="Trazado 889628" d="M725.69,707.838a1.738,1.738,0,1,0,1.738-1.738A1.738,1.738,0,0,0,725.69,707.838Z" transform="translate(-637.872 -658.024)" fill="#fff"/>
        <path id="Trazado_889629" data-name="Trazado 889629" d="M699.739,694.337c.863.075,4.132,13.112,4.008,15.5s-8.205,2.011-8.452.441S697.7,694.158,699.739,694.337Z" transform="translate(-602.593 -650.075)" fill="#dd9475"/>
        <path id="Trazado_889630" data-name="Trazado 889630" d="M708.839,756.8c-2.222.165-10.8-1.748-11.906-2.857s-.367,4.2,5.552,6.243c4.628,1.592,6.353-3.383,6.353-3.383Z" transform="translate(-608.077 -690.251)" fill="#fff"/>
        <path id="Trazado_889631" data-name="Trazado 889631" d="M701.243,753.955a7.863,7.863,0,0,0,1.323-.094.776.776,0,1,0-.259-1.531c-3.25.551-13.106-1.878-14.847-3.665a.777.777,0,0,0-1.112,1.086c2.017,2.066,10.592,4.2,14.893,4.2Z" transform="translate(-599.087 -686.627)" fill="#003c70"/>
        <path id="Trazado_889632" data-name="Trazado 889632" d="M731.583,748.006a.775.775,0,0,0,.733-.519,5.3,5.3,0,0,1,2.277-2.478.776.776,0,0,0-.464-1.482,6.563,6.563,0,0,0-3.276,3.444.774.774,0,0,0,.473.989.792.792,0,0,0,.259.045Z" transform="translate(-645.503 -683.289)" fill="#003c70"/>
        <path id="Trazado_889633" data-name="Trazado 889633" d="M701.147,758.471c2.893,0,5.205-1.515,5.9-3.95a.777.777,0,1,0-1.495-.425c-.636,2.238-3.055,3.01-5.17,2.779a6.422,6.422,0,0,1-5.951-6.042.775.775,0,1,0-1.547.094,8.033,8.033,0,0,0,7.333,7.492A8.341,8.341,0,0,0,701.147,758.471Z" transform="translate(-605.137 -687.758)" fill="#003c70"/>
        <path id="Trazado_889636" data-name="Trazado 889636" d="M629.581,714.628a.782.782,0,0,0,.425-.126,5,5,0,0,0,1.946-4.667,4.128,4.128,0,0,0-2.348-3.59.776.776,0,0,0-.6,1.433,2.624,2.624,0,0,1,1.4,2.3,3.536,3.536,0,0,1-1.252,3.224.777.777,0,0,0,.425,1.427Z" transform="translate(-509.172 -658.081)" fill="#d59275"/>
        <path id="Trazado_889637" data-name="Trazado 889637" d="M617.479,713.261a.777.777,0,0,0,.61-1.258,5.392,5.392,0,0,0-5.027-1.965,2.636,2.636,0,0,0-2.186,1.508.776.776,0,0,0,1.466.512c.045-.133.354-.383.976-.49a3.8,3.8,0,0,1,3.551,1.4A.771.771,0,0,0,617.479,713.261Z" transform="translate(-489.711 -660.641)" fill="#d59275"/>
        <path id="Trazado_889638" data-name="Trazado 889638" d="M796.771,718.621a.764.764,0,0,0,.59-.272.779.779,0,0,0-.084-1.1,3.535,3.535,0,0,1-.833-3.357,2.627,2.627,0,0,1,1.68-2.1.777.777,0,1,0-.409-1.5,4.128,4.128,0,0,0-2.786,3.263,5,5,0,0,0,1.339,4.878.772.772,0,0,0,.506.188Z" transform="translate(-729.81 -660.838)" fill="#d59275"/>
        <path id="Trazado_889639" data-name="Trazado 889639" d="M807.762,715.263a.95.95,0,0,0,.162-.016.78.78,0,0,0,.6-.921,2.632,2.632,0,0,0-1.975-1.771,5.383,5.383,0,0,0-5.234,1.31.778.778,0,0,0,1.086,1.112,3.809,3.809,0,0,1,3.7-.937c.606.185.879.47.908.61a.776.776,0,0,0,.759.616Z" transform="translate(-741.695 -662.245)" fill="#d59275"/>
        <path id="Trazado_889640" data-name="Trazado 889640" d="M642.929,753.233c9.1,0,14.756-3.678,17.938-6.843a22.652,22.652,0,0,0,6.587-14.322.776.776,0,1,0-1.55-.091c-.47,8.26-7.31,20.315-24.223,19.679a.776.776,0,1,0-.058,1.55C642.067,753.223,642.5,753.233,642.929,753.233Z" transform="translate(-548.654 -675.015)" fill="#d59275"/>
        <path id="Trazado_889641" data-name="Trazado 889641" d="M681.428,815.1a.773.773,0,0,0,.678-.4,13.165,13.165,0,0,0,1.9-6.532l.006-.221a.8.8,0,0,0-.1-.412c-1.372-2.448-2.267-13.809-1.54-16.154a.778.778,0,0,0-1.485-.461c-.84,2.708.023,13.988,1.566,17.169v.029a11.737,11.737,0,0,1-1.7,5.821.78.78,0,0,0,.3,1.057.759.759,0,0,0,.379.1Z" transform="translate(-578.078 -714.966)" fill="#d59275"/>
        <path id="Trazado_889642" data-name="Trazado 889642" d="M663.442,660.722a.793.793,0,0,0,.149-.013.777.777,0,0,0,.616-.908c-1.414-7.342-12-17.37-20.876-17.562a.777.777,0,1,0-.036,1.553c8.092.175,18.1,9.635,19.384,16.3a.774.774,0,0,0,.762.629Z" transform="translate(-545.958 -614.875)" fill="#003c70"/>
        <ellipse id="Elipse_11866" data-name="Elipse 11866" cx="8.063" cy="8.062" rx="8.063" ry="8.062" transform="translate(90.342 123.389)" fill="#b13a70"/>
      </g>
      <g id="Grupo_1105309" data-name="Grupo 1105309" transform="translate(0 42.147)">
        <g id="Grupo_1105304" data-name="Grupo 1105304" transform="translate(116.745 152.023)">
          <path id="Trazado_889644" data-name="Trazado 889644" d="M520.929,1156.823c-13.715-1.336-25.731,2.741-29.61,9.447-5.825.36-10.394,3.785-10.381,7.946.013,4.391,5.111,7.936,11.393,7.917a15.721,15.721,0,0,0,4.08-.542c5.043,3.85,12.658,6.71,21.369,7.56,16.187,1.576,30.009-4.385,30.881-13.313s-11.546-17.442-27.732-19.018Z" transform="translate(-480.937 -1156.57)" fill="#545fec"/>
          <path id="Trazado_889645" data-name="Trazado 889645" d="M620.979,1173.8a2.33,2.33,0,0,0,2.3-1.959h0a2.327,2.327,0,1,0-2.666,1.93A2.359,2.359,0,0,0,620.979,1173.8Zm0-3.1a.792.792,0,0,1,.123.01.774.774,0,0,1,.642.889h0a.775.775,0,1,1-1.219-.752A.764.764,0,0,1,620.975,1170.7Z" transform="translate(-600.2 -1165.07)" fill="#003c70"/>
          <path id="Trazado_889646" data-name="Trazado 889646" d="M598.059,1172.631a2.33,2.33,0,0,0,2.3-1.959h0a2.327,2.327,0,1,0-2.666,1.93A2.357,2.357,0,0,0,598.059,1172.631Zm0-3.1a.763.763,0,0,1,.123.01.774.774,0,0,1,.642.889h0a.775.775,0,1,1-1.219-.753A.765.765,0,0,1,598.055,1169.527Z" transform="translate(-569.846 -1164.276)" fill="#003c70"/>
          <path id="Trazado_889647" data-name="Trazado 889647" d="M554.638,1166.353a2.327,2.327,0,1,0-.37-.029,2.358,2.358,0,0,0,.37.029Zm0-3.1a.792.792,0,0,1,.123.01.774.774,0,0,1,.642.889h0a.775.775,0,1,1-.765-.9Z" transform="translate(-512.344 -1160.035)" fill="#003c70"/>
          <path id="Trazado_889648" data-name="Trazado 889648" d="M576.069,1170a2.33,2.33,0,0,0,2.3-1.959h0a2.327,2.327,0,1,0-2.666,1.93A2.359,2.359,0,0,0,576.069,1170Zm.765-2.205a.775.775,0,1,1-1.219-.753.777.777,0,0,1,1.083.175.777.777,0,0,1,.136.577h0Z" transform="translate(-540.725 -1162.499)" fill="#003c70"/>
          <path id="Trazado_889649" data-name="Trazado 889649" d="M609.153,1230.782a2.288,2.288,0,0,0,.328-.023,2.332,2.332,0,0,0,1.982-2.63h0a2.327,2.327,0,1,0-4.609.652,2.335,2.335,0,0,0,2.3,2Zm.769-2.436a.775.775,0,1,1-1.534.217.776.776,0,0,1,1.537-.217h0Z" transform="translate(-584.547 -1203.569)" fill="#003c70"/>
          <path id="Trazado_889650" data-name="Trazado 889650" d="M586.273,1232.377a2.247,2.247,0,0,0,.331-.023,2.4,2.4,0,1,0-.334.019Zm.007-3.1a.772.772,0,0,1,.765.668.776.776,0,0,1-1.537.214.78.78,0,0,1,.658-.876.606.606,0,0,1,.107-.006Z" transform="translate(-554.247 -1204.645)" fill="#003c70"/>
          <path id="Trazado_889651" data-name="Trazado 889651" d="M542.973,1239.482a2.253,2.253,0,0,0,.328-.023,2.331,2.331,0,0,0,1.982-2.63h0a2.327,2.327,0,1,0-4.609.652,2.335,2.335,0,0,0,2.3,2Zm0-3.1a.775.775,0,0,1,.765.668h0a.775.775,0,0,1-1.534.217.777.777,0,0,1,.662-.876.631.631,0,0,1,.11-.006Zm1.534.558h0Z" transform="translate(-496.903 -1209.448)" fill="#003c70"/>
          <path id="Trazado_889652" data-name="Trazado 889652" d="M564.333,1235.417a2.266,2.266,0,0,0,.331-.023,2.4,2.4,0,1,0-.334.019Zm0-3.1a.772.772,0,0,1,.765.668.776.776,0,0,1-1.537.214.779.779,0,0,1,.658-.876.594.594,0,0,1,.107-.006Z" transform="translate(-525.191 -1206.699)" fill="#003c70"/>
          <path id="Trazado_889653" data-name="Trazado 889653" d="M543.786,1192.675a.778.778,0,0,0,.736-.529c3.314-9.781.263-17.879-3.353-21.843a.776.776,0,0,0-1.145,1.047c3.334,3.649,6.126,11.156,3.029,20.3a.781.781,0,0,0,.487.986.741.741,0,0,0,.25.042Z" transform="translate(-497.272 -1165.679)" fill="#003c70"/>
          <path id="Trazado_889654" data-name="Trazado 889654" d="M563.1,1193.8a.776.776,0,0,0,.707-.451c3.6-7.787.8-17.584-4.009-20.14a.777.777,0,0,0-.73,1.372c4.138,2.2,6.535,11.169,3.327,18.116a.776.776,0,0,0,.7,1.1Z" transform="translate(-522.877 -1167.752)" fill="#003c70"/>
          <path id="Trazado_889655" data-name="Trazado 889655" d="M586,1194.065a.776.776,0,0,0,.678-.4c1.686-3.01,1.917-7.783.587-12.162-.941-3.1-2.465-5.309-4.287-6.233a.777.777,0,1,0-.7,1.385c1.42.72,2.7,2.65,3.5,5.3,1.2,3.931,1.015,8.332-.454,10.949a.774.774,0,0,0,.3,1.057A.764.764,0,0,0,586,1194.065Z" transform="translate(-553.077 -1169.151)" fill="#003c70"/>
          <path id="Trazado_889656" data-name="Trazado 889656" d="M608.519,1194.183a.775.775,0,0,0,.72-.487c2.436-6.055,1.638-14.594-3.9-17.828a.777.777,0,0,0-.782,1.343c4.667,2.727,5.439,10.427,3.237,15.908a.774.774,0,0,0,.431,1.008.757.757,0,0,0,.289.055Z" transform="translate(-582.745 -1169.538)" fill="#003c70"/>
          <path id="Trazado_889657" data-name="Trazado 889657" d="M536.264,1173.823a77.059,77.059,0,0,0,13.79-1.433c7.722-1.482,16.829-4.388,18.567-7.265a.777.777,0,1,0-1.33-.8c-1.07,1.767-7.92,4.7-17.533,6.545-10.235,1.965-19.157,1.849-23.863-.314a.776.776,0,1,0-.645,1.411c3.039,1.4,7.034,1.865,11.017,1.865Z" transform="translate(-515.19 -1161.554)" fill="#003c70"/>
          <path id="Trazado_889658" data-name="Trazado 889658" d="M550.483,1228.771a.778.778,0,0,0,.428-1.427,53.838,53.838,0,0,0-26.639-8.763c-7.962-.376-14.7,1.288-17.584,4.339a.775.775,0,0,0,1.125,1.067c4.631-4.9,24.687-6.9,42.242,4.654a.765.765,0,0,0,.425.126Z" transform="translate(-491.775 -1198.434)" fill="#003c70"/>
          <path id="Trazado_889659" data-name="Trazado 889659" d="M496.055,1193.837a.755.755,0,0,0,.276-.052c4.19-1.593,8.526-6.084,8.309-11.264-.195-4.667-5.183-9.551-13.686-13.4a.776.776,0,1,0-.642,1.414c7.832,3.548,12.606,8.053,12.775,12.052.188,4.456-3.626,8.348-7.31,9.749a.776.776,0,0,0,.276,1.5Z" transform="translate(-439.774 -1165.002)" fill="#003c70"/>
          <path id="Trazado_889660" data-name="Trazado 889660" d="M513.012,1173.19a.773.773,0,0,0,.623-.312l1.586-2.124a.776.776,0,1,0-1.245-.928l-1.586,2.125a.779.779,0,0,0,.623,1.242Z" transform="translate(-457.758 -1165.315)" fill="#003c70"/>
          <path id="Trazado_889661" data-name="Trazado 889661" d="M501.433,1178.952a.769.769,0,0,0,.564-.243l2.04-2.163a.776.776,0,0,0-1.129-1.064l-2.04,2.163a.774.774,0,0,0,.032,1.1A.764.764,0,0,0,501.433,1178.952Z" transform="translate(-442.878 -1169.184)" fill="#003c70"/>
          <path id="Trazado_889662" data-name="Trazado 889662" d="M491.9,1187.686a.78.78,0,0,0,.4-.11l2.711-1.628a.775.775,0,0,0-.8-1.33l-2.711,1.628a.775.775,0,0,0,.4,1.44Z" transform="translate(-430.93 -1175.447)" fill="#003c70"/>
          <path id="Trazado_889663" data-name="Trazado 889663" d="M483.679,1197.944a.757.757,0,0,0,.279-.052l3.123-1.21a.777.777,0,0,0-.561-1.45l-3.123,1.21a.777.777,0,0,0,.279,1.5Z" transform="translate(-420.447 -1182.659)" fill="#003c70"/>
          <path id="Trazado_889664" data-name="Trazado 889664" d="M483.019,1210.206a.775.775,0,0,0,.075-1.547l-3.665-.357a.775.775,0,1,0-.149,1.544l3.665.357C482.97,1210.2,483,1210.206,483.019,1210.206Z" transform="translate(-415.262 -1191.522)" fill="#003c70"/>
          <path id="Trazado_889665" data-name="Trazado 889665" d="M485.152,1221.368a.776.776,0,0,0,.246-1.511l-3.451-1.161a.776.776,0,1,0-.493,1.473l3.451,1.161a.73.73,0,0,0,.246.042Z" transform="translate(-418.158 -1198.52)" fill="#003c70"/>
          <path id="Trazado_889666" data-name="Trazado 889666" d="M491.772,1230.774a.776.776,0,0,0,.451-1.408l-2.591-1.849a.777.777,0,1,0-.9,1.265l2.591,1.849a.777.777,0,0,0,.451.146Z" transform="translate(-427.204 -1204.411)" fill="#003c70"/>
          <path id="Trazado_889667" data-name="Trazado 889667" d="M500.465,1238.326a.775.775,0,0,0,.516-1.356l-2.024-1.8a.776.776,0,1,0-1.031,1.161l2.024,1.8A.781.781,0,0,0,500.465,1238.326Z" transform="translate(-438.9 -1209.547)" fill="#003c70"/>
          <path id="Trazado_889668" data-name="Trazado 889668" d="M614.546,1189.458a22.8,22.8,0,0,0,5.316-.516c.26-.081.954-.292,1.022-.934.139-1.3-5.251-7.508-9.729-8.831-2.757-.814-4.92.156-6.253,2.809-1.19,2.364-.548,3.915.2,4.8,1.764,2.092,5.935,2.672,9.451,2.672Zm4.81-1.414Zm-.272-.493c-2.234.506-10.047.892-12.6-1.557-.538-.516-1.145-1.424-.195-3.315.8-1.6,1.9-2.322,3.347-2.218,3.58.247,8.247,5.273,9.447,7.089Z" transform="translate(-593.109 -1171.656)" fill="#003c70"/>
          <path id="Trazado_889669" data-name="Trazado 889669" d="M608.642,1216.728a3.325,3.325,0,0,0,.409-.023c4.589-.493,9.441-9.068,10.044-11.036a1.255,1.255,0,0,0-.2-1.369h0c-1-.843-9.162.156-12.765,3.13-2.215,1.829-2.62,4.164-1.167,6.752,1.148,2.046,2.572,2.543,3.684,2.543Zm8.864-11.189c-.83,2.134-4.881,8.828-8.335,9.577-.73.159-1.819.152-2.854-1.69-.872-1.557-.863-2.87.032-4.015,2.186-2.805,8.857-3.869,11.1-3.869h.062Zm.561.052Z" transform="translate(-591.388 -1188.626)" fill="#003c70"/>
        </g>
        <path id="Trazado_889670" data-name="Trazado 889670" d="M586.564,1090.553c4.735-2.481,20.069-4.284,16.462-16.462s-30.217-25.031-48.18-25.031-44.5,5.481-57.809,5.481-39.846-5.481-57.809-5.481-44.571,12.853-48.18,25.031,11.724,13.981,16.462,16.462c3.872,2.027,27.317,17.328,69.91,19.877,9.486.567,18.133-.324,31.306-.483,35.341-.428,73.1-16.913,77.836-19.391Z" transform="translate(-389.73 -931.904)" fill="#e9a486"/>
        <path id="Trazado_889671" data-name="Trazado 889671" d="M963.069,1098.494a.775.775,0,0,0,.341-1.472c-3.5-1.709-6.078-3.175-7.618-4.054-.59-.334-1.054-.6-1.388-.775a30.951,30.951,0,0,0-4.057-1.567c-6.2-2.108-14.685-5-12.019-13.985,2.773-9.36,19.566-18.846,34.2-22.611a.775.775,0,0,0-.386-1.5c-14.844,3.817-32.257,13.41-35.3,23.672-3.087,10.42,6.989,13.848,13.008,15.9a30.487,30.487,0,0,1,3.837,1.472c.308.162.762.422,1.339.749,1.557.885,4.161,2.371,7.706,4.1a.8.8,0,0,0,.34.078Z" transform="translate(-936.264 -934.231)" fill="#aa4c33"/>
        <path id="Trazado_889672" data-name="Trazado 889672" d="M388.881,1133.487h.036c33.593-1.528,68.6-16.482,74.1-19.362a30.309,30.309,0,0,1,3.837-1.472c6.019-2.05,16.1-5.478,13.008-15.9-1.686-5.689-7.68-10.589-12.412-13.7a.778.778,0,1,0-.853,1.3c6.383,4.193,10.563,8.753,11.776,12.843,2.663,8.99-5.825,11.876-12.019,13.984a31.143,31.143,0,0,0-4.057,1.566c-5.448,2.854-40.141,17.672-73.448,19.187a.777.777,0,0,0,.036,1.553Z" transform="translate(-265.818 -954.789)" fill="#aa4c33"/>
        <path id="Trazado_889673" data-name="Trazado 889673" d="M667.585,1121.93H577.62l38.162,23.831h7.771Z" transform="translate(-514.429 -981.141)" fill="#6df4b2"/>
        <g id="Grupo_1105307" data-name="Grupo 1105307" transform="translate(80.228 140.06)">
          <path id="Trazado_889674" data-name="Trazado 889674" d="M648.02,1123.583c.879,1.434,2.384,2.1,3.363,1.5s1.061-2.247.182-3.681-2.384-2.1-3.363-1.505S647.141,1122.15,648.02,1123.583Z" transform="translate(-601.881 -1119.683)" fill="#fff"/>
          <path id="Trazado_889675" data-name="Trazado 889675" d="M634.9,1124.71c-1.433.879-2.1,2.384-1.5,3.363s2.247,1.06,3.681.182,2.1-2.384,1.5-3.363S636.331,1123.831,634.9,1124.71Z" transform="translate(-583.887 -1122.668)" fill="#fff"/>
          <path id="Trazado_889676" data-name="Trazado 889676" d="M641.755,1137.4c-.879-1.434-2.384-2.1-3.363-1.505s-1.061,2.248-.182,3.681,2.384,2.1,3.363,1.5S642.634,1138.831,641.755,1137.4Z" transform="translate(-588.889 -1130.487)" fill="#fff"/>
          <path id="Trazado_889677" data-name="Trazado 889677" d="M653.073,1138.065c1.434-.879,2.1-2.384,1.5-3.363s-2.247-1.061-3.681-.182-2.1,2.384-1.5,3.363S651.64,1138.944,653.073,1138.065Z" transform="translate(-605.076 -1129.296)" fill="#fff"/>
          <path id="Trazado_889678" data-name="Trazado 889678" d="M644.837,1133.32a1.762,1.762,0,1,0,.581-2.423A1.76,1.76,0,0,0,644.837,1133.32Z" transform="translate(-596.888 -1127.084)" fill="#fff468"/>
          <path id="Trazado_889679" data-name="Trazado 889679" d="M679.7,1142.02a1.762,1.762,0,1,0,.581-2.423A1.76,1.76,0,0,0,679.7,1142.02Z" transform="translate(-643.054 -1132.962)" fill="#fff468"/>
          <path id="Trazado_889680" data-name="Trazado 889680" d="M710.5,1131.493a1.41,1.41,0,1,0,.464-1.939A1.408,1.408,0,0,0,710.5,1131.493Z" transform="translate(-683.217 -1126.211)" fill="#fff"/>
          <path id="Trazado_889681" data-name="Trazado 889681" d="M793.994,1139.053a1.41,1.41,0,1,0,.464-1.939A1.408,1.408,0,0,0,793.994,1139.053Z" transform="translate(-793.784 -1131.319)" fill="#fff"/>
          <path id="Trazado_889682" data-name="Trazado 889682" d="M743.637,1161.33a1.762,1.762,0,1,0,.581-2.423A1.76,1.76,0,0,0,743.637,1161.33Z" transform="translate(-727.731 -1146.01)" fill="#fff468"/>
          <g id="Grupo_1105305" data-name="Grupo 1105305" transform="translate(21.375 7.998)">
            <path id="Trazado_889683" data-name="Trazado 889683" d="M718.07,1148.244c.879,1.433,2.384,2.1,3.363,1.5s1.061-2.248.182-3.681-2.384-2.1-3.363-1.5S717.191,1146.81,718.07,1148.244Z" transform="translate(-716.024 -1144.343)" fill="#fff"/>
            <path id="Trazado_889684" data-name="Trazado 889684" d="M704.957,1149.37c-1.433.879-2.1,2.384-1.5,3.363s2.247,1.06,3.681.182,2.1-2.384,1.5-3.363S706.391,1148.491,704.957,1149.37Z" transform="translate(-698.044 -1147.328)" fill="#fff"/>
            <path id="Trazado_889685" data-name="Trazado 889685" d="M711.8,1162.067c-.879-1.434-2.384-2.1-3.363-1.505s-1.06,2.248-.182,3.681,2.384,2.1,3.363,1.5S712.684,1163.5,711.8,1162.067Z" transform="translate(-703.033 -1155.154)" fill="#fff"/>
            <path id="Trazado_889686" data-name="Trazado 889686" d="M723.133,1162.725c1.433-.879,2.1-2.384,1.5-3.363s-2.248-1.061-3.681-.182-2.1,2.384-1.5,3.363S721.7,1163.6,723.133,1162.725Z" transform="translate(-719.233 -1153.956)" fill="#fff"/>
            <path id="Trazado_889687" data-name="Trazado 889687" d="M714.9,1157.99a1.762,1.762,0,1,0,.581-2.422A1.76,1.76,0,0,0,714.9,1157.99Z" transform="translate(-711.045 -1151.751)" fill="#fff468"/>
          </g>
          <g id="Grupo_1105306" data-name="Grupo 1105306" transform="translate(6.93 0.726)">
            <path id="Trazado_889688" data-name="Trazado 889688" d="M762.61,1125.824c.879,1.433,2.384,2.1,3.363,1.5s1.061-2.248.182-3.681-2.384-2.1-3.363-1.5S761.731,1124.39,762.61,1125.824Z" transform="translate(-760.564 -1121.923)" fill="#fff"/>
            <path id="Trazado_889689" data-name="Trazado 889689" d="M749.5,1126.96c-1.434.879-2.1,2.384-1.5,3.363s2.248,1.06,3.681.182,2.1-2.384,1.5-3.363S750.931,1126.081,749.5,1126.96Z" transform="translate(-742.584 -1124.915)" fill="#fff"/>
            <path id="Trazado_889690" data-name="Trazado 889690" d="M756.355,1139.647c-.879-1.434-2.384-2.1-3.363-1.5s-1.061,2.247-.182,3.681,2.384,2.1,3.363,1.5S757.234,1141.081,756.355,1139.647Z" transform="translate(-747.586 -1132.734)" fill="#fff"/>
            <path id="Trazado_889691" data-name="Trazado 889691" d="M767.673,1140.315c1.434-.879,2.1-2.384,1.5-3.363s-2.247-1.06-3.681-.182-2.1,2.384-1.5,3.363S766.24,1141.194,767.673,1140.315Z" transform="translate(-763.773 -1131.543)" fill="#fff"/>
            <path id="Trazado_889692" data-name="Trazado 889692" d="M759.437,1135.57a1.762,1.762,0,1,0,.581-2.423A1.76,1.76,0,0,0,759.437,1135.57Z" transform="translate(-755.585 -1129.331)" fill="#fff468"/>
          </g>
        </g>
        <path id="Trazado_889693" data-name="Trazado 889693" d="M548.019,687.82H465.96l44.13,107.459h75.858L630.08,687.82Z" transform="translate(-439.847 -687.82)" opacity="0.7" fill="url(#linear-gradient)"/>
        <path id="Trazado_889694" data-name="Trazado 889694" d="M599.856,1011.274l-46.715-1.262s-14.8-49.059-9.207-53.266,55.922-3.879,55.922-3.879,50.334-.324,55.922,3.879-9.207,53.266-9.207,53.266Z" transform="translate(-492.549 -866.904)" fill="#b9c5cd"/>
        <ellipse id="Elipse_11867" data-name="Elipse 11867" cx="7.475" cy="7.475" rx="7.475" ry="7.475" transform="translate(100.89 125.521) rotate(-97.54)" fill="#fefcfd"/>
        <path id="Trazado_889695" data-name="Trazado 889695" d="M718.99,1096.111c26.039-5.617,55.73,16.686,79.688,27.93C781.045,1147.752,724.169,1117.694,718.99,1096.111Z" transform="translate(-691.37 -963.093)" fill="#f0b79e"/>
        <path id="Trazado_889696" data-name="Trazado 889696" d="M797.056,1123.218a.776.776,0,0,0,.331-1.479c-5.588-2.62-11.426-5.815-17.6-9.194-19.851-10.855-42.349-23.156-62.577-18.794a.778.778,0,0,0,.328,1.521c19.66-4.242,41.892,7.913,61.5,18.638,6.2,3.392,12.061,6.593,17.691,9.236a.794.794,0,0,0,.331.075Z" transform="translate(-689.749 -961.491)" fill="#aa4c33"/>
        <path id="Trazado_889697" data-name="Trazado 889697" d="M589.092,1100.234c-11.224-5.007-28.491,1.34-53.357,13.1s-38.162,15.389-44.9,15.045c4.836,7.424,25.381,10.534,37.815,7.771s57.5-8.634,60.436-35.915Z" transform="translate(-407.792 -965.315)" fill="#f0b79e"/>
        <path id="Trazado_889698" data-name="Trazado 889698" d="M489.217,1117.856a.742.742,0,0,0,.308-.065c3.678-1.589,7.657-3.4,11.821-5.368,25.225-11.932,41.934-17.9,52.708-13.1a.776.776,0,0,0,.632-1.417c-11.319-5.049-28.371.983-54.005,13.109-4.151,1.962-8.111,3.762-11.773,5.345a.776.776,0,0,0,.308,1.489Z" transform="translate(-373.069 -963.703)" fill="#aa4c33"/>
        <path id="Trazado_889699" data-name="Trazado 889699" d="M715.573,1164.978c-.7-.983-24.34,6.2-26.879,7.158s.441,17.377,1.8,17.9,29.1-.5,29.662-1.158-1.135-19.044-4.586-23.9Z" transform="translate(-602.807 -1010.166)" fill="#fff"/>
        <path id="Trazado_889700" data-name="Trazado 889700" d="M689.631,1228.022c3.83,0,9.4-.2,11.614-.279,14.455-.548,14.837-1,15.094-1.291.2-.237.545-.629.013-6a.777.777,0,1,0-1.547.152,39.79,39.79,0,0,1,.269,4.735c-3.422.593-26.993,1.469-28.744,1.031a.76.76,0,0,0-.986.451.791.791,0,0,0,.464,1.009A19.914,19.914,0,0,0,689.631,1228.022Zm25.41-2.374Z" transform="translate(-598.4 -1047.235)" fill="#b9c5cd"/>
        <path id="Trazado_889701" data-name="Trazado 889701" d="M700.555,1171.314a.808.808,0,0,0,.272-.049c3.074-1.155,23.883-7.382,26.231-7.206a.777.777,0,0,0,1.005-1.132c-.415-.584-.769-1.086-13.6,2.556-6.363,1.807-12.892,3.837-14.192,4.326a.775.775,0,0,0,.272,1.5Zm26.247-7.489Z" transform="translate(-614.669 -1008.566)" fill="#b9c5cd"/>
        <g id="Grupo_1105308" data-name="Grupo 1105308" transform="translate(29.014 152.51)">
          <path id="Trazado_889702" data-name="Trazado 889702" d="M779.355,1158.07c13.78,0,25.345,5.221,28.556,12.272,5.763.921,9.979,4.774,9.564,8.915-.438,4.369-5.857,7.4-12.107,6.778a15.624,15.624,0,0,1-4.009-.934c-5.393,3.344-13.248,5.452-22,5.452-16.261,0-29.445-7.271-29.445-16.242s13.183-16.242,29.445-16.242Z" transform="translate(-749.238 -1158.07)" fill="#545fec"/>
          <path id="Trazado_889703" data-name="Trazado 889703" d="M805.576,1180.188c.049,0,.1,0,.146,0a2.255,2.255,0,1,0-.153.007Zm.006-3.1a.775.775,0,1,1-.772.824h0a.771.771,0,0,1,.723-.821h.049Z" transform="translate(-756.934 -1169.871)" fill="#003c70"/>
          <path id="Trazado_889704" data-name="Trazado 889704" d="M828.252,1176.791c.049,0,.1,0,.146,0a2.328,2.328,0,1,0-2.468-2.179h0a2.331,2.331,0,0,0,2.322,2.186Zm0-3.1a.754.754,0,1,1-.049,0Zm-1.547.869h0Z" transform="translate(-786.97 -1167.574)" fill="#003c70"/>
          <path id="Trazado_889705" data-name="Trazado 889705" d="M870.876,1166.337c.049,0,.1,0,.146,0a2.324,2.324,0,0,0,2.176-2.465,2.328,2.328,0,1,0-4.647.285h0a2.328,2.328,0,0,0,2.319,2.186Zm0-3.1a.774.774,0,0,1,.049,1.547.758.758,0,0,1-.561-.192.768.768,0,0,1-.26-.532h0a.771.771,0,0,1,.723-.821h.049Zm-1.55.869h0Z" transform="translate(-843.412 -1160.512)" fill="#003c70"/>
          <path id="Trazado_889706" data-name="Trazado 889706" d="M849.889,1172.051c.049,0,.1,0,.146,0a2.33,2.33,0,0,0,1.4-4.07,2.307,2.307,0,0,0-1.683-.577,2.334,2.334,0,0,0-2.179,2.468h0a2.327,2.327,0,0,0,2.319,2.186Zm0-3.1a.774.774,0,0,1,.045,1.547.759.759,0,0,1-.561-.191.769.769,0,0,1-.26-.532h0a.774.774,0,0,1,.727-.821h.049Z" transform="translate(-815.625 -1164.371)" fill="#003c70"/>
          <path id="Trazado_889707" data-name="Trazado 889707" d="M822.828,1235.751a2.3,2.3,0,1,0-.548-.062,2.259,2.259,0,0,0,.548.065Zm0-3.1a.724.724,0,0,1,.185.022.774.774,0,0,1-.363,1.5.765.765,0,0,1-.48-.35.775.775,0,0,1-.091-.587h0a.765.765,0,0,1,.35-.48.78.78,0,0,1,.4-.113Z" transform="translate(-779.785 -1207.412)" fill="#003c70"/>
          <path id="Trazado_889708" data-name="Trazado 889708" d="M845.763,1235.118a2.323,2.323,0,1,0-.545-.065A2.258,2.258,0,0,0,845.763,1235.118Zm0-3.1a.706.706,0,0,1,.182.022.776.776,0,1,1-.843,1.158.762.762,0,0,1-.091-.587h0A.775.775,0,0,1,845.763,1232.018Z" transform="translate(-810.159 -1206.984)" fill="#003c70"/>
          <path id="Trazado_889709" data-name="Trazado 889709" d="M889.539,1237.985a2.329,2.329,0,1,0-2.267-2.877h0a2.328,2.328,0,0,0,1.716,2.809,2.273,2.273,0,0,0,.551.065Zm-.006-3.1a.726.726,0,0,1,.185.023.766.766,0,0,1,.48.35.775.775,0,0,1,.091.587.765.765,0,0,1-.35.48.776.776,0,0,1-1.158-.843.764.764,0,0,1,.35-.48.777.777,0,0,1,.4-.114Z" transform="translate(-868.127 -1208.919)" fill="#003c70"/>
          <path id="Trazado_889710" data-name="Trazado 889710" d="M867.9,1236.015a2.329,2.329,0,1,0-2.27-2.877h0a2.33,2.33,0,0,0,1.716,2.812,2.274,2.274,0,0,0,.551.065Zm-.006-3.1a.716.716,0,0,1,.185.023.774.774,0,0,1,.571.934.765.765,0,0,1-.35.48.775.775,0,0,1-.587.091.765.765,0,0,1-.48-.35.775.775,0,0,1-.091-.587h0a.776.776,0,0,1,.752-.594Z" transform="translate(-839.471 -1207.588)" fill="#003c70"/>
          <path id="Trazado_889711" data-name="Trazado 889711" d="M878.3,1191.925a.86.86,0,0,0,.178-.019.778.778,0,0,0,.58-.934c-2.2-9.4,1.314-16.6,4.982-19.91a.777.777,0,0,0-1.041-1.155c-3.986,3.593-7.8,11.358-5.455,21.414a.779.779,0,0,0,.756.6Z" transform="translate(-857.186 -1165.934)" fill="#003c70"/>
          <path id="Trazado_889712" data-name="Trazado 889712" d="M858.047,1195.025a.785.785,0,0,0,.256-.042.775.775,0,0,0,.477-.989c-2.52-7.226.736-15.921,5.069-17.711a.777.777,0,1,0-.593-1.437c-5.037,2.079-8.766,11.555-5.942,19.657a.775.775,0,0,0,.733.522Z" transform="translate(-830.581 -1169.365)" fill="#003c70"/>
          <path id="Trazado_889713" data-name="Trazado 889713" d="M836.659,1197.417a.815.815,0,0,0,.311-.065.776.776,0,0,0,.4-1.022c-1.206-2.747-.963-7.145.61-10.942,1.057-2.559,2.517-4.355,4-4.933a.776.776,0,1,0-.564-1.446c-1.9.743-3.632,2.8-4.871,5.786-1.751,4.229-1.985,9-.6,12.162a.772.772,0,0,0,.71.464Z" transform="translate(-801.818 -1172.183)" fill="#003c70"/>
          <path id="Trazado_889714" data-name="Trazado 889714" d="M814.04,1199.7a.757.757,0,0,0,.221-.033.772.772,0,0,0,.525-.963c-1.664-5.669-.146-13.258,4.764-15.519a.777.777,0,1,0-.652-1.411c-5.818,2.682-7.44,11.1-5.6,17.367A.779.779,0,0,0,814.04,1199.7Z" transform="translate(-772.061 -1174.037)" fill="#003c70"/>
          <path id="Trazado_889715" data-name="Trazado 889715" d="M812.61,1173.929a21.856,21.856,0,0,0,7.06-1,.778.778,0,0,0-.509-1.469c-4.9,1.7-13.787.95-23.782-2-9.389-2.77-15.924-6.35-16.816-8.212a.775.775,0,0,0-1.4.672c1.453,3.029,10.235,6.8,17.776,9.029,3.577,1.054,11,2.974,17.672,2.974Z" transform="translate(-760.742 -1159.921)" fill="#003c70"/>
          <path id="Trazado_889716" data-name="Trazado 889716" d="M798.085,1228.846a.752.752,0,0,0,.36-.091c18.593-9.8,38.36-5.86,42.5-.538a.776.776,0,1,0,1.226-.953c-2.578-3.318-9.123-5.627-17.082-6.023a53.812,53.812,0,0,0-27.363,6.139.776.776,0,0,0,.363,1.463Z" transform="translate(-789.436 -1200.712)" fill="#003c70"/>
          <path id="Trazado_889717" data-name="Trazado 889717" d="M907.47,1190.608a.777.777,0,0,0,.347-1.472c-3.529-1.751-6.947-5.993-6.331-10.411.555-3.963,5.744-7.988,13.881-10.758a.778.778,0,0,0-.5-1.472c-8.834,3.01-14.273,7.388-14.919,12.013-.717,5.137,3.162,10.025,7.177,12.016a.763.763,0,0,0,.344.081Z" transform="translate(-896.258 -1163.735)" fill="#003c70"/>
          <path id="Trazado_889718" data-name="Trazado 889718" d="M916.165,1168.955a.767.767,0,0,0,.4-.113.779.779,0,0,0,.263-1.067l-1.372-2.267a.777.777,0,1,0-1.33.8l1.372,2.267a.777.777,0,0,0,.665.373Z" transform="translate(-901.898 -1162.842)" fill="#003c70"/>
          <path id="Trazado_889719" data-name="Trazado 889719" d="M927.32,1173.618a.761.761,0,0,0,.474-.162.775.775,0,0,0,.139-1.09l-1.823-2.351a.777.777,0,1,0-1.229.95l1.823,2.352a.774.774,0,0,0,.613.3Z" transform="translate(-916.523 -1165.939)" fill="#003c70"/>
          <path id="Trazado_889720" data-name="Trazado 889720" d="M936.194,1181.435a.777.777,0,0,0,.464-1.4l-2.539-1.884a.777.777,0,1,0-.924,1.249l2.539,1.884A.769.769,0,0,0,936.194,1181.435Z" transform="translate(-928.047 -1171.534)" fill="#003c70"/>
          <path id="Trazado_889721" data-name="Trazado 889721" d="M944.478,1190.889a.778.778,0,0,0,.35-1.472l-2.99-1.508a.777.777,0,0,0-.7,1.388l2.99,1.508A.793.793,0,0,0,944.478,1190.889Z" transform="translate(-938.87 -1178.175)" fill="#003c70"/>
          <path id="Trazado_889722" data-name="Trazado 889722" d="M945.035,1203.13h3.684a.775.775,0,1,0,0-1.55h-3.684a.775.775,0,1,0,0,1.55Z" transform="translate(-944.26 -1187.469)" fill="#003c70"/>
          <path id="Trazado_889723" data-name="Trazado 889723" d="M944.373,1214.419a.815.815,0,0,0,.175-.02l3.548-.821a.776.776,0,1,0-.35-1.511l-3.548.821a.775.775,0,0,0,.175,1.531Z" transform="translate(-943.248 -1194.541)" fill="#003c70"/>
          <path id="Trazado_889724" data-name="Trazado 889724" d="M940.418,1224.332a.752.752,0,0,0,.386-.1l2.757-1.589a.777.777,0,1,0-.775-1.346l-2.757,1.589a.777.777,0,0,0,.389,1.45Z" transform="translate(-937.217 -1200.719)" fill="#003c70"/>
          <path id="Trazado_889725" data-name="Trazado 889725" d="M933.664,1232.634a.777.777,0,0,0,.457-.149l2.189-1.6a.775.775,0,1,0-.914-1.252l-2.189,1.6a.775.775,0,0,0,.461,1.4Z" transform="translate(-927.706 -1206.326)" fill="#003c70"/>
          <path id="Trazado_889726" data-name="Trazado 889726" d="M791.578,1196.711c2.734,0,5.445-.458,6.9-1.885.83-.811,1.615-2.293.662-4.761-1.07-2.77-3.13-3.947-5.951-3.4-4.586.885-10.557,6.542-10.54,7.849h0c.007.645.675.924.928,1.028a26.834,26.834,0,0,0,8,1.171Zm2.883-8.62h.12c1.453.042,2.474.869,3.117,2.533.762,1.972.071,2.815-.516,3.279-2.776,2.189-10.517,1.048-12.69.328,1.356-1.674,6.389-6.143,9.97-6.143Z" transform="translate(-741.935 -1177.304)" fill="#003c70"/>
          <path id="Trazado_889727" data-name="Trazado 889727" d="M800.205,1222.17a4.313,4.313,0,0,0,3.558-2.192c1.7-2.436,1.521-4.8-.509-6.837-3.3-3.308-11.328-5.092-12.4-4.349-.532.366-.386,1.077-.334,1.343.409,2.014,4.407,11.024,8.928,11.958A3.717,3.717,0,0,0,800.205,1222.17Zm-8.092-12.013c2.166.191,8.808,1.9,10.732,4.93.778,1.229.661,2.536-.357,4-1.21,1.735-2.3,1.634-3.007,1.407C796.116,1219.42,792.733,1212.363,792.114,1210.157Zm-.561,0Z" transform="translate(-749.803 -1192.229)" fill="#003c70"/>
        </g>
      </g>
      <g id="Grupo_1105317" data-name="Grupo 1105317" transform="translate(190.401 47.896)">
        <g id="Grupo_1105317-2" data-name="Grupo 1105317" clip-path="url(#clip-path-5)">
          <path id="Trazado_889866" data-name="Trazado 889866" d="M74.053,111.587a4.451,4.451,0,1,1,3.867,4.967,4.451,4.451,0,0,1-3.867-4.967" transform="translate(-53.949 -78.487)" fill="#f0c518"/>
          <path id="Trazado_889867" data-name="Trazado 889867" d="M59.885,71.343a14.863,14.863,0,0,0-13.793,5.9l3.635,4.374c.049-.069.1-.14.139-.214a9.448,9.448,0,0,1,17.27,2.149c.021.076.047.15.075.223l4.6-3.349a14.864,14.864,0,0,0-11.92-9.078" transform="translate(-33.594 -51.915)" fill="#f0c518"/>
          <path id="Trazado_889868" data-name="Trazado 889868" d="M43.984,35.3a24.6,24.6,0,0,0-21.368,7.953L26.14,47.5c.018-.021.037-.04.056-.062a19.239,19.239,0,0,1,31.9,3.66,2.723,2.723,0,0,0,.225.362l4.423-3.223A24.666,24.666,0,0,0,43.984,35.3" transform="translate(-16.484 -25.591)" fill="#f0c518"/>
          <path id="Trazado_889869" data-name="Trazado 889869" d="M28.676.258A34.368,34.368,0,0,0,0,10.286l3.5,4.209c.032-.03.063-.061.094-.093a28.765,28.765,0,0,1,45.937,5.715c.019.033.041.064.06.1l4.421-3.222A34.368,34.368,0,0,0,28.676.258" transform="translate(0 0)" fill="#f0c518"/>
        </g>
      </g>
      <path id="Trazado_889870" data-name="Trazado 889870" d="M0,0,9.825,26.451l4.71-6.03,7.348,7.532,2.76-2.692,2.76-2.692-7.348-7.533,6.144-4.56Z" transform="translate(210.107 97.69)" fill="#fff"/>
    </g>
  </g>
</svg>
