<svg xmlns="http://www.w3.org/2000/svg" width="57.567" height="57.567" viewBox="0 0 57.567 57.567">
  <g id="Grupo_1104245" data-name="Grupo 1104245" transform="translate(0 0)">
    <g id="Grupo_1095345" data-name="Grupo 1095345" transform="translate(0 0)">
      <path id="Trazado_875520" data-name="Trazado 875520" d="M28.784,0A28.784,28.784,0,1,1,0,28.784,28.784,28.784,0,0,1,28.784,0Z" fill="#8722e2"/>
    </g>
    <g id="sitio-web_4_" data-name="sitio-web (4)" transform="translate(6.185 6.534)">
      <g id="Grupo_1105423" data-name="Grupo 1105423" transform="translate(0.67 0.67)">
        <path id="Trazado_890081" data-name="Trazado 890081" d="M29.6,51.633A22.037,22.037,0,1,0,7.559,29.6,22.078,22.078,0,0,0,29.6,51.633Zm0,0" transform="translate(-7.559 -7.559)" fill="#ade3f7" fill-rule="evenodd"/>
        <path id="Trazado_890082" data-name="Trazado 890082" d="M13.973,20.549A22.123,22.123,0,0,1,23.2,10.425a21.9,21.9,0,0,1,6.4-2.412c.546-.112,1.1-.206,1.658-.277.193-.025.386-.046.581-.066q-1.1-.11-2.24-.112a22.037,22.037,0,1,0,0,44.074q1.135,0,2.24-.112c-.2-.02-.388-.041-.581-.066-.559-.071-1.113-.165-1.658-.277a21.844,21.844,0,0,1-6.4-2.412,22.062,22.062,0,0,1-9.226-28.216Zm0,0" transform="translate(-7.559 -7.558)" fill="#86bfdb" fill-rule="evenodd"/>
        <path id="Trazado_890083" data-name="Trazado 890083" d="M81.238,197.227h29.584a.739.739,0,0,1,.737.736v8.954a.739.739,0,0,1-.737.736H81.238a.738.738,0,0,1-.734-.736v-8.954A.738.738,0,0,1,81.238,197.227Zm0,0" transform="translate(-74.034 -180.403)" fill="#ffd45e" fill-rule="evenodd"/>
        <path id="Trazado_890084" data-name="Trazado 890084" d="M85.179,200.036v-2.077a.738.738,0,0,1,.734-.737H81.238a.738.738,0,0,0-.734.737v8.954a.738.738,0,0,0,.734.736h4.675a.738.738,0,0,1-.734-.736Zm0,0" transform="translate(-74.034 -180.399)" fill="#ffac38" fill-rule="evenodd"/>
      </g>
      <path id="Trazado_890085" data-name="Trazado 890085" d="M38.765,6.651A22.708,22.708,0,0,0,6.651,38.765,22.708,22.708,0,0,0,38.765,6.651ZM37.459,16.824H35.881a33.3,33.3,0,0,0-.9-4.054,23.127,23.127,0,0,1,2.977,1.447c3.668,2.136,5.8,4.891,6.087,7.82H38.866V18.231a1.408,1.408,0,0,0-1.407-1.407Zm-2.936,0H23.378V10.558a33.878,33.878,0,0,1,10.014,1.631,31.316,31.316,0,0,1,1.131,4.636ZM22.037,9.217A35.815,35.815,0,0,0,12.6,10.6,21.246,21.246,0,0,1,15.177,5.86c2-2.714,4.364-4.253,6.861-4.487Zm0,1.341v6.266H10.892a31.368,31.368,0,0,1,1.131-4.635,33.874,33.874,0,0,1,10.015-1.631Zm-12.5,6.266H7.875a1.407,1.407,0,0,0-1.4,1.407v3.807h-5.1c.283-2.929,2.419-5.684,6.088-7.82a23.125,23.125,0,0,1,2.969-1.445,33.515,33.515,0,0,0-.9,4.051ZM6.471,23.378v3.807a1.407,1.407,0,0,0,1.4,1.407H9.534a33.615,33.615,0,0,0,.9,4.052A23.136,23.136,0,0,1,7.462,31.2c-3.668-2.135-5.8-4.891-6.087-7.82Zm4.421,5.213H22.037v6.266a33.89,33.89,0,0,1-10.015-1.63A31.334,31.334,0,0,1,10.892,28.591ZM22.037,36.2v7.844c-2.5-.234-4.856-1.772-6.861-4.487A21.24,21.24,0,0,1,12.6,34.811,35.826,35.826,0,0,0,22.037,36.2Zm1.341,0a35.812,35.812,0,0,0,9.439-1.387,21.249,21.249,0,0,1-2.579,4.744c-2,2.714-4.364,4.253-6.861,4.487Zm0-1.341V28.591h4.584a.67.67,0,0,0,0-1.341H7.875a.068.068,0,0,1-.064-.066V18.231a.068.068,0,0,1,.064-.066H37.459a.069.069,0,0,1,.066.066v8.954a.069.069,0,0,1-.066.066H31.174a.67.67,0,0,0,0,1.341h3.35a31.334,31.334,0,0,1-1.131,4.636,33.89,33.89,0,0,1-10.014,1.63Zm12.5-6.266h1.577a1.408,1.408,0,0,0,1.407-1.407V23.378h5.175c-.283,2.93-2.419,5.685-6.087,7.82a23.135,23.135,0,0,1-2.97,1.445,33.615,33.615,0,0,0,.9-4.052Zm7.407-11.631a16.275,16.275,0,0,0-4.661-3.9,25.187,25.187,0,0,0-4.178-1.923A25.721,25.721,0,0,0,32.8,7.4a.67.67,0,0,0-1.177.642,23.62,23.62,0,0,1,1.2,2.562,35.805,35.805,0,0,0-9.44-1.388V1.373c2.345.221,4.584,1.6,6.512,4.031a.67.67,0,0,0,1.05-.834,14.6,14.6,0,0,0-2.4-2.421,21.452,21.452,0,0,1,14.75,14.811ZM16.886,2.147a19.522,19.522,0,0,0-5.932,8.994,25.162,25.162,0,0,0-4.167,1.919,16.276,16.276,0,0,0-4.661,3.9A21.453,21.453,0,0,1,16.886,2.147ZM2.127,28.456a16.278,16.278,0,0,0,4.66,3.9,25.189,25.189,0,0,0,4.167,1.918,19.52,19.52,0,0,0,5.932,8.993A21.453,21.453,0,0,1,2.127,28.456Zm26.4,14.812a19.524,19.524,0,0,0,5.931-8.993,25.178,25.178,0,0,0,4.167-1.918,16.278,16.278,0,0,0,4.66-3.9A21.453,21.453,0,0,1,28.53,43.268Zm0,0" transform="translate(0)"/>
      <path id="Trazado_890086" data-name="Trazado 890086" d="M129.143,228.438a.66.66,0,0,0-.675.521l-.734,2.379-.719-2.263c-.144-.429-.388-.645-.737-.645-.322,0-.553.216-.691.645l-.726,2.263-.736-2.379a.673.673,0,0,0-.683-.521.645.645,0,0,0-.488.2.677.677,0,0,0-.193.49.775.775,0,0,0,.053.287l1.229,3.294c.18.467.457.7.835.7.353,0,.6-.211.744-.635l.673-1.993.673,1.993c.15.424.4.635.747.635.381,0,.66-.231.833-.7l1.229-3.294a.883.883,0,0,0,.056-.287.677.677,0,0,0-.691-.693Zm0,0" transform="translate(-111.873 -208.168)"/>
      <path id="Trazado_890087" data-name="Trazado 890087" d="M302.349,232.409q.575,0,.833-.7l1.231-3.294a.918.918,0,0,0,.053-.287.676.676,0,0,0-.691-.691.653.653,0,0,0-.673.52l-.737,2.38-.719-2.263c-.142-.432-.388-.645-.736-.645-.323,0-.554.213-.691.645l-.726,2.263-.737-2.38a.67.67,0,0,0-.683-.52.645.645,0,0,0-.488.2.676.676,0,0,0-.193.488.773.773,0,0,0,.053.287l1.229,3.294c.18.467.457.7.835.7.353,0,.6-.213.744-.637l.673-1.991.673,1.991q.225.636.747.637Zm0,0" transform="translate(-271.015 -207.256)"/>
      <path id="Trazado_890088" data-name="Trazado 890088" d="M215.944,228.438a.658.658,0,0,0-.673.521l-.737,2.379-.719-2.263c-.142-.429-.388-.645-.734-.645-.325,0-.553.216-.693.645l-.727,2.263-.736-2.379a.669.669,0,0,0-.681-.521.651.651,0,0,0-.49.2.679.679,0,0,0-.193.49.783.783,0,0,0,.053.287l1.229,3.294c.181.467.46.7.836.7.353,0,.6-.211.746-.635l.673-1.993.673,1.993c.15.424.4.635.744.635.384,0,.66-.231.835-.7l1.229-3.294a.94.94,0,0,0,.053-.287.673.673,0,0,0-.2-.5.666.666,0,0,0-.493-.2Zm0,0" transform="translate(-190.974 -208.168)"/>
    </g>
  </g>
</svg>
