<svg xmlns="http://www.w3.org/2000/svg" xmlns:xlink="http://www.w3.org/1999/xlink" width="400" height="231" viewBox="0 0 400 231">
  <defs>
    <clipPath id="clip-path">
      <rect id="person-front-computer-working-html_1_" data-name="person-front-computer-working-html (1)" width="400" height="231" rx="15" transform="translate(0)" fill="#3a1d71" opacity="0.84"/>
    </clipPath>
    <filter id="Trazado_884145" x="312.821" y="125.684" width="76" height="76" filterUnits="userSpaceOnUse">
      <feOffset dy="1" input="SourceAlpha"/>
      <feGaussianBlur stdDeviation="5.5" result="blur"/>
      <feFlood flood-color="#fff" flood-opacity="0.902"/>
      <feComposite operator="in" in2="blur"/>
      <feComposite in="SourceGraphic"/>
    </filter>
    <clipPath id="clip-path-2">
      <rect id="Rectángulo_403681" data-name="Rectángulo 403681" width="51" height="111" fill="#fff" stroke="#707070" stroke-width="1"/>
    </clipPath>
    <filter id="Trazado_884406" x="340.209" y="13.855" width="128.488" height="128.488" filterUnits="userSpaceOnUse">
      <feOffset dy="1" input="SourceAlpha"/>
      <feGaussianBlur stdDeviation="5.5" result="blur-2"/>
      <feFlood flood-color="#fff" flood-opacity="0.902"/>
      <feComposite operator="in" in2="blur-2"/>
      <feComposite in="SourceGraphic"/>
    </filter>
    <clipPath id="clip-path-3">
      <rect id="Rectángulo_403082" data-name="Rectángulo 403082" width="299.411" height="218.808" fill="none"/>
    </clipPath>
    <clipPath id="clip-path-4">
      <rect id="Rectángulo_405006" data-name="Rectángulo 405006" width="53.008" height="53.008" fill="none"/>
    </clipPath>
    <clipPath id="clip-path-5">
      <rect id="Rectángulo_405007" data-name="Rectángulo 405007" width="36.453" height="37.129" fill="none"/>
    </clipPath>
    <filter id="Trazado_884511" x="-1.012" y="-2.327" width="76" height="76" filterUnits="userSpaceOnUse">
      <feOffset dy="1" input="SourceAlpha"/>
      <feGaussianBlur stdDeviation="5.5" result="blur-3"/>
      <feFlood flood-color="#fff" flood-opacity="0.902"/>
      <feComposite operator="in" in2="blur-3"/>
      <feComposite in="SourceGraphic"/>
    </filter>
    <linearGradient id="linear-gradient" x1="0.65" y1="0.433" x2="0.065" y2="0.848" gradientUnits="objectBoundingBox">
      <stop offset="0" stop-color="#f0c518"/>
      <stop offset="0.371" stop-color="#d1ae1f"/>
      <stop offset="1" stop-color="#78630c"/>
    </linearGradient>
  </defs>
  <g id="Enmascarar_grupo_1098794" data-name="Enmascarar grupo 1098794" clip-path="url(#clip-path)">
    <g id="Grupo_1102804" data-name="Grupo 1102804" transform="translate(1 -0.365)">
      <g id="Grupo_1102288" data-name="Grupo 1102288" transform="translate(0)">
        <g id="Grupo_1102287" data-name="Grupo 1102287" transform="translate(0 0)">
          <g id="Grupo_1102286" data-name="Grupo 1102286">
            <rect id="Rectángulo_403424" data-name="Rectángulo 403424" width="371.899" height="212.282" rx="15" transform="translate(0 19)" fill="#8722e2"/>
            <rect id="person-front-computer-working-html_1_2" data-name="person-front-computer-working-html (1)" width="371.899" height="212.282" rx="15" transform="translate(19)" fill="#3a1d71"/>
          </g>
        </g>
        <g transform="matrix(1, 0, 0, 1, -1, 0.37)" filter="url(#Trazado_884145)">
          <g id="Trazado_884145-2" data-name="Trazado 884145" transform="translate(329.32 141.18)" fill="none">
            <path d="M21.5,0A21.5,21.5,0,1,0,43,21.5,21.5,21.5,0,0,0,21.5,0Z" stroke="none"/>
            <path d="M 21.5 5 C 17.09268951416016 5 12.94918060302734 6.716300964355469 9.832740783691406 9.832740783691406 C 6.716300964355469 12.94918060302734 5 17.09268951416016 5 21.5 C 5 25.90731048583984 6.716300964355469 30.05081939697266 9.832740783691406 33.16725921630859 C 12.94918060302734 36.28369903564453 17.09268951416016 38 21.5 38 C 25.90731048583984 38 30.05081939697266 36.28369903564453 33.16725921630859 33.16725921630859 C 36.28369903564453 30.05081939697266 38 25.90731048583984 38 21.5 C 38 17.09268951416016 36.28369903564453 12.94918060302734 33.16725921630859 9.832740783691406 C 30.05081939697266 6.716300964355469 25.90731048583984 5 21.5 5 M 21.5 0 C 33.37411880493164 0 43 9.625881195068359 43 21.5 C 43 33.37411880493164 33.37411880493164 43 21.5 43 C 9.625881195068359 43 0 33.37411880493164 0 21.5 C 0 9.625881195068359 9.625881195068359 0 21.5 0 Z" stroke="none" fill="#fff"/>
          </g>
        </g>
      </g>
      <g id="Enmascarar_grupo_1098739" data-name="Enmascarar grupo 1098739" transform="translate(348 22.365)" clip-path="url(#clip-path-2)">
        <g transform="matrix(1, 0, 0, 1, -349, -22)" filter="url(#Trazado_884406)">
          <g id="Trazado_884406-2" data-name="Trazado 884406" transform="translate(356.71 29.36)" fill="none">
            <path d="M47.744,0A47.744,47.744,0,1,0,95.488,47.744,47.744,47.744,0,0,0,47.744,0Z" stroke="none"/>
            <path d="M 47.74413681030273 17.99999237060547 C 31.34316253662109 17.99999237060547 17.99999237060547 31.34316253662109 17.99999237060547 47.74413681030273 C 17.99999237060547 64.14511108398438 31.34316253662109 77.48828125 47.74413681030273 77.48828125 C 64.14511108398438 77.48828125 77.48828125 64.14511108398438 77.48828125 47.74413681030273 C 77.48828125 31.34316253662109 64.14511108398438 17.99999237060547 47.74413681030273 17.99999237060547 M 47.74413681030273 -7.62939453125e-06 C 74.11248779296875 -7.62939453125e-06 95.48828125 21.37578582763672 95.48828125 47.74413681030273 C 95.48828125 74.11248779296875 74.11248779296875 95.48828125 47.74413681030273 95.48828125 C 21.37578582763672 95.48828125 -7.62939453125e-06 74.11248779296875 -7.62939453125e-06 47.74413681030273 C -7.62939453125e-06 21.37578582763672 21.37578582763672 -7.62939453125e-06 47.74413681030273 -7.62939453125e-06 Z" stroke="none" fill="#f0c518"/>
          </g>
        </g>
      </g>
      <g id="Grupo_1102805" data-name="Grupo 1102805" transform="translate(314 133.365)">
        <path id="Trazado_884490" data-name="Trazado 884490" d="M313.77,332.642a14.822,14.822,0,1,0,14.822-14.822A14.823,14.823,0,0,0,313.77,332.642Z" transform="translate(-313.77 -317.82)" fill="none" stroke="#a653f1" stroke-miterlimit="10" stroke-width="2.5"/>
        <line id="Línea_672" data-name="Línea 672" x2="45" y2="31" transform="translate(7.145 10.499)" fill="none" stroke="#00ffdf" stroke-linecap="round" stroke-linejoin="round" stroke-width="3"/>
      </g>
    </g>
    <path id="Trazado_884510" data-name="Trazado 884510" d="M77.8,25.682m-2.68-10.2a5.154,5.154,0,1,0,1.51,3.646,5.144,5.144,0,0,0-1.51-3.646M74,10.371a9.012,9.012,0,0,1,2.02.86A9.114,9.114,0,0,1,77.8,12.567a.313.313,0,0,0,.376.047l2.4-1.383.012-.009a.6.6,0,0,1,.8.225l.011.016,1.685,2.919a.6.6,0,0,1-.219.812l-.015.01-2.375,1.371a.317.317,0,0,0-.15.348,8.911,8.911,0,0,1,.2,1.09,9.272,9.272,0,0,1,0,2.221,8.883,8.883,0,0,1-.2,1.089.32.32,0,0,0,.169.359l2.374,1.37h0a.594.594,0,0,1,.219.811L81.378,26.8h0a.583.583,0,0,1-.359.276.6.6,0,0,1-.45-.057l-.018-.01L78.17,25.636a.316.316,0,0,0-.375.046,9.12,9.12,0,0,1-3.808,2.2.318.318,0,0,0-.231.3V30.95a.593.593,0,0,1-.591.593H69.775a.6.6,0,0,1-.593-.593V28.186a.318.318,0,0,0-.243-.308,9.064,9.064,0,0,1-2.021-.86,9.2,9.2,0,0,1-1.772-1.336.316.316,0,0,0-.393-.036L62.374,27.02a.6.6,0,0,1-.811-.218l-.01-.016-1.685-2.92h0a.591.591,0,0,1-.057-.449.58.58,0,0,1,.275-.36l2.393-1.383c.124-.07.149-.348.149-.348s-.153-.718-.2-1.089a9.407,9.407,0,0,1,0-2.221,9.7,9.7,0,0,1,.2-1.09.314.314,0,0,0-.166-.359l-2.375-1.371a.581.581,0,0,1-.275-.361.6.6,0,0,1,.057-.451l.01-.016,1.685-2.919h0a.6.6,0,0,1,.811-.218v0l2.394,1.383a.314.314,0,0,0,.383-.053,9.2,9.2,0,0,1,1.766-1.329,9.043,9.043,0,0,1,2.034-.863.318.318,0,0,0,.23-.305V7.3a.6.6,0,0,1,.593-.592h3.391a.593.593,0,0,1,.591.592v2.763a.318.318,0,0,0,.245.308" transform="translate(-24.663 162.642)" fill="none" stroke="#fff" stroke-width="1" fill-rule="evenodd" opacity="0.84"/>
    <g id="Grupo_1102108" data-name="Grupo 1102108" transform="translate(36.05 12.109)" clip-path="url(#clip-path-3)">
      <path id="Trazado_879714" data-name="Trazado 879714" d="M19.516,217.788a.972.972,0,0,1-.475-.124.982.982,0,0,1-.383-1.336c.1-.187,2.6-4.6,7.058-4.776,1.936-.085,3.4,1.191,4.691,2.311,1.164,1.007,2.265,1.959,3.563,1.959s2.327-.842,3.531-1.817c1.342-1.086,2.862-2.316,4.945-2.316,2.1.015,3.529,1.215,4.788,2.273,1.188,1,2.213,1.861,3.663,1.861,1.361,0,2.111-.773,3.059-1.752a6.106,6.106,0,0,1,4.564-2.382c4.133.014,7.4,4.346,7.532,4.53a.982.982,0,1,1-1.578,1.171c-.027-.036-2.818-3.725-5.942-3.736-1.444-.012-2.2.785-3.165,1.785-1.068,1.1-2.278,2.348-4.471,2.348-2.167,0-3.634-1.234-4.928-2.321-1.15-.968-2.144-1.8-3.5-1.812-1.411,0-2.538.912-3.732,1.879-1.305,1.056-2.786,2.255-4.768,2.255-2.03,0-3.527-1.295-4.849-2.438-1.166-1.008-2.17-1.881-3.326-1.834-3.367.134-5.4,3.728-5.418,3.765a.983.983,0,0,1-.86.507" transform="translate(27.362 -7.285)" fill="#c9b3ff"/>
      <path id="Trazado_879715" data-name="Trazado 879715" d="M65.306,223.632a.983.983,0,0,1-.792-.4c-.027-.037-2.818-3.746-5.944-3.757-1.433,0-2.2.792-3.165,1.795-1.069,1.107-2.279,2.361-4.474,2.361-2.17,0-3.638-1.241-4.933-2.335-1.151-.971-2.145-1.811-3.5-1.821-1.411,0-2.538.917-3.732,1.889-1.307,1.063-2.788,2.267-4.773,2.267-2.033,0-3.531-1.3-4.853-2.451-1.166-1.014-2.179-1.9-3.327-1.843-3.346.133-5.4,3.751-5.421,3.788a.983.983,0,0,1-1.721-.952c.1-.188,2.6-4.622,7.063-4.8,1.916-.089,3.4,1.2,4.695,2.324,1.166,1.012,2.266,1.969,3.564,1.969s2.327-.847,3.532-1.827c1.343-1.092,2.864-2.329,4.949-2.329,2.1.015,3.532,1.221,4.792,2.285,1.189,1,2.214,1.87,3.664,1.87,1.36,0,2.111-.777,3.06-1.76,1.03-1.068,2.312-2.4,4.567-2.4,4.137.014,7.4,4.369,7.538,4.555a.983.983,0,0,1-.79,1.567" transform="translate(27.361 -7.486)" fill="#c9b3ff"/>
      <path id="Trazado_879716" data-name="Trazado 879716" d="M215.477,211.55a1.625,1.625,0,1,1-1.626,1.625,1.624,1.624,0,0,1,1.626-1.625" transform="translate(20.635 -7.285)" fill="#c9b3ff" fill-rule="evenodd"/>
      <path id="Trazado_879717" data-name="Trazado 879717" d="M221.46,211.55a1.625,1.625,0,1,1-1.625,1.625,1.625,1.625,0,0,1,1.625-1.625" transform="translate(20.429 -7.285)" fill="#c9b3ff" fill-rule="evenodd"/>
      <path id="Trazado_879718" data-name="Trazado 879718" d="M227.443,211.55a1.625,1.625,0,1,1-1.625,1.625,1.624,1.624,0,0,1,1.625-1.625" transform="translate(20.223 -7.285)" fill="#c9b3ff" fill-rule="evenodd"/>
      <path id="Trazado_879719" data-name="Trazado 879719" d="M233.426,211.55a1.625,1.625,0,1,1-1.624,1.625,1.625,1.625,0,0,1,1.624-1.625" transform="translate(20.017 -7.285)" fill="#c9b3ff" fill-rule="evenodd"/>
      <path id="Trazado_879720" data-name="Trazado 879720" d="M239.411,211.55a1.625,1.625,0,1,1-1.626,1.625,1.624,1.624,0,0,1,1.626-1.625" transform="translate(19.811 -7.285)" fill="#c9b3ff" fill-rule="evenodd"/>
      <path id="Trazado_879721" data-name="Trazado 879721" d="M245.394,211.55a1.625,1.625,0,1,1-1.625,1.625,1.624,1.624,0,0,1,1.625-1.625" transform="translate(19.605 -7.285)" fill="#c9b3ff" fill-rule="evenodd"/>
      <path id="Trazado_879722" data-name="Trazado 879722" d="M215.477,216.86a1.625,1.625,0,1,1-1.626,1.625,1.625,1.625,0,0,1,1.626-1.625" transform="translate(20.635 -7.468)" fill="#c9b3ff" fill-rule="evenodd"/>
      <path id="Trazado_879723" data-name="Trazado 879723" d="M221.46,216.86a1.625,1.625,0,1,1-1.625,1.625,1.626,1.626,0,0,1,1.625-1.625" transform="translate(20.429 -7.468)" fill="#c9b3ff" fill-rule="evenodd"/>
      <path id="Trazado_879724" data-name="Trazado 879724" d="M227.443,216.86a1.625,1.625,0,1,1-1.625,1.625,1.625,1.625,0,0,1,1.625-1.625" transform="translate(20.223 -7.468)" fill="#c9b3ff" fill-rule="evenodd"/>
      <path id="Trazado_879725" data-name="Trazado 879725" d="M233.426,216.86a1.625,1.625,0,1,1-1.624,1.625,1.626,1.626,0,0,1,1.624-1.625" transform="translate(20.017 -7.468)" fill="#c9b3ff" fill-rule="evenodd"/>
      <path id="Trazado_879726" data-name="Trazado 879726" d="M239.411,216.86a1.625,1.625,0,1,1-1.626,1.625,1.625,1.625,0,0,1,1.626-1.625" transform="translate(19.811 -7.468)" fill="#c9b3ff" fill-rule="evenodd"/>
      <path id="Trazado_879727" data-name="Trazado 879727" d="M245.394,216.86a1.625,1.625,0,1,1-1.625,1.625,1.625,1.625,0,0,1,1.625-1.625" transform="translate(19.605 -7.468)" fill="#c9b3ff" fill-rule="evenodd"/>
      <path id="Trazado_879728" data-name="Trazado 879728" d="M30.559,4.943H268.2c6.57,0,11.9,4.591,11.9,10.257V187.512c0,5.665-5.328,10.257-11.9,10.257H30.559c-6.57,0-11.9-4.592-11.9-10.257L19.974,15.576c0-5.666,10.585-10.633,10.585-10.633" transform="translate(9.337 -0.17)" fill="#efeafa" fill-rule="evenodd"/>
      <path id="Trazado_879729" data-name="Trazado 879729" d="M19.288,21.609H277.655s-.3-7.622-1.345-10.177-8.517-5.763-8.517-5.763L36.727,4.942c-6,0-11.359-.379-15.078,4.154-2.987,3.639-2.361,5.611-2.361,12.514" transform="translate(11.157 -0.17)" fill="#ba9eff" fill-rule="evenodd"/>
      <path id="Trazado_879730" data-name="Trazado 879730" d="M261.217,195.975H25.634c-7.126,0-12.924-4.922-12.924-10.972V10.973C12.71,4.922,18.508,0,25.634,0H261.217c7.127,0,12.925,4.922,12.925,10.973V185c0,6.05-5.8,10.972-12.925,10.972M25.634,1.919c-5.88,0-10.663,4.062-10.663,9.054V185c0,4.992,4.783,9.053,10.663,9.053H261.217c5.88,0,10.664-4.061,10.664-9.053V10.973c0-4.992-4.784-9.054-10.664-9.054Z" transform="translate(15.29 4.772)"/>
      <path id="Trazado_879731" data-name="Trazado 879731" d="M66.255,23.373H.983a.983.983,0,0,1,0-1.966H66.255a.983.983,0,1,1,0,1.966" transform="translate(28 -0.737)"/>
      <path id="Trazado_879732" data-name="Trazado 879732" d="M263.031,23.373H80.078a.991.991,0,1,1,0-1.966H263.031a.991.991,0,1,1,0,1.966" transform="translate(25.281 -0.737)"/>
      <path id="Trazado_879742" data-name="Trazado 879742" d="M62.385,35.305a2.906,2.906,0,1,1-2.9,2.906,2.9,2.9,0,0,1,2.9-2.906" transform="translate(-10.536 71.856)" fill="#9166fc" fill-rule="evenodd"/>
      <path id="Trazado_879744" data-name="Trazado 879744" d="M31.128,57.054a.983.983,0,0,1-.655-1.717l5.8-5.168-5.792-5.1a.983.983,0,0,1,1.3-1.475L38.4,49.428a.983.983,0,0,1,0,1.471L31.782,56.8a.979.979,0,0,1-.654.249" transform="translate(18.805 -8.427)" fill="#9166fc"/>
      <path id="Trazado_879745" data-name="Trazado 879745" d="M56.135,185.348H82.2a1.71,1.71,0,0,1,1.71,1.71v7.949a10.256,10.256,0,0,1-10.257,10.255H64.682a10.256,10.256,0,0,1-10.257-10.255v-7.949a1.71,1.71,0,0,1,1.71-1.71" transform="translate(26.126 -6.383)" fill="#c9b3ff" fill-rule="evenodd"/>
      <path id="Trazado_879746" data-name="Trazado 879746" d="M63.81,176.984S63.1,166.1,57.229,163.053s-18.035-1.967-18.035-1.967,6.093,13.167,12.394,14.872a36.46,36.46,0,0,0,12.222,1.026" transform="translate(26.65 -5.541)" fill="#c9b3ff" fill-rule="evenodd"/>
      <path id="Trazado_879747" data-name="Trazado 879747" d="M66.632,159.6S54.6,158.61,52.443,151.39s.684-8.974.684-8.974,10.2,1.434,12.138,6.41A26.765,26.765,0,0,1,66.632,159.6" transform="translate(26.222 -4.904)" fill="#c9b3ff" fill-rule="evenodd"/>
      <path id="Trazado_879748" data-name="Trazado 879748" d="M65.917,141.53s-8.2-3.334-9.488-6.836-.514-5.557-.514-5.557,6.421-.073,8.12,3.505,1.881,8.888,1.881,8.888" transform="translate(26.082 -4.447)" fill="#c9b3ff" fill-rule="evenodd"/>
      <path id="Trazado_879749" data-name="Trazado 879749" d="M67.3,118.962s-5.01-5-3.419-10.343,4.444-6.923,4.444-6.923,5.3,6.07,3.847,10.513a14.012,14.012,0,0,1-4.872,6.753" transform="translate(25.811 -3.502)" fill="#c9b3ff" fill-rule="evenodd"/>
      <path id="Trazado_879750" data-name="Trazado 879750" d="M72.507,137.041s-3.986-9.81.342-14.018,12.565-5.128,12.565-5.128,1.893,12.766-3.761,15.726-9.146,3.42-9.146,3.42" transform="translate(25.561 -4.06)" fill="#c9b3ff" fill-rule="evenodd"/>
      <path id="Trazado_879751" data-name="Trazado 879751" d="M68.409,102.72c-1.666,2.294-3.76,4.838-4.017,8.631a7.193,7.193,0,0,0,1.624,4.786c.468.645,1.7,1.26,1.538,2.307a.887.887,0,0,1-.513.685c-1.169.381-2.7-1.979-3.076-2.564-2.292-3.589-1.3-7.865.6-11.453.925-1.752,2.187-4.156,3.418-4.87,1.073-.624,1.82,1.219,2.308,2.051,1.355,2.3,3,5.633,2.991,9.144a8.917,8.917,0,0,1-2.82,6.324c-.442.472-2.079,2.076-2.479.6-.239-.888,1.23-1.968,1.71-2.564a6.487,6.487,0,0,0,1.709-4.273c.073-3.9-1.738-6.071-2.991-8.8" transform="translate(25.843 -3.448)" fill="#c9b3ff" fill-rule="evenodd"/>
      <path id="Trazado_879752" data-name="Trazado 879752" d="M86.021,116.882c.852,1.313.7,3.129.684,4.7-.1,9.352-3.563,13.954-11.537,15.555-1.051.21-2.522.515-2.564-.6-.036-.95,1.123-.977,2.222-1.2a13.562,13.562,0,0,0,6.923-3.246c2.817-2.93,3.142-7.711,2.99-13.248-6.422,1.26-12.519,3.471-12.563,11.367a22.8,22.8,0,0,0,.342,3.333c.12.766.623,2.49-.6,2.565-1.446.086-1.624-4.21-1.624-5.813,0-8.965,6.89-12.018,14.529-13.417a2.068,2.068,0,0,1,1.2,0" transform="translate(25.579 -4.022)" fill="#c9b3ff" fill-rule="evenodd"/>
      <path id="Trazado_879753" data-name="Trazado 879753" d="M56.009,127.77c1.5-.411,3.545.773,4.956,1.452a10.959,10.959,0,0,1,3.419,2.308c1.517,1.756,2.451,5.407,2.307,8.118-.07,1.341-.591,1.933-2.136,1.881-1.582-.054-4.163-1.6-5.213-2.48a12.521,12.521,0,0,1-3.248-4.528c-.671-1.557-2.119-6.2-.085-6.751m8.8,11.878c.33-6.312-3.15-8.814-7.948-10,.473,5.51,3.27,8.693,7.948,10" transform="translate(26.107 -4.397)" fill="#c9b3ff" fill-rule="evenodd"/>
      <path id="Trazado_879754" data-name="Trazado 879754" d="M88.783,142.129c-8.968.241-15.746,2.952-15.81,12.478-.009,1.219.929,4.708-.428,4.871-1.5.181-1.448-3.478-1.452-4.786C71.06,144.549,78,140.866,87.758,140.249c.769-.049,2.3-.314,2.734.342.55.827-.022,3.528-.171,4.359-1.45,8.106-5.524,12.575-13.247,14.444-.591.142-3.027.956-3.162-.343-.113-1.1,1.493-1.2,2.565-1.452,7.687-1.813,11.686-6.874,12.306-15.469" transform="translate(25.552 -4.827)" fill="#c9b3ff" fill-rule="evenodd"/>
      <path id="Trazado_879755" data-name="Trazado 879755" d="M66.911,158.242c1.078,2.3-2.426,1.413-3.675,1.2-6.112-1.059-11.313-3.3-11.793-10.426a22.824,22.824,0,0,1,.171-4.1c.134-1.02.387-3.641,1.538-3.418,7.281,1.415,14.195,4.616,14.7,12.734.084,1.351.362,3.767-.94,4.017M53.751,143.8a19.09,19.09,0,0,0-.428,5.556c.481,6.241,6.592,7.812,12.734,8.631a25.708,25.708,0,0,1-.086-3.674c-.42-6.762-6.134-9.608-12.135-10.769-.1.014-.093.135-.085.256" transform="translate(26.229 -4.872)" fill="#c9b3ff" fill-rule="evenodd"/>
      <path id="Trazado_879756" data-name="Trazado 879756" d="M101.309,157.221v.6a41,41,0,0,1-2.906,9.913,24.352,24.352,0,0,1-5.042,7.777,15.953,15.953,0,0,1-14.187,4.7c-1.245-.162-4.735-.519-4.358-2.052.313-1.276,3.453.039,4.358.172a14.1,14.1,0,0,0,12.82-4.1c4.077-4.078,5.793-9.022,7.265-15.725-7.468,1.866-16.329,2.189-20.939,6.837-1.865,1.88-3.116,5.054-3.761,8.29-.2,1.025.08,2.911-1.281,2.819-.764-.051-.9-.588-.684-2.051a21.823,21.823,0,0,1,2.223-7.265c3.583-6.836,12.687-8.328,21.452-10,1.291-.246,4.541-1.316,5.041.085" transform="translate(25.503 -5.39)" fill="#c9b3ff" fill-rule="evenodd"/>
      <path id="Trazado_879757" data-name="Trazado 879757" d="M40.824,161.949a30.622,30.622,0,0,0,5.811,8.461c2.766,2.766,5.9,5.665,11.367,5.3,1.047-.07,3.81-1.174,4.017.171.245,1.59-3.729,1.793-5.127,1.795-4.881.01-8.919-3.1-11.623-6.068a40.6,40.6,0,0,1-5.64-7.692c-.44-.779-1.423-2.168-1.2-2.991.314-1.142,3-.985,3.846-1.025,7.312-.346,14.446.465,18.117,4.444,2,2.164,3.068,4.59,3.933,8.2.282,1.184.657,2.817-.343,2.991-1.367.238-1.228-1.512-1.452-2.479-.7-3.021-2.027-6.015-3.846-7.778-3.655-3.539-11.151-3.766-17.862-3.333" transform="translate(26.678 -5.504)" fill="#c9b3ff" fill-rule="evenodd"/>
      <path id="Trazado_879758" data-name="Trazado 879758" d="M72.282,159.205s-2.716-11.236,4.1-14.873A31.225,31.225,0,0,1,90.658,141s-.246,11.168-6.58,14.53a31.75,31.75,0,0,1-11.8,3.676" transform="translate(25.529 -4.855)" fill="#c9b3ff" fill-rule="evenodd"/>
      <path id="Trazado_879759" data-name="Trazado 879759" d="M72.567,177.882s.545-12.571,8.12-15.555,21.539-5.129,21.539-5.129-3.746,17.853-13.59,21.283c-10.027,3.493-15.473.187-16.069-.6" transform="translate(25.501 -5.413)" fill="#c9b3ff" fill-rule="evenodd"/>
      <path id="Trazado_879760" data-name="Trazado 879760" d="M235.607,97.614c-1.073-6.341-4.609-9.5-13.675-12.65S202,77.87,202.017,63.6s1.215-31.2-10.342-30.769c-6.351.235-7.522,4.529-7.522,4.529s-16.22-5.89-24.188-1.2-11.757,10.856-12.822,17.608-3.9,19.612.769,22.65a7.068,7.068,0,0,0,8.377-.085s1.1,2.962,2.735,2.65a11.758,11.758,0,0,0,2.734-.855s2.171,4.74-.939,5.3-24.37-.764-28.89,6.752-9.146,23.676-9.146,23.676l-4.529,23.506,15.3,5.3,7.779-18.633,2.052,3.163s-1.655.336-.855,1.709a24.345,24.345,0,0,0,2.308,3.076s-2.5.794-1.709,2.992,2.146,1.627,3.932,1.025a2.811,2.811,0,0,1,2.991,1.025s-5.134,3.032-3.761,4.444,3.959-.8,5.128-.086A14.568,14.568,0,0,1,153.553,143l-4.871,12.735s-51.289,4.732-56.754,8.205c-2.721,1.729-7.129,5.553-8.718,16.5-2.325,16-4.53,37.437-4.53,37.437l73.934.513-5.214-18.12s27.138-.433,36.667-.342,20.966,1.976,25.984-2.906,10.2-15.48,5.641-25.641-12.907-25.557-12.907-25.557l3.591-25.129s8.3,2.812,14-2.809c5.549-5.467,4.757-13.571,7.194-14.8,2.412-1.214,9.108.871,8.034-5.47m-57.522-14.7c-4.132-2.336-2.735-11.71-2.735-11.71s3.715.259,5.3.257a12.611,12.611,0,0,0,3.5-.685l4.188,15.3s-6.125-.827-10.256-3.162" transform="translate(25.29 -1.13)" fill="#fff" fill-rule="evenodd"/>
      <path id="Trazado_879761" data-name="Trazado 879761" d="M144.8,129.68,143,126.775l-3.5,8.8-17.266,1.111.6-6.752,9.231-29.146S129.82,96.6,149.5,98.056s34.527-.259,44.36,2.564,14.873,5.642,14.873,5.642-2.8,50.766-11.624,54.445-19.573-4.786-19.573-4.786,2.956-2.714,3.418-5.213a17.7,17.7,0,0,0-.3-5.042c-.047-.29,15.3,1.81,15.255,1.537-.135-.745-3.64-1.933-7.334-2.988-.234-.066,1.157-32.759.924-32.824-1.4-.391-4.422,31.869-5.646,31.558-.228-.059-.45-.114-.664-.168-1.915-.481-3.264-.792-3.264-.792a29.832,29.832,0,0,1-11.88-5.042c-6.057-4.258-17.992-13.969-19.573-12.651s1.709,4.872,1.709,4.872Z" transform="translate(23.79 -3.366)" fill="#c9b3ff" fill-rule="evenodd"/>
      <path id="Trazado_879762" data-name="Trazado 879762" d="M163.357,71.375s1,4.354.77,5.726-.94,1.625-.94,1.625a1.972,1.972,0,0,1-3.076.085,12.193,12.193,0,0,1-1.795-2.308s-6.017,4.785-9.573-2.137.827-26.921,4.7-31.71c11.677-14.442,32.31-4.36,32.31-4.36s4-6.239,8.8-5.385,7.315,1.325,8.719,8.376-.522,31.092,6.154,35.813,27.28,11.687,28.206,15.984.973,7.034-1.71,8.718-5.476.424-6.837,2.137-2.605,15.2-10.257,16.923-10.171,0-10.171,0,1.606-17.731.685-21.2-1.986-8.8-7.266-10.172-11.368-2.735-11.368-2.735l-4.017-16.239a24.083,24.083,0,0,1-4.445.855c-3.179.4-4.444.513-4.444.513l.428-3.59s3.181,2.258,5.556-.085,2.881-6.317.854-6.5-3.332-.428-3.332-.428-4.795-6.569-7.949-10.94a60.855,60.855,0,0,1-5.3-9.061s-8.215,2.153-11.112,9.232-3.448,14.31-.513,17.094a17.3,17.3,0,0,0,6.923,3.761" transform="translate(22.923 -1.131)" fill="#9166fc" fill-rule="evenodd"/>
      <path id="Trazado_879763" data-name="Trazado 879763" d="M148.584,159.232l4.189-12.479s4.37,4.728,7.693,5.556,3.531-.572,7.008,1.539,20.021,10.295,24.959,9.744c7.618-.852,10.684-12.821,10.684-12.821s11.542,18.144,13.333,27.009c2.4,11.892-2.359,22.814-9.914,25.215s-58.464,1.538-58.464,1.538l4.615,18.292h-69.4s4.305-43.757,7.266-48.634a15.589,15.589,0,0,1,10.684-7.606Z" transform="translate(25.132 -5.054)" fill="#353535" fill-rule="evenodd"/>
      <path id="Trazado_879764" data-name="Trazado 879764" d="M32.822,17.253a.979.979,0,0,1-.7-.288L23.342,8.179a.983.983,0,0,1,1.389-1.39l8.786,8.786a.983.983,0,0,1-.7,1.678" transform="translate(13.145 1.776)" fill="#9166fc"/>
      <path id="Trazado_879765" data-name="Trazado 879765" d="M24.037,17.253a.983.983,0,0,1-.7-1.678l8.786-8.786a.983.983,0,0,1,1.389,1.39l-8.785,8.786a.983.983,0,0,1-.7.288" transform="translate(13.145 1.776)" fill="#9166fc"/>
      <path id="Trazado_879766" data-name="Trazado 879766" d="M206.8,122.137c-.875,6.447-1.685,13.46-2.649,20.084a15.325,15.325,0,0,0-.427,2.734c.091.722,1.181,2.077,1.624,2.819,3.841,6.457,7.67,13.013,10.425,20.511,1.623,4.415,2.966,9.351,2.309,15.042a22.461,22.461,0,0,1-5.385,12.221,15.936,15.936,0,0,1-11.707,5.982c-2.659.183-5.53-.054-8.546-.085-14.514-.152-29.222-.018-43.414.512,1.313,4.753,2.82,9.543,4.359,14.529.367,1.192.889,3-.94,2.734-.878-.126-1.129-2.017-1.453-3.076-2.088-6.838-4.1-13.41-6.238-20.426-.211-.687-1.1-2.873.427-2.99,1.437-.111,1.57,2.24,1.88,3.247.456,1.48.863,2.6,1.281,3.846,15.478-.369,32.8-1.244,48.884-.513,6.009.272,9.363-.939,12.563-3.846a19.714,19.714,0,0,0,5.812-10.768c.96-4.671-.027-10.025-1.453-14.272-2.77-8.252-7.167-15.117-11.024-22.135a26.872,26.872,0,0,1-3.676,7.777,10.15,10.15,0,0,1-7.178,4.273,19.847,19.847,0,0,1-8.461-1.538c-5.944-2.274-11.064-5.164-17.091-7.691a23.706,23.706,0,0,0-3.5-1.453c-.475-.1-1.065.018-1.538-.085a13.117,13.117,0,0,1-4.7-2.308,47.86,47.86,0,0,1-3.5-3.419c-1,3.7-1.971,7.43-2.992,11.111,1.466.192,4.017-.643,3.847,1.2-.123,1.315-1.927.969-3.334,1.025-9.556.382-19.62.805-28.715,1.538-10.524.848-22.036,1.334-28.971,5.555-7.349,4.472-8.884,14.054-10,24.527-.941,8.839-1.943,18.022-2.991,27.263-.177,1.558.061,2.958-1.282,2.991-1.368.034-1.088-1.656-.94-2.991.962-8.657,2-17.843,2.906-26.664,1.043-10.144,2.714-19.943,8.632-25.126,6.128-5.368,15.994-6.39,26.492-7.264,10.34-.861,20.79-1.588,31.878-1.881,1.432-3.98,2.289-8.536,3.589-12.648-1.724.178-3.635,1.113-5.213.342-3.116-1.522-.1-5.473,2.393-6.068-1.534-.394-2.691.847-4.188.854-3.189.016-3.743-4.419-1.282-5.725-.779-.629-1.567-1.005-1.708-2.137-.138-1.108.99-2.4-.086-3.076-.52,1.192-1.016,2.432-1.539,3.846-.4,1.094-.813,3.26-2.05,3.332a1.5,1.5,0,0,1-1.111-1.025c-.121-.732.472-1.411.769-2.137.8-1.943,1.669-4.52,2.479-6.238A17.046,17.046,0,0,1,138,121.71c-2.826-5.22-1.657-14.664,1.71-18.8a14.1,14.1,0,0,1,2.478-2.308c.257-.193,2.606-2,2.991-.342.262,1.127-1.141,1.724-1.881,2.308-2.45,1.937-3.693,4.3-4.358,8.033-.937,5.263-.074,10.319,3.333,12.564.414,1.209,1.127,2.12,1.624,3.247a7.124,7.124,0,0,1,2.221-.342c.116-.392-.436-.521-.684-.855-1.071-1.445-.476-4.081,1.539-4.359,1.7-.235,3.793,1.1,4.87,1.795,3.981,2.556,7.727,5.663,11.538,8.2,5.707,3.806,10.993,7,17.861,8.46,1.576-9.208,3.023-18.8,4.529-28.373.178-1.124.165-3.2,1.709-2.906,1.19.225.609,2.437.428,3.59-1.463,9.289-2.943,18.932-4.443,28.117,1.222.7,4.041-.041,3.931,1.794-.093,1.534-2.174.837-3.418.6a35.256,35.256,0,0,1-3.933-.855c2.089,4.5.365,9.925-2.649,12.221a82.228,82.228,0,0,0,7.606,3.333c2.588.928,6.182,1.954,9.059.769,4.767-1.964,6.624-7.95,7.607-14.1a345.542,345.542,0,0,0,4.187-39.314,49.824,49.824,0,0,0-16.75-5.554c-6.312-.963-13.458-.987-21.024-1.2-6.952-.193-14.449-.76-21.28-1.025-5.195-.2-11.166-.489-14.956,1.368-1.2.588-2.849,1.377-3.332,2.222a15.463,15.463,0,0,0-.77,2.478c-1.3,4.1-2.337,7.964-3.846,12.051-.373,1.006-1.236,4.048-2.393,3.93-.306-.03-.87-.683-.94-.939-.253-.925.774-2.341,1.2-3.419.546-1.4.862-2.509,1.2-3.5.89-2.654,1.641-5.391,2.222-7.263,1.48-4.776,2.789-9.972,5.555-13.332,4.433-5.386,12.114-6.861,21.279-7.179,3.666-.126,9.724,1.217,9.06-2.991-2.111,1.121-5.133-.158-5.471-2.393-1.97,1.073-5.321,2.3-7.776.94-5.063-2.816-3.839-14.269-2.65-20.682,1.163-6.28,2.2-12.078,5.641-16.066A23.988,23.988,0,0,1,164.84,33.94a26.792,26.792,0,0,1,18.033,2.819c2.116-1.994,4.114-4.541,7.862-4.87a10.445,10.445,0,0,1,10,4.87c5.956,9.03-.315,29.839,6.323,38.2,4.226,5.322,12.594,7.175,19.229,10.511,4.45,2.237,10.668,5.068,10.426,11.879-.127,3.623-1.954,6.623-6.153,6.665-1.182.014-2.533-.2-3.162.171-.672.4-.939,2.478-1.111,3.5-1.554,9.259-6.157,15.094-17.518,14.615-.63-.027-1.1-.145-1.967-.171m17.007-12.991c.637-2.676.561-5.844,2.478-6.922,1.514-.852,4.135.095,5.983-.684,2.26-.953,2.637-4.619,1.88-6.836-.979-2.874-4.584-5.072-7.093-6.41-2.4-1.282-5.408-2.537-7.948-3.59-5.29-2.193-10.949-4.3-14.187-8.8-3.262-4.54-3.5-11.63-3.5-19.485,0-7.684.264-15.829-3.419-19.657a8.942,8.942,0,0,0-7.093-2.649c-2.819.291-4.476,2.129-5.983,3.931a19.1,19.1,0,0,1,8.632,14.785c.777,8.277-2.651,15.548-8.632,18.2,1.475,4.735,2.76,9.66,4.188,14.443,7.848,1.353,14.468,3.709,17.52,9.743,1.643,3.251,1.492,7.522,1.281,11.965-.211,4.473-.412,8.753-.94,12.734,10.476,1.248,15-3.084,16.836-10.769M187.316,66.758c4.17-4.169,5.385-13.089,2.565-19.657-3.008-7-11.39-12.015-21.537-11.366-9.262.592-16.863,5.446-19.058,13.758a88.624,88.624,0,0,0-2.649,13.588,31.794,31.794,0,0,0-.086,7.692c.235,1.951.713,4.872,2.479,5.727,1.577.763,3.424-.066,4.529-.6a4.354,4.354,0,0,1,2.649-.77c1.5.3,1.153,2.591,2.565,2.905a1.84,1.84,0,0,0,2.052-1.024,8.26,8.26,0,0,0-.343-2.479c-.155-.911-.37-1.759-.427-2.479-5.206-.931-8.437-4.544-8.8-10a20.372,20.372,0,0,1,1.453-8.546A11.951,11.951,0,0,0,153.73,51.2c.017-.432-.655-.831-.6-1.453a6.441,6.441,0,0,1,1.282-1.966c2.959-3.821,6.251-6.715,11.366-8.118.733-.2,2.007-.675,2.65-.428,1.541.593.21,2.7-1.368,2.308a137.575,137.575,0,0,0,12.136,18.8c3.422-.666,5.308,1.388,4.956,4.529s-3.063,4.882-6.58,4.871c-.288,0-.835-.24-1.11.171,4.812.37,8.542-.852,10.853-3.161m-25.639-22.9a6.922,6.922,0,0,1,3.248,5.9c-.025,3.9-3.644,6.446-5.9,8.2,1.269.923,1.182,2.639-.17,2.65-.624,0-1.311-.981-1.539-1.282-.435-.576-1.03-1.235-.939-1.966.12-.974,1.262-1.17,2.137-1.794,1.7-1.215,3.774-2.958,4.1-5.043.266-1.692-.606-4.378-1.88-4.444-.943-.049-1.129,1.029-2.137,1.111-2.379,4.043-5.6,8.331-5.127,14.785.361,4.97,3.6,7.928,8.8,8.033,1.316.027,4.9-1.045,4.871.769-.031,1.926-3.721,1.034-4.871,1.539.6,3.649,2.42,9.92-.855,11.879a7.843,7.843,0,0,1-3.5.854c-3.352.185-6.595-.078-9.658.172-9.023.734-16.342,3.586-18.374,11.11,4.636-3,12.021-2.407,18.8-2.052,6.7.352,13.783.94,20.511.94a134.717,134.717,0,0,1,20.255,1.2,57.755,57.755,0,0,1,16.323,5.128c-.245-7.968-5.666-11.2-12.648-12.99-7.285-1.866-15.442-1.517-17.947-7.778a19.914,19.914,0,0,1-1.11-7.435c0-2-.048-5.791,1.366-6.069a7.984,7.984,0,0,1,1.881.257c3.41.244,5.7-2.1,4.017-4.957-1.6-.643-4.234,1.364-4.786-.256-.236-.692.238-.937.256-1.453-1.5-2.017-3.783-5.1-5.3-7.435-.544-.837-1.059-2.091-1.966-2.308-1-.24-2.96.817-2.819-1.025.067-.881,1.108-1.148,1.88-1.2-1.238-2.238-2.47-4.482-3.847-6.58a13.926,13.926,0,0,0-3.076,1.538m14.7,28.459c-.078,3.768.127,7.769,2.222,9.827,1.917,1.884,4.82,2.179,8.033,2.82-1.327-4.427-2.394-9.115-3.932-13.332a21.229,21.229,0,0,1-6.323.684m-29.313,51.02c.236.925,1.166,1.31,1.881,1.88a24.075,24.075,0,0,0,1.965,1.8c1.088.688,2.266,1.022,3.5,1.793.729.455,2.768,1.451,2.734,2.565a1.093,1.093,0,0,1-1.025,1.024c-.615.03-1.366-.731-2.051-1.2-1.862-1.262-4.46-2.724-7.008-2.906-1.528-.109-2.854-.012-3.248,1.111.877,1.078,2.5.778,3.847.684a10.339,10.339,0,0,1,5.812,1.539c.828.462,3.23,1.8,3.161,2.991a.967.967,0,0,1-.855.939c-1.1.149-2.432-1.413-3.247-1.88-1.394-.8-3.455-1.723-5.47-1.283-1.314.288-2.954.951-3.076,2.649,1.329.644,2.317-.463,3.589-.6a5.351,5.351,0,0,1,1.2,0c1.508.2,2.117,1.411,3.162,1.795.42.154,1.117.089,1.624.256,1.157.382,3.654,1.855,3.589,3.163a1.054,1.054,0,0,1-1.025,1.024c-.9.022-1.615-1.241-2.479-1.709a4.6,4.6,0,0,0-2.564-.512c-1.7.163-3.369,1.136-3.76,2.393,1.823.252,2.9-.828,4.7-.6,2.329.3,3.567,2.646,5.128,4.187a12.7,12.7,0,0,0,5.128,2.992c1.6-.106,2.716.557,4.1,1.111,3.1,1.241,6.091,2.642,8.888,3.93,1.42-1.422,3.334-3.141,3.5-5.9a13.583,13.583,0,0,0-1.452-6.068c-8.889-2.85-15.6-7.927-22.477-12.99-2.166-1.6-4.993-3.9-7.52-4.444-.2-.026-.1.247-.257.257" transform="translate(25.315 -1.097)" fill-rule="evenodd"/>
      <path id="Trazado_879767" data-name="Trazado 879767" d="M162.295,50.388a1.013,1.013,0,0,1,1.282.769c.188,1.059-1.305,3.647-2.136,3.675-2.34.079-.129-4.25.854-4.444" transform="translate(22.476 -1.734)" fill-rule="evenodd"/>
      <path id="Trazado_879768" data-name="Trazado 879768" d="M171.317,54.193c.733-.2,1.529.118,1.368,1.282-.1.708-1.64,2.786-2.309,2.819-2.563.134-.023-3.841.94-4.1" transform="translate(22.171 -1.864)" fill-rule="evenodd"/>
      <path id="Trazado_879769" data-name="Trazado 879769" d="M168.959,63.841a1.083,1.083,0,0,1,1.367.855c.112,1.291-2.4,2.6-3.59,2.734-1.608.182-3.89-.421-3.931-1.623a1.12,1.12,0,0,1,.684-1.111c1.025-.3,1.758.664,2.991.512.993-.121,1.578-1.177,2.479-1.366" transform="translate(22.393 -2.198)" fill-rule="evenodd"/>
      <path id="Trazado_879770" data-name="Trazado 879770" d="M164.875,165.091c1.705-.081,5.66-.762,5.641,1.024-.012,1.122-1.249,1.112-2.65,1.112-8.687,0-17.341.384-25.3,1.025-14.187,1.142-26.524,3.112-30.168,14.87-1.192,3.846-1.449,8.328-1.367,13.674.1,6.741.587,14.649,1.024,21.537.054.848.094,2.213.171,3.589.077,1.35.213,2.541-.939,2.564-1.538.031-1.305-3.747-1.453-5.983-.467-7.093-.792-14.253-1.025-21.023a51.443,51.443,0,0,1,1.025-13.674c3-11.773,13.232-15.86,26.92-17.262a269.919,269.919,0,0,1,27.947-1.453c.056,0,.114,0,.17,0" transform="translate(24.254 -5.679)" fill-rule="evenodd"/>
      <path id="Trazado_879771" data-name="Trazado 879771" d="M93.33,159.144h69.019a1.159,1.159,0,0,1,.98,1.276l-.451,3.415c-.4,1.732-1.319,3.189-2.646,3.189H95.485c-1.327,0-2.37-1.452-2.794-3.253l-.342-3.351a1.159,1.159,0,0,1,.981-1.276" transform="translate(24.82 -5.48)" fill="#f5f5f5" fill-rule="evenodd"/>
      <path id="Trazado_879772" data-name="Trazado 879772" d="M160.2,167.973H95.449c-1.705,0-3.178-1.574-3.75-4.011l-.021-.126-.347-3.451a2.1,2.1,0,0,1,1.964-2.259h69.019a2.1,2.1,0,0,1,1.963,2.259l-.009.128-.467,3.509c-.574,2.474-1.92,3.95-3.6,3.95m-66.571-4.4c.347,1.415,1.108,2.435,1.822,2.435H160.2c.666,0,1.338-.956,1.678-2.383l.434-3.29a.515.515,0,0,0-.073-.242H93.373a.521.521,0,0,0-.074.255Z" transform="translate(24.855 -5.445)"/>
      <path id="Trazado_879773" data-name="Trazado 879773" d="M80.85,118.021l48.009.016a4.694,4.694,0,0,1,3.936,3.181l11.975,34.706c.605,1.755-1.465,5.027-3.033,5.026l-48.014-.016a4.691,4.691,0,0,1-3.935-3.182L77.81,123.034c-.606-1.756,1.472-5.013,3.04-5.013" transform="translate(25.324 -4.064)" fill="#f5f5f5" fill-rule="evenodd"/>
      <path id="Trazado_879774" data-name="Trazado 879774" d="M141.7,161.9l-48.015-.016a5.663,5.663,0,0,1-4.864-3.844L76.846,123.32c-.5-1.446.221-3.22,1.061-4.4A3.9,3.9,0,0,1,80.815,117l48.01.016a5.662,5.662,0,0,1,4.864,3.843l11.975,34.705c.5,1.455-.261,3.291-1.066,4.421A3.886,3.886,0,0,1,141.7,161.9M80.815,118.969c-.219,0-.77.339-1.306,1.093a3.552,3.552,0,0,0-.8,2.617L90.681,157.4a3.767,3.767,0,0,0,3.007,2.519l48.014.016c.2,0,.73-.295,1.294-1.084a3.581,3.581,0,0,0,.809-2.638L131.83,121.5a3.77,3.77,0,0,0-3.007-2.518Z" transform="translate(25.359 -4.029)"/>
      <path id="Trazado_879775" data-name="Trazado 879775" d="M106.414,140.247c-2.621.041-3.836,2.282-2.715,5s4.156,4.9,6.776,4.855,3.836-2.281,2.715-5-4.156-4.9-6.776-4.856" transform="translate(24.443 -4.83)" fill="#d6d6d6" fill-rule="evenodd"/>
      <path id="Trazado_879776" data-name="Trazado 879776" d="M69.377,138.246c.8-.728.425-4.086,2.137-3.846,1.667.235-.188,4.22-.513,5.213a31.828,31.828,0,0,0-1.453,4.274c-.337,2.3.093,5.1.171,7.606.117,3.709.085,6.6.171,10a21.463,21.463,0,0,0,.855-2.734c.143-.485.325-2.311,1.453-2.138,1.109.172.42,2.032.256,2.649-.579,2.2-1.046,3.8-1.623,5.813a24.918,24.918,0,0,0-.855,2.819,31.774,31.774,0,0,0,0,6.239c.1,2.089.105,4.154.085,6.067a16.659,16.659,0,0,0,1.538-2.819c.373-.79.774-2.649,1.881-2.479,1.353.209.19,2.27-.172,3.076a32.853,32.853,0,0,1-3.332,6.154c.03,3.428-.086,6.852-.086,10.512,0,1.189-.041,2.542-.855,2.649-1.215.159-1.025-1.8-1.025-2.906,0-3.024.086-4.773.086-7.777a21.237,21.237,0,0,0,0-3.846,9.4,9.4,0,0,0-1.71-2.393c-1.263-1.673-2.233-2.994-3.418-4.615-.525-.718-1.417-1.581-.855-2.82,1.079-1,1.634.473,2.222,1.281,1.205,1.658,2.763,3.733,3.846,5.043-.069-2.134.094-4.114,0-6.068-.095-1.978.16-3.945-.085-5.9a35.512,35.512,0,0,0-1.71-5.47C65.808,160,65,158.143,65.1,156.193c2.041-1.574,2.187,2.548,2.819,3.846.064-4.421-.075-9.381-.256-13.844a34.3,34.3,0,0,1-1.88-3.5c-.561-1.115-1.518-2.395-1.111-3.846,1.87-1.146,1.983,1.931,2.905,2.819,0-8.234-.834-16.537-.684-24.355,1.818-1.587,1.725,2.9,1.795,4.358.256,5.376.448,11.942.684,16.58" transform="translate(25.867 -4.028)" fill="#c9b3ff" fill-rule="evenodd"/>
      <g id="Grupo_1105446" data-name="Grupo 1105446" transform="translate(80.551 31.701)">
        <g id="Grupo_1105445" data-name="Grupo 1105445" clip-path="url(#clip-path-4)">
          <path id="Trazado_890123" data-name="Trazado 890123" d="M53.008,26.5a26.5,26.5,0,1,0-26.5,26.5,26.5,26.5,0,0,0,26.5-26.5" transform="translate(0 -0.001)" fill="#3a1d71"/>
          <path id="Trazado_890124" data-name="Trazado 890124" d="M34.687,45.8a20.944,20.944,0,1,1-1.641,8.128A20.807,20.807,0,0,1,34.687,45.8m29.387,7.484a20.711,20.711,0,0,0-.555-4.787H54.976v9.932h8.475a21.623,21.623,0,0,0,.622-5.144M48.682,39.555a22.076,22.076,0,0,0-3.568,5.708c-.159.373-.3.751-.439,1.131h8.2V35.683a24.193,24.193,0,0,0-4.193,3.872m6.294-3.666V46.394H62.9c-.13-.366-.27-.729-.421-1.088a22.043,22.043,0,0,0-3.537-5.693,24.383,24.383,0,0,0-3.964-3.724m0,24.639V71.8a29.284,29.284,0,0,0,3.883-4.11,25.974,25.974,0,0,0,3.593-6.172q.2-.494.375-.992Zm-2.1,11.51V60.528H44.747q.168.479.359.954a25.932,25.932,0,0,0,3.566,6.157,29.186,29.186,0,0,0,4.2,4.4m0-13.611V48.5H44.054a20.71,20.71,0,0,0-.555,4.787,21.615,21.615,0,0,0,.622,5.144ZM41.9,48.5H35.941a18.992,18.992,0,0,0-.253,9.932h6.275a23.687,23.687,0,0,1-.565-5.144,22.873,22.873,0,0,1,.5-4.787m-1.253-7.847a18.768,18.768,0,0,0-3.933,5.746h5.744q.316-.99.722-1.952a24.166,24.166,0,0,1,3.906-6.253,26.678,26.678,0,0,1,2.477-2.533,18.653,18.653,0,0,0-8.916,4.992m26.556,0a18.65,18.65,0,0,0-9.288-5.076,26.706,26.706,0,0,1,2.572,2.617,24.169,24.169,0,0,1,3.905,6.253q.408.961.722,1.952h6.022A18.768,18.768,0,0,0,67.2,40.648M71.91,48.5H65.673a22.861,22.861,0,0,1,.5,4.787,23.7,23.7,0,0,1-.565,5.144h6.553A18.992,18.992,0,0,0,71.91,48.5M67.2,67.2a18.722,18.722,0,0,0,4.311-6.676H65.041q-.286.9-.641,1.78a28.065,28.065,0,0,1-3.881,6.673,31.669,31.669,0,0,1-3.05,3.39A18.644,18.644,0,0,0,67.2,67.2m-26.556,0a18.648,18.648,0,0,0,9.384,5.1,31.711,31.711,0,0,1-2.977-3.32,28.071,28.071,0,0,1-3.881-6.673q-.357-.883-.641-1.78h-6.2A18.722,18.722,0,0,0,40.647,67.2" transform="translate(-27.422 -27.423)" fill="#fff"/>
        </g>
      </g>
      <g id="Grupo_1105448" data-name="Grupo 1105448" transform="translate(56.359 76.706)">
        <g id="Grupo_1105447" data-name="Grupo 1105447" clip-path="url(#clip-path-5)">
          <path id="Trazado_890125" data-name="Trazado 890125" d="M9.35,37.826a1.038,1.038,0,0,0,.75-.311l8.124-8.328,5.041,6.453a.925.925,0,0,0,.741.367,1.207,1.207,0,0,0,1.076-.76L37.075,2.959a.948.948,0,0,0-.233-1.064.912.912,0,0,0-.724-.359,1.051,1.051,0,0,0-.392.079L3.746,14.4a1.119,1.119,0,0,0-.723.888,1.106,1.106,0,0,0,.466,1.03l6.46,4.794L1.843,29.428a1.105,1.105,0,0,0-.309.748,1.037,1.037,0,0,0,.311.769l6.737,6.573a1.106,1.106,0,0,0,.767.309m8.983-11.335a1.108,1.108,0,0,0-.783.314l-8.23,8.436-5.2-5.075,8.213-8.419a1.043,1.043,0,0,0,.306-.819,1.17,1.17,0,0,0-.484-.837L6.246,15.706,34.21,4.523,23.722,32.757,19.1,26.846a.963.963,0,0,0-.771-.354" transform="translate(-1.112 -1.117)" fill="#fff"/>
          <path id="Trazado_890126" data-name="Trazado 890126" d="M.431,28.018l3.934-4.033L8.2,20.051,5.3,17.9,2.129,15.543a1.5,1.5,0,0,1,.35-2.645L8.216,10.6,13.35,8.55l.272-.109L30.528,1.681,32.494.895,34.459.109A1.471,1.471,0,0,1,35.007,0a1.324,1.324,0,0,1,1.034.494,1.37,1.37,0,0,1,.315,1.494L34.719,6.4l-2.439,6.567L28.324,23.611l-2.487,6.7-1.009,2.715-.465,1.253a1.622,1.622,0,0,1-1.469,1.034,1.336,1.336,0,0,1-1.071-.528l-2.052-2.626-2.694-3.449-4.212,4.318-2.475,2.537-.551.564-.551.565a1.454,1.454,0,0,1-1.05.437A1.528,1.528,0,0,1,7.178,36.7L2.646,32.279l-2.2-2.151a1.494,1.494,0,0,1-.01-2.11m.6,1.509L7.764,36.1a.68.68,0,0,0,.474.19.623.623,0,0,0,.45-.184l1.1-1.129,7.358-7.542,5.336,6.831a.506.506,0,0,0,.41.206.781.781,0,0,0,.683-.487l1.474-3.968,6.442-17.344L35.57,1.7a.535.535,0,0,0-.149-.632.5.5,0,0,0-.414-.225.64.64,0,0,0-.236.049L30.84,2.459,13.661,9.329,2.79,13.676a.664.664,0,0,0-.162,1.193L9.474,19.95l-.574.589L1.031,28.6a.664.664,0,0,0,0,.924" transform="translate(0)" fill="#fff"/>
          <path id="Trazado_890127" data-name="Trazado 890127" d="M18.152,27.438a.665.665,0,0,0-.127-1.027l-6.512-4.833,2.781-1.112L31.472,13.6l9.58-3.831-.982,2.643L33.627,29.753,29.973,39.59l-5.08-6.5a.548.548,0,0,0-.441-.193.689.689,0,0,0-.483.187l-1.1,1.13-7.421,7.607-5.8-5.66.638-.654,7.868-8.066M15.433,40.632l2.387-2.447,4.448-4.559,1.1-1.129a1.514,1.514,0,0,1,1.083-.441,1.381,1.381,0,0,1,1.1.516l2.54,3.251,1.615,2.068,1.362-3.666,1.769-4.764,2.292-6.171,4.15-11.173.323-.87-7.823,3.128L23.194,17.81l-8.589,3.435-1.387.554,2.05,1.522,3.256,2.417a1.589,1.589,0,0,1,.651,1.141,1.457,1.457,0,0,1-.423,1.145l-3.934,4.033-3.934,4.033-.052.053Z" transform="translate(-7.232 -7.1)" fill="#fff"/>
          <path id="Trazado_890128" data-name="Trazado 890128" d="M14.508,23.918l-7.5-5.566L38.989,5.563,26.995,37.851l-5.75-7.36-8.97,9.195L8.907,36.4,5.538,33.113Z" transform="translate(-4.047 -4.045)" fill="#f0c518"/>
        </g>
      </g>
    </g>
    <g transform="matrix(1, 0, 0, 1, 0, 0)" filter="url(#Trazado_884511)">
      <g id="Trazado_884511-2" data-name="Trazado 884511" transform="translate(15.49 13.17)" fill="none">
        <path d="M21.5,0A21.5,21.5,0,1,0,43,21.5,21.5,21.5,0,0,0,21.5,0Z" stroke="none"/>
        <path d="M 21.5 6 C 12.95326995849609 6 6 12.95326995849609 6 21.5 C 6 30.04673004150391 12.95326995849609 37 21.5 37 C 30.04673004150391 37 37 30.04673004150391 37 21.5 C 37 12.95326995849609 30.04673004150391 6 21.5 6 M 21.5 0 C 33.37411880493164 0 43 9.625881195068359 43 21.5 C 43 33.37411880493164 33.37411880493164 43 21.5 43 C 9.625881195068359 43 0 33.37411880493164 0 21.5 C 0 9.625881195068359 9.625881195068359 0 21.5 0 Z" stroke="none" fill="#fff"/>
      </g>
    </g>
    <line id="Línea_731" data-name="Línea 731" x2="45" y2="31" transform="translate(26.5 25.351)" fill="none" stroke="#00ffdf" stroke-linecap="round" stroke-linejoin="round" stroke-width="3"/>
    <circle id="Elipse_11700" data-name="Elipse 11700" cx="16" cy="16" r="16" transform="translate(4.988 2.673)" fill="url(#linear-gradient)"/>
    <path id="Trazado_877328" data-name="Trazado 877328" d="M86.139,34.475,82.218,19.544a7.543,7.543,0,1,0,2.209,5.336,7.528,7.528,0,0,0-2.209-5.336m-1.63-7.475a13.189,13.189,0,0,1,2.956,1.259,13.338,13.338,0,0,1,2.6,1.955.459.459,0,0,0,.55.068L90.2,13.327l.018-.013a.873.873,0,0,1,1.165.329l.017.024,2.466,4.271a.873.873,0,0,1-.321,1.189l-.022.015L90.042,21.15a.463.463,0,0,0-.219.509,13.038,13.038,0,0,1,.293,1.6,13.567,13.567,0,0,1,0,3.25,13,13,0,0,1-.294,1.594.468.468,0,0,0,.247.526l3.475,2.005h0a.87.87,0,0,1,.321,1.186l-2.48,4.3h0a.854.854,0,0,1-.525.4.873.873,0,0,1-.659-.084l-.027-.015-3.482-2.009a.462.462,0,0,0-.548.067A13.347,13.347,0,0,1,80.567,37.7a.465.465,0,0,0-.338.444v4.044a.867.867,0,0,1-.865.868H74.4a.874.874,0,0,1-.868-.868V38.14a.465.465,0,0,0-.356-.451,13.265,13.265,0,0,1-2.957-1.259,13.459,13.459,0,0,1-2.593-1.955.463.463,0,0,0-.575-.053l-3.482,2.011a.875.875,0,0,1-1.188-.32l-.015-.024L59.9,31.817h0a.865.865,0,0,1-.084-.657.848.848,0,0,1,.4-.527l3.5-2.023c.181-.1.218-.509.218-.509s-.223-1.051-.292-1.594a13.765,13.765,0,0,1,0-3.25,14.2,14.2,0,0,1,.292-1.6.46.46,0,0,0-.243-.525l-3.476-2.007a.851.851,0,0,1-.4-.529.874.874,0,0,1,.084-.66l.014-.024,2.466-4.271h0a.879.879,0,0,1,1.188-.32v0l3.5,2.023a.459.459,0,0,0,.561-.078,13.457,13.457,0,0,1,2.584-1.945A13.233,13.233,0,0,1,73.2,12.064a.465.465,0,0,0,.336-.447V7.574a.874.874,0,0,1,.868-.867h4.962a.867.867,0,0,1,.865.867v4.044a.465.465,0,0,0,.359.451" transform="translate(290.21 13.957)" fill="#fff" fill-rule="evenodd" opacity="0.84"/>
  </g>
</svg>
