<svg xmlns="http://www.w3.org/2000/svg" xmlns:xlink="http://www.w3.org/1999/xlink" width="295" height="384" viewBox="0 0 295 384">
  <defs>
    <clipPath id="clip-path">
      <rect id="Rectángulo_404984" data-name="Rectángulo 404984" width="295" height="384" rx="15" fill="#d6e1fd"/>
    </clipPath>
    <clipPath id="clip-path-3">
      <rect id="Rectángulo_404941" data-name="Rectángulo 404941" width="138" height="380" fill="#f2f6ff" opacity="0.4"/>
    </clipPath>
    <filter id="Elipse_11850" x="-154.842" y="113.987" width="328.465" height="375.366" filterUnits="userSpaceOnUse">
      <feOffset dx="9.39" dy="9.39" input="SourceAlpha"/>
      <feGaussianBlur stdDeviation="25.04" result="blur"/>
      <feFlood flood-opacity="0.078"/>
      <feComposite operator="in" in2="blur"/>
      <feComposite in="SourceGraphic"/>
    </filter>
  </defs>
  <g id="Enmascarar_grupo_1098788" data-name="Enmascarar grupo 1098788" clip-path="url(#clip-path)">
    <g id="Enmascarar_grupo_1098787" data-name="Enmascarar grupo 1098787" clip-path="url(#clip-path)">
      <rect id="Rectángulo_404940" data-name="Rectángulo 404940" width="295" height="384" rx="15" fill="#d6e1fd"/>
      <g id="Enmascarar_grupo_1098786" data-name="Enmascarar grupo 1098786" transform="translate(0 120)" clip-path="url(#clip-path-3)">
        <g transform="matrix(1, 0, 0, 1, 0, -120)" filter="url(#Elipse_11850)">
          <ellipse id="Elipse_11850-2" data-name="Elipse 11850" cx="89.112" cy="112.563" rx="89.112" ry="112.563" transform="translate(-89.11 179.72)" fill="#f2f6ff"/>
        </g>
      </g>
    </g>
    <path id="Trazado_889239" data-name="Trazado 889239" d="M78.509,69.828a139.174,139.174,0,0,0-25.115,43.511C39.24,153.082,50.881,205.5,95.28,219c30.084,9.144,63.424,1.646,85.03-21.255,12.178-12.911,22.3-29.728,39.414-36.71,11.987-4.887,25.971-2.27,37.391-8.834,19.459-11.192,25.084-34.2,20.821-55.075-13.855-67.872-106.4-85.154-160.379-58.166A125.2,125.2,0,0,0,78.509,69.828Z" transform="translate(-10.147 2.207)" fill="#bdcef8"/>
    <g id="Grupo_1104560" data-name="Grupo 1104560" transform="translate(158.5 13.946)">
      <g id="Grupo_1104552" data-name="Grupo 1104552" transform="translate(12.1 86.178)">
        <rect id="Rectángulo_404953" data-name="Rectángulo 404953" width="98.755" height="97.111" rx="9.44" fill="#e4e5f8"/>
        <rect id="Rectángulo_404954" data-name="Rectángulo 404954" width="92.58" height="9.766" rx="4.883" transform="translate(3.083 4.023)" fill="#5c7cef"/>
        <g id="Grupo_1104545" data-name="Grupo 1104545" transform="translate(9.091 20.721)">
          <rect id="Rectángulo_404955" data-name="Rectángulo 404955" width="24.554" height="3.546" transform="translate(0)" fill="#430f76"/>
          <rect id="Rectángulo_404956" data-name="Rectángulo 404956" width="18.796" height="3.546" transform="translate(28.009)" fill="#a36eed"/>
          <rect id="Rectángulo_404957" data-name="Rectángulo 404957" width="29.895" height="3.546" transform="translate(50.669)" fill="#5c7cef"/>
        </g>
        <g id="Grupo_1104546" data-name="Grupo 1104546" transform="translate(8.925 31.395)">
          <rect id="Rectángulo_404958" data-name="Rectángulo 404958" width="9.925" height="3.546" transform="translate(0 0.432)" fill="#a36eed"/>
          <rect id="Rectángulo_404959" data-name="Rectángulo 404959" width="9.925" height="3.546" transform="translate(14.955)" fill="#430f76"/>
          <rect id="Rectángulo_404960" data-name="Rectángulo 404960" width="34.055" height="3.546" transform="translate(28.342)" fill="#5c7cef"/>
          <rect id="Rectángulo_404961" data-name="Rectángulo 404961" width="14.675" height="3.546" transform="translate(66.23)" fill="#430f76"/>
        </g>
        <g id="Grupo_1104547" data-name="Grupo 1104547" transform="translate(9.091 42.502)">
          <rect id="Rectángulo_404962" data-name="Rectángulo 404962" width="14.622" height="3.546" transform="translate(0)" fill="#430f76"/>
          <rect id="Rectángulo_404963" data-name="Rectángulo 404963" width="22.418" height="3.546" transform="translate(18.94)" fill="#5c7cef"/>
          <rect id="Rectángulo_404964" data-name="Rectángulo 404964" width="34.623" height="3.546" transform="translate(45.949)" fill="#a36eed"/>
        </g>
        <g id="Grupo_1104548" data-name="Grupo 1104548" transform="translate(9.091 53.177)">
          <rect id="Rectángulo_404965" data-name="Rectángulo 404965" width="24.554" height="3.546" fill="#a36eed"/>
          <rect id="Rectángulo_404966" data-name="Rectángulo 404966" width="24.554" height="3.546" transform="translate(28.009)" fill="#430f76"/>
          <rect id="Rectángulo_404967" data-name="Rectángulo 404967" width="24.554" height="3.546" transform="translate(56.018)" fill="#5c7cef"/>
        </g>
        <g id="Grupo_1104549" data-name="Grupo 1104549" transform="translate(9.091 63.851)">
          <rect id="Rectángulo_404968" data-name="Rectángulo 404968" width="14.622" height="3.546" transform="translate(0)" fill="#5c7cef"/>
          <rect id="Rectángulo_404969" data-name="Rectángulo 404969" width="23.213" height="3.546" transform="translate(18.592)" fill="#a36eed"/>
          <rect id="Rectángulo_404970" data-name="Rectángulo 404970" width="34.388" height="3.546" transform="translate(46.184)" fill="#430f76"/>
        </g>
        <g id="Grupo_1104550" data-name="Grupo 1104550" transform="translate(9.091 74.534)">
          <rect id="Rectángulo_404971" data-name="Rectángulo 404971" width="32.229" height="3.546" transform="translate(0)" fill="#430f76"/>
          <rect id="Rectángulo_404972" data-name="Rectángulo 404972" width="13.122" height="3.546" transform="translate(36.04)" fill="#5c7cef"/>
          <rect id="Rectángulo_404973" data-name="Rectángulo 404973" width="28.009" height="3.546" transform="translate(52.563)" fill="#a36eed"/>
        </g>
        <g id="Grupo_1104551" data-name="Grupo 1104551" transform="translate(9.091 85.208)">
          <rect id="Rectángulo_404974" data-name="Rectángulo 404974" width="16.357" height="3.546" transform="translate(0)" fill="#a36eed"/>
          <rect id="Rectángulo_404975" data-name="Rectángulo 404975" width="21.243" height="3.546" transform="translate(20.637)" fill="#430f76"/>
          <rect id="Rectángulo_404976" data-name="Rectángulo 404976" width="34.327" height="3.546" transform="translate(46.237)" fill="#5c7cef"/>
        </g>
      </g>
      <g id="Grupo_1104555" data-name="Grupo 1104555">
        <g id="Grupo_1104553" data-name="Grupo 1104553">
          <path id="Trazado_889234" data-name="Trazado 889234" d="M213.376,64.976h0a2.831,2.831,0,0,1-2.7-3.682,15.335,15.335,0,0,0-11.917-19.668,15.084,15.084,0,0,0-6.182.152,1.567,1.567,0,0,1-1.917-1.568v-.023a29.33,29.33,0,0,0-58.412-3.811,1.564,1.564,0,0,1-2.159,1.273,17.965,17.965,0,0,0-23.85,23.357,2.843,2.843,0,0,1-2.6,3.977h-2.955a5.058,5.058,0,0,0-5.1,4.424,4.907,4.907,0,0,0,4.887,5.387h113.1a4.907,4.907,0,0,0,4.887-5.387,5.047,5.047,0,0,0-5.1-4.424Z" transform="translate(-95.559 -10.86)" fill="#fff"/>
          <path id="Trazado_889235" data-name="Trazado 889235" d="M168.788,41.034l-.7-.955a2.3,2.3,0,0,0-1.856-.939H155.363a2.3,2.3,0,0,0-2.3,2.3v21.44a2.3,2.3,0,0,0,2.3,2.3h31.229a2.3,2.3,0,0,0,2.3-2.3V44.277a2.3,2.3,0,0,0-2.3-2.3h-15.94a2.3,2.3,0,0,1-1.856-.939Z" transform="translate(-109.497 -17.715)" fill="#afb4e8"/>
        </g>
        <g id="Grupo_1104554" data-name="Grupo 1104554" transform="translate(51.207 42.752)">
          <line id="Línea_986" data-name="Línea 986" y2="23.637" transform="translate(0 10.485)" fill="none" stroke="#430f76" stroke-linecap="round" stroke-linejoin="round" stroke-width="1"/>
          <line id="Línea_987" data-name="Línea 987" y2="21.342" transform="translate(20.539 8.167)" fill="none" stroke="#430f76" stroke-linecap="round" stroke-linejoin="round" stroke-width="1"/>
          <line id="Línea_988" data-name="Línea 988" y2="23.198" transform="translate(10.402)" fill="none" stroke="#430f76" stroke-linecap="round" stroke-linejoin="round" stroke-width="1"/>
        </g>
      </g>
    </g>
    <g id="Grupo_1104561" data-name="Grupo 1104561" transform="translate(28.947 20.719)">
      <path id="Trazado_889201" data-name="Trazado 889201" d="M401.79,195.16v74.861h38.233" transform="translate(-356.089 -93.506)" fill="none" stroke="#361fa0" stroke-linecap="round" stroke-linejoin="round" stroke-width="2" stroke-dasharray="0 0 4 13"/>
      <g id="Grupo_1104536" data-name="Grupo 1104536">
        <g id="Grupo_1104533" data-name="Grupo 1104533" transform="translate(0 67.767)">
          <path id="Trazado_889202" data-name="Trazado 889202" d="M483.2,159.34v19.609c0,3.943-20.453,7.139-45.693,7.139s-45.693-3.2-45.693-7.139V159.34h91.379Z" transform="translate(-391.81 -152.201)" fill="#e4e5f8"/>
          <path id="Trazado_889203" data-name="Trazado 889203" d="M391.8,174.77c0,3.943,20.453,7.139,45.693,7.139s45.693-3.2,45.693-7.139" transform="translate(-391.792 -156.109)" fill="none" stroke="#430f76" stroke-linecap="round" stroke-linejoin="round" stroke-width="1"/>
          <ellipse id="Elipse_11867" data-name="Elipse 11867" cx="45.693" cy="7.139" rx="45.693" ry="7.139" transform="translate(0.007)" fill="#361fa0"/>
          <path id="Trazado_889204" data-name="Trazado 889204" d="M496.4,176.966a3.726,3.726,0,1,1,3.726,3.726A3.727,3.727,0,0,1,496.4,176.966Z" transform="translate(-490.568 -155.721)" fill="#bcf275"/>
          <path id="Trazado_889205" data-name="Trazado 889205" d="M481.26,180.986a3.726,3.726,0,1,1,3.726,3.726A3.727,3.727,0,0,1,481.26,180.986Z" transform="translate(-464.122 -156.739)" fill="#a36eed"/>
        </g>
        <path id="Trazado_889206" data-name="Trazado 889206" d="M440.973,133.97c19.565,0,35.433,2.479,35.433,5.533V150.57c0,3.054-15.861,5.533-35.433,5.533s-35.433-2.479-35.433-5.533V139.5C405.54,136.449,421.4,133.97,440.973,133.97Z" transform="translate(-395.272 -78.009)" fill="#1ee9cf"/>
        <g id="Grupo_1104534" data-name="Grupo 1104534" transform="translate(0 33.887)">
          <path id="Trazado_889207" data-name="Trazado 889207" d="M483.2,113.97v19.609c0,3.943-20.453,7.139-45.693,7.139s-45.693-3.2-45.693-7.139V113.97h91.379Z" transform="translate(-391.81 -106.831)" fill="#e4e5f8"/>
          <path id="Trazado_889208" data-name="Trazado 889208" d="M391.8,129.39c0,3.943,20.453,7.139,45.693,7.139s45.693-3.2,45.693-7.139" transform="translate(-391.792 -110.736)" fill="none" stroke="#430f76" stroke-linecap="round" stroke-linejoin="round" stroke-width="1"/>
          <ellipse id="Elipse_11868" data-name="Elipse 11868" cx="45.693" cy="7.139" rx="45.693" ry="7.139" transform="translate(0.007)" fill="#361fa0"/>
          <path id="Trazado_889209" data-name="Trazado 889209" d="M496.4,131.586a3.726,3.726,0,1,1,3.726,3.726A3.727,3.727,0,0,1,496.4,131.586Z" transform="translate(-490.568 -110.349)" fill="#bcf275"/>
          <path id="Trazado_889210" data-name="Trazado 889210" d="M481.26,135.606a3.726,3.726,0,1,1,3.726,3.726A3.727,3.727,0,0,1,481.26,135.606Z" transform="translate(-464.122 -111.367)" fill="#a36eed"/>
        </g>
        <path id="Trazado_889211" data-name="Trazado 889211" d="M440.973,88.89c19.565,0,35.433,2.479,35.433,5.533V105.49c0,3.054-15.861,5.533-35.433,5.533s-35.433-2.479-35.433-5.533V94.423C405.54,91.369,421.4,88.89,440.973,88.89Z" transform="translate(-395.272 -66.592)" fill="#1ee9cf"/>
        <g id="Grupo_1104535" data-name="Grupo 1104535">
          <path id="Trazado_889212" data-name="Trazado 889212" d="M483.2,68.59V88.2c0,3.943-20.453,7.139-45.693,7.139s-45.693-3.2-45.693-7.139V68.59h91.379Z" transform="translate(-391.81 -61.451)" fill="#e4e5f8"/>
          <path id="Trazado_889213" data-name="Trazado 889213" d="M391.8,84.01c0,3.943,20.453,7.139,45.693,7.139s45.693-3.2,45.693-7.139" transform="translate(-391.792 -65.356)" fill="none" stroke="#430f76" stroke-linecap="round" stroke-linejoin="round" stroke-width="1"/>
          <ellipse id="Elipse_11869" data-name="Elipse 11869" cx="45.693" cy="7.139" rx="45.693" ry="7.139" transform="translate(0.007)" fill="#361fa0"/>
          <path id="Trazado_889214" data-name="Trazado 889214" d="M496.4,86.216a3.726,3.726,0,1,1,3.726,3.726A3.727,3.727,0,0,1,496.4,86.216Z" transform="translate(-490.568 -64.971)" fill="#bcf275"/>
          <path id="Trazado_889215" data-name="Trazado 889215" d="M481.26,90.226a3.726,3.726,0,1,1,3.726,3.726A3.727,3.727,0,0,1,481.26,90.226Z" transform="translate(-464.122 -65.987)" fill="#a36eed"/>
        </g>
      </g>
    </g>
    <path id="Trazado_889240" data-name="Trazado 889240" d="M12.648,0H301.7c6.985,0,12.648,5.25,12.648,11.727S308.685,23.453,301.7,23.453H12.648C5.663,23.453,0,18.2,0,11.727S5.663,0,12.648,0Z" transform="translate(-11.893 360.547)" fill="#1ee9cf"/>
    <g id="Grupo_1104559" data-name="Grupo 1104559" transform="translate(0 139.487)">
      <rect id="Rectángulo_404952" data-name="Rectángulo 404952" width="52.28" height="7.088" transform="translate(118.34 215.665)" fill="#5c7cef"/>
      <g id="Grupo_1104542" data-name="Grupo 1104542" transform="translate(0)">
        <g id="Grupo_1104540" data-name="Grupo 1104540" transform="translate(0)">
          <path id="Trazado_889216" data-name="Trazado 889216" d="M257.516,150.239l-1.28,5.13,4.828,1.093c6.549,1.174,14.363,5.032,20.667,8.678a32.28,32.28,0,0,1,12.764,13.547c15.57-14.868,1.493-28.766-2.822-32.4a19.3,19.3,0,0,1-3.931-4.412,22.718,22.718,0,0,1-3.059-14.151C275.238,156.4,257.516,150.239,257.516,150.239Z" transform="translate(-173.503 -64.939)" fill="#361fa0"/>
          <path id="Trazado_889217" data-name="Trazado 889217" d="M273.751,145c4.037,17.756,23.13,19.64,23.13,19.64,25.561,2.422,24.484-16.948,24.484-16.948l-4.828-1.093,1.281-5.13s17.723,6.158,27.167-22.519c.318-.962.628-1.966.922-3.01,0,0,4.339-17.331-.636-33.382,0,0-15.015-7.789-27.616,4.812,0,0-45.983,8.588-27.127,27.453,0,0,2.879,22.478-16.777,30.177Z" transform="translate(-233.805 -56.172)" fill="#fff"/>
          <path id="Trazado_889218" data-name="Trazado 889218" d="M330.8,151.3s-16.467-3.466-20.455-17.813c0,0,.22,29.7,18.049,37.053A51.119,51.119,0,0,1,330.8,151.3Z" transform="translate(-246.783 -66.003)" fill="#430f76"/>
          <g id="Grupo_1104538" data-name="Grupo 1104538" transform="translate(85.081 45.04)">
            <path id="Trazado_889219" data-name="Trazado 889219" d="M306.614,138.589s-9.11-.563-10.684-9.559" transform="translate(-295.93 -110.22)" fill="none" stroke="#430f76" stroke-linecap="round" stroke-linejoin="round" stroke-width="1"/>
            <path id="Trazado_889220" data-name="Trazado 889220" d="M298.74,109.142s-4.1-6.321-9.29-1.126" transform="translate(-282.77 -105.967)" fill="none" stroke="#430f76" stroke-linecap="round" stroke-linejoin="round" stroke-width="1"/>
            <path id="Trazado_889221" data-name="Trazado 889221" d="M291.441,111.39s-1.688,6.778-.905,17.543a5.336,5.336,0,0,1-5.546-.718" transform="translate(-271.834 -106.967)" fill="none" stroke="#430f76" stroke-linecap="round" stroke-linejoin="round" stroke-width="1"/>
            <path id="Trazado_889222" data-name="Trazado 889222" d="M296.507,116.328c-.106,1.362.5,2.52,1.346,2.594s1.623-.987,1.729-2.349-.5-2.52-1.346-2.594S296.613,114.966,296.507,116.328Z" transform="translate(-289.371 -107.444)" fill="#430f76"/>
            <path id="Trazado_889223" data-name="Trazado 889223" d="M279.587,117.519c-.1,1.207.44,2.235,1.191,2.292s1.435-.873,1.525-2.08-.44-2.235-1.191-2.292S279.677,116.312,279.587,117.519Z" transform="translate(-258.292 -107.713)" fill="#430f76"/>
            <path id="Trazado_889224" data-name="Trazado 889224" d="M280.818,112.053s-1.729-2.43-4.7-.44" transform="translate(-253.977 -106.864)" fill="none" stroke="#430f76" stroke-linecap="round" stroke-linejoin="round" stroke-width="1"/>
          </g>
          <g id="Grupo_1104539" data-name="Grupo 1104539">
            <path id="Trazado_889225" data-name="Trazado 889225" d="M277.031,56.36c3.442,2.61,7.422,7.112,10.79,14.893a8.468,8.468,0,0,1,.6,4.665c2.879,3.711,5,4.184,6.378,3.776a2.4,2.4,0,0,0,1.541-3.01C295.1,72.55,290.5,60.9,277.031,56.36Z" transform="translate(-185.262 -51.779)" fill="#361fa0"/>
            <path id="Trazado_889226" data-name="Trazado 889226" d="M288.8,141.435a28.9,28.9,0,0,0,1.843,25.316c2.373-26.907,34.867-27.192,34.867-27.192,20.512-4.845,17.959-30.161,17.959-30.161-4.967-4.975-4.372-9.632-2.969-12.691a5.5,5.5,0,0,1,9.012-1.484A9.834,9.834,0,0,1,350.53,96.5c18.335,1.4,31.612-10.774,37.4-17.38a8.376,8.376,0,0,0,1.974-4.241,8.468,8.468,0,0,0-.6-4.665c-3.368-7.781-7.349-12.283-10.79-14.893h0c-4.592-3.474-8.246-3.572-8.246-3.572-45.779-8.833-45.192,43.276-45.192,43.276-1.476,17.666-11.63,22.519-11.63,22.519a159.223,159.223,0,0,0-13.408,9.339,33.52,33.52,0,0,0-11.231,14.55Z" transform="translate(-286.745 -50.744)" fill="#5c7cef"/>
          </g>
        </g>
        <g id="Grupo_1104541" data-name="Grupo 1104541" transform="translate(2.547 88.815)">
          <path id="Trazado_889227" data-name="Trazado 889227" d="M295.145,184.573a32.281,32.281,0,0,0-12.764-13.547c-6.3-3.646-14.118-7.5-20.667-8.678,0,0,1.077,19.37-24.484,16.948,0,0-19.093-1.884-23.13-19.64,0,0-33.627-1.615-36.049,27.176,0,0-1.346,82.318-1.346,92.807,0,0-1.077,19.1,32.281,15.88l85.817-3.5V269.15l-16.679-1.615,9.689-29.052,10.709,13.735a17.944,17.944,0,0,0,9.086,6.19l50.95,12.1,8.6-19.37-46.448-16.271A35.245,35.245,0,0,1,304,213.738l-6.7-23.62a31.888,31.888,0,0,0-2.153-5.546Z" transform="translate(-176.7 -159.64)" fill="#a36eed"/>
          <path id="Trazado_889228" data-name="Trazado 889228" d="M275.422,247.459s4.119-12.789-2.9-39.149" transform="translate(-164.318 -168.615)" fill="none" stroke="#430f76" stroke-linecap="round" stroke-linejoin="round" stroke-width="1"/>
          <path id="Trazado_889229" data-name="Trazado 889229" d="M331.406,260.324s-11.475-3.825-28.056-1.272" transform="translate(-244.24 -177.81)" fill="none" stroke="#430f76" stroke-linecap="round" stroke-linejoin="round" stroke-width="1"/>
          <path id="Trazado_889230" data-name="Trazado 889230" d="M376,290.875l-70.06-4.6a27.984,27.984,0,0,0-15.676,3.393,20.782,20.782,0,0,0-4.4,3.246" transform="translate(-274.578 -182.979)" fill="none" stroke="#430f76" stroke-linecap="round" stroke-linejoin="round" stroke-width="1"/>
          <path id="Trazado_889231" data-name="Trazado 889231" d="M372.668,190.45s12.348,39.108-1.321,78.371" transform="translate(-346.075 -165.321)" fill="none" stroke="#430f76" stroke-linecap="round" stroke-linejoin="round" stroke-width="1"/>
          <path id="Trazado_889232" data-name="Trazado 889232" d="M206.127,296.207l32.192-.628a14.783,14.783,0,0,1,11.5,4.967,19.609,19.609,0,0,1,4.649,10.692,2.755,2.755,0,0,1-2.447,3.034h0a2.755,2.755,0,0,1-2.9-1.827c-1.411-4.013-5.66-12.356-16.451-11.524,0,0,9.852.465,13.107,12.3a2.927,2.927,0,0,1-2.414,3.7h0a2.865,2.865,0,0,1-3.116-1.949c-1.215-3.744-4.624-10.79-13.017-10.79,0,0,6.908,3,9.012,9.771a3.127,3.127,0,0,1-3,4.021H232.9a3.21,3.21,0,0,1-2.92-2.023c-1.2-2.765-5.864-7.039-23.856-3.784V296.2Z" transform="translate(-88.025 -184.707)" fill="#fff"/>
        </g>
      </g>
      <path id="Trazado_889233" data-name="Trazado 889233" d="M51.648,305.267l100.245.082,29.394-69.081a9.118,9.118,0,0,0-8.376-12.683l-80.45-.065a9.119,9.119,0,0,0-8.392,5.546l-32.42,76.2Z" transform="translate(112.978 -82.604)" fill="#430f76"/>
    </g>
    <g id="Grupo_1104562" data-name="Grupo 1104562" transform="translate(166.5 225)">
      <rect id="Rectángulo_404977" data-name="Rectángulo 404977" width="51.682" height="29.838" rx="4" fill="#5c7cef"/>
      <g id="Grupo_1104557" data-name="Grupo 1104557" transform="translate(7.941 6.717)">
        <path id="Trazado_889236" data-name="Trazado 889236" d="M429.654,243.45l-11.034-4.9v-1.88l11.034-5.52v3.239l-6.764,3.088,6.764,2.749v3.218Z" transform="translate(-418.62 -229.208)" fill="#fff"/>
        <path id="Trazado_889237" data-name="Trazado 889237" d="M453.492,227.42l-5.947,16.4H443.77l5.947-16.4Z" transform="translate(-430.674 -227.42)" fill="#fff"/>
        <path id="Trazado_889238" data-name="Trazado 889238" d="M466.17,240.226l6.764-2.749-6.764-3.088V231.15l11.034,5.52v1.88l-11.034,4.9v-3.218Z" transform="translate(-441.409 -229.208)" fill="#fff"/>
      </g>
    </g>
  </g>
</svg>
