<svg xmlns="http://www.w3.org/2000/svg" xmlns:xlink="http://www.w3.org/1999/xlink" width="295" height="220" viewBox="0 0 295 220">
  <defs>
    <clipPath id="clip-path">
      <rect id="Rectángulo_402802" data-name="Rectángulo 402802" width="295" height="220" transform="translate(180 409)" fill="#fff" stroke="#707070" stroke-width="1"/>
    </clipPath>
    <filter id="Trazado_877725" x="31.136" y="37.25" width="140.992" height="140.992" filterUnits="userSpaceOnUse">
      <feOffset dy="3" input="SourceAlpha"/>
      <feGaussianBlur stdDeviation="3" result="blur"/>
      <feFlood flood-color="#fff" flood-opacity="0.678"/>
      <feComposite operator="in" in2="blur"/>
      <feComposite in="SourceGraphic"/>
    </filter>
    <clipPath id="clip-path-2">
      <rect id="Rectángulo_402799" data-name="Rectángulo 402799" width="68" height="103" transform="translate(0.244 0.172)" fill="#fff" stroke="#fff" stroke-width="1"/>
    </clipPath>
    <filter id="Trazado_878123" x="234.06" y="110.13" width="120.335" height="120.335" filterUnits="userSpaceOnUse">
      <feOffset dy="1" input="SourceAlpha"/>
      <feGaussianBlur stdDeviation="5.5" result="blur-2"/>
      <feFlood flood-color="#fff" flood-opacity="0.902"/>
      <feComposite operator="in" in2="blur-2"/>
      <feComposite in="SourceGraphic"/>
    </filter>
    <clipPath id="clip-path-3">
      <rect id="Rectángulo_403853" data-name="Rectángulo 403853" width="228.694" height="232.789" fill="none"/>
    </clipPath>
    <clipPath id="clip-path-4">
      <rect id="Rectángulo_403850" data-name="Rectángulo 403850" width="34.127" height="8.045" fill="none"/>
    </clipPath>
    <clipPath id="clip-path-6">
      <rect id="Rectángulo_403856" data-name="Rectángulo 403856" width="24.984" height="2.311" fill="none"/>
    </clipPath>
    <clipPath id="clip-path-7">
      <rect id="Rectángulo_403863" data-name="Rectángulo 403863" width="9.702" height="35.1" fill="none"/>
    </clipPath>
    <clipPath id="clip-path-8">
      <rect id="Rectángulo_403867" data-name="Rectángulo 403867" width="26.299" height="27.681" fill="none"/>
    </clipPath>
    <clipPath id="clip-path-9">
      <rect id="Rectángulo_403869" data-name="Rectángulo 403869" width="26.302" height="2.424" fill="none"/>
    </clipPath>
    <clipPath id="clip-path-10">
      <rect id="Rectángulo_403874" data-name="Rectángulo 403874" width="27.889" height="16.126" transform="translate(0 0)" fill="none"/>
    </clipPath>
    <clipPath id="clip-path-11">
      <rect id="Rectángulo_403875" data-name="Rectángulo 403875" width="17.693" height="17.693" fill="none"/>
    </clipPath>
    <clipPath id="clip-path-12">
      <rect id="Rectángulo_403876" data-name="Rectángulo 403876" width="11.519" height="11.519" fill="none"/>
    </clipPath>
    <clipPath id="clip-path-13">
      <rect id="Rectángulo_405006" data-name="Rectángulo 405006" width="53.008" height="53.008" fill="#00ffdf"/>
    </clipPath>
    <clipPath id="clip-path-14">
      <rect id="Rectángulo_405007" data-name="Rectángulo 405007" width="36.453" height="37.129" fill="none"/>
    </clipPath>
    <clipPath id="clip-path-15">
      <rect id="Rectángulo_403855" data-name="Rectángulo 403855" width="220.025" height="162.046" fill="none"/>
    </clipPath>
    <clipPath id="clip-path-16">
      <rect id="Rectángulo_403854" data-name="Rectángulo 403854" width="72.616" height="49.262" fill="none"/>
    </clipPath>
  </defs>
  <g id="Enmascarar_grupo_1098751" data-name="Enmascarar grupo 1098751" transform="translate(-180 -409)" clip-path="url(#clip-path)">
    <g id="Grupo_1102936" data-name="Grupo 1102936" transform="translate(180 410.789)">
      <rect id="Rectángulo_402796" data-name="Rectángulo 402796" width="1227.683" height="217.815" rx="10" fill="#3a1d71"/>
      <path id="Trazado_878125" data-name="Trazado 878125" d="M57.905,414.044l15.9-15.9a9.107,9.107,0,0,0,0-12.891h0a9.107,9.107,0,0,0-12.891,0l-15.9,15.9-15.9-15.9a9.107,9.107,0,0,0-12.891,0h0a9.107,9.107,0,0,0,0,12.891l15.9,15.9-15.9,15.9a9.107,9.107,0,0,0,0,12.891h0a9.107,9.107,0,0,0,12.891,0l15.9-15.9,15.9,15.9a9.107,9.107,0,0,0,12.891,0h0a9.107,9.107,0,0,0,0-12.891l-15.9-15.9Z" transform="translate(1123.265 -245.136)" fill="#fff" opacity="0.3"/>
      <path id="Trazado_878126" data-name="Trazado 878126" d="M81.511,466.68h-7.1v-7.1a2.881,2.881,0,1,0-5.762,0v7.1h-7.1a2.884,2.884,0,0,0-2.881,2.881h0a2.878,2.878,0,0,0,2.881,2.881h7.1v7.1a2.881,2.881,0,1,0,5.762,0v-7.1h7.1a2.877,2.877,0,0,0,2.881-2.881h0A2.884,2.884,0,0,0,81.511,466.68Z" transform="translate(565.072 -282.049)" fill="#e0bc8c" opacity="0.33"/>
      <path id="Trazado_878127" data-name="Trazado 878127" d="M198.85,465.528l7.138-7.138a4.093,4.093,0,0,0,0-5.782h0a4.093,4.093,0,0,0-5.782,0l-7.138,7.138-7.138-7.138a4.093,4.093,0,0,0-5.782,0h0a4.093,4.093,0,0,0,0,5.782l7.138,7.138-7.138,7.138a4.093,4.093,0,0,0,0,5.782h0a4.093,4.093,0,0,0,5.782,0l7.138-7.138,7.138,7.138a4.093,4.093,0,0,0,5.782,0h0a4.093,4.093,0,0,0,0-5.782Z" transform="translate(782.029 -433.932)" fill="#85586f"/>
    </g>
    <path id="Trazado_878124" data-name="Trazado 878124" d="M0,0H211.874a20.791,20.791,0,0,1,20.791,20.791V85.146H7.921A7.921,7.921,0,0,1,0,77.225Z" transform="translate(180 543.649)" fill="#b4a9c9"/>
    <g transform="matrix(1, 0, 0, 1, 180, 409)" filter="url(#Trazado_877725)">
      <g id="Trazado_877725-2" data-name="Trazado 877725" transform="translate(40.14 43.25)" fill="none">
        <path d="M61.5,0A61.5,61.5,0,1,1,0,61.5,61.5,61.5,0,0,1,61.5,0Z" stroke="none"/>
        <path d="M 61.49584197998047 19.99998474121094 C 38.61495208740234 19.99998474121094 19.99998474121094 38.61495208740234 19.99998474121094 61.49584197998047 C 19.99998474121094 84.37673950195312 38.61495208740234 102.99169921875 61.49584197998047 102.99169921875 C 84.37673950195312 102.99169921875 102.99169921875 84.37673950195312 102.99169921875 61.49584197998047 C 102.99169921875 38.61495208740234 84.37673950195312 19.99998474121094 61.49584197998047 19.99998474121094 M 61.49584197998047 -1.52587890625e-05 C 95.45906066894531 -1.52587890625e-05 122.99169921875 27.53263092041016 122.99169921875 61.49584197998047 C 122.99169921875 95.45906066894531 95.45906066894531 122.99169921875 61.49584197998047 122.99169921875 C 27.53263092041016 122.99169921875 -1.52587890625e-05 95.45906066894531 -1.52587890625e-05 61.49584197998047 C -1.52587890625e-05 27.53263092041016 27.53263092041016 -1.52587890625e-05 61.49584197998047 -1.52587890625e-05 Z" stroke="none" fill="#fff"/>
      </g>
    </g>
    <g id="Grupo_1098698" data-name="Grupo 1098698" transform="translate(406.755 525.828)" clip-path="url(#clip-path-2)">
      <g id="Grupo_1101077" data-name="Grupo 1101077" transform="translate(23.805 8.802)">
        <g transform="matrix(1, 0, 0, 1, -250.56, -125.63)" filter="url(#Trazado_878123)">
          <g id="Trazado_878123-2" data-name="Trazado 878123" transform="translate(250.56 125.63)" fill="none">
            <path d="M43.667,0A43.667,43.667,0,1,0,87.335,43.667,43.667,43.667,0,0,0,43.667,0Z" stroke="none"/>
            <path d="M 43.66745758056641 15.00000762939453 C 27.86016845703125 15.00000762939453 15.00000762939453 27.86016845703125 15.00000762939453 43.66745758056641 C 15.00000762939453 59.47474670410156 27.86016845703125 72.33490753173828 43.66745758056641 72.33490753173828 C 59.47474670410156 72.33490753173828 72.33490753173828 59.47474670410156 72.33490753173828 43.66745758056641 C 72.33490753173828 27.86016845703125 59.47474670410156 15.00000762939453 43.66745758056641 15.00000762939453 M 43.66745758056641 7.62939453125e-06 C 67.78432464599609 7.62939453125e-06 87.33490753173828 19.55059051513672 87.33490753173828 43.66745758056641 C 87.33490753173828 67.78432464599609 67.78432464599609 87.33490753173828 43.66745758056641 87.33490753173828 C 19.55059051513672 87.33490753173828 7.62939453125e-06 67.78432464599609 7.62939453125e-06 43.66745758056641 C 7.62939453125e-06 19.55059051513672 19.55059051513672 7.62939453125e-06 43.66745758056641 7.62939453125e-06 Z" stroke="none" fill="#25f9df"/>
          </g>
        </g>
      </g>
    </g>
    <g id="Grupo_1103092" data-name="Grupo 1103092" transform="translate(188.678 420.725)">
      <g id="Grupo_1105460" data-name="Grupo 1105460" transform="translate(0 0)">
        <g id="Grupo_1103065" data-name="Grupo 1103065">
          <g id="Grupo_1103064" data-name="Grupo 1103064" clip-path="url(#clip-path-3)">
            <path id="Trazado_885322" data-name="Trazado 885322" d="M184.341,284.767H5.219A5.219,5.219,0,0,1,0,279.548V157.36a5.219,5.219,0,0,1,5.219-5.219H184.341a5.219,5.219,0,0,1,5.219,5.219V279.548a5.219,5.219,0,0,1-5.219,5.219" transform="translate(39.135 -100.961)" fill="#56998a"/>
            <path id="Trazado_885323" data-name="Trazado 885323" d="M249.836,542.107l5.575,22.114H221.284l5.437-22.114Z" transform="translate(-101.156 -359.743)" fill="#56998a"/>
            <g id="Grupo_1103063" data-name="Grupo 1103063" transform="translate(120.128 196.432)" style="mix-blend-mode: multiply;isolation: isolate">
              <g id="Grupo_1103062" data-name="Grupo 1103062" transform="translate(0)">
                <g id="Grupo_1103061" data-name="Grupo 1103061" clip-path="url(#clip-path-4)">
                  <path id="Trazado_885324" data-name="Trazado 885324" d="M223.262,583.929s8.617,6.777,31.612,5.915l.537,2.13H221.284Z" transform="translate(-221.284 -583.929)" fill="#d2e4d6"/>
                </g>
              </g>
            </g>
            <path id="Trazado_885325" data-name="Trazado 885325" d="M165.285,608.823h70.273a1.4,1.4,0,0,0,1.394-1.394v-.576a1.394,1.394,0,0,0-1.394-1.394H165.285a1.394,1.394,0,0,0-1.394,1.394v.576a1.4,1.4,0,0,0,1.394,1.394" transform="translate(-63.391 -401.784)" fill="#56998a"/>
            <path id="Trazado_885326" data-name="Trazado 885326" d="M193.468,280.8H24.553a2.233,2.233,0,0,1-2.233-2.233V171.387a2.233,2.233,0,0,1,2.233-2.233H193.468a2.233,2.233,0,0,1,2.233,2.233v107.18a2.233,2.233,0,0,1-2.233,2.233" transform="translate(25.485 -112.251)" fill="#f2f9f3"/>
            <path id="Trazado_885327" data-name="Trazado 885327" d="M323.582,287.4h52.412a.848.848,0,0,0,.848-.848v-2.29a.848.848,0,0,0-.848-.848H323.582a.848.848,0,0,0-.848.848v2.29a.848.848,0,0,0,.848.848" transform="translate(-256.714 -188.075)" fill="#d2e4d6"/>
            <path id="Trazado_885328" data-name="Trazado 885328" d="M375.665,306.6H323.911a1.177,1.177,0,1,0,0,2.354h51.754a1.177,1.177,0,1,0,0-2.354" transform="translate(-256.714 -203.461)" fill="#d2e4d6"/>
            <path id="Trazado_885329" data-name="Trazado 885329" d="M375.665,325.357H323.911a1.177,1.177,0,1,0,0,2.354h51.754a1.177,1.177,0,1,0,0-2.354" transform="translate(-256.714 -215.908)" fill="#d2e4d6"/>
            <path id="Trazado_885330" data-name="Trazado 885330" d="M375.665,344.113H323.911a1.177,1.177,0,1,0,0,2.354h51.754a1.177,1.177,0,1,0,0-2.354" transform="translate(-256.714 -228.354)" fill="#d2e4d6"/>
            <path id="Trazado_885331" data-name="Trazado 885331" d="M366.235,362.869H323.911a1.177,1.177,0,0,0,0,2.354h42.324a1.177,1.177,0,1,0,0-2.354" transform="translate(-247.285 -240.801)" fill="#d2e4d6"/>
            <rect id="Rectángulo_403851" data-name="Rectángulo 403851" width="4.941" height="4.941" transform="translate(201.166 151.572)" fill="#d2e4d6"/>
            <path id="Trazado_885334" data-name="Trazado 885334" d="M92.106,457.531h20.18a.637.637,0,1,0,0-1.275H92.106a.637.637,0,0,0,0,1.275" transform="translate(85.001 -302.773)" fill="#d2e4d6"/>
            <rect id="Rectángulo_403852" data-name="Rectángulo 403852" width="4.941" height="4.941" transform="translate(160.853 151.65)" fill="#d2e4d6"/>
            <path id="Trazado_885335" data-name="Trazado 885335" d="M211.943,457.765h20.18a.637.637,0,1,0,0-1.275h-20.18a.637.637,0,1,0,0,1.275" transform="translate(-75.149 -302.928)" fill="#d2e4d6"/>
          </g>
        </g>
        <g id="Grupo_1103090" data-name="Grupo 1103090">
          <g id="Grupo_1103089" data-name="Grupo 1103089" clip-path="url(#clip-path-3)">
            <g id="Grupo_1103073" data-name="Grupo 1103073" transform="translate(124.642 183.806)" style="mix-blend-mode: multiply;isolation: isolate">
              <g id="Grupo_1103072" data-name="Grupo 1103072">
                <g id="Grupo_1103071" data-name="Grupo 1103071" clip-path="url(#clip-path-6)">
                  <path id="Trazado_885382" data-name="Trazado 885382" d="M259.446,546.4H235.613l-.568,2.311h24.984Z" transform="translate(-235.044 -546.396)" fill="#d2e4d6"/>
                </g>
              </g>
            </g>
            <path id="Trazado_885383" data-name="Trazado 885383" d="M263.605,515.79a3.685,3.685,0,1,0,3.685-3.685,3.685,3.685,0,0,0-3.685,3.685" transform="translate(-130.957 -339.834)" fill="#d2e4d6"/>
            <path id="Trazado_885400" data-name="Trazado 885400" d="M573.005,458.038l-1.669,4.065a.753.753,0,0,1-.983.41l-.369-.151a.753.753,0,0,1-.41-.983l1.669-4.065a.754.754,0,0,1,.983-.411l.369.152a.753.753,0,0,1,.411.983" transform="translate(-535.951 -303.165)" fill="#222b3d"/>
            <rect id="Rectángulo_403858" data-name="Rectángulo 403858" width="3.827" height="35.696" transform="matrix(-0.925, -0.38, 0.38, -0.925, 22.938, 191.772)" fill="#d66767"/>
            <rect id="Rectángulo_403859" data-name="Rectángulo 403859" width="1.551" height="35.697" transform="matrix(-0.925, -0.38, 0.38, -0.925, 22.938, 191.772)" fill="#cc5a5a"/>
            <path id="Trazado_885401" data-name="Trazado 885401" d="M611.709,565.755l-.063,5.189,3.6-3.735Z" transform="translate(-592.311 -375.437)" fill="#222b3d"/>
            <rect id="Rectángulo_403860" data-name="Rectángulo 403860" width="5.113" height="0.801" transform="matrix(-0.925, -0.38, 0.38, -0.925, 36.5, 158.752)" fill="#222b3d"/>
            <path id="Trazado_885402" data-name="Trazado 885402" d="M590.854,464.216l-7.846,19.105-.139-.057a.567.567,0,0,1-.309-.739l7.632-18.581Z" transform="translate(-558.116 -307.875)" fill="#222b3d"/>
            <path id="Trazado_885403" data-name="Trazado 885403" d="M605.9,574.692l-1.009-4.277a.754.754,0,0,1,.561-.906l.388-.092a.753.753,0,0,1,.906.56l1.008,4.277a.753.753,0,0,1-.56.906l-.388.092a.754.754,0,0,1-.907-.56" transform="translate(-582.554 -377.853)" fill="#222b3d"/>
            <rect id="Rectángulo_403861" data-name="Rectángulo 403861" width="35.696" height="3.827" transform="translate(21.537 193.362) rotate(-103.268)" fill="#56998a"/>
            <g id="Grupo_1103079" data-name="Grupo 1103079" transform="translate(13.345 158.262)" style="mix-blend-mode: multiply;isolation: isolate">
              <g id="Grupo_1103078" data-name="Grupo 1103078">
                <g id="Grupo_1103077" data-name="Grupo 1103077" clip-path="url(#clip-path-7)">
                  <rect id="Rectángulo_403862" data-name="Rectángulo 403862" width="35.697" height="1.551" transform="translate(8.192 35.1) rotate(-103.268)" fill="#d2e4d6"/>
                </g>
              </g>
            </g>
            <path id="Trazado_885404" data-name="Trazado 885404" d="M632.818,460.513l-2.97-4.256-.755,5.134Z" transform="translate(-615.749 -302.773)" fill="#222b3d"/>
            <rect id="Rectángulo_403864" data-name="Rectángulo 403864" width="0.801" height="5.113" transform="translate(21.721 194.142) rotate(-103.283)" fill="#222b3d"/>
            <path id="Trazado_885405" data-name="Trazado 885405" d="M605.214,534.366l-4.74-20.1.146-.034a.567.567,0,0,1,.681.422l4.61,19.551Z" transform="translate(-579.215 -341.234)" fill="#222b3d"/>
            <path id="Trazado_885406" data-name="Trazado 885406" d="M597.217,541.994H575.909a2.5,2.5,0,0,1-2.5-2.5V507.991a2.5,2.5,0,0,1,2.5-2.5h21.308a2.5,2.5,0,0,1,2.5,2.5V539.5a2.5,2.5,0,0,1-2.5,2.5" transform="translate(-563.913 -335.448)" fill="#5c7fc1"/>
            <rect id="Rectángulo_403865" data-name="Rectángulo 403865" width="26.301" height="5.712" transform="translate(9.5 185.441)" fill="#fff"/>
            <rect id="Rectángulo_403866" data-name="Rectángulo 403866" width="26.301" height="1.153" transform="translate(9.5 182.991)" fill="#fff"/>
            <g id="Grupo_1103082" data-name="Grupo 1103082" transform="translate(9.5 178.865)" opacity="0.5">
              <g id="Grupo_1103081" data-name="Grupo 1103081">
                <g id="Grupo_1103080" data-name="Grupo 1103080" clip-path="url(#clip-path-8)">
                  <path id="Trazado_885407" data-name="Trazado 885407" d="M599.717,531.708v25.184a2.494,2.494,0,0,1-2.5,2.5H575.915a2.494,2.494,0,0,1-2.5-2.5v-4.636c2.551,1.4,10.53,2.974,15.033,1.318,10.4-3.823,9.689-14.214,11.266-21.867" transform="translate(-573.418 -531.708)" fill="#345ca1"/>
                </g>
              </g>
            </g>
            <g id="Grupo_1103085" data-name="Grupo 1103085" transform="translate(9.499 172.544)" opacity="0.5">
              <g id="Grupo_1103084" data-name="Grupo 1103084">
                <g id="Grupo_1103083" data-name="Grupo 1103083" clip-path="url(#clip-path-9)">
                  <rect id="Rectángulo_403868" data-name="Rectángulo 403868" width="26.3" height="2.424" transform="translate(0 0)" fill="#345ca1"/>
                </g>
              </g>
            </g>
            <path id="Trazado_885408" data-name="Trazado 885408" d="M596.421,508.184H569.134a1.427,1.427,0,0,1-1.427-1.427v-1.35a1.428,1.428,0,0,1,1.427-1.428h27.287a1.427,1.427,0,0,1,1.427,1.428v1.35a1.427,1.427,0,0,1-1.427,1.427" transform="translate(-560.129 -334.442)" fill="#5c7fc1"/>
            <path id="Trazado_885415" data-name="Trazado 885415" d="M171.841,34.81l12.524-7.377a1.619,1.619,0,0,1,.82-.223h38.08a1.615,1.615,0,0,0,1.615-1.615V1.615A1.615,1.615,0,0,0,223.266,0H173.456a1.615,1.615,0,0,0-1.615,1.615Z" transform="translate(-53.993)" fill="#5c7fc1"/>
            <path id="Trazado_885416" data-name="Trazado 885416" d="M196.023,34.594a2.048,2.048,0,1,0,2.048-2.048,2.048,2.048,0,0,0-2.048,2.048" transform="translate(-37.367 -21.598)" fill="#fff"/>
            <path id="Trazado_885417" data-name="Trazado 885417" d="M227.828,34.594a2.048,2.048,0,1,0,2.049-2.048,2.049,2.049,0,0,0-2.049,2.048" transform="translate(-79.871 -21.598)" fill="#fff"/>
            <path id="Trazado_885418" data-name="Trazado 885418" d="M259.634,34.594a2.048,2.048,0,1,0,2.048-2.048,2.048,2.048,0,0,0-2.048,2.048" transform="translate(-122.376 -21.598)" fill="#fff"/>
            <path id="Trazado_885419" data-name="Trazado 885419" d="M289.887,34.594a2.048,2.048,0,1,0,2.048-2.048,2.048,2.048,0,0,0-2.048,2.048" transform="translate(-162.806 -21.598)" fill="#fff"/>
          </g>
        </g>
      </g>
    </g>
    <g id="Grupo_1103097" data-name="Grupo 1103097" transform="translate(277.754 421.244)">
      <g id="Grupo_1103098" data-name="Grupo 1103098" transform="translate(0 0)">
        <line id="Línea_791" data-name="Línea 791" y1="14.439" x2="14.439" transform="translate(0.161 1.168)" fill="none" stroke="#d66767" stroke-miterlimit="10" stroke-width="2"/>
        <ellipse id="Elipse_11724" data-name="Elipse 11724" cx="2.54" cy="3.547" rx="2.54" ry="3.547" fill="none" stroke="#d66767" stroke-miterlimit="10" stroke-width="2"/>
        <ellipse id="Elipse_11725" data-name="Elipse 11725" cx="2.54" cy="3.547" rx="2.54" ry="3.547" transform="translate(9.681 9.681)" fill="none" stroke="#d66767" stroke-miterlimit="10" stroke-width="2"/>
      </g>
    </g>
    <g id="Grupo_1103100" data-name="Grupo 1103100" transform="translate(431.244 519.696)">
      <g id="Grupo_1103099" data-name="Grupo 1103099" transform="translate(0 0)" clip-path="url(#clip-path-10)">
        <path id="Trazado_885421" data-name="Trazado 885421" d="M.737,9.384,6.811,16l6-14.109L28.308,1" transform="translate(-0.442 -0.599)" fill="none" stroke="#5c7fc1" stroke-miterlimit="10" stroke-width="2"/>
      </g>
    </g>
    <g id="Grupo_1103102" data-name="Grupo 1103102" transform="translate(188.481 490.423)">
      <g id="Grupo_1103101" data-name="Grupo 1103101" transform="translate(0 0)" clip-path="url(#clip-path-11)">
        <line id="Línea_792" data-name="Línea 792" x2="17.693" transform="translate(0 8.846)" fill="none" stroke="#ebae3d" stroke-miterlimit="10" stroke-width="2"/>
        <line id="Línea_793" data-name="Línea 793" y2="17.693" transform="translate(8.846 0)" fill="none" stroke="#ebae3d" stroke-miterlimit="10" stroke-width="2"/>
      </g>
    </g>
    <g id="Grupo_1103104" data-name="Grupo 1103104" transform="translate(206.174 552.992)">
      <g id="Grupo_1103103" data-name="Grupo 1103103" transform="translate(0 0)" clip-path="url(#clip-path-12)">
        <line id="Línea_794" data-name="Línea 794" y1="10.725" x2="10.725" transform="translate(0.397 0.397)" fill="none" stroke="#56998a" stroke-miterlimit="10" stroke-width="2"/>
        <line id="Línea_795" data-name="Línea 795" x2="10.725" y2="10.725" transform="translate(0.397 0.397)" fill="none" stroke="#56998a" stroke-miterlimit="10" stroke-width="2"/>
      </g>
    </g>
    <g id="Grupo_1105459" data-name="Grupo 1105459" transform="translate(0 -4)">
      <g id="Grupo_1105457" data-name="Grupo 1105457" transform="translate(347.391 478.629)">
        <g id="Grupo_1105445" data-name="Grupo 1105445" clip-path="url(#clip-path-13)">
          <path id="Trazado_890123" data-name="Trazado 890123" d="M0,26.5a26.5,26.5,0,1,1,26.5,26.5A26.5,26.5,0,0,1,0,26.5" transform="translate(0 -0.001)" fill="#0de7cb"/>
          <path id="Trazado_890124" data-name="Trazado 890124" d="M73.164,45.8a20.944,20.944,0,1,0,1.641,8.128A20.807,20.807,0,0,0,73.164,45.8M43.777,53.283a20.711,20.711,0,0,1,.555-4.787h8.543v9.932H44.4a21.623,21.623,0,0,1-.622-5.144M59.169,39.555a22.076,22.076,0,0,1,3.568,5.708c.159.373.3.751.439,1.131h-8.2V35.683a24.193,24.193,0,0,1,4.193,3.872m-6.294-3.666V46.394H44.953c.13-.366.27-.729.421-1.088a22.043,22.043,0,0,1,3.537-5.693,24.383,24.383,0,0,1,3.964-3.724m0,24.639V71.8a29.284,29.284,0,0,1-3.883-4.11A25.974,25.974,0,0,1,45.4,61.521q-.2-.494-.375-.992Zm2.1,11.51V60.528H63.1q-.168.479-.359.954a25.932,25.932,0,0,1-3.566,6.157,29.186,29.186,0,0,1-4.2,4.4m0-13.611V48.5H63.8a20.71,20.71,0,0,1,.555,4.787,21.615,21.615,0,0,1-.622,5.144ZM65.951,48.5H71.91a18.992,18.992,0,0,1,.253,9.932H65.888a23.687,23.687,0,0,0,.565-5.144,22.873,22.873,0,0,0-.5-4.787M67.2,40.648a18.768,18.768,0,0,1,3.933,5.746H65.393q-.316-.99-.722-1.952a24.166,24.166,0,0,0-3.906-6.253,26.678,26.678,0,0,0-2.477-2.533A18.653,18.653,0,0,1,67.2,40.648m-26.556,0a18.65,18.65,0,0,1,9.288-5.076,26.706,26.706,0,0,0-2.572,2.617,24.169,24.169,0,0,0-3.905,6.253q-.408.961-.722,1.952H36.714a18.768,18.768,0,0,1,3.933-5.746M35.941,48.5h6.237a22.861,22.861,0,0,0-.5,4.787,23.7,23.7,0,0,0,.565,5.144H35.688a18.992,18.992,0,0,1,.253-9.932M40.647,67.2a18.722,18.722,0,0,1-4.311-6.676H42.81q.286.9.641,1.78a28.065,28.065,0,0,0,3.881,6.673,31.669,31.669,0,0,0,3.05,3.39A18.644,18.644,0,0,1,40.647,67.2m26.556,0a18.648,18.648,0,0,1-9.384,5.1,31.711,31.711,0,0,0,2.977-3.32,28.071,28.071,0,0,0,3.881-6.673q.357-.883.641-1.78h6.2A18.722,18.722,0,0,1,67.2,67.2" transform="translate(-27.422 -27.423)" fill="#fff"/>
        </g>
      </g>
      <g id="Grupo_1105458" data-name="Grupo 1105458" transform="translate(388.137 523.634)">
        <g id="Grupo_1105447" data-name="Grupo 1105447" clip-path="url(#clip-path-14)">
          <path id="Trazado_890125" data-name="Trazado 890125" d="M29.33,37.826a1.038,1.038,0,0,1-.75-.311l-8.124-8.328-5.041,6.453a.925.925,0,0,1-.741.367,1.207,1.207,0,0,1-1.076-.76L1.605,2.959a.947.947,0,0,1,.233-1.064.912.912,0,0,1,.724-.359,1.051,1.051,0,0,1,.392.079L34.934,14.4a1.119,1.119,0,0,1,.723.888,1.106,1.106,0,0,1-.466,1.03l-6.46,4.794,8.107,8.311a1.105,1.105,0,0,1,.309.748,1.037,1.037,0,0,1-.311.769L30.1,37.517a1.106,1.106,0,0,1-.767.309M20.347,26.492a1.108,1.108,0,0,1,.783.314l8.23,8.436,5.2-5.075-8.213-8.419a1.043,1.043,0,0,1-.306-.819,1.17,1.17,0,0,1,.484-.837l5.909-4.386L4.471,4.523,14.959,32.757l4.618-5.911a.963.963,0,0,1,.771-.354" transform="translate(-1.116 -1.117)" fill="#fff"/>
          <path id="Trazado_890126" data-name="Trazado 890126" d="M36.022,28.018l-3.934-4.033L28.25,20.051l2.9-2.153,3.173-2.355a1.5,1.5,0,0,0-.35-2.645L28.236,10.6,23.1,8.55l-.272-.109L5.924,1.681,3.959.895,1.994.109A1.471,1.471,0,0,0,1.446,0,1.324,1.324,0,0,0,.412.494,1.37,1.37,0,0,0,.1,1.988L1.734,6.4l2.439,6.567L8.128,23.611l2.487,6.7,1.009,2.715.465,1.253a1.622,1.622,0,0,0,1.469,1.034,1.336,1.336,0,0,0,1.071-.528l2.052-2.626,2.694-3.449,4.212,4.318,2.475,2.537.551.564.551.565a1.454,1.454,0,0,0,1.05.437,1.528,1.528,0,0,0,1.059-.428l4.533-4.422,2.2-2.151a1.494,1.494,0,0,0,.01-2.11m-.6,1.509L28.688,36.1a.68.68,0,0,1-.474.19.623.623,0,0,1-.45-.184l-1.1-1.129-7.358-7.542-5.336,6.831a.506.506,0,0,1-.41.206.781.781,0,0,1-.683-.487L11.4,30.016,4.96,12.672.883,1.7a.535.535,0,0,1,.149-.632A.5.5,0,0,1,1.446.839a.64.64,0,0,1,.236.049L5.613,2.459l17.178,6.87,10.871,4.347a.664.664,0,0,1,.162,1.193L26.979,19.95l.574.589L35.421,28.6a.664.664,0,0,1,0,.924" transform="translate(0)" fill="#fff"/>
          <path id="Trazado_890127" data-name="Trazado 890127" d="M32.546,27.438a.665.665,0,0,1,.127-1.027l6.512-4.833L36.4,20.466,19.226,13.6,9.646,9.766l.982,2.643L17.07,29.753l3.654,9.837,5.08-6.5a.548.548,0,0,1,.441-.193.689.689,0,0,1,.483.187l1.1,1.13,7.421,7.607,5.8-5.66-.638-.654-7.868-8.066m2.719,13.194-2.387-2.447L28.43,33.625l-1.1-1.129a1.514,1.514,0,0,0-1.083-.441,1.381,1.381,0,0,0-1.1.516L22.6,35.823l-1.615,2.068-1.362-3.666-1.769-4.764L15.564,23.29l-4.15-11.173-.323-.87,7.823,3.128L27.5,17.81l8.589,3.435,1.387.554-2.05,1.522-3.256,2.417a1.589,1.589,0,0,0-.651,1.141,1.457,1.457,0,0,0,.423,1.145l3.934,4.033,3.934,4.033.052.053Z" transform="translate(-7.013 -7.1)" fill="#fff"/>
          <path id="Trazado_890128" data-name="Trazado 890128" d="M30.019,23.918l7.5-5.566L5.538,5.563,17.532,37.851l5.75-7.36,8.97,9.195L35.62,36.4l3.369-3.286Z" transform="translate(-4.027 -4.045)" fill="#f0c518"/>
        </g>
      </g>
    </g>
    <g id="Grupo_1105461" data-name="Grupo 1105461" transform="translate(188.678 427.271)">
      <g id="Grupo_1103069" data-name="Grupo 1103069" clip-path="url(#clip-path-15)">
        <path id="Trazado_885336" data-name="Trazado 885336" d="M141.993,300.241a18.713,18.713,0,0,1,5.319-12.081c5.3-5.3,8.533-5.778,9.643-4.869,1.554,1.272-4.576,7.465-4.576,7.465s-.4,2.439,5.149-.294,9.151-6.708,10.518-6.211.911,2.277.911,2.277,1.325-.787,1.946.083a2.305,2.305,0,0,1,0,2.112,1.814,1.814,0,0,1,1.656,1.739c.083,1.615-2.029,3.52-2.029,3.52s2.485-2.561,3.644-1.136-4.8,8.99-12.257,10.977-11.118,3.4-11.118,3.4Z" transform="translate(6.609 -194.293)" fill="#e9a486"/>
        <path id="Trazado_885337" data-name="Trazado 885337" d="M202.328,308.337a10.48,10.48,0,0,1,.517,5.971c-.116.68-.339,1.324-.517,2a6.682,6.682,0,0,0,0-7.968" transform="translate(-43.015 -211.159)" fill="#d37453"/>
        <path id="Trazado_885338" data-name="Trazado 885338" d="M168.534,293.641a51.056,51.056,0,0,1-9.2,5.932c-.463.248-.938.472-1.4.735a21.047,21.047,0,0,0,10.6-6.667" transform="translate(7.032 -201.406)" fill="#d37453"/>
        <path id="Trazado_885339" data-name="Trazado 885339" d="M161.671,300.165c-3.124,2.337-6.264,4.537-9.524,6.667a24.574,24.574,0,0,0,9.524-6.667" transform="translate(15.841 -205.736)" fill="#d37453"/>
        <path id="Trazado_885340" data-name="Trazado 885340" d="M151.779,319.241a14.86,14.86,0,0,0,7.909-4.932,74.327,74.327,0,0,1-7.909,4.932" transform="translate(17.948 -215.122)" fill="#d37453"/>
        <path id="Trazado_885341" data-name="Trazado 885341" d="M225.125,341.388,220.81,345.5l-8.9-8.82,4.408-2.276Z" transform="translate(-67.716 -228.457)" fill="#e9a486"/>
        <path id="Trazado_885342" data-name="Trazado 885342" d="M351.536,69.43s-18.358,0-22.609,15.652a54.9,54.9,0,0,0,.773,29.758s-32.56,9.275-17.778,40,73.623,6.377,73.623,6.377,19.9-6.312,27.246-14.944-2.576-19.195-10.435-24.09,7.343-12.174,4.058-29.565-18.357-13.913-18.357-13.913,1.031-12.045-13.913-16.039-22.609,6.763-22.609,6.763" transform="translate(-290.306 -47.541)" fill="#30221d"/>
        <path id="Trazado_885343" data-name="Trazado 885343" d="M417.459,539.979a57.115,57.115,0,0,1-1.505,45.707,5.886,5.886,0,0,1-2.227,2.814,6.129,6.129,0,0,1-3.5.363c-18.353-1.736-36.811-5.347-55.082-2.9a49.9,49.9,0,0,1-.589-47.256,3.925,3.925,0,0,1,1.356-1.664,4.09,4.09,0,0,1,2.222-.326l56.626,2.3a4.37,4.37,0,0,1,2.406.576c.68.486.988,1.582.3.386" transform="translate(-310.184 -362.704)" fill="#ebae3d"/>
        <g id="Grupo_1103068" data-name="Grupo 1103068" transform="translate(38.709 174)" opacity="0.5">
          <g id="Grupo_1103067" data-name="Grupo 1103067">
            <g id="Grupo_1103066" data-name="Grupo 1103066" clip-path="url(#clip-path-16)">
              <path id="Trazado_885344" data-name="Trazado 885344" d="M365.315,578.372c.886-2.768,3.706-5.237,6.234-6.489,7.362-3.643,15.581-3.1,23.5-2.022,9.038,1.225,17.185,1.994,25.87-.483a56.957,56.957,0,0,0-3.452-29.4c.691,1.2.383.1-.3-.386a4.367,4.367,0,0,0-2.406-.576l-56.626-2.3a4.087,4.087,0,0,0-2.223.326,3.929,3.929,0,0,0-1.356,1.664,49.9,49.9,0,0,0,.589,47.256,94.551,94.551,0,0,1,9.832-.772,14.812,14.812,0,0,1,.333-6.821" transform="translate(-348.903 -536.704)" fill="#d68005"/>
            </g>
          </g>
        </g>
        <path id="Trazado_885345" data-name="Trazado 885345" d="M379.512,259.746c8.564,1.655,17.5,4.163,23.4,10.38,5.969,6.287,7.782,15.384,7.247,23.9s-3.127,16.765-4.881,25.126c-.856,4.083-1.518,8.279-.928,12.4.758,5.3,3.506,10.1,5.8,14.971a95.253,95.253,0,0,1,5.754,15.608c.956,3.509,1.674,7.381.044,10.649-1.99,4-6.8,5.8-11.242,6.9q-3.829.952-7.735,1.581a9.249,9.249,0,0,1-3.971.027,7.665,7.665,0,0,1-3.649-2.739,20.245,20.245,0,0,1-4.517-11.13,34.926,34.926,0,0,1-4.683,8.969,12.409,12.409,0,0,1-8.717,4.955,18.819,18.819,0,0,1-5.585-.834c-5.611-1.425-11.276-2.87-16.427-5.451-3.145-1.575-6.3-3.886-7.035-7.236a12.145,12.145,0,0,1,.793-6.31c3.459-10.5,9.579-20.489,9.781-31.509a60.239,60.239,0,0,0-1.5-12.417q-2.793-14.589-5.588-29.18c-1.155-6.04-2.2-12.739,1.171-17.948,2.687-4.152,7.607-6.388,12.38-8.036,6.815-2.354,14.167-3.826,20.085-2.681" transform="translate(-303.348 -178.651)" fill="#d66767"/>
        <path id="Trazado_885346" data-name="Trazado 885346" d="M340.689,276.952s18.125,8.21,22.92,38.6l-13.3,27.569L334.65,323.966Z" transform="translate(-247.49 -190.331)" fill="#d66767"/>
        <path id="Trazado_885347" data-name="Trazado 885347" d="M268.281,342.612c-6.34,11.56-17.518,20.644-26.332,26.3-7.785,4.991-15.439,7.2-21.038,5.778a10.36,10.36,0,0,1-6.313-4.474l3.656-7.587,1.319-2.736,4.162-8.622,35.307-19.25Z" transform="translate(-111.777 -226.877)" fill="#d66767"/>
        <path id="Trazado_885348" data-name="Trazado 885348" d="M429.148,394.4c-.486.14-.977.268-1.457.387q-3.828.953-7.734,1.581a9.2,9.2,0,0,1-3.973.026,7.6,7.6,0,0,1-3.647-2.738,20.255,20.255,0,0,1-4.521-11.128,34.916,34.916,0,0,1-4.681,8.969,12.411,12.411,0,0,1-8.716,4.954,18.869,18.869,0,0,1-5.585-.832c-5.611-1.426-11.278-2.873-16.429-5.45-3.146-1.576-6.3-3.89-7.037-7.238a12.141,12.141,0,0,1,.8-6.308c3.456-10.5,9.579-20.49,9.78-31.51a60.428,60.428,0,0,0-1.5-12.415q-2.8-14.593-5.59-29.18c-1.152-6.045-2.2-12.74,1.173-17.949a14.432,14.432,0,0,1,3.214-3.461c5.1,3.885,13.857,13.3,17.209,33.576.264,2.506.543,5.017.94,7.528a19.225,19.225,0,0,0,2.981,8.034,12.018,12.018,0,0,0,5.156,4.257c5.487,2.392,9.228,1.811,16.6,3.894,3.064.866,19.05,7.336,15.542,10.735-1.281,1.24-14.279-5.216-15.8-4.291-1.989,1.214-3.957,2.444-5.848,3.818-2.847,2.067-5.611,4.691-7.006,7.977-1.472,3.456-.351,7.367.9,10.7,2.475,6.634,4.908,13.159,10.25,18.031,4.221,3.849,9.553,6.308,14.983,8.034" transform="translate(-326.329 -193.75)" fill="#cc5a5a"/>
        <path id="Trazado_885349" data-name="Trazado 885349" d="M453.524,286.709l-1.973,23.706-7.966-24.078,5.228,6.052Z" transform="translate(-374.051 -196.56)" fill="#fff"/>
        <path id="Trazado_885350" data-name="Trazado 885350" d="M439.794,462.879a.236.236,0,0,1-.235-.232A252.357,252.357,0,0,0,437.18,431.8c-.226-1.617-.475-3.267-.727-4.937-1.1-7.311-2.244-14.871-1.79-21.951a.227.227,0,0,1,.25-.22.235.235,0,0,1,.219.25c-.451,7.029.687,14.564,1.787,21.85.252,1.672.5,3.323.727,4.943a252.571,252.571,0,0,1,2.383,30.9.236.236,0,0,1-.232.239Z" transform="translate(-357.521 -275.103)" fill="#cc5a5a"/>
        <path id="Trazado_885351" data-name="Trazado 885351" d="M423.945,270.2a96.574,96.574,0,0,1-13.115,42.559l9.888-43.938s2.93,1.245,3.226,1.379" transform="translate(-333.453 -184.939)" fill="#cc5a5a"/>
        <path id="Trazado_885352" data-name="Trazado 885352" d="M426.755,264.549s1.978,5.387-3.442,22.745c-1.883,6.041-7.717,20.631-7.717,20.631s-.032-23.639.912-31.328a68.364,68.364,0,0,1,3.425-15.062Z" transform="translate(-338.218 -180.101)" fill="#e07777"/>
        <path id="Trazado_885353" data-name="Trazado 885353" d="M444.339,348.528a35.829,35.829,0,0,1,1.627,6.7c.584,4.778-1.814,10.428-1.814,10.428Z" transform="translate(-366.775 -237.829)" fill="#cc5a5a"/>
        <path id="Trazado_885354" data-name="Trazado 885354" d="M470.207,309.4c2.106-8.182,1.154-12.483-.991-19.578s-5.128-16.139-9.028-22.44c-.874-1.411-2.966-1.853-4.563-2.307a6.905,6.905,0,0,0-2.652-.049,22.974,22.974,0,0,0-5.515,1.069c-.271.1-.572.247-.644.529a.962.962,0,0,0,.326.8c10.611,12.6,16.842,27.088,23.067,41.975" transform="translate(-392.993 -182.349)" fill="#e07777"/>
        <path id="Trazado_885355" data-name="Trazado 885355" d="M435.2,196.578a43.867,43.867,0,0,1,3.289,22.177c.284,3.185,5.976,7.55,7.946,9.845,1.552,1.806,2.737,4.14,3.205,3.826.888-.6,2.626-4.632,3.734-6.127,1.733-2.339,1.693-5.027,3.585-8.309a81.3,81.3,0,0,1-2.284-17.717c-6.655.141-13.756.166-19.474-3.695" transform="translate(-374.67 -136.995)" fill="#e9a486"/>
        <path id="Trazado_885356" data-name="Trazado 885356" d="M438.451,210.8s2.242,7.615,13.143,9a25.143,25.143,0,0,0,5.006.186,80.608,80.608,0,0,1-1.193-12.451c-2.03.041-4.107.072-6.169-.015Z" transform="translate(-375.4 -144.254)" fill="#d8886c"/>
        <path id="Trazado_885357" data-name="Trazado 885357" d="M421.031,99.641c-4.088.993-7.949,3.093-10.309,6.584a23.62,23.62,0,0,0-3.658,11.955c-.417,7.53,1.909,15.413,7.269,20.7s13.945,7.441,20.761,4.27,8.963-11.229,7.553-18.9c-.381-2.073-2.639-12.847-4.253-15.949-.825-1.588-5.8-11.469-17.364-8.663" transform="translate(-351.283 -72.336)" fill="#e9a486"/>
        <path id="Trazado_885358" data-name="Trazado 885358" d="M470.032,164.123c-.272-1.672.225-3.142,1.11-3.281s1.822,1.1,2.094,2.773-.222,3.142-1.108,3.282-1.824-1.1-2.1-2.774" transform="translate(-402.71 -113.273)" fill="#30221d"/>
        <path id="Trazado_885359" data-name="Trazado 885359" d="M426.061,153.3c-.3-1.855.184-3.471,1.085-3.616s1.878,1.244,2.179,3.1-.183,3.473-1.086,3.615-1.878-1.243-2.178-3.1" transform="translate(-344.016 -105.872)" fill="#30221d"/>
        <path id="Trazado_885360" data-name="Trazado 885360" d="M5.283.6C5.14-.128.1-.409,0,1.013S5.52,1.815,5.283.6" transform="translate(63.97 44.766) rotate(-20)" fill="#30221d"/>
        <path id="Trazado_885420" data-name="Trazado 885420" d="M5.282,1.231C5.14,1.961.1,2.242,0,.819s5.518-.8,5.281.412" transform="translate(83.526 40.954) rotate(161)" fill="#30221d"/>
        <path id="Trazado_885362" data-name="Trazado 885362" d="M433.115,153.719s-.349,1.616,4.207,5.068c2.023,1.532.219,4.726-2.927,4.124" transform="translate(-355.179 -108.554)" fill="#e9a486"/>
        <path id="Trazado_885363" data-name="Trazado 885363" d="M433.115,153.719s-.349,1.616,4.207,5.068c2.023,1.532.219,4.726-2.927,4.124" transform="translate(-355.179 -108.554)" fill="none" stroke="#d37453" stroke-linecap="round" stroke-miterlimit="10" stroke-width="1.536"/>
        <path id="Trazado_885364" data-name="Trazado 885364" d="M429.161,188.591s1.32,4.536,5.5,4.564,5.333-5.636,5.333-5.636a14.291,14.291,0,0,1-10.831,1.072" transform="translate(-355.667 -130.983)" fill="#952d27"/>
        <path id="Trazado_885365" data-name="Trazado 885365" d="M442.248,197.821a4.37,4.37,0,0,1-3.4,1.624,5.178,5.178,0,0,1-3.938-1.831,9.8,9.8,0,0,1,3.856-.614,7.3,7.3,0,0,1,3.482.821" transform="translate(-359.856 -137.275)" fill="#e07777"/>
        <path id="Trazado_885366" data-name="Trazado 885366" d="M422.466,130.539s7.536-.966,6.57-7.44-3.732-13.741,3.031-14.659,9.819-5.051,6.437-14.81c0,0,14.143-5.517,21.292,9.265,0,0-2.259-13.613-15.4-14.386s-23.478,12.657-25.217,23.285a29.474,29.474,0,0,0,3.285,18.744" transform="translate(-371.991 -65.26)" fill="#30221d"/>
        <path id="Trazado_885367" data-name="Trazado 885367" d="M510.36,169.06a11.26,11.26,0,0,0-3.62-4.744,5.347,5.347,0,0,0-5.685-.414A3.237,3.237,0,0,0,500,164.934a3.854,3.854,0,0,0-.458,2.151,10.484,10.484,0,0,0,2.514,5.888,9.171,9.171,0,0,0,3.925,3.157,6.079,6.079,0,0,0,1.94.35,4.006,4.006,0,0,0,1.766-.33,3.786,3.786,0,0,0,1.97-3.327c.043-1.356-.72-2.524-1.293-3.764" transform="translate(-451.003 -114.886)" fill="#e9a486"/>
        <path id="Trazado_885368" data-name="Trazado 885368" d="M515.846,176.836a1.2,1.2,0,0,0,.3-.038,1.608,1.608,0,0,0,1-1.758.23.23,0,0,0-.256-.213.235.235,0,0,0-.212.256,1.158,1.158,0,0,1-.648,1.258,1.1,1.1,0,0,1-.739-.126,4.012,4.012,0,0,1-1.47-1.61,7.312,7.312,0,0,1-.835-1.719,2.738,2.738,0,0,1,.021-1.786,1.126,1.126,0,0,1,.882-.765.7.7,0,0,1,.681.461.236.236,0,1,0,.445-.155,1.162,1.162,0,0,0-1.147-.777,1.568,1.568,0,0,0-1.3,1.058,3.205,3.205,0,0,0-.037,2.1,7.7,7.7,0,0,0,.885,1.832,4.472,4.472,0,0,0,1.661,1.787,1.725,1.725,0,0,0,.765.2" transform="translate(-460.824 -119.267)" fill="#d37453"/>
        <path id="Trazado_885369" data-name="Trazado 885369" d="M509.191,195.661a2.074,2.074,0,1,1,2.072,2.074,2.071,2.071,0,0,1-2.072-2.074" transform="translate(-455.935 -135.01)" fill="#ebae3d"/>
        <path id="Trazado_885370" data-name="Trazado 885370" d="M464.058,275.191a38.442,38.442,0,0,1,.854,8.712c-2-2-4.593-5.283-7.387-7.279a9.777,9.777,0,0,0,3.046-2.815c.086-.121.192-.258.34-.26a.461.461,0,0,1,.206.066c.989.5,1.977,1.006,2.965,1.527.03.309.06.617-.023.049" transform="translate(-390.15 -188.073)" fill="#d3dbdc"/>
        <path id="Trazado_885371" data-name="Trazado 885371" d="M465.085,253.423l10.2,8.376-5.213,5.831s-3.318-3.246-5.1-5.441a37.171,37.171,0,0,0-5.057-4.718Z" transform="translate(-401.31 -174.718)" fill="#fff"/>
        <path id="Trazado_885372" data-name="Trazado 885372" d="M434.532,285.878l2.538-9.314,5.219-.038Z" transform="translate(-359.769 -190.048)" fill="#d3dbdc"/>
        <path id="Trazado_885373" data-name="Trazado 885373" d="M429.2,259.455l-5.021,5.781L427,269.951s3.2-3.569,3.8-4.408a31.437,31.437,0,0,0,2.079-3.493Z" transform="translate(-346.879 -178.72)" fill="#fff"/>
        <path id="Trazado_885374" data-name="Trazado 885374" d="M277.594,475.269a116.126,116.126,0,0,1,21.149,2.323c9.771,2.243,9.974,7.62,9.734,8.341s-2.083,1.041-8.812,1.282-21.39-.8-21.39-.8Z" transform="translate(-173.216 -321.935)" fill="#e9a486"/>
        <path id="Trazado_885375" data-name="Trazado 885375" d="M371,283.528c7.833,6.012,11.282,16.442,12.837,26.449s1.687,20.351,4.889,29.924c12.182-3.727,31.758,3.953,41.048,6.676.728.214,1.571.248,2.07.842a3.451,3.451,0,0,1,.59,1.738c.615,4.118,1.377,9.734-2.665,10.74-14.113,3.512-22.679,1.468-35.021,1.347-7.9-.078-16.508.256-22.55-5.037-3.708-3.248-5.952-7.941-7.738-12.632a101.77,101.77,0,0,1-6.514-40.586c.2-4.5.745-9.129,2.894-13.037s6.247-6.945,10.159-6.423" transform="translate(-324.61 -194.657)" fill="#e07777"/>
        <path id="Trazado_885376" data-name="Trazado 885376" d="M488.792,461.347a.236.236,0,0,1-.2-.354,14.032,14.032,0,0,0,1.875-6.293.235.235,0,1,1,.47.025A14.5,14.5,0,0,1,489,461.23a.236.236,0,0,1-.2.117" transform="translate(-426.588 -308.137)" fill="#cc5a5a"/>
        <path id="Trazado_885377" data-name="Trazado 885377" d="M491.894,458.142a.236.236,0,0,1-.175-.394,10.6,10.6,0,0,0,2.007-3.229.236.236,0,1,1,.438.174,11.081,11.081,0,0,1-2.1,3.372.236.236,0,0,1-.175.077" transform="translate(-430.879 -308.066)" fill="#cc5a5a"/>
        <path id="Trazado_885378" data-name="Trazado 885378" d="M494.026,453.01a4.688,4.688,0,0,1-.557-.033.235.235,0,0,1-.206-.262.229.229,0,0,1,.262-.206,4.2,4.2,0,0,0,2.68-.579.236.236,0,1,1,.246.4,4.671,4.671,0,0,1-2.425.677" transform="translate(-433.801 -306.424)" fill="#cc5a5a"/>
        <path id="Trazado_885379" data-name="Trazado 885379" d="M292.893,495.114s8.5,1.856,9.257,3.178.338,1.837.338,1.837" transform="translate(-172.439 -335.104)" fill="none" stroke="#d37453" stroke-linecap="round" stroke-miterlimit="10" stroke-width="1.152"/>
        <path id="Trazado_885380" data-name="Trazado 885380" d="M284.189,487.652s7.307,1.406,9.819,3.45a4,4,0,0,1,1.663,4.075" transform="translate(-162.667 -330.153)" fill="none" stroke="#d37453" stroke-linecap="round" stroke-miterlimit="10" stroke-width="1.152"/>
        <path id="Trazado_885381" data-name="Trazado 885381" d="M357.588,329.209s9.133,8.412,11.055,19.707-1.98,22.513-1.98,22.513" transform="translate(-260.773 -225.009)" fill="none" stroke="#cc5a5a" stroke-miterlimit="10" stroke-width="1.687"/>
      </g>
    </g>
  </g>
</svg>
