<svg xmlns="http://www.w3.org/2000/svg" xmlns:xlink="http://www.w3.org/1999/xlink" width="257" height="157.183" viewBox="0 0 257 157.183">
  <defs>
    <filter id="Trazado_884790" x="66.538" y="1.406" width="123.924" height="118.657" filterUnits="userSpaceOnUse">
      <feOffset dy="1" input="SourceAlpha"/>
      <feGaussianBlur stdDeviation="5.5" result="blur"/>
      <feFlood flood-color="#fff" flood-opacity="0.902"/>
      <feComposite operator="in" in2="blur"/>
      <feComposite in="SourceGraphic"/>
    </filter>
  </defs>
  <g id="Grupo_1105598" data-name="Grupo 1105598" transform="translate(0 -3.094)">
    <g id="Grupo_1102897" data-name="Grupo 1102897">
      <rect id="Rectángulo_400902" data-name="Rectángulo 400902" width="257" height="38" rx="4" transform="translate(0 73.277)" fill="#f0c518"/>
      <rect id="Rectángulo_400903" data-name="Rectángulo 400903" width="217" height="147" rx="11" transform="translate(20 13.277)" fill="#3a1d71"/>
      <g id="Grupo_1102898" data-name="Grupo 1102898" transform="translate(83.038 20)">
        <g transform="matrix(1, 0, 0, 1, -83.04, -16.91)" filter="url(#Trazado_884790)">
          <g id="Trazado_884790-2" data-name="Trazado 884790" transform="translate(83.04 16.91)" fill="none">
            <path d="M45.462,0C70.57,0,90.924,19.175,90.924,42.828S70.57,85.657,45.462,85.657,0,66.482,0,42.828,20.354,0,45.462,0Z" stroke="none"/>
            <path d="M 45.46224975585938 23.99999237060547 C 33.6279296875 23.99999237060547 24 32.44638824462891 24 42.82842254638672 C 24 53.21045684814453 33.6279296875 61.65685272216797 45.46224975585938 61.65685272216797 C 57.29656982421875 61.65685272216797 66.92449951171875 53.21045684814453 66.92449951171875 42.82842254638672 C 66.92449951171875 32.44638824462891 57.29656982421875 23.99999237060547 45.46224975585938 23.99999237060547 M 45.46224975585938 -7.62939453125e-06 C 70.57035827636719 -7.62939453125e-06 90.92449951171875 19.17495727539062 90.92449951171875 42.82842254638672 C 90.92449951171875 66.48188781738281 70.57035827636719 85.65685272216797 45.46224975585938 85.65685272216797 C 20.35414123535156 85.65685272216797 0 66.48188781738281 0 42.82842254638672 C 0 19.17495727539062 20.35414123535156 -7.62939453125e-06 45.46224975585938 -7.62939453125e-06 Z" stroke="none" fill="#fff"/>
          </g>
        </g>
      </g>
      <g id="programador_10_" data-name="programador (10)" transform="translate(43.347 3.094)">
        <g id="Grupo_1099575" data-name="Grupo 1099575" transform="translate(28.46)">
          <g id="Web_Developer" data-name="Web Developer">
            <path id="Trazado_878796" data-name="Trazado 878796" d="M12.484,55.26v-36a3.639,3.639,0,0,1,3.639-3.639h37a3.639,3.639,0,0,1,3.607,3.639v47a3.623,3.623,0,0,1-3.639,3.623H4.846a1.811,1.811,0,0,1-1.355-3.052l8.16-9.221a3.623,3.623,0,0,0,.832-2.35Z" transform="translate(91.801 10.385)" fill="#619fff"/>
            <path id="Trazado_878797" data-name="Trazado 878797" d="M28.82,119.6H133.559l-5.81-38.041A23.255,23.255,0,0,0,109.8,62.386L81.435,56.07,52.581,62.484A23.239,23.239,0,0,0,34.63,81.676Z" transform="translate(-27.17 35.948)" fill="#ffab57"/>
            <path id="Trazado_878798" data-name="Trazado 878798" d="M54.73,67.067l9.449,17.364,9.759-17.364V49.98H54.73Z" transform="translate(-9.833 32.1)" fill="#ffbf9d"/>
            <path id="Trazado_878799" data-name="Trazado 878799" d="M42.142,41.9h67.123a6.789,6.789,0,1,0,0-13.562H42.142a6.789,6.789,0,0,0,0,13.562Z" transform="translate(-21.202 18.421)" fill="#ffbf9d"/>
            <path id="Trazado_878800" data-name="Trazado 878800" d="M72.238,81.274a30.028,30.028,0,0,0,30.028-30.028V37.488a30.028,30.028,0,1,0-60.056,0V51.246A30.028,30.028,0,0,0,72.238,81.274Z" transform="translate(-17.728 5.229)" fill="#fdb"/>
            <path id="Trazado_878801" data-name="Trazado 878801" d="M42.2,44.75V37.488a30.028,30.028,0,1,1,60.056,0V44.75Z" transform="translate(-17.702 5.229)" fill="#ffc9a2"/>
            <path id="Trazado_878803" data-name="Trazado 878803" d="M38.93,109.887h80.195L125.489,62.3a4.9,4.9,0,0,0-4.9-5.549H37.363a4.9,4.9,0,0,0-4.9,5.549Z" transform="translate(-25.023 36.378)" fill="#dbecff"/>
            <path id="Trazado_878804" data-name="Trazado 878804" d="M77.954,77.963a5.94,5.94,0,0,1-9.237-4.129l-1.028-7.768A2.938,2.938,0,0,1,70.61,62.8H88.79a3.264,3.264,0,0,1,1.991,5.973C85.82,72.414,82.426,74.944,77.954,77.963Z" transform="translate(-49.246 40.2)" fill="#fff"/>
            <path id="Trazado_878805" data-name="Trazado 878805" d="M54.615,62.75a2.938,2.938,0,0,1,2.921,3.264L53.848,93.66a2.938,2.938,0,0,1-2.921,2.562H45.183a6.055,6.055,0,0,1-5.532-8.535A250.177,250.177,0,0,1,50.389,65.051a4.9,4.9,0,0,1,4.227-2.3Z" transform="translate(32.028 40.17)" fill="#fff"/>
            <path id="Trazado_878806" data-name="Trazado 878806" d="M116.561,89.31H36.35V98.6h80.211Z" transform="translate(-22.46 56.955)" fill="#5955a1"/>
            <path id="Trazado_878807" data-name="Trazado 878807" d="M97.46,89.31H44.78V98.6H97.46Z" transform="translate(-17.116 56.955)" fill="#b8c4ff"/>
            <path id="Trazado_878808" data-name="Trazado 878808" d="M54.4,85.3a10.575,10.575,0,1,0,0-16.32,10.575,10.575,0,0,1,0,16.32Z" transform="translate(-7.053 42.584)" fill="#5955a1"/>
            <path id="Trazado_878809" data-name="Trazado 878809" d="M40.673,45.9h66.111V34.348a33.064,33.064,0,1,0-66.111,0Z" transform="translate(-19.733 0.862)" fill="#ff575a"/>
            <path id="Trazado_878810" data-name="Trazado 878810" d="M45.51,34.61H63.968V27.267a9.237,9.237,0,0,0-18.458,0Z" transform="translate(15.185 12.154)" fill="#5955a1"/>
            <path id="Trazado_878811" data-name="Trazado 878811" d="M63.968,24.08H45.51v6.952H63.968Z" transform="translate(15.185 15.732)" fill="#ff7a5a"/>
            <rect id="Rectángulo_402723" data-name="Rectángulo 402723" width="10.836" height="6.952" rx="0.87" transform="translate(64.514 39.812)" fill="#ff985a"/>
            <path id="Trazado_878812" data-name="Trazado 878812" d="M77.57,21.62H61.9a5.483,5.483,0,0,0,0,10.967h44.912l-4.39-3.1A43.3,43.3,0,0,0,77.57,21.62Z" transform="translate(-45.467 14.177)" fill="#ff985a"/>
            <path id="Trazado_878813" data-name="Trazado 878813" d="M53.988,24.349a47.9,47.9,0,0,1,18.555,3.77A5.434,5.434,0,0,0,79.4,25.834a14.182,14.182,0,0,1,8.323-6.528,5.353,5.353,0,0,0,1.126-9.792A28.086,28.086,0,0,0,51.54,20.04a2.889,2.889,0,0,0,2.448,4.308Z" transform="translate(-21.641 4.464)" fill="#ff897d"/>
            <g id="Grupo_1101536" data-name="Grupo 1101536">
              <path id="Trazado_878814" data-name="Trazado 878814" d="M35.379,110.879,33.748,98.574a6.528,6.528,0,0,1,6.528-7.393H71.054V85.747a31.709,31.709,0,0,1-19.943-24.1H48.745A8.421,8.421,0,0,1,42.315,47.8,7.115,7.115,0,0,1,44.225,33.85h2.921a34.677,34.677,0,1,1,69.346,1.028l0,9.971a8.4,8.4,0,0,1-.636,16.793h-2.366a31.709,31.709,0,0,1-19.943,24.1v5.434h29.849a6.528,6.528,0,0,1,6.528,7.393l-1.632,12.24c1.632,3.541,1.289,3.264,7.556,44.177a1.632,1.632,0,0,1-1.632,1.877H29.439a1.632,1.632,0,0,1-1.632-1.877C33.976,114.437,33.6,114.894,35.379,110.879Zm13.366-52.5h1.909c-.147-1.5-.114-1.73-.114-10.3H48.664a5.157,5.157,0,1,0,0,10.3ZM44.225,37.163a3.851,3.851,0,1,0,0,7.7H83.979a41.354,41.354,0,0,0-24.088-7.7Zm61.1,3.966H90.116v3.688h15.21Zm-.1-3.264a7.621,7.621,0,0,0-15.03,0Zm8-2.986A31.413,31.413,0,1,0,50.406,33.85h9.486a44.487,44.487,0,0,1,25.785,8.16l1.175.816V39.5a10.869,10.869,0,0,1,21.738,0v5.32h4.635Zm2.627,23.5a5.157,5.157,0,1,0,0-10.3h-1.893c0,8.16,0,8.764-.1,10.3Zm-5.7,3.264c.653-3.264.539-4.9.539-13.562H53.919v8.078a28.4,28.4,0,0,0,56.27,5.483ZM90.279,86.807a32.035,32.035,0,0,1-15.961,0v4.374h2.448c6.724-1.485,7.2-1.632,0,0H87.211c-3.052-.685-4.782-1.093-4.9-1.093h.261c5.712,1.273,3.982,1.061,7.752,1.061Zm33.113,7.638H40.161a3.264,3.264,0,0,0-3.264,3.7c1.893,14.2-.343-2.432,6.153,46.168h77.42l6.169-46.2a3.264,3.264,0,0,0-3.248-3.672Zm3.688,25.1c-4.129,30.893-3.541,24.006-3.541,34.059h8.715Zm-6.805,28.037h-10.51V153.6h10.51ZM106.5,153.6v-6.022H57.085V153.6Zm-52.68,0v-6.022H43.327V153.6Zm-13.757,0c0-10.135.571-3.264-3.541-34.092L31.316,153.6Z" transform="translate(-27.789 0.315)"/>
              <path id="Trazado_878820" data-name="Trazado 878820" d="M54.063,87.226a1.632,1.632,0,0,1,0-2.546,8.959,8.959,0,0,0,0-13.872,1.632,1.632,0,0,1,0-2.53,12.207,12.207,0,1,1,0,18.947ZM57.686,69.8a12.256,12.256,0,0,1,0,15.912,8.943,8.943,0,1,0,0-15.912Z" transform="translate(-7.779 41.936)"/>
              <path id="Trazado_878824" data-name="Trazado 878824" d="M2.853,66.451l8.16-9.237a1.958,1.958,0,0,0,.506-1.322v-36a5.271,5.271,0,0,1,5.255-5.271H53.7a5.271,5.271,0,0,1,5.239,5.271v47a5.271,5.271,0,0,1-5.271,5.271H5.448a3.443,3.443,0,0,1-2.595-5.712Zm52.827.441v-47a2.024,2.024,0,0,0-2.007-2.007H16.708a2.007,2.007,0,0,0-1.991,2.007v36A5.271,5.271,0,0,1,13.4,59.3c-8.584,9.792-8.16,9.253-8.16,9.416s-3.558.114,48.42.114a2.024,2.024,0,0,0,2.024-1.942Z" transform="translate(91.216 9.753)"/>
              <g id="www" transform="translate(112.995 45.166)">
                <g id="Grupo_1105462" data-name="Grupo 1105462" transform="translate(1.181 1.182)">
                  <path id="Trazado_890129" data-name="Trazado 890129" d="M58.625,124.286h-39.2a9.4,9.4,0,1,0,0,18.809h39.2a9.4,9.4,0,1,0,0-18.809Z" transform="translate(-10.019 -124.286)" fill="#ff7d97"/>
                  <path id="Trazado_890130" data-name="Trazado 890130" d="M269.08,273.59l-4.659-2.873-4.659-2.873.467,5.454.467,5.454,2.18-1.342,2.813,4.569,4.024-2.478-2.813-4.569Z" transform="translate(-230.312 -250.916)" fill="#bfdbff"/>
                </g>
                <g id="Grupo_1105464" data-name="Grupo 1105464" transform="translate(0)">
                  <circle id="Elipse_11895" data-name="Elipse 11895" cx="1.179" cy="1.179" r="1.179" transform="translate(29.008 0.003)"/>
                  <g id="Grupo_1105463" data-name="Grupo 1105463" transform="translate(9.958 6.014)">
                    <circle id="Elipse_11896" data-name="Elipse 11896" cx="1.354" cy="1.354" r="1.354" transform="translate(40.744 6.434)"/>
                    <path id="Trazado_890131" data-name="Trazado 890131" d="M93.669,166.106,92.5,169.44l-1.151-3.374a1.182,1.182,0,0,0-2.231-.015L87.9,169.479l-1.154-3.358a1.181,1.181,0,1,0-2.235.768l2.251,6.55a1.182,1.182,0,0,0,1.111.8h.007a1.182,1.182,0,0,0,1.113-.785l1.218-3.417,1.16,3.4a1.181,1.181,0,0,0,1.113.8h.005a1.182,1.182,0,0,0,1.115-.791l2.3-6.558a1.182,1.182,0,0,0-2.23-.782Z" transform="translate(-84.446 -165.267)"/>
                    <path id="Trazado_890132" data-name="Trazado 890132" d="M201.186,165.387a1.181,1.181,0,0,0-.733,1.5l2.251,6.55a1.182,1.182,0,0,0,1.111.8h.007a1.181,1.181,0,0,0,1.113-.785l1.218-3.417,1.16,3.4a1.182,1.182,0,0,0,1.113.8h0a1.182,1.182,0,0,0,1.115-.791l2.3-6.558a1.182,1.182,0,0,0-2.23-.782l-1.169,3.334-1.151-3.374a1.182,1.182,0,0,0-2.231-.015l-1.222,3.428-1.154-3.358A1.181,1.181,0,0,0,201.186,165.387Z" transform="translate(-186.717 -165.267)"/>
                    <path id="Trazado_890133" data-name="Trazado 890133" d="M319.786,174.238h.007a1.181,1.181,0,0,0,1.113-.785l1.217-3.417,1.16,3.4a1.182,1.182,0,0,0,1.113.8h0a1.182,1.182,0,0,0,1.115-.791l2.3-6.558a1.182,1.182,0,0,0-2.23-.782l-1.169,3.334-1.151-3.374a1.182,1.182,0,0,0-2.231-.015l-1.222,3.428-1.154-3.358a1.181,1.181,0,1,0-2.235.768l2.251,6.55a1.182,1.182,0,0,0,1.111.8Z" transform="translate(-289.015 -165.268)"/>
                  </g>
                  <path id="Trazado_890134" data-name="Trazado 890134" d="M49.787,114.266h-14.3a1.182,1.182,0,0,0,0,2.363h14.3a8.223,8.223,0,0,1,0,16.446H34.016L31.25,131.37a1.181,1.181,0,0,0-1.8,1.106l.051.6H10.586a8.223,8.223,0,0,1,0-16.446h14.3a1.182,1.182,0,0,0,0-2.363h-14.3a10.586,10.586,0,0,0,0,21.172H29.707l.681,7.946a1.182,1.182,0,0,0,1.8.905l1.174-.723,2.193,3.563a1.181,1.181,0,0,0,1.626.387l4.024-2.478a1.182,1.182,0,0,0,.387-1.625l-2.193-3.563,1.174-.723a1.182,1.182,0,0,0,0-2.012l-2.721-1.678H49.787a10.586,10.586,0,1,0,0-21.172ZM36.944,144.884l-2.193-3.563a1.181,1.181,0,0,0-1.626-.387l-.547.337-.57-6.659,5.689,3.508-.547.337a1.182,1.182,0,0,0-.387,1.625l2.193,3.563Z" transform="translate(0 -114.266)"/>
                </g>
              </g>
            </g>
          </g>
        </g>
      </g>
    </g>
  </g>
</svg>
