<svg xmlns="http://www.w3.org/2000/svg" xmlns:xlink="http://www.w3.org/1999/xlink" width="257" height="143.777" viewBox="0 0 257 143.777">
  <defs>
    <filter id="Trazado_884790" x="73.197" y="0" width="123.925" height="118.657" filterUnits="userSpaceOnUse">
      <feOffset dy="1" input="SourceAlpha"/>
      <feGaussianBlur stdDeviation="5.5" result="blur"/>
      <feFlood flood-color="#fff" flood-opacity="0.902"/>
      <feComposite operator="in" in2="blur"/>
      <feComposite in="SourceGraphic"/>
    </filter>
  </defs>
  <g id="Grupo_1105266" data-name="Grupo 1105266" transform="translate(0 15.5)">
    <g id="Grupo_1102897" data-name="Grupo 1102897">
      <rect id="Rect치ngulo_400902" data-name="Rect치ngulo 400902" width="257" height="38" rx="4" transform="translate(0 73.277)" fill="#f0c518"/>
      <rect id="Rect치ngulo_400903" data-name="Rect치ngulo 400903" width="217" height="115" rx="11" transform="translate(20 13.277)" fill="#3a1d71"/>
      <g id="Grupo_1102898" data-name="Grupo 1102898" transform="translate(89.697)">
        <g transform="matrix(1, 0, 0, 1, -89.7, -15.5)" filter="url(#Trazado_884790)">
          <g id="Trazado_884790-2" data-name="Trazado 884790" transform="translate(89.7 15.5)" fill="none">
            <path d="M45.462,0C70.57,0,90.924,19.175,90.924,42.828S70.57,85.657,45.462,85.657,0,66.482,0,42.828,20.354,0,45.462,0Z" stroke="none"/>
            <path d="M 45.46224975585938 23.99999237060547 C 33.6279296875 23.99999237060547 24 32.44638824462891 24 42.82842254638672 C 24 53.21045684814453 33.6279296875 61.65685272216797 45.46224975585938 61.65685272216797 C 57.29656982421875 61.65685272216797 66.92449951171875 53.21045684814453 66.92449951171875 42.82842254638672 C 66.92449951171875 32.44638824462891 57.29656982421875 23.99999237060547 45.46224975585938 23.99999237060547 M 45.46224975585938 -7.62939453125e-06 C 70.57035827636719 -7.62939453125e-06 90.92449951171875 19.17495727539062 90.92449951171875 42.82842254638672 C 90.92449951171875 66.48188781738281 70.57035827636719 85.65685272216797 45.46224975585938 85.65685272216797 C 20.35414123535156 85.65685272216797 0 66.48188781738281 0 42.82842254638672 C 0 19.17495727539062 20.35414123535156 -7.62939453125e-06 45.46224975585938 -7.62939453125e-06 Z" stroke="none" fill="#fff"/>
          </g>
        </g>
      </g>
      <g id="programador_10_" data-name="programador (10)" transform="translate(91.604 7.467)">
        <g id="Grupo_1099574" data-name="Grupo 1099574" transform="translate(1.9 1.767)">
          <g id="Grupo_1099573" data-name="Grupo 1099573">
            <g id="Grupo_1099571" data-name="Grupo 1099571" transform="translate(10.871)">
              <path id="Trazado_875215" data-name="Trazado 875215" d="M147.074,33.167v7.9h53.171v-7.9C200.245,18.992,188.047,7.5,173,7.5c-7.524,0-12.683,3.362-17.615,8.006S147.074,26.081,147.074,33.167Z" transform="translate(-143.594 -7.5)" fill="#3a1d71"/>
              <path id="Trazado_875216" data-name="Trazado 875216" d="M256,33.167v7.263l2.8.537,3.107-5.068V34.225c0-20.845,21.333-26.725,21.333-26.725a28.029,28.029,0,0,0-19.266,7.517A24.874,24.874,0,0,0,256,33.167Z" transform="translate(-253.838 -7.5)" fill="#1f0a48"/>
              <path id="Trazado_875217" data-name="Trazado 875217" d="M209.559,273.263V255.782h23.232v17.481Z" transform="translate(-191.768 -197.279)" fill="#ffbf9d"/>
              <path id="Trazado_875218" data-name="Trazado 875218" d="M143.29,128.017h49.094a4.726,4.726,0,0,1,4.86,4.579c0,6.356-5.47,11.509-12.217,11.509h-34.38c-6.747,0-12.217-5.153-12.217-11.509A4.726,4.726,0,0,1,143.29,128.017Z" transform="translate(-138.43 -99.619)" fill="#ffbf9d"/>
              <path id="Trazado_875219" data-name="Trazado 875219" d="M175.316,121.86l8.37,6.9a9.314,9.314,0,0,0,5.917,2.095h4.883a9.314,9.314,0,0,0,5.917-2.094l8.37-6.9a12.4,12.4,0,0,0,4.6-9.556V92.971a3.884,3.884,0,0,1-3.672-2.452l-2.141-5.748a4.209,4.209,0,0,0-5.516-2.29l-.009,0a26.926,26.926,0,0,1-20,0,4.209,4.209,0,0,0-5.517,2.29l-2.14,5.747a3.884,3.884,0,0,1-3.672,2.452V112.3A12.392,12.392,0,0,0,175.316,121.86Z" transform="translate(-162.638 -64.573)" fill="#ffbf9d"/>
            </g>
            <g id="Grupo_1099572" data-name="Grupo 1099572" transform="translate(0 72.422)">
              <path id="Trazado_875220" data-name="Trazado 875220" d="M104.968,357.174l-.33-37.463a4.318,4.318,0,0,1,4.44-4.184l5.852-.674h60.235a4.318,4.318,0,0,1,4.44,4.184v38.137H104.968Z" transform="translate(-101.469 -314.853)" fill="#bed9fd"/>
              <path id="Trazado_875221" data-name="Trazado 875221" d="M96.81,478.758l7.283-.5h68.794A1.793,1.793,0,0,1,174.731,480h0a4.589,4.589,0,0,1-4.72,4.446h-64.8l-5.779-.733c-2.607,0-4.468-.759-4.468-3.215A1.793,1.793,0,0,1,96.81,478.758Z" transform="translate(-94.174 -439.755)" fill="#bed9fd"/>
              <path id="Trazado_875222" data-name="Trazado 875222" d="M364.063,314.854h7.5a4.318,4.318,0,0,0-4.44,4.184v38.137h-7.5V319.038A4.318,4.318,0,0,1,364.063,314.854Z" transform="translate(-357.204 -314.854)" fill="#97c3fc"/>
              <path id="Trazado_875223" data-name="Trazado 875223" d="M372.539,478.259h8.075v4.609a1.625,1.625,0,0,0,1.671,1.575h-6.871a4.589,4.589,0,0,1-4.72-4.446h0A1.793,1.793,0,0,1,372.539,478.259Z" transform="translate(-370.695 -439.755)" fill="#97c3fc"/>
            </g>
          </g>
        </g>
        <g id="Grupo_1099575" data-name="Grupo 1099575" transform="translate(0 0)">
          <path id="Trazado_875233" data-name="Trazado 875233" d="M89.791,111.145V78.35A6.151,6.151,0,0,1,96.109,72.4H116.05v-8.29l-2.219-1.83a1.7,1.7,0,0,1-.176-2.494,1.957,1.957,0,0,1,2.647-.166l6.118,5.044a7.375,7.375,0,0,0,4.685,1.658h4.887a7.373,7.373,0,0,0,4.685-1.657l8.374-6.9a10.68,10.68,0,0,0,3.967-8.232V31.655a5.922,5.922,0,0,1-1.461-.707,5.434,5.434,0,0,1-2.107-2.636l-2.144-5.751a2.158,2.158,0,0,0-1.219-1.242,2.378,2.378,0,0,0-1.862.017,29.064,29.064,0,0,1-21.42-.025,2.371,2.371,0,0,0-.883-.173,2.263,2.263,0,0,0-2.134,1.424l-2.141,5.75a5.628,5.628,0,0,1-3.569,3.341V49.525a10.309,10.309,0,0,0,.992,4.421,1.728,1.728,0,0,1-.955,2.332,1.923,1.923,0,0,1-2.475-.9,13.652,13.652,0,0,1-1.314-5.853V46.776a13.167,13.167,0,0,1-8.079-12.013,6.171,6.171,0,0,1,2.163-4.655V27.449a26.5,26.5,0,0,1,8.534-19.41A29.885,29.885,0,0,1,129.548,0a30.221,30.221,0,0,1,16.5,4.826,1.7,1.7,0,0,1,.481,2.458,1.95,1.95,0,0,1-2.609.453,26.32,26.32,0,0,0-14.373-4.2,26.037,26.037,0,0,0-17.95,7,23.091,23.091,0,0,0-7.435,16.911v1.014a7.2,7.2,0,0,1,.824-.049h3.222a2.016,2.016,0,0,0,1.9-1.272l2.142-5.752a6.014,6.014,0,0,1,5.674-3.786,6.3,6.3,0,0,1,2.352.455,25.075,25.075,0,0,0,18.537,0,6.378,6.378,0,0,1,4.788.024,5.826,5.826,0,0,1,3.246,3.306l2.145,5.752a1.893,1.893,0,0,0,.734.92,2.1,2.1,0,0,0,1.163.351h3.222a7.2,7.2,0,0,1,.824.049V27.449a22.811,22.811,0,0,0-5.112-14.393,1.7,1.7,0,0,1,.367-2.475,1.954,1.954,0,0,1,2.628.345,26.189,26.189,0,0,1,5.869,16.523v2.659a6.171,6.171,0,0,1,2.163,4.655,13.167,13.167,0,0,1-8.079,12.013v2.75a14.131,14.131,0,0,1-5.248,10.892l-4.475,3.69V72.4h6a1.77,1.77,0,1,1,0,3.535H96.109a2.5,2.5,0,0,0-2.566,2.42v32.572h13.772a1.77,1.77,0,1,1,0,3.534l-16.193,0a2.773,2.773,0,0,0,2.846,2.657h71.16a2.92,2.92,0,0,0,2.014-.787,2.58,2.58,0,0,0,.832-1.866H116.069a1.77,1.77,0,1,1,0-3.534h49.484V78.35a2.5,2.5,0,0,0-2.566-2.42H157.8a1.77,1.77,0,1,1,0-3.534h5.19a6.151,6.151,0,0,1,6.318,5.954v32.8a3.525,3.525,0,0,1,2.421,3.281,5.99,5.99,0,0,1-1.933,4.4,6.766,6.766,0,0,1-4.666,1.821H93.968a6.423,6.423,0,0,1-6.6-6.216,3.4,3.4,0,0,1,1.095-2.484A3.759,3.759,0,0,1,89.791,111.145ZM102,34.763a9.527,9.527,0,0,0,4.327,7.936V31.949h-1.34A2.908,2.908,0,0,0,102,34.763Zm55.1,0a2.908,2.908,0,0,0-2.987-2.814h-1.34V42.7A9.528,9.528,0,0,0,157.1,34.763ZM139.3,67.2l-.147.121a11.261,11.261,0,0,1-7.156,2.532H127.1a11.261,11.261,0,0,1-7.156-2.532L119.8,67.2v5.2H139.3V67.2Z" transform="translate(-87.37 0)"/>
        </g>
        <g id="Layer_x0020_1" transform="translate(23.243 86.431)">
          <g id="_178543856" transform="translate(5.705 3.26)">
            <g id="Grupo_1105478" data-name="Grupo 1105478" transform="translate(0)">
              <g id="Grupo_1105473" data-name="Grupo 1105473" transform="translate(0)">
                <g id="Grupo_1105467" data-name="Grupo 1105467" transform="translate(22.605)">
                  <path id="_178544936" d="M3.465,6.846a.467.467,0,0,1-.444-.319L1.282,1.31a.468.468,0,1,1,.888-.3L3.464,4.9,4.758,1.015a.468.468,0,0,1,.888.3L3.908,6.527A.466.466,0,0,1,3.465,6.846Z" transform="translate(-1.257 -0.694)" fill-rule="evenodd"/>
                </g>
                <g id="Grupo_1105468" data-name="Grupo 1105468" transform="translate(19.126)">
                  <path id="_178544840" d="M3.31,6.846a.469.469,0,0,1-.444-.319L1.127,1.31a.468.468,0,1,1,.888-.3L3.31,4.9,4.6,1.015a.468.468,0,0,1,.888.3L3.753,6.527a.465.465,0,0,1-.443.319Z" transform="translate(-1.103 -0.694)" fill-rule="evenodd"/>
                </g>
                <g id="Grupo_1105469" data-name="Grupo 1105469" transform="translate(13.041)">
                  <path id="_178544744" d="M3.039,6.846A.467.467,0,0,1,2.6,6.527L.857,1.31a.468.468,0,1,1,.888-.3L3.039,4.9,4.334,1.015a.468.468,0,1,1,.888.3L3.483,6.527a.467.467,0,0,1-.444.319Z" transform="translate(-0.833 -0.694)" fill-rule="evenodd"/>
                </g>
                <g id="Grupo_1105470" data-name="Grupo 1105470" transform="translate(9.563)">
                  <path id="_178544648" d="M2.885,6.846a.468.468,0,0,1-.444-.319L.7,1.31a.468.468,0,0,1,.888-.3L2.885,4.9,4.18,1.015a.468.468,0,0,1,.888.3L3.329,6.527a.466.466,0,0,1-.444.319Z" transform="translate(-0.678 -0.694)" fill-rule="evenodd"/>
                </g>
                <g id="Grupo_1105471" data-name="Grupo 1105471" transform="translate(3.478)">
                  <path id="_178544552" d="M2.615,6.846a.467.467,0,0,1-.444-.319L.432,1.31a.468.468,0,0,1,.888-.3L2.615,4.9,3.91,1.015a.468.468,0,1,1,.888.3L3.059,6.527a.468.468,0,0,1-.444.319Z" transform="translate(-0.408 -0.694)" fill-rule="evenodd"/>
                </g>
                <g id="Grupo_1105472" data-name="Grupo 1105472" transform="translate(0)">
                  <path id="_178544456" d="M2.46,6.846a.468.468,0,0,1-.444-.319L.277,1.31a.468.468,0,0,1,.888-.3L2.46,4.9,3.755,1.015a.468.468,0,1,1,.888.3L2.9,6.527A.466.466,0,0,1,2.46,6.846Z" transform="translate(-0.253 -0.694)" fill-rule="evenodd"/>
                </g>
              </g>
            </g>
            <g id="Grupo_1105479" data-name="Grupo 1105479" transform="translate(16.785 7.094)">
              <path id="_178543928" d="M16.44,1.946H1.467a.468.468,0,0,1,0-.937H16.44a.468.468,0,0,1,0,.937Z" transform="translate(-0.999 -1.009)" fill="#2b1330" fill-rule="evenodd"/>
            </g>
          </g>
          <path id="Trazado_890136" data-name="Trazado 890136" d="M17.34,13.288,34.051,12.7a2.552,2.552,0,0,0,2.42-1.75H22.063a.468.468,0,0,1,0-.937H36.6V3.139A2.551,2.551,0,0,0,34.051.591H2.59A2.551,2.551,0,0,0,.042,3.139v7.009A2.551,2.551,0,0,0,2.59,12.7H8.563a.468.468,0,0,1,.592.591H17.34ZM7.461,8.749a.468.468,0,0,1-.888,0L4.835,3.532a.468.468,0,0,1,.888-.3L7.018,7.122,8.311,3.243l0-.007a.467.467,0,0,1,.25-.278.438.438,0,0,1,.047-.018.463.463,0,0,1,.3,0,.451.451,0,0,1,.068.029.463.463,0,0,1,.123.093l0,0a.469.469,0,0,1,.1.17L10.5,7.122l1.295-3.885a.468.468,0,1,1,.888.3L10.94,8.749a.469.469,0,0,1-.889,0L8.757,4.863l-1.3,3.886Zm9.564,0a.468.468,0,0,1-.888,0L14.4,3.532a.468.468,0,0,1,.888-.3l1.295,3.885,1.292-3.876,0-.009a.456.456,0,0,1,.028-.066.472.472,0,0,1,.032-.053.468.468,0,0,1,.532-.177l.022.008a.463.463,0,0,1,.213.167l.016.024a.475.475,0,0,1,.045.1l1.295,3.885,1.295-3.885a.468.468,0,1,1,.888.3L20.5,8.749a.468.468,0,0,1-.888,0l-1.3-3.885-1.3,3.885Zm9.12.319a.469.469,0,0,1-.444-.319L23.961,3.532a.468.468,0,1,1,.888-.3l1.295,3.885,1.295-3.885a.473.473,0,0,1,.1-.17.468.468,0,0,1,.491-.126.465.465,0,0,1,.158.089l.02.018a.472.472,0,0,1,.12.189l1.295,3.885,1.294-3.885a.468.468,0,0,1,.888.3L30.066,8.749a.468.468,0,0,1-.887,0l-1.3-3.886-1.3,3.886a.465.465,0,0,1-.443.319Z" transform="translate(0.894 0.344)" fill="#f4bd3c" fill-rule="evenodd"/>
          <path id="_178544336" d="M34.944,14.526H18.407a.468.468,0,1,1,0-.936H34.945a2.551,2.551,0,0,0,2.548-2.548V4.032a2.551,2.551,0,0,0-2.548-2.548H3.484A2.551,2.551,0,0,0,.935,4.032v7.009A2.551,2.551,0,0,0,3.484,13.59h8.467a.468.468,0,0,1,0,.936H3.484A3.487,3.487,0,0,1,0,11.042V4.033A3.488,3.488,0,0,1,3.484.549H34.945a3.487,3.487,0,0,1,3.484,3.484v7.009a3.488,3.488,0,0,1-3.484,3.484Z" transform="translate(0 -0.549)" fill-rule="evenodd"/>
        </g>
      </g>
    </g>
  </g>
</svg>
