<svg id="derechos-de-autor" xmlns="http://www.w3.org/2000/svg" width="50.496" height="50.496" viewBox="0 0 50.496 50.496">
  <path id="Trazado_890137" data-name="Trazado 890137" d="M105.225,107.2H65.973A1.972,1.972,0,0,1,64,105.225V65.973A1.972,1.972,0,0,1,65.973,64h39.253a1.972,1.972,0,0,1,1.973,1.973v39.253A1.972,1.972,0,0,1,105.225,107.2Zm0,0" transform="translate(-57.688 -57.688)" fill="#eff3f3"/>
  <path id="Trazado_890138" data-name="Trazado 890138" d="M51.225,53.2H11.973A1.972,1.972,0,0,1,10,51.225V11.973A1.972,1.972,0,0,1,11.973,10H51.225A1.972,1.972,0,0,1,53.2,11.973V51.225A1.972,1.972,0,0,1,51.225,53.2Zm0,0" transform="translate(-9.014 -9.014)" fill="#fff"/>
  <path id="Trazado_890139" data-name="Trazado 890139" d="M127.051,158.525A12.525,12.525,0,1,1,114.525,146,12.525,12.525,0,0,1,127.051,158.525Zm0,0" transform="translate(-91.94 -131.601)" fill="#d675a7"/>
  <path id="Trazado_890140" data-name="Trazado 890140" d="M155.03,207.127a8.1,8.1,0,1,1,5.726-13.819l-2.79,2.79a4.152,4.152,0,1,0,0,5.872l2.79,2.79a8.073,8.073,0,0,1-5.726,2.368Zm0,0" transform="translate(-132.445 -172.109)" fill="#fff"/>
  <path id="Trazado_890141" data-name="Trazado 890141" d="M453.326,72.679H448V64h3.353a1.972,1.972,0,0,1,1.972,1.973Zm0,0" transform="translate(-403.816 -57.688)" fill="#91def5"/>
  <path id="Trazado_890142" data-name="Trazado 890142" d="M53.2,18.679H10V11.973A1.972,1.972,0,0,1,11.973,10H51.225A1.972,1.972,0,0,1,53.2,11.973Zm0,0" transform="translate(-9.014 -9.014)" fill="#b0e7f8"/>
  <path id="Trazado_890143" data-name="Trazado 890143" d="M47.537,5.326H45.17V2.959A2.962,2.962,0,0,0,42.212,0H2.959A2.962,2.962,0,0,0,0,2.959V42.212A2.962,2.962,0,0,0,2.959,45.17H5.326v2.367A2.962,2.962,0,0,0,8.285,50.5H47.537A2.962,2.962,0,0,0,50.5,47.537V8.285A2.962,2.962,0,0,0,47.537,5.326Zm0,1.973a.987.987,0,0,1,.986.986V14H45.17V7.3ZM2.959,1.973H42.212a.987.987,0,0,1,.986.986v5.72H1.973V2.959A.987.987,0,0,1,2.959,1.973ZM47.537,48.524H8.285a.987.987,0,0,1-.986-.986V45.17H18.64a.986.986,0,1,0,0-1.973H2.959a.987.987,0,0,1-.986-.986V10.652H43.2v31.56a.987.987,0,0,1-.986.986H26.53a.986.986,0,0,0,0,1.973H42.212a2.962,2.962,0,0,0,2.959-2.959V15.977h3.353v31.56A.987.987,0,0,1,47.537,48.524Zm0,0"/>
  <path id="Trazado_890144" data-name="Trazado 890144" d="M60.986,45.973a.987.987,0,1,0-.7-.289A.994.994,0,0,0,60.986,45.973Zm0,0" transform="translate(-54.082 -39.66)"/>
  <path id="Trazado_890145" data-name="Trazado 890145" d="M114.658,45.973a.986.986,0,1,0-.7-.289A.993.993,0,0,0,114.658,45.973Zm0,0" transform="translate(-102.461 -39.66)"/>
  <path id="Trazado_890146" data-name="Trazado 890146" d="M168.314,45.973a.987.987,0,1,0-.7-.289A1,1,0,0,0,168.314,45.973Zm0,0" transform="translate(-150.825 -39.66)"/>
  <path id="Trazado_890147" data-name="Trazado 890147" d="M243.486,45.973h13.955a.986.986,0,0,0,0-1.973H243.486a.986.986,0,1,0,0,1.973Zm0,0" transform="translate(-218.583 -39.66)"/>
  <path id="Trazado_890148" data-name="Trazado 890148" d="M119.023,149.512a13.512,13.512,0,1,0-13.512,13.512A13.527,13.527,0,0,0,119.023,149.512Zm-25.051,0a11.539,11.539,0,1,1,11.539,11.539A11.552,11.552,0,0,1,93.973,149.512Zm0,0" transform="translate(-82.926 -122.587)"/>
  <path id="Trazado_890149" data-name="Trazado 890149" d="M152.445,196.445a.986.986,0,0,0,0-1.395l-2.79-2.79a.986.986,0,0,0-1.395,0,3.164,3.164,0,1,1,0-4.477.986.986,0,0,0,1.395,0l2.79-2.79a.987.987,0,0,0,0-1.395,9.08,9.08,0,1,0,0,12.846Zm-11.451-11.451a7.123,7.123,0,0,1,9.311-.649l-1.413,1.413a5.137,5.137,0,1,0,0,8.528L150.3,195.7a7.112,7.112,0,0,1-9.311-10.706Zm0,0" transform="translate(-123.436 -163.097)"/>
  <path id="Trazado_890150" data-name="Trazado 890150" d="M219.986,438a.987.987,0,1,0,.7.289A.994.994,0,0,0,219.986,438Zm0,0" transform="translate(-197.401 -394.802)"/>
</svg>
