<svg xmlns="http://www.w3.org/2000/svg" xmlns:xlink="http://www.w3.org/1999/xlink" width="400" height="286" viewBox="0 0 400 286">
  <defs>
    <clipPath id="clip-path">
      <rect id="person-front-computer-working-html_1_" data-name="person-front-computer-working-html (1)" width="400" height="286" rx="15" transform="translate(0)" fill="#f0c518" opacity="0.84"/>
    </clipPath>
    <clipPath id="clip-path-2">
      <rect id="Rectángulo_403681" data-name="Rectángulo 403681" width="51" height="111" fill="#fff" stroke="#707070" stroke-width="1"/>
    </clipPath>
    <filter id="Trazado_884406" x="340.209" y="17.855" width="128.488" height="128.488" filterUnits="userSpaceOnUse">
      <feOffset dy="1" input="SourceAlpha"/>
      <feGaussianBlur stdDeviation="5.5" result="blur"/>
      <feFlood flood-color="#fff" flood-opacity="0.902"/>
      <feComposite operator="in" in2="blur"/>
      <feComposite in="SourceGraphic"/>
    </filter>
    <clipPath id="clip-path-3">
      <rect id="Rectángulo_404981" data-name="Rectángulo 404981" width="300" height="255" rx="15" fill="#d6e1fd"/>
    </clipPath>
    <clipPath id="clip-path-4">
      <rect id="Rectángulo_404972" data-name="Rectángulo 404972" width="113" height="248" fill="#f2f6ff" opacity="0.4"/>
    </clipPath>
    <filter id="Elipse_11874" x="173.878" y="62.891" width="297.58" height="297.58" filterUnits="userSpaceOnUse">
      <feOffset dx="9.39" dy="9.39" input="SourceAlpha"/>
      <feGaussianBlur stdDeviation="25.04" result="blur-2"/>
      <feFlood flood-opacity="0.078"/>
      <feComposite operator="in" in2="blur-2"/>
      <feComposite in="SourceGraphic"/>
    </filter>
    <filter id="Trazado_889968" x="298.5" y="224.457" width="76" height="76" filterUnits="userSpaceOnUse">
      <feOffset dy="1" input="SourceAlpha"/>
      <feGaussianBlur stdDeviation="5.5" result="blur-3"/>
      <feFlood flood-color="#fff" flood-opacity="0.902"/>
      <feComposite operator="in" in2="blur-3"/>
      <feComposite in="SourceGraphic"/>
    </filter>
    <filter id="Trazado_884511" x="-1.012" y="1.673" width="76" height="76" filterUnits="userSpaceOnUse">
      <feOffset dy="1" input="SourceAlpha"/>
      <feGaussianBlur stdDeviation="5.5" result="blur-4"/>
      <feFlood flood-color="#fff" flood-opacity="0.902"/>
      <feComposite operator="in" in2="blur-4"/>
      <feComposite in="SourceGraphic"/>
    </filter>
    <linearGradient id="linear-gradient" x1="0.65" y1="0.433" x2="0.065" y2="0.848" gradientUnits="objectBoundingBox">
      <stop offset="0" stop-color="#f0c518"/>
      <stop offset="0.371" stop-color="#d1ae1f"/>
      <stop offset="1" stop-color="#78630c"/>
    </linearGradient>
  </defs>
  <g id="Enmascarar_grupo_1098791" data-name="Enmascarar grupo 1098791" clip-path="url(#clip-path)">
    <g id="Grupo_1102804" data-name="Grupo 1102804" transform="translate(1)">
      <g id="Grupo_1102288" data-name="Grupo 1102288" transform="translate(0)">
        <g id="Grupo_1102287" data-name="Grupo 1102287" transform="translate(0 0)">
          <g id="Grupo_1102286" data-name="Grupo 1102286">
            <rect id="Rectángulo_403424" data-name="Rectángulo 403424" width="371.899" height="267" rx="15" transform="translate(0 19)" fill="#8722e2"/>
            <rect id="person-front-computer-working-html_1_2" data-name="person-front-computer-working-html (1)" width="371.899" height="267" rx="15" transform="translate(19)" fill="#3a1d71"/>
          </g>
        </g>
      </g>
      <g id="Enmascarar_grupo_1098739" data-name="Enmascarar grupo 1098739" transform="translate(348 26)" clip-path="url(#clip-path-2)">
        <g transform="matrix(1, 0, 0, 1, -349, -26)" filter="url(#Trazado_884406)">
          <g id="Trazado_884406-2" data-name="Trazado 884406" transform="translate(356.71 33.36)" fill="none">
            <path d="M47.744,0A47.744,47.744,0,1,0,95.488,47.744,47.744,47.744,0,0,0,47.744,0Z" stroke="none"/>
            <path d="M 47.74413681030273 17.99999237060547 C 31.34316253662109 17.99999237060547 17.99999237060547 31.34316253662109 17.99999237060547 47.74413681030273 C 17.99999237060547 64.14511108398438 31.34316253662109 77.48828125 47.74413681030273 77.48828125 C 64.14511108398438 77.48828125 77.48828125 64.14511108398438 77.48828125 47.74413681030273 C 77.48828125 31.34316253662109 64.14511108398438 17.99999237060547 47.74413681030273 17.99999237060547 M 47.74413681030273 -7.62939453125e-06 C 74.11248779296875 -7.62939453125e-06 95.48828125 21.37578582763672 95.48828125 47.74413681030273 C 95.48828125 74.11248779296875 74.11248779296875 95.48828125 47.74413681030273 95.48828125 C 21.37578582763672 95.48828125 -7.62939453125e-06 74.11248779296875 -7.62939453125e-06 47.74413681030273 C -7.62939453125e-06 21.37578582763672 21.37578582763672 -7.62939453125e-06 47.74413681030273 -7.62939453125e-06 Z" stroke="none" fill="#f0c518"/>
          </g>
        </g>
      </g>
    </g>
    <path id="Trazado_884510" data-name="Trazado 884510" d="M77.8,25.682m-2.68-10.2a5.154,5.154,0,1,0,1.51,3.646,5.144,5.144,0,0,0-1.51-3.646M74,10.371a9.012,9.012,0,0,1,2.02.86A9.114,9.114,0,0,1,77.8,12.567a.313.313,0,0,0,.376.047l2.4-1.383.012-.009a.6.6,0,0,1,.8.225l.011.016,1.685,2.919a.6.6,0,0,1-.219.812l-.015.01-2.375,1.371a.317.317,0,0,0-.15.348,8.911,8.911,0,0,1,.2,1.09,9.272,9.272,0,0,1,0,2.221,8.883,8.883,0,0,1-.2,1.089.32.32,0,0,0,.169.359l2.374,1.37h0a.594.594,0,0,1,.219.811L81.378,26.8h0a.583.583,0,0,1-.359.276.6.6,0,0,1-.45-.057l-.018-.01L78.17,25.636a.316.316,0,0,0-.375.046,9.12,9.12,0,0,1-3.808,2.2.318.318,0,0,0-.231.3V30.95a.593.593,0,0,1-.591.593H69.775a.6.6,0,0,1-.593-.593V28.186a.318.318,0,0,0-.243-.308,9.064,9.064,0,0,1-2.021-.86,9.2,9.2,0,0,1-1.772-1.336.316.316,0,0,0-.393-.036L62.374,27.02a.6.6,0,0,1-.811-.218l-.01-.016-1.685-2.92h0a.591.591,0,0,1-.057-.449.58.58,0,0,1,.275-.36l2.393-1.383c.124-.07.149-.348.149-.348s-.153-.718-.2-1.089a9.407,9.407,0,0,1,0-2.221,9.7,9.7,0,0,1,.2-1.09.314.314,0,0,0-.166-.359l-2.375-1.371a.581.581,0,0,1-.275-.361.6.6,0,0,1,.057-.451l.01-.016,1.685-2.919h0a.6.6,0,0,1,.811-.218v0l2.394,1.383a.314.314,0,0,0,.383-.053,9.2,9.2,0,0,1,1.766-1.329,9.043,9.043,0,0,1,2.034-.863.318.318,0,0,0,.23-.305V7.3a.6.6,0,0,1,.593-.592h3.391a.593.593,0,0,1,.591.592v2.763a.318.318,0,0,0,.245.308" transform="translate(13.36 150.642)" fill="none" stroke="#fff" stroke-width="1" fill-rule="evenodd" opacity="0.84"/>
    <path id="Trazado_877328" data-name="Trazado 877328" d="M86.139,34.475,82.218,19.544a7.543,7.543,0,1,0,2.209,5.336,7.528,7.528,0,0,0-2.209-5.336m-1.63-7.475a13.189,13.189,0,0,1,2.956,1.259,13.338,13.338,0,0,1,2.6,1.955.459.459,0,0,0,.55.068L90.2,13.327l.018-.013a.873.873,0,0,1,1.165.329l.017.024,2.466,4.271a.873.873,0,0,1-.321,1.189l-.022.015L90.042,21.15a.463.463,0,0,0-.219.509,13.038,13.038,0,0,1,.293,1.6,13.567,13.567,0,0,1,0,3.25,13,13,0,0,1-.294,1.594.468.468,0,0,0,.247.526l3.475,2.005h0a.87.87,0,0,1,.321,1.186l-2.48,4.3h0a.854.854,0,0,1-.525.4.873.873,0,0,1-.659-.084l-.027-.015-3.482-2.009a.462.462,0,0,0-.548.067A13.347,13.347,0,0,1,80.567,37.7a.465.465,0,0,0-.338.444v4.044a.867.867,0,0,1-.865.868H74.4a.874.874,0,0,1-.868-.868V38.14a.465.465,0,0,0-.356-.451,13.265,13.265,0,0,1-2.957-1.259,13.459,13.459,0,0,1-2.593-1.955.463.463,0,0,0-.575-.053l-3.482,2.011a.875.875,0,0,1-1.188-.32l-.015-.024L59.9,31.817h0a.865.865,0,0,1-.084-.657.848.848,0,0,1,.4-.527l3.5-2.023c.181-.1.218-.509.218-.509s-.223-1.051-.292-1.594a13.765,13.765,0,0,1,0-3.25,14.2,14.2,0,0,1,.292-1.6.46.46,0,0,0-.243-.525l-3.476-2.007a.851.851,0,0,1-.4-.529.874.874,0,0,1,.084-.66l.014-.024,2.466-4.271h0a.879.879,0,0,1,1.188-.32v0l3.5,2.023a.459.459,0,0,0,.561-.078,13.457,13.457,0,0,1,2.584-1.945A13.233,13.233,0,0,1,73.2,12.064a.465.465,0,0,0,.336-.447V7.574a.874.874,0,0,1,.868-.867h4.962a.867.867,0,0,1,.865.867v4.044a.465.465,0,0,0,.359.451" transform="translate(290.21 17.957)" fill="#fff" fill-rule="evenodd" opacity="0.84"/>
    <g id="Enmascarar_grupo_1098790" data-name="Enmascarar grupo 1098790" transform="translate(43 11)" clip-path="url(#clip-path-3)">
      <rect id="Rectángulo_404971" data-name="Rectángulo 404971" width="283" height="255" rx="15" transform="translate(9)" fill="#d6e1fd"/>
      <g id="Enmascarar_grupo_1098789" data-name="Enmascarar grupo 1098789" transform="translate(157 79.001)" clip-path="url(#clip-path-4)">
        <g transform="matrix(1, 0, 0, 1, -200, -90)" filter="url(#Elipse_11874)">
          <circle id="Elipse_11874-2" data-name="Elipse 11874" cx="73.67" cy="73.67" r="73.67" transform="translate(239.61 128.62)" fill="#f2f6ff"/>
        </g>
      </g>
      <g id="Grupo_1105330" data-name="Grupo 1105330" transform="translate(24.48 8.399)">
        <g id="Grupo_1105320" data-name="Grupo 1105320" transform="translate(0 66.982)">
          <g id="Grupo_1105319" data-name="Grupo 1105319" transform="translate(3.573)" opacity="0.41">
            <path id="Trazado_889871" data-name="Trazado 889871" d="M162.483,311.472a83.157,83.157,0,0,1,37.862-74.081,17.574,17.574,0,0,0,7.887-12.835c.032-.286.064-.572.1-.85,4.329-34.717,36.782-59.109,71.34-54.407,33.057,4.5,56.861,21.969,53.342,55.606-.016.159-.032.389-.056.683a16.068,16.068,0,0,0,15.742,17.092c1.922.048,3.852.167,5.8.373a71.909,71.909,0,0,1,40.912,124.532H189.829C174.2,352.631,163.4,331.885,162.483,311.472Z" transform="translate(-162.394 -168.719)" fill="#c5d9ff"/>
          </g>
          <circle id="Elipse_11875" data-name="Elipse 11875" cx="11.755" cy="11.755" r="11.755" transform="translate(220.748 35.297)" fill="#c5d9ff" opacity="0.31"/>
          <circle id="Elipse_11876" data-name="Elipse 11876" cx="7.466" cy="7.466" r="7.466" transform="translate(25.805 6.617)" fill="#c5d9ff" opacity="0.31"/>
          <path id="Trazado_889872" data-name="Trazado 889872" d="M470.88,232.513a5.083,5.083,0,1,0,5.083-5.083A5.083,5.083,0,0,0,470.88,232.513Z" transform="translate(-466.123 -180.799)" fill="#c5d9ff" opacity="0.31"/>
          <path id="Trazado_889873" data-name="Trazado 889873" d="M186.216,327.3a70.922,70.922,0,0,1,32.295-63.183,15,15,0,0,0,6.727-10.945c.024-.238.056-.484.087-.731,3.693-29.61,31.365-50.412,60.84-46.4,28.2,3.836,48.49,18.737,45.5,47.425-.016.135-.032.334-.048.58a13.7,13.7,0,0,0,13.423,14.575q2.454.06,4.948.318a61.322,61.322,0,0,1,34.892,106.2H209.536c-13.328-12.756-22.541-30.452-23.319-47.854Z" transform="translate(-163.707 -176.296)" fill="#c5d9ff"/>
          <path id="Trazado_889874" data-name="Trazado 889874" d="M171.719,419.618H414.58a.7.7,0,1,0,0-1.4H171.719a.7.7,0,1,0,0,1.4Z" transform="translate(-171.02 -282.882)" fill="#243762"/>
        </g>
        <g id="Grupo_1105326" data-name="Grupo 1105326" transform="translate(16.093 0)">
          <g id="Grupo_1105321" data-name="Grupo 1105321" transform="translate(135.481)">
            <path id="Trazado_889875" data-name="Trazado 889875" d="M466.009,302.118v-5.059c0-1.477-1.557-2.669-3.479-2.669H387.219c-1.922,0-3.479,1.2-3.479,2.669v50.007c0,1.477,1.557,2.669,3.479,2.669h75.312c1.922,0,3.479-1.2,3.479-2.669v-8.03" transform="translate(-383.74 -294.39)" fill="#fff" stroke="#243762" stroke-miterlimit="10" stroke-width="1"/>
            <path id="Trazado_889876" data-name="Trazado 889876" d="M466.009,304.922v-7.863c0-1.477-1.557-2.669-3.479-2.669H387.219c-1.922,0-3.479,1.2-3.479,2.669v7.522" transform="translate(-383.74 -294.39)" fill="#c5d9ff" stroke="#243762" stroke-miterlimit="10" stroke-width="1"/>
            <path id="Trazado_889877" data-name="Trazado 889877" d="M383.74,307.22h0Z" transform="translate(-383.248 -297.03)" fill="#f7a9b4" stroke="#243762" stroke-miterlimit="10" stroke-width="1"/>
            <circle id="Elipse_11877" data-name="Elipse 11877" cx="1.295" cy="1.295" r="1.295" transform="translate(75.034 4.257)" fill="none" stroke="#fff" stroke-miterlimit="10" stroke-width="1"/>
            <path id="Trazado_889878" data-name="Trazado 889878" d="M395.7,301.045a1.295,1.295,0,1,0,1.295-1.295A1.295,1.295,0,0,0,395.7,301.045Z" transform="translate(-325.519 -295.493)" fill="none" stroke="#fff" stroke-miterlimit="10" stroke-width="1"/>
            <path id="Trazado_889879" data-name="Trazado 889879" d="M401.69,301.045a1.295,1.295,0,1,0,1.295-1.295A1.295,1.295,0,0,0,401.69,301.045Z" transform="translate(-336.267 -295.493)" fill="none" stroke="#fff" stroke-miterlimit="10" stroke-width="1"/>
            <path id="Trazado_889880" data-name="Trazado 889880" d="M406.025,331.264V318.04A13.224,13.224,0,1,1,392.8,331.264Z" transform="translate(-344.175 -299.256)" fill="#af9cda"/>
            <path id="Trazado_889881" data-name="Trazado 889881" d="M411.29,329.924a11.293,11.293,0,0,1,11.294-11.294v11.294Z" transform="translate(-362.197 -299.377)" fill="#f7a9b4"/>
            <line id="Línea_963" data-name="Línea 963" x1="28.037" transform="translate(12.502 24.106)" fill="#f7a9b4" stroke="#243762" stroke-linecap="round" stroke-miterlimit="10" stroke-width="1"/>
            <line id="Línea_964" data-name="Línea 964" x1="14.019" transform="translate(26.52 36.997)" fill="#f7a9b4" stroke="#243762" stroke-linecap="round" stroke-miterlimit="10" stroke-width="1"/>
            <line id="Línea_965" data-name="Línea 965" x1="10.468" transform="translate(30.071 30.65)" fill="#f7a9b4" stroke="#243762" stroke-linecap="round" stroke-miterlimit="10" stroke-width="1"/>
            <line id="Línea_966" data-name="Línea 966" x1="10.468" transform="translate(12.502 30.65)" fill="#f7a9b4" stroke="#243762" stroke-linecap="round" stroke-miterlimit="10" stroke-width="1"/>
          </g>
          <g id="Grupo_1105323" data-name="Grupo 1105323" transform="translate(49.025 11.968)">
            <path id="Trazado_889882" data-name="Trazado 889882" d="M299.715,247.773h64a2.947,2.947,0,0,0,2.955-2.947V189.7a2.952,2.952,0,0,0-2.955-2.947h-64a2.947,2.947,0,0,0-2.955,2.947v55.13A2.952,2.952,0,0,0,299.715,247.773Z" transform="translate(-296.76 -186.75)" fill="#fff"/>
            <path id="Trazado_889883" data-name="Trazado 889883" d="M299.715,247.773h64a2.947,2.947,0,0,0,2.955-2.947V189.7a2.952,2.952,0,0,0-2.955-2.947h-64a2.947,2.947,0,0,0-2.955,2.947v55.13A2.952,2.952,0,0,0,299.715,247.773Z" transform="translate(-296.76 -186.75)" fill="#ecf1f7" opacity="0.36"/>
            <path id="Trazado_889884" data-name="Trazado 889884" d="M366.661,195.7v-6.68c0-1.255-1.326-2.272-2.955-2.272h-64c-1.636,0-2.955,1.017-2.955,2.272v6.386" transform="translate(-296.742 -186.75)" fill="#af9cda" stroke="#243762" stroke-miterlimit="10" stroke-width="1"/>
            <path id="Trazado_889885" data-name="Trazado 889885" d="M296.75,197.66h0Z" transform="translate(-296.329 -188.995)" fill="#f7a9b4" stroke="#243762" stroke-miterlimit="10" stroke-width="1"/>
            <path id="Trazado_889886" data-name="Trazado 889886" d="M301.73,192.406a1.1,1.1,0,1,0,1.1-1.1A1.1,1.1,0,0,0,301.73,192.406Z" transform="translate(-237.959 -187.688)" fill="none" stroke="#fff" stroke-miterlimit="10" stroke-width="1"/>
            <path id="Trazado_889887" data-name="Trazado 889887" d="M306.92,192.406a1.1,1.1,0,1,0,1.1-1.1A1.1,1.1,0,0,0,306.92,192.406Z" transform="translate(-247.271 -187.688)" fill="none" stroke="#fff" stroke-miterlimit="10" stroke-width="1"/>
            <path id="Trazado_889888" data-name="Trazado 889888" d="M312.02,192.406a1.1,1.1,0,1,0,1.1-1.1A1.1,1.1,0,0,0,312.02,192.406Z" transform="translate(-256.422 -187.688)" fill="none" stroke="#fff" stroke-miterlimit="10" stroke-width="1"/>
            <g id="Grupo_1105322" data-name="Grupo 1105322" transform="translate(3.153 13.185)" opacity="0.31">
              <rect id="Rectángulo_404973" data-name="Rectángulo 404973" width="63.604" height="43.676" rx="3.02" fill="none" stroke="#243762" stroke-miterlimit="10" stroke-width="1"/>
              <path id="Trazado_889889" data-name="Trazado 889889" d="M316.23,241.474h40.213V216.24H316.23Z" transform="translate(-305.15 -206.002)" fill="none" stroke="#243762" stroke-miterlimit="10" stroke-width="1"/>
              <line id="Línea_967" data-name="Línea 967" y1="24.829" x2="39.284" transform="translate(12.009 10.238)" fill="none" stroke="#243762" stroke-miterlimit="10" stroke-width="1"/>
              <line id="Línea_968" data-name="Línea 968" x1="40.213" y1="25.234" transform="translate(11.08 10.238)" fill="none" stroke="#243762" stroke-miterlimit="10" stroke-width="1"/>
            </g>
          </g>
          <g id="Grupo_1105324" data-name="Grupo 1105324" transform="translate(184.652 214.414)">
            <path id="Trazado_889890" data-name="Trazado 889890" d="M439.828,257.981a9.636,9.636,0,0,0-7.947-9.482l.372-2.209a11.858,11.858,0,0,1,9.709,13.668l-2.279-.384A9.608,9.608,0,0,0,439.828,257.981Z" transform="translate(-418.42 -246.122)" fill="#af9cda"/>
            <path id="Trazado_889891" data-name="Trazado 889891" d="M472.378,265.4a11.56,11.56,0,0,1,.163-2.4h0A11.976,11.976,0,0,0,472.378,265.4Z" transform="translate(-472.37 -253.117)" fill="#fff"/>
            <path id="Trazado_889892" data-name="Trazado 889892" d="M434.055,277.19a9.632,9.632,0,0,0,9.494-8.04l2.279.384a11.857,11.857,0,0,1-13.668,9.709l.372-2.18a9.45,9.45,0,0,0,1.523.134Z" transform="translate(-422.281 -255.692)" fill="#fff"/>
            <path id="Trazado_889893" data-name="Trazado 889893" d="M449.03,255.878h0a11.857,11.857,0,0,1,13.668-9.709l-.372,2.209a9.537,9.537,0,0,0-1.692-.157,9.633,9.633,0,0,0-1.529,19.144l-.372,2.18a11.835,11.835,0,0,1-9.866-11.267,11.564,11.564,0,0,1,.163-2.4Z" transform="translate(-448.86 -246.001)" fill="#f7a9b4"/>
          </g>
          <g id="Grupo_1105325" data-name="Grupo 1105325" transform="translate(0 212.509)">
            <path id="Trazado_889894" data-name="Trazado 889894" d="M444.544,367.5l-16.56,17.08L409.772,367.5,388.42,384.06" transform="translate(-383.882 -362.968)" fill="none" stroke="#243762" stroke-linecap="round" stroke-miterlimit="10" stroke-width="1"/>
            <path id="Trazado_889895" data-name="Trazado 889895" d="M381.46,365.062a4.532,4.532,0,1,0,4.532-4.532A4.531,4.531,0,0,0,381.46,365.062Z" transform="translate(-325.336 -360.53)" fill="#f7a9b4"/>
            <path id="Trazado_889896" data-name="Trazado 889896" d="M434.93,365.062a4.532,4.532,0,1,0,4.532-4.532A4.531,4.531,0,0,0,434.93,365.062Z" transform="translate(-413.571 -360.53)" fill="#f7a9b4"/>
            <path id="Trazado_889897" data-name="Trazado 889897" d="M406.93,390.532A4.532,4.532,0,1,0,411.462,386,4.531,4.531,0,0,0,406.93,390.532Z" transform="translate(-367.366 -369.44)" fill="#af9cda"/>
            <path id="Trazado_889898" data-name="Trazado 889898" d="M467.78,390.532A4.532,4.532,0,1,0,472.312,386,4.531,4.531,0,0,0,467.78,390.532Z" transform="translate(-467.78 -369.44)" fill="#af9cda"/>
          </g>
        </g>
        <g id="Grupo_1105329" data-name="Grupo 1105329" transform="translate(14.906 6.097)">
          <g id="Grupo_1105328" data-name="Grupo 1105328" transform="translate(0 0)">
            <g id="Grupo_1105327" data-name="Grupo 1105327">
              <path id="Trazado_889899" data-name="Trazado 889899" d="M341.075,269.6h64c1.636,0,2.955-1.017,2.955-2.272v-42.5c0-1.255-1.326-2.272-2.955-2.272h-64c-1.636,0-2.955,1.017-2.955,2.272v42.5C338.12,268.587,339.446,269.6,341.075,269.6Z" transform="translate(-338.12 -222.56)" fill="#fff"/>
              <rect id="Rectángulo_404974" data-name="Rectángulo 404974" width="17.879" height="21.477" transform="translate(43.168 16.044)" fill="none" stroke="#243762" stroke-miterlimit="10" stroke-width="1"/>
              <line id="Línea_969" data-name="Línea 969" x1="17.879" y2="21.477" transform="translate(43.168 16.044)" fill="none" stroke="#243762" stroke-miterlimit="10" stroke-width="1"/>
              <line id="Línea_970" data-name="Línea 970" x2="17.879" y2="21.477" transform="translate(43.168 16.044)" fill="none" stroke="#243762" stroke-miterlimit="10" stroke-width="1"/>
              <path id="Trazado_889900" data-name="Trazado 889900" d="M408.021,231.511v-6.68c0-1.255-1.326-2.272-2.955-2.272h-64c-1.636,0-2.955,1.017-2.955,2.272v6.386" transform="translate(-338.102 -222.56)" fill="#f9d9eb" stroke="#243762" stroke-miterlimit="10" stroke-width="1"/>
              <path id="Trazado_889901" data-name="Trazado 889901" d="M338.11,233.47h0Z" transform="translate(-337.689 -224.805)" fill="#f7a9b4" stroke="#243762" stroke-miterlimit="10" stroke-width="1"/>
              <path id="Trazado_889902" data-name="Trazado 889902" d="M343.09,228.216a1.1,1.1,0,1,0,1.1-1.1A1.1,1.1,0,0,0,343.09,228.216Z" transform="translate(-279.319 -223.498)" fill="none" stroke="#243762" stroke-miterlimit="10" stroke-width="1"/>
              <path id="Trazado_889903" data-name="Trazado 889903" d="M348.28,228.216a1.1,1.1,0,1,0,1.1-1.1A1.1,1.1,0,0,0,348.28,228.216Z" transform="translate(-288.631 -223.498)" fill="none" stroke="#243762" stroke-miterlimit="10" stroke-width="1"/>
              <path id="Trazado_889904" data-name="Trazado 889904" d="M353.38,228.216a1.1,1.1,0,1,0,1.1-1.1A1.1,1.1,0,0,0,353.38,228.216Z" transform="translate(-297.782 -223.498)" fill="none" stroke="#243762" stroke-miterlimit="10" stroke-width="1"/>
              <line id="Línea_971" data-name="Línea 971" x1="28.037" transform="translate(9.436 20.405)" fill="#f7a9b4" stroke="#243762" stroke-linecap="round" stroke-miterlimit="10" stroke-width="1"/>
              <line id="Línea_972" data-name="Línea 972" x1="14.019" transform="translate(23.455 33.295)" fill="#f7a9b4" stroke="#243762" stroke-linecap="round" stroke-miterlimit="10" stroke-width="1"/>
              <line id="Línea_973" data-name="Línea 973" x1="10.468" transform="translate(27.005 26.949)" fill="#f7a9b4" stroke="#243762" stroke-linecap="round" stroke-miterlimit="10" stroke-width="1"/>
              <line id="Línea_974" data-name="Línea 974" x1="10.468" transform="translate(9.436 26.949)" fill="#f7a9b4" stroke="#243762" stroke-linecap="round" stroke-miterlimit="10" stroke-width="1"/>
            </g>
          </g>
        </g>
      </g>
      <g id="Grupo_1105338" data-name="Grupo 1105338" transform="translate(19.899 37.408)">
        <path id="Trazado_889905" data-name="Trazado 889905" d="M93.67,0H0V65.075H93.67Z" transform="translate(0 38.683)" fill="#ebf5fc" stroke="#333" stroke-width="0.5"/>
        <rect id="Rectángulo_404975" data-name="Rectángulo 404975" width="93.601" height="7.616" transform="translate(0 36.589)" fill="#acd8fc" stroke="#333" stroke-width="1"/>
        <g id="Grupo_1105336" data-name="Grupo 1105336" transform="translate(6.611 0)">
          <g id="Grupo_1105335" data-name="Grupo 1105335" transform="translate(0 0)">
            <line id="Línea_975" data-name="Línea 975" x1="20.914" transform="translate(125.243 37.311)" fill="#fff"/>
            <line id="Línea_976" data-name="Línea 976" x2="27.144" transform="translate(119.31 41.761)" fill="#fff"/>
            <line id="Línea_977" data-name="Línea 977" x1="20.617" transform="translate(83.118 71.871)" fill="#fff"/>
            <line id="Línea_978" data-name="Línea 978" x2="26.995" transform="translate(77.333 76.469)" fill="#fff"/>
            <line id="Línea_979" data-name="Línea 979" y2="6.526" transform="translate(86.233 51.698)" fill="#fff"/>
            <line id="Línea_980" data-name="Línea 980" x2="6.081" transform="translate(83.118 54.665)" fill="#fff"/>
            <path id="Trazado_889906" data-name="Trazado 889906" d="M752.5,1177.632a65.584,65.584,0,0,0,21.387-4.023.912.912,0,0,0-.664-1.7c-.178.069-18,6.906-31.69,2.254-3.117-1.06-4.911-2.367-5.33-3.885-.686-2.483,2.133-5.8,4.859-9.012a30.381,30.381,0,0,0,4.7-6.564c1.777-4.039,1.982-7.584.608-10.535-1.6-3.43-5.334-6.026-11.108-7.716a.913.913,0,0,0-.513,1.752c5.248,1.536,8.6,3.8,9.966,6.735,1.143,2.454.933,5.492-.624,9.03a29.276,29.276,0,0,1-4.418,6.117c-3.033,3.572-6.17,7.266-5.227,10.679.6,2.167,2.725,3.844,6.5,5.127a36.019,36.019,0,0,0,11.554,1.742" transform="translate(-625.438 -967.853)" fill="#333"/>
            <path id="Trazado_889907" data-name="Trazado 889907" d="M495.2,1203.292c-7.37,3.685-18.992,20.126-14.173,26.362s36.851-7.087,38.835-9.071,2.551-13.89-1.984-15.874-22.677-1.417-22.677-1.417" transform="translate(-334.615 -1024.75)" fill="#333"/>
            <path id="Trazado_889908" data-name="Trazado 889908" d="M76.394,385.045c13.748.992,29.339,2.409,36.992,11.48s10.772,29.48,14.74,37.984,3.779,13.606,3.779,13.606-9.853,15.874-34.772,8.22v19.754H21.827l4.819-36.239S11.622,436.613,0,429.81c0,0,12.473-16.5,14.74-22.454s11.906-21.573,35.433-22.282,26.221-.03,26.221-.03" transform="translate(126.004 -327.684)" fill="#333"/>
            <path id="Trazado_889909" data-name="Trazado 889909" d="M359.1,27.1a18.846,18.846,0,0,1,3.177,4.745c1.536,3.714.9,8.438,3.714,11.3a82.531,82.531,0,0,0,5.868-9.791,33.692,33.692,0,0,0,2.124-4.529,34.977,34.977,0,0,0,1.5-8.063,20.291,20.291,0,0,0,.146-4.4,14.075,14.075,0,0,0-1.236-4.177A23.124,23.124,0,0,0,362.512.537a1.682,1.682,0,0,0-1.629-.074,1.612,1.612,0,0,0-.445,1.38,11.062,11.062,0,0,0,.811,3.861A30.281,30.281,0,0,0,341.07.112c-1.536.133-3.335.6-3.86,2.047-.618,1.709.973,3.354,2.4,4.48-2.349.717-5.175-.7-7.223.653a3.966,3.966,0,0,0-1.416,4.168,7.808,7.808,0,0,0,2.529,3.858,15.66,15.66,0,0,0,6.967,3.659c3.688.857,7.674.37,11.178,1.8,3.046,1.247,5.345,3.791,7.458,6.314" transform="translate(-166.869 -0.004)" fill="#333"/>
            <path id="Trazado_889910" data-name="Trazado 889910" d="M577.012,198.566s-1.524-2.551-3.454-1.512-1.016,7.748,3.759,8.126-.3-6.614-.3-6.614" transform="translate(-406.385 -167.614)" fill="#fff"/>
            <path id="Trazado_889911" data-name="Trazado 889911" d="M572.467,200.868a2.381,2.381,0,0,0,2.348-1.2c1.033-2.027-1.43-5.712-2.249-6.845-.218-.353-1.432-2.167-3.275-2.167a2.874,2.874,0,0,0-1.372.358c-1.393.75-1.639,2.876-1.266,4.652.493,2.34,2.166,4.932,5.386,5.187.151.012.294.018.428.018m-3.176-8.39c.785,0,1.565,1.039,1.732,1.316a.79.79,0,0,0,.045.068c1.294,1.783,2.483,4.265,2.121,4.975-.095.186-.536.206-.722.206-.089,0-.185,0-.285-.012a4.355,4.355,0,0,1-3.744-3.744c-.3-1.436.012-2.49.345-2.669a1.057,1.057,0,0,1,.507-.14" transform="translate(-401.178 -162.375)" fill="#333"/>
            <path id="Trazado_889912" data-name="Trazado 889912" d="M341.91,117.752l.062,3.634-4.535.85s1.984,6.661,10.63,6.52,15.591-6.52,15.591-6.52l-2.835-.567.048-17.527s3.725,2.132,7.37-1.891c2.738-3.025,2.6-8.6-1.8-8.881s-4.771,2.786-6.188,2.928.142-11.764-.567-14.74-3.685-5.386-8.221-5.386-18,3.614-18,3.614c-1.984,2.41-7.087,34.087,8.362,33.236Z" transform="translate(-161.259 -64.875)" fill="#fff"/>
            <path id="Trazado_889913" data-name="Trazado 889913" d="M342.6,124.432l.286,0c8.89-.146,15.9-6.49,16.193-6.76a.912.912,0,0,0-.438-1.566l-2.1-.42.043-15.482a6.618,6.618,0,0,0,1.531.179,7.479,7.479,0,0,0,5.606-2.755,7.661,7.661,0,0,0,1.646-7.576,4.454,4.454,0,0,0-4.061-2.828,6.174,6.174,0,0,0-5.617,2.288c-.084.091-.175.19-.265.283a57.6,57.6,0,0,1,.049-6.236,37.326,37.326,0,0,0-.094-7.447c-.88-3.7-4.456-6.087-9.108-6.087-4.6,0-17.682,3.5-18.237,3.645a.915.915,0,0,0-.468.3c-1.63,1.979-4.838,19.267-.375,28.725,1.838,3.9,4.712,5.919,8.545,6.017l.113,6.682-3.778.708a.912.912,0,0,0-.706,1.157c.021.072,2.242,7.174,11.234,7.174m13.764-6.923c-2.431,1.793-7.592,5-13.508,5.1l-.256,0c-5.773,0-8.208-3.255-9.076-4.922l3.421-.642a.912.912,0,0,0,.744-.912l-.142-8.362a.912.912,0,0,0-.962-.9c-3.562.2-6.067-1.421-7.734-4.944-4.015-8.483-1.242-24.2-.006-26.589,2.1-.553,13.455-3.494,17.429-3.494,3.777,0,6.655,1.839,7.333,4.685a39.52,39.52,0,0,1,.046,6.952c-.212,5.267-.22,7.333.539,8.123a1.165,1.165,0,0,0,.845.368c.03,0,.085,0,.115-.006a3.038,3.038,0,0,0,1.882-1.223,4.461,4.461,0,0,1,4.156-1.7,2.646,2.646,0,0,1,2.487,1.693,5.842,5.842,0,0,1-1.308,5.665,5.728,5.728,0,0,1-4.253,2.155,4.508,4.508,0,0,1-1.993-.447.915.915,0,0,0-1.36.792l-.048,17.526a.913.913,0,0,0,.733.9Z" transform="translate(-156.061 -59.636)" fill="#333"/>
            <path id="Trazado_889914" data-name="Trazado 889914" d="M558.215,179.593a1.139,1.139,0,1,0-1.11,1.394,1.276,1.276,0,0,0,1.11-1.394" transform="translate(-382.772 -151.768)" fill="#333"/>
            <path id="Trazado_889915" data-name="Trazado 889915" d="M536.634,173.731a.912.912,0,0,0,.6-1.6c-2.055-1.778-3.9-2.534-5.487-2.251a3.279,3.279,0,0,0-2.259,1.528.912.912,0,0,0,1.592.892,1.5,1.5,0,0,1,1.024-.63c.7-.108,1.946.118,3.937,1.84a.91.91,0,0,0,.6.222" transform="translate(-358.155 -144.632)" fill="#333"/>
            <path id="Trazado_889916" data-name="Trazado 889916" d="M464.313,185.117a1.139,1.139,0,1,0-1.11,1.394,1.277,1.277,0,0,0,1.11-1.394" transform="translate(-274.942 -156.473)" fill="#333"/>
            <path id="Trazado_889917" data-name="Trazado 889917" d="M442.731,179.253a.912.912,0,0,0,.6-1.6c-2.055-1.778-3.9-2.535-5.487-2.251a3.279,3.279,0,0,0-2.259,1.528.912.912,0,0,0,1.592.892,1.5,1.5,0,0,1,1.023-.63c.7-.113,1.947.119,3.937,1.84a.91.91,0,0,0,.6.222" transform="translate(-250.324 -149.334)" fill="#333"/>
            <path id="Trazado_889918" data-name="Trazado 889918" d="M510.564,189.729a.907.907,0,0,0,.353-.072c2.964-1.245,2.51-5.269,2.489-5.439a.912.912,0,0,0-1.812.218c0,.028.307,2.829-1.384,3.54a.913.913,0,0,0,.354,1.754" transform="translate(-331.126 -156.211)" fill="#333"/>
            <path id="Trazado_889919" data-name="Trazado 889919" d="M472.364,235.7a7.4,7.4,0,0,0,6.883-3.856.912.912,0,0,0-1.663-.75c-.069.149-1.637,3.378-6.506,2.687a.912.912,0,0,0-.256,1.807,10.989,10.989,0,0,0,1.543.112" transform="translate(-291.134 -196.36)" fill="#333"/>
            <path id="Trazado_889920" data-name="Trazado 889920" d="M466.646,228.971a.912.912,0,0,0,.563-1.63l-1.748-1.37a.912.912,0,1,0-1.125,1.436l1.748,1.37a.906.906,0,0,0,.562.194" transform="translate(-278.469 -192.288)" fill="#333"/>
            <path id="Trazado_889921" data-name="Trazado 889921" d="M343.224,214.239A.911.911,0,0,0,344,213.8c1.9-3.113,3.136-3.4,3.577-3.387.712.03,1.155.854,1.159.863a.912.912,0,0,0,1.632-.816,3.388,3.388,0,0,0-2.713-1.869c-1.709-.078-3.416,1.32-5.212,4.258a.912.912,0,0,0,.778,1.388" transform="translate(-143.33 -177.651)" fill="#333"/>
            <path id="Trazado_889922" data-name="Trazado 889922" d="M361.395,220.984a.912.912,0,0,0,.709-1.487l-1.606-1.984a.912.912,0,0,0-1.418,1.148l1.606,1.984a.91.91,0,0,0,.71.338" transform="translate(-157.626 -184.963)" fill="#333"/>
            <path id="Trazado_889923" data-name="Trazado 889923" d="M433.184,288.7l.079,4.728c8.13-1.664,13.008-10.02,13.008-10.02a25.775,25.775,0,0,1-13.088,5.292" transform="translate(-252.612 -241.375)" fill="#333"/>
            <path id="Trazado_889924" data-name="Trazado 889924" d="M460.505,145.718c.726,0,2.336.563,2.067,1.572-.115.43-.615.622-1.056.686a3.415,3.415,0,0,1-2.244-.372,1.508,1.508,0,0,1-.677-.752c-.406-1.155,1.078-1.3,1.821-1.139" transform="translate(-272.702 -124.055)" fill="#333"/>
            <path id="Trazado_889925" data-name="Trazado 889925" d="M540.681,144.868c-.726,0-2.336.563-2.067,1.572.115.43.615.622,1.056.686a3.415,3.415,0,0,0,2.244-.373,1.507,1.507,0,0,0,.677-.751c.406-1.155-1.078-1.3-1.821-1.139" transform="translate(-364.634 -123.331)" fill="#333"/>
            <path id="Trazado_889926" data-name="Trazado 889926" d="M402.76,61.294a43.768,43.768,0,0,1-5.174,2.575,31.53,31.53,0,0,0,9.13,2.015c-.9,1.17-3.307.538-3.793,1.933a1.516,1.516,0,0,0,.574,1.6,3.814,3.814,0,0,0,1.672.656c6.537,1.31,13.179-1.131,19.4-3.531a14.833,14.833,0,0,1-.624,2.137,2.453,2.453,0,0,0,.219,2.139c.69.9,2.151.737,3.054.057a4.662,4.662,0,0,0,1.456-4.888,7.58,7.58,0,0,0-3.276-4.163c-3.349-2.207-7.591-2.442-11.6-2.406-3.762.033-7.633.271-11.036,1.874" transform="translate(-229.91 -50.604)" fill="#333"/>
            <path id="Trazado_889927" data-name="Trazado 889927" d="M493.077,19.621a1.936,1.936,0,0,0,1.291-.2,1.576,1.576,0,0,0,.126-2.071,3.338,3.338,0,0,0-1.212-1.159c-.52-.289-1.153-.469-1.467-.974-.456-.734.015-1.716-.226-2.546a2.138,2.138,0,0,0-1.282-1.283,9.047,9.047,0,0,0-1.819-.439A5.447,5.447,0,0,0,487,10.777a1.468,1.468,0,0,0-1.227.74,1.544,1.544,0,0,0,.592,1.757,9.747,9.747,0,0,0,1.773.916,2.2,2.2,0,0,1,1.294,1.431,10.98,10.98,0,0,1-.1,1.532,2.385,2.385,0,0,0,1.359,1.914,6.219,6.219,0,0,0,2.379.555" transform="translate(-308.941 -9.171)" fill="#fff"/>
            <path id="Trazado_889928" data-name="Trazado 889928" d="M310.575,711.623l-.567,16.866s45.638,4.819,49.323,5.953S374.355,745.5,374.355,745.5l-22.961,14.74-13.323-3.969s-47.622,1.984-55.843-4.536,5.953-47.764,5.953-47.764,12.189,5.244,22.394,7.654" transform="translate(-157.925 -599.553)" fill="#fff"/>
            <path id="Trazado_889929" data-name="Trazado 889929" d="M346.139,755.912a.911.911,0,0,0,.493-.145l22.961-14.74a.912.912,0,0,0,.108-1.454c-.469-.41-11.529-10.063-15.356-11.24-3.49-1.074-42.207-5.215-48.651-5.9l.538-16.018a.913.913,0,0,0-.7-.919c-10.011-2.364-22.122-7.552-22.243-7.6a.912.912,0,0,0-1.224.541c-.035.1-3.588,10.486-6.086,21.533-3.423,15.137-3.278,24.3.429,27.243,5.228,4.147,25,5.017,40.67,5.017,8.109,0,14.562-.237,15.625-.279l13.178,3.926a.912.912,0,0,0,.26.038m21.441-15.761L346,754.006l-12.922-3.849a.892.892,0,0,0-.3-.037c-.068,0-6.9.283-15.7.283-21.737,0-35.778-1.642-39.536-4.622-6.162-4.887,1.922-33.878,5.935-45.829a164.242,164.242,0,0,0,20.908,7.146l-.542,16.123a.913.913,0,0,0,.816.938c15.755,1.663,46.3,5.041,49.15,5.917,2.624.808,10.126,6.946,13.773,10.075" transform="translate(-152.669 -594.315)" fill="#333"/>
            <path id="Trazado_889930" data-name="Trazado 889930" d="M122.271,784.67s4.677,23.81,1.275,30.188-25.511,20.834-47.62,28.487c0,0-8.078,5.953-15.306,7.228a73.434,73.434,0,0,1-11.48,1.275s-5.96,11.872-10.211,12.3-5.669-3.827-5.669-3.827-3.827.709-5.386-.709-.851-10.63-.851-10.63-4.677,8.5-8.929,8.362,6.52-21.685,8.5-25.937,17.291-10.63,23.386-11.906,40.394-16.441,40.394-16.441l-.85-16.441s8.882-6.142,32.744-1.947" transform="translate(130.588 -667.036)" fill="#fff"/>
            <path id="Trazado_889931" data-name="Trazado 889931" d="M33.159,859.85c.222,0,.451-.012.679-.034,4.242-.424,9.385-9.8,10.685-12.3A80.286,80.286,0,0,0,55.6,846.233c6.971-1.23,14.52-6.547,15.575-7.309,22.173-7.7,44.372-22.078,48-28.875,3.514-6.588-.992-29.808-1.185-30.793a.912.912,0,0,0-.737-.723,90.757,90.757,0,0,0-15.569-1.48c-12.537,0-17.64,3.429-17.851,3.575a.913.913,0,0,0-.392.8l.818,15.813c-4.515,1.987-34.133,14.977-39.637,16.129-6.027,1.262-21.819,7.685-24.026,12.413-.192.411-.466.984-.8,1.684-7.321,15.3-9.755,22.456-8.4,24.689a1.759,1.759,0,0,0,1.492.861l.136,0c2.978,0,5.9-3.283,7.74-5.866-.066,3.121.131,6.814,1.32,7.895a5.691,5.691,0,0,0,3.891,1.123,14.067,14.067,0,0,0,1.546-.089,6.3,6.3,0,0,0,5.644,3.769m83.154-79.626c1.324,6.985,3.831,24.12,1.247,28.967-3.094,5.8-24.24,20.137-47.113,28.054a.917.917,0,0,0-.243.127c-.079.058-8,5.842-14.924,7.064A73.593,73.593,0,0,1,43.958,845.7a.914.914,0,0,0-.815.5c-2.218,4.417-6.756,11.526-9.487,11.8-3.447.35-4.666-3.072-4.714-3.211a.915.915,0,0,0-1.03-.605,12.151,12.151,0,0,1-1.944.162,4.185,4.185,0,0,1-2.663-.649c-.654-.594-.913-5.214-.554-9.885a.912.912,0,0,0-1.709-.51c-1.209,2.195-5.008,7.718-8.025,7.719l-.075-.174h0c-.137,0-.646-1.557,2.521-9.474,1.961-4.9,4.572-10.273,5.975-13.205.338-.707.615-1.242.809-1.657,1.773-3.8,16.713-10.114,22.746-11.377,6.119-1.281,39.172-15.868,40.576-16.489a.905.905,0,0,0,.542-.876l-.822-15.884c1.411-.756,6.455-3.006,16.393-3.006a88.076,88.076,0,0,1,14.635,1.346" transform="translate(135.77 -661.797)" fill="#333"/>
            <path id="Trazado_889932" data-name="Trazado 889932" d="M578.486,1241.138a.913.913,0,0,0,.721-1.473c-.188-1.29,2.094-7.743,4.372-13.115a.912.912,0,1,0-1.68-.712c-.014.033-1.406,3.321-2.622,6.69-2.469,6.835-2.072,7.856-1.35,8.418a.91.91,0,0,0,.559.192" transform="translate(-411.379 -1043.541)" fill="#333"/>
            <path id="Trazado_889933" data-name="Trazado 889933" d="M617.677,1210.066a.942.942,0,0,0,.143-.011.912.912,0,0,0,.759-1.043c-.824-5.218,1.141-13.314,1.672-15.039a.912.912,0,0,0-1.744-.536c-.591,1.921-2.617,10.243-1.73,15.859a.913.913,0,0,0,.9.77" transform="translate(-453.831 -1015.871)" fill="#333"/>
            <path id="Trazado_889934" data-name="Trazado 889934" d="M650.911,1172.116a.913.913,0,0,0,.871-.642c1.247-4.019,2.927-7.951,2.944-7.99a.912.912,0,0,0-1.677-.719c-.017.04-1.734,4.06-3.009,8.168a.913.913,0,0,0,.872,1.183" transform="translate(-493.3 -989.826)" fill="#333"/>
            <path id="Trazado_889935" data-name="Trazado 889935" d="M568.1,1074.045a.911.911,0,0,0,.71-.338l3.213-3.968a.913.913,0,0,0-1.418-1.149l-3.213,3.969a.913.913,0,0,0,.709,1.487" transform="translate(-398.44 -909.803)" fill="#333"/>
            <path id="Trazado_889936" data-name="Trazado 889936" d="M565.275,1080.942a.912.912,0,0,0,.146-1.813l-6.095-.992a.912.912,0,1,0-.293,1.8l6.094.992a.882.882,0,0,0,.148.012" transform="translate(-391.08 -918.212)" fill="#333"/>
            <path id="Trazado_889937" data-name="Trazado 889937" d="M529.876,1112.267a.91.91,0,0,0,.71-.338l3.213-3.968a.912.912,0,0,0-1.418-1.148l-3.213,3.968a.912.912,0,0,0,.709,1.486" transform="translate(-354.549 -942.356)" fill="#333"/>
            <path id="Trazado_889938" data-name="Trazado 889938" d="M527.052,1119.164a.912.912,0,0,0,.146-1.813l-6.094-.992a.912.912,0,1,0-.293,1.8l6.094.992a.856.856,0,0,0,.148.012" transform="translate(-347.189 -950.764)" fill="#333"/>
            <path id="Trazado_889939" data-name="Trazado 889939" d="M499.3,1152.4a.91.91,0,0,0,.71-.338l3.213-3.969a.913.913,0,1,0-1.418-1.148l-3.213,3.968a.913.913,0,0,0,.709,1.487" transform="translate(-319.436 -976.537)" fill="#333"/>
            <path id="Trazado_889940" data-name="Trazado 889940" d="M496.475,1159.293a.912.912,0,0,0,.146-1.813l-6.095-.992a.912.912,0,1,0-.293,1.8l6.094.992a.882.882,0,0,0,.148.012" transform="translate(-312.075 -984.94)" fill="#333"/>
            <path id="Trazado_889941" data-name="Trazado 889941" d="M691.681,862.2a.912.912,0,0,0,.12-.008c9.815-1.3,25.371-.381,25.527-.372a.912.912,0,1,0,.11-1.821c-.157-.01-15.888-.935-25.875.385a.912.912,0,0,0,.118,1.817" transform="translate(-562.843 -732.165)" fill="#333"/>
            <path id="Trazado_889942" data-name="Trazado 889942" d="M696.781,639.549a.912.912,0,0,0,.91-.859l.756-12.851a.912.912,0,0,0-1.822-.107l-.756,12.851a.912.912,0,0,0,.858.964l.054,0" transform="translate(-543.751 -532.189)" fill="#fff"/>
            <path id="Trazado_889943" data-name="Trazado 889943" d="M170.589,468.144a.91.91,0,0,0,.635-.257c.075-.072,6.033-5.725,13.047-4.852a.912.912,0,1,0,.226-1.81c-7.9-.986-14.276,5.093-14.543,5.353a.912.912,0,0,0,.635,1.567" transform="translate(47.447 -392.721)" fill="#fff"/>
            <path id="Trazado_889944" data-name="Trazado 889944" d="M635.075,1330.7a.911.911,0,0,0,.511-.157l4.819-3.26a.912.912,0,1,0-1.022-1.511l-4.433,3c-8.649-3.115-14.475-2.468-14.723-2.44a.913.913,0,0,0,.215,1.812c.077-.008,5.886-.627,14.316,2.5a.907.907,0,0,0,.317.057" transform="translate(-474.772 -1128.993)" fill="#fff"/>
            <path id="Trazado_889945" data-name="Trazado 889945" d="M681.491,1276.593a.914.914,0,0,0,.861-.611,84.6,84.6,0,0,1,4.744-9.194.912.912,0,0,0-1.573-.924c-.158.27-3.883,6.63-4.893,9.515a.914.914,0,0,0,.861,1.214" transform="translate(-530.258 -1077.72)" fill="#fff"/>
            <path id="Trazado_889946" data-name="Trazado 889946" d="M722.069,1016.435H654.357a2.363,2.363,0,0,0-1.7.726l-16.433,17.1a2.364,2.364,0,0,0,1.7,4h67.712a2.364,2.364,0,0,0,1.7-.726l16.433-17.1a2.364,2.364,0,0,0-1.7-4" transform="translate(-560.795 -865.672)" fill="#5d91bb"/>
            <path id="Trazado_889947" data-name="Trazado 889947" d="M743.1,1026.946H690.34a1.842,1.842,0,0,0-1.328.566l-12.805,13.324a1.842,1.842,0,0,0,1.328,3.118H730.3a1.842,1.842,0,0,0,1.328-.566l12.805-13.324a1.842,1.842,0,0,0-1.328-3.118" transform="translate(-587.258 -874.624)" fill="#333"/>
            <path id="Trazado_889948" data-name="Trazado 889948" d="M706.623,1054.625h14.6a1.047,1.047,0,0,0,0-2.077h-14.6a1.047,1.047,0,0,0,0,2.077" transform="translate(-568.897 -896.429)" fill="#fff"/>
            <path id="Trazado_889949" data-name="Trazado 889949" d="M731.227,1080.329h9.58a.89.89,0,1,0,0-1.78h-9.58a.89.89,0,1,0,0,1.78" transform="translate(-592.133 -918.573)" fill="#fff"/>
            <path id="Trazado_889950" data-name="Trazado 889950" d="M768.481,816.227,780.6,858.589a6.131,6.131,0,0,0,5.831,4.468H856.86a4.205,4.205,0,0,0,5.077-5.578l-12.112-42.412a6.18,6.18,0,0,0-5.834-4.518H773.558a6.13,6.13,0,0,0-5.267,3.159,6.49,6.49,0,0,0,.19,2.519" transform="translate(-718.213 -690.324)" fill="#5d91bb"/>
            <path id="Trazado_889951" data-name="Trazado 889951" d="M1067.762,928.96c0,.558-.181,1.105-.176,1.664.018,2.119,2.461,3.318,3.413,5.211.981,1.952,1.143,5.14-1.124,6.147-2.971,1.32-7.044,1.938-9.712-.365a4.731,4.731,0,0,1-1.568-4.767c.444-1.489,1.759-2.712,1.771-4.266.012-1.494-1.211-2.85-.981-4.326.238-1.524,1.923-2.39,3.456-2.556a5.342,5.342,0,0,1,3.232.559,3.232,3.232,0,0,1,1.688,2.7" transform="translate(-970.765 -788.362)" fill="#fff"/>
            <path id="Trazado_889952" data-name="Trazado 889952" d="M1124.253,885.781a1.315,1.315,0,0,0-.587.045.925.925,0,0,0-.535.853,1.89,1.89,0,0,0,.327,1,5.039,5.039,0,0,0,3.094,2.14,8.992,8.992,0,0,0,3.828.01,7.839,7.839,0,0,0-6.127-4.051" transform="translate(-1039.058 -754.388)" fill="#fff"/>
            <path id="Trazado_889953" data-name="Trazado 889953" d="M820.418,1160.329h80.744a.89.89,0,1,0,0-1.78H820.418a.89.89,0,1,0,0,1.78" transform="translate(-765.717 -986.707)" fill="#333"/>
            <path id="Trazado_889954" data-name="Trazado 889954" d="M116.158,203.963c.991-.862,2.357-1.115,3.533-1.7s2.264-1.85,1.848-3.1c-.524-1.57-2.7-1.573-4.193-2.29-1.661-.8-2.545-2.635-3.064-4.4s-.82-3.652-1.841-5.186a2.363,2.363,0,0,0-1.325-1.088,2.114,2.114,0,0,0-2.221,1.48,14.2,14.2,0,0,0-.492,2.863,7.338,7.338,0,0,1-4.338,5.44c-1.1.457-2.308.638-3.384,1.153a3.182,3.182,0,0,0-2.022,2.709,1.078,1.078,0,0,0,.1.465,1.449,1.449,0,0,0,1.007.591c1.981.5,4.089.938,5.611,2.3a9,9,0,0,1,2.511,5.771c.152,1.288.282,2.779,1.352,3.511,1.151.788,2.824.174,3.684-.926a9.6,9.6,0,0,0,1.442-3.891,6.712,6.712,0,0,1,1.79-3.7" transform="translate(131.737 -152.776)" fill="#c8abea"/>
            <path id="Trazado_889955" data-name="Trazado 889955" d="M946.664,577.393l-22.2-15.89,4.314,26.706,5.72-6.587,6.6,11.1,3.254-1.935-6.716-11.3Z" transform="translate(-825.874 -478.219)" fill="#fff"/>
            <path id="Trazado_889956" data-name="Trazado 889956" d="M935.859,588.394a.912.912,0,0,0,.466-.128l3.253-1.935a.912.912,0,0,0,.318-1.25l-6.078-10.225,7.814-1.816a.912.912,0,0,0,.325-1.631l-22.2-15.89a.912.912,0,0,0-1.432.888l4.314,26.706a.913.913,0,0,0,1.59.452l4.892-5.634,5.954,10.016a.911.911,0,0,0,.784.446m2-3.165-1.685,1-6.133-10.317a.912.912,0,0,0-1.473-.132L924.13,580.9l-3.654-22.619,18.779,13.441-7.064,1.642a.913.913,0,0,0-.578,1.355Z" transform="translate(-820.636 -472.977)" fill="#333"/>
            <g id="Grupo_1105334" data-name="Grupo 1105334" transform="translate(0 51.961)">
              <g id="Grupo_1105333" data-name="Grupo 1105333" transform="translate(0 0)">
                <g id="Grupo_1105332" data-name="Grupo 1105332" transform="translate(0 0)">
                  <g id="Grupo_1105331" data-name="Grupo 1105331">
                    <path id="Trazado_889957" data-name="Trazado 889957" d="M130.092,55.387a26.962,26.962,0,0,1,13.3-5.649,2.047,2.047,0,0,1,2.3,2.037V60.3a2.06,2.06,0,0,1-1.666,2.012,14.513,14.513,0,0,0-5.438,2.341,2.046,2.046,0,0,1-2.63-.2l-6.02-6.02a2.044,2.044,0,0,1,.155-3.04" transform="translate(-119.998 -49.72)" fill="#3a1d71"/>
                    <path id="Trazado_889958" data-name="Trazado 889958" d="M84.022,60.3V51.774a2.047,2.047,0,0,1,2.3-2.037,26.965,26.965,0,0,1,13.334,5.676,2.044,2.044,0,0,1,.153,3.039l-6.015,6.015a2.049,2.049,0,0,1-2.639.2,14.521,14.521,0,0,0-5.467-2.36A2.06,2.06,0,0,1,84.022,60.3" transform="translate(-55.827 -49.72)" fill="#debefb"/>
                    <path id="Trazado_889959" data-name="Trazado 889959" d="M62.5,125.376a14.534,14.534,0,0,0,2.276-4.952,2.045,2.045,0,0,1,1.986-1.556h8.576a2.043,2.043,0,0,1,2.029,2.346,26.964,26.964,0,0,1-5.616,12.656,2.053,2.053,0,0,1-3.051.164l-6-6a2.06,2.06,0,0,1-.2-2.66" transform="translate(-23.665 -90.038)" fill="#8722e2"/>
                    <path id="Trazado_889960" data-name="Trazado 889960" d="M64.007,88.253a14.5,14.5,0,0,0-2.023-5.387,2.046,2.046,0,0,1,.285-2.535l6.053-6.054a2.057,2.057,0,0,1,3.115.253,26.941,26.941,0,0,1,5.114,13.242,2.048,2.048,0,0,1-2.043,2.246H66.037a2.068,2.068,0,0,1-2.03-1.766" transform="translate(-22.659 -63.69)" fill="#a854f3"/>
                    <path id="Trazado_889961" data-name="Trazado 889961" d="M169.808,82.791a14.491,14.491,0,0,0-2.028,5.322,2.051,2.051,0,0,1-2.019,1.721H157.28a2.047,2.047,0,0,1-2.042-2.255,26.948,26.948,0,0,1,5.124-13.13,2.057,2.057,0,0,1,3.113-.25l6.051,6.051a2.049,2.049,0,0,1,.281,2.542" transform="translate(-155.227 -63.644)" fill="#beb4d0"/>
                    <path id="Trazado_889962" data-name="Trazado 889962" d="M166.84,120.111a14.519,14.519,0,0,0,2.186,4.9,2.06,2.06,0,0,1-.22,2.636l-6.011,6.011a2.052,2.052,0,0,1-3.062-.178,26.963,26.963,0,0,1-5.48-12.607,2.043,2.043,0,0,1,2.03-2.334h8.565a2.048,2.048,0,0,1,1.991,1.577" transform="translate(-154.087 -89.844)" fill="#d8d2e3"/>
                    <path id="Trazado_889963" data-name="Trazado 889963" d="M131.443,102c-1.2-.691-12.444-4.3-12.444-4.3s8.746,7.938,9.942,8.629a2.5,2.5,0,1,0,2.5-4.333" transform="translate(-102.692 -77.697)" fill="#3e606f"/>
                    <path id="Trazado_889964" data-name="Trazado 889964" d="M124.585,111.743a1.042,1.042,0,1,0-1.042,1.042,1.042,1.042,0,0,0,1.042-1.042" transform="translate(-96.042 -85.277)" fill="#fff"/>
                  </g>
                </g>
              </g>
            </g>
          </g>
        </g>
        <g id="Grupo_1105337" data-name="Grupo 1105337" transform="translate(68.315 66.187)">
          <rect id="Rectángulo_404976" data-name="Rectángulo 404976" width="17.879" height="21.477" fill="none" stroke="#243762" stroke-miterlimit="10" stroke-width="1"/>
          <line id="Línea_981" data-name="Línea 981" x1="17.879" y2="21.477" fill="none" stroke="#243762" stroke-miterlimit="10" stroke-width="1"/>
          <line id="Línea_982" data-name="Línea 982" x2="17.879" y2="21.477" fill="none" stroke="#243762" stroke-miterlimit="10" stroke-width="1"/>
        </g>
        <path id="Trazado_889965" data-name="Trazado 889965" d="M24.126,13.35l1.533,1.641a.3.3,0,0,1,0,.41l-1.487,1.531a.3.3,0,0,1-.507-.208.292.292,0,0,1,.083-.205s.994-1.026,1.288-1.333l-1.344-1.43a.306.306,0,0,1-.082-.2.329.329,0,0,1,.1-.222.3.3,0,0,1,.419.017" transform="translate(60.457 35.081)" fill="#3a1d71"/>
        <path id="Trazado_889966" data-name="Trazado 889966" d="M31.975,13.332a.312.312,0,0,1,.1.22.318.318,0,0,1-.079.2s-1.051,1.117-1.346,1.429c.3.308,1.288,1.335,1.288,1.335a.307.307,0,0,1,.075.205.29.29,0,0,1-.5.207L30.022,15.4a.306.306,0,0,1,0-.41l1.534-1.64a.3.3,0,0,1,.419-.015" transform="translate(45.346 35.08)" fill="#3a1d71"/>
        <path id="Trazado_889967" data-name="Trazado 889967" d="M26.675,13.458l2.854,2.913a.289.289,0,0,1-.007.417.292.292,0,0,1-.416-.007l-2.854-2.908a.3.3,0,0,1,.423-.416" transform="translate(53.037 35.125)" fill="#3a1d71"/>
        <rect id="Rectángulo_404977" data-name="Rectángulo 404977" width="15.387" height="1.906" transform="translate(70.809 55.746)" fill="#3a1d71"/>
        <rect id="Rectángulo_404978" data-name="Rectángulo 404978" width="8.827" height="1.906" transform="translate(60.39 55.733)" fill="#3a1d71"/>
        <rect id="Rectángulo_404979" data-name="Rectángulo 404979" width="17.536" height="1.903" transform="translate(68.658 60.084)" fill="#3a1d71"/>
        <rect id="Rectángulo_404980" data-name="Rectángulo 404980" width="6.46" height="1.904" transform="translate(60.39 60.074)" fill="#3a1d71"/>
      </g>
    </g>
    <g transform="matrix(1, 0, 0, 1, 0, 0)" filter="url(#Trazado_889968)">
      <g id="Trazado_889968-2" data-name="Trazado 889968" transform="translate(315 239.96)" fill="none">
        <path d="M21.5,0A21.5,21.5,0,1,0,43,21.5,21.5,21.5,0,0,0,21.5,0Z" stroke="none"/>
        <path d="M 21.5 5 C 17.09268951416016 5 12.94918060302734 6.716300964355469 9.832740783691406 9.832740783691406 C 6.716300964355469 12.94918060302734 5 17.09268951416016 5 21.5 C 5 25.90731048583984 6.716300964355469 30.05081939697266 9.832740783691406 33.16725921630859 C 12.94918060302734 36.28369903564453 17.09268951416016 38 21.5 38 C 25.90731048583984 38 30.05081939697266 36.28369903564453 33.16725921630859 33.16725921630859 C 36.28369903564453 30.05081939697266 38 25.90731048583984 38 21.5 C 38 17.09268951416016 36.28369903564453 12.94918060302734 33.16725921630859 9.832740783691406 C 30.05081939697266 6.716300964355469 25.90731048583984 5 21.5 5 M 21.5 0 C 33.37411880493164 0 43 9.625881195068359 43 21.5 C 43 33.37411880493164 33.37411880493164 43 21.5 43 C 9.625881195068359 43 0 33.37411880493164 0 21.5 C 0 9.625881195068359 9.625881195068359 0 21.5 0 Z" stroke="none" fill="#fff"/>
      </g>
    </g>
    <g id="Grupo_1105339" data-name="Grupo 1105339" transform="translate(322.435 246.333)">
      <path id="Trazado_884490" data-name="Trazado 884490" d="M313.77,332.642a14.822,14.822,0,1,0,14.822-14.822A14.823,14.823,0,0,0,313.77,332.642Z" transform="translate(-313.77 -317.82)" fill="none" stroke="#a653f1" stroke-miterlimit="10" stroke-width="2.5"/>
      <line id="Línea_672" data-name="Línea 672" x2="45" y2="31" transform="translate(7.145 10.499)" fill="none" stroke="#00ffdf" stroke-linecap="round" stroke-linejoin="round" stroke-width="3"/>
    </g>
    <g id="Grupo_1102109" data-name="Grupo 1102109" transform="translate(4.988 6.673)">
      <g transform="matrix(1, 0, 0, 1, -4.99, -6.67)" filter="url(#Trazado_884511)">
        <g id="Trazado_884511-2" data-name="Trazado 884511" transform="translate(15.49 17.17)" fill="none">
          <path d="M21.5,0A21.5,21.5,0,1,0,43,21.5,21.5,21.5,0,0,0,21.5,0Z" stroke="none"/>
          <path d="M 21.5 6 C 12.95326995849609 6 6 12.95326995849609 6 21.5 C 6 30.04673004150391 12.95326995849609 37 21.5 37 C 30.04673004150391 37 37 30.04673004150391 37 21.5 C 37 12.95326995849609 30.04673004150391 6 21.5 6 M 21.5 0 C 33.37411880493164 0 43 9.625881195068359 43 21.5 C 43 33.37411880493164 33.37411880493164 43 21.5 43 C 9.625881195068359 43 0 33.37411880493164 0 21.5 C 0 9.625881195068359 9.625881195068359 0 21.5 0 Z" stroke="none" fill="#fff"/>
        </g>
      </g>
      <line id="Línea_731" data-name="Línea 731" x2="45" y2="31" transform="translate(21.512 22.678)" fill="none" stroke="#00ffdf" stroke-linecap="round" stroke-linejoin="round" stroke-width="3"/>
      <circle id="Elipse_11700" data-name="Elipse 11700" cx="16" cy="16" r="16" fill="url(#linear-gradient)"/>
    </g>
  </g>
</svg>
