<svg xmlns="http://www.w3.org/2000/svg" width="46.894" height="46.894" viewBox="0 0 46.894 46.894">
  <path id="Trazado_878125" data-name="Trazado 878125" d="M46.6,406.027l11.849-11.849a6.786,6.786,0,0,0,0-9.606h0a6.786,6.786,0,0,0-9.606,0L37,396.421,25.148,384.572a6.786,6.786,0,0,0-9.606,0h0a6.786,6.786,0,0,0,0,9.606l11.849,11.849L15.542,417.876a6.786,6.786,0,0,0,0,9.606h0a6.786,6.786,0,0,0,9.606,0L37,415.633l11.849,11.849a6.786,6.786,0,0,0,9.606,0h0a6.786,6.786,0,0,0,0-9.606L46.6,406.027Z" transform="translate(-13.55 -382.58)" fill="#695393"/>
</svg>
