<svg xmlns="http://www.w3.org/2000/svg" xmlns:xlink="http://www.w3.org/1999/xlink" width="490.43" height="205.728" viewBox="0 0 490.43 205.728">
  <defs>
    <filter id="Imagen_36" x="0" y="27.489" width="481.213" height="152.363" filterUnits="userSpaceOnUse">
      <feOffset dy="3" input="SourceAlpha"/>
      <feGaussianBlur stdDeviation="3" result="blur"/>
      <feFlood flood-opacity="0.161"/>
      <feComposite operator="in" in2="blur"/>
      <feComposite in="SourceGraphic"/>
    </filter>
  </defs>
  <g id="Grupo_1105539" data-name="Grupo 1105539" transform="translate(-936.876 -7678)">
    <rect id="Rectángulo_33896" data-name="Rectángulo 33896" width="437.407" height="205.727" rx="6" transform="translate(989.9 7678)" fill="#8722e2"/>
    <g transform="matrix(1, 0, 0, 1, 936.88, 7678)" filter="url(#Imagen_36)">
      <rect id="Imagen_36-2" data-name="Imagen 36" width="463.213" height="134.363" rx="6" transform="translate(9 33.49)" fill="#fff"/>
    </g>
    <g id="Grupo_1105538" data-name="Grupo 1105538" transform="translate(970.167 7733.176)">
      <rect id="Rectángulo_405016" data-name="Rectángulo 405016" width="425.348" height="29.599" rx="5" fill="#ededed"/>
      <rect id="Rectángulo_405017" data-name="Rectángulo 405017" width="331.07" height="29.599" rx="5" transform="translate(94.278 35.08)" fill="#f7f7f7"/>
      <rect id="Rectángulo_405018" data-name="Rectángulo 405018" width="292.701" height="29.599" rx="5" transform="translate(94.278 69.064)" fill="#f7f7f7"/>
      <text id="Salud_mental_en_tiempos_de_COVID-19" data-name="Salud mental en tiempos de COVID-19" transform="translate(101.952 21.481)" fill="#12263f" font-size="15" font-family="Roboto-Regular, Roboto"><tspan x="0" y="0">Salud mental en tiempos de COVID-19</tspan></text>
      <text id="Salud_mental_en_tiempos_de_COVID-19-2" data-name="Salud mental en tiempos de COVID-19" transform="translate(101.952 55.465)" fill="#12263f" font-size="15" font-family="Roboto-Regular, Roboto"><tspan x="0" y="0">Salud mental en tiempos de COVID-19</tspan></text>
      <text id="Salud_mental_en_nilños_de_COVID-19" data-name="Salud mental en nilños de COVID-19" transform="translate(101.952 89.449)" fill="#12263f" font-size="15" font-family="Roboto-Regular, Roboto"><tspan x="0" y="0">Salud mental en nilños de COVID-19</tspan></text>
      <path id="list_3_" data-name="list (3)" d="M2.5,12.818a.548.548,0,0,1,.548-.548H14.011a.548.548,0,1,1,0,1.1H3.048a.548.548,0,0,1-.548-.548m0-4.385a.548.548,0,0,1,.548-.548H14.011a.548.548,0,1,1,0,1.1H3.048A.548.548,0,0,1,2.5,8.433m0-4.385A.548.548,0,0,1,3.048,3.5H14.011a.548.548,0,1,1,0,1.1H3.048A.548.548,0,0,1,2.5,4.048" transform="translate(6.27 7.463)" fill-rule="evenodd"/>
      <g id="youtube" transform="translate(36.614 7.788)">
        <g id="形状_1_3_" transform="translate(0 2.76)">
          <g id="形状_1" transform="translate(0 0)">
            <g id="Grupo_1105536" data-name="Grupo 1105536">
              <path id="Trazado_890236" data-name="Trazado 890236" d="M28.829,197.471l-1.118-4.132H26.053c.332.976.678,1.956,1.01,2.932a25.935,25.935,0,0,1,.963,3.329v4.262H29.6V199.6l1.9-6.261H29.9Zm10.712-1.451v5.993c-.315.445-.613.665-.9.665-.191,0-.3-.113-.334-.333a3.331,3.331,0,0,1-.017-.552V196.02H36.877v6.2A3.961,3.961,0,0,0,37,203.387a.871.871,0,0,0,.915.583,2.282,2.282,0,0,0,1.623-.963v.855h1.421V196.02H39.541Zm-5.932-.094a1.933,1.933,0,0,0-1.654.8,3.045,3.045,0,0,0-.445,1.847v2.746a3.036,3.036,0,0,0,.445,1.844,2.109,2.109,0,0,0,3.312,0,3.069,3.069,0,0,0,.441-1.844v-2.746a3.079,3.079,0,0,0-.441-1.847A1.936,1.936,0,0,0,33.609,195.926Zm.678,5.664c0,.726-.22,1.088-.678,1.088s-.678-.363-.678-1.088v-3.3c0-.725.22-1.087.678-1.087s.678.362.678,1.087Z" transform="translate(-26.053 -193.339)" fill="#1b1b1b" fill-rule="evenodd"/>
            </g>
          </g>
        </g>
        <g id="形状_1_2_" transform="translate(16.161 0)">
          <g id="形状_1_1_" transform="translate(0 0)">
            <g id="Grupo_1105537" data-name="Grupo 1105537">
              <path id="Trazado_890237" data-name="Trazado 890237" d="M234.007,167.859q-.705,0-.7,1.076v.719h1.406v-.719C234.709,168.217,234.473,167.859,234.007,167.859Zm-5.217,0a1.011,1.011,0,0,0-.7.342v4.729a1,1,0,0,0,.7.346c.406,0,.612-.346.612-1.047v-3.311C229.4,168.217,229.2,167.859,228.79,167.859Zm8.654-4.11a2.939,2.939,0,0,0-2.515-2.286,73.681,73.681,0,0,0-8.175-.322h-1.074a73.658,73.658,0,0,0-8.175.322,2.938,2.938,0,0,0-2.514,2.286,24.942,24.942,0,0,0-.41,5.5v.13a24.344,24.344,0,0,0,.405,5.369,2.938,2.938,0,0,0,2.514,2.286,73.717,73.717,0,0,0,8.184.323h1.056a73.718,73.718,0,0,0,8.184-.323,2.939,2.939,0,0,0,2.515-2.286,24.6,24.6,0,0,0,.407-5.423v-.077a24.938,24.938,0,0,0-.4-5.5ZM221.218,165.5h-1.684v8.948H217.97V165.5h-1.654v-1.466h4.9Zm4.248,8.948H224.06V173.6a2.252,2.252,0,0,1-1.607.953.863.863,0,0,1-.906-.577,3.967,3.967,0,0,1-.124-1.154v-6.136h1.405V172.4a4.293,4.293,0,0,0,.013.547c.034.218.141.329.329.329.282,0,.577-.217.889-.658v-5.931h1.406Zm5.341-2.329a6.254,6.254,0,0,1-.141,1.564,1.115,1.115,0,0,1-1.124.872,1.915,1.915,0,0,1-1.453-.859v.752h-1.406V164.033h1.406v3.4a1.9,1.9,0,0,1,1.453-.841,1.114,1.114,0,0,1,1.124.876,6.031,6.031,0,0,1,.141,1.559v3.089Zm5.306-1.295H233.3V172.2c0,.718.234,1.077.717,1.077a.6.6,0,0,0,.628-.564,9.049,9.049,0,0,0,.031-.952h1.434v.205c0,.452-.017.765-.03.905a1.988,1.988,0,0,1-.329.843,1.944,1.944,0,0,1-1.7.841,2.013,2.013,0,0,1-1.7-.795,3,3,0,0,1-.452-1.825v-2.717a3.022,3.022,0,0,1,.435-1.828,2,2,0,0,1,1.684-.8,1.953,1.953,0,0,1,1.659.8,3.052,3.052,0,0,1,.435,1.828v1.606Z" transform="translate(-214.582 -161.14)" fill="#ee110f" fill-rule="evenodd"/>
            </g>
          </g>
        </g>
      </g>
      <path id="Search" d="M23.214,21.427a1.787,1.787,0,0,1-3.051,1.264L15.471,18a.447.447,0,0,1,0-.632l.632-.632-.991-.991a6.714,6.714,0,1,1,.632-.632l.991.991.632-.632a.447.447,0,0,1,.632,0l4.692,4.692A1.774,1.774,0,0,1,23.214,21.427ZM16.512,10.7A5.809,5.809,0,1,0,10.7,16.512,5.816,5.816,0,0,0,16.512,10.7Zm5.809,10.724a.888.888,0,0,0-.262-.632l-4.376-4.376-1.264,1.264L20.8,22.059a.915.915,0,0,0,1.264,0,.888.888,0,0,0,.262-.632Z" transform="translate(392.008 1.481)" fill="#12263f"/>
    </g>
  </g>
</svg>
