<svg xmlns="http://www.w3.org/2000/svg" width="190" height="149.558" viewBox="0 0 190 149.558">
  <g id="Grupo_1101080" data-name="Grupo 1101080" transform="translate(-180 -672)">
    <rect id="Rect치ngulo_400902" data-name="Rect치ngulo 400902" width="190" height="37" rx="7" transform="translate(180 755)" fill="#f0c518"/>
    <rect id="Rect치ngulo_400903" data-name="Rect치ngulo 400903" width="144" height="134" rx="11" transform="translate(203 672)" fill="#3a1d71"/>
    <g id="programador_10_" data-name="programador (10)" transform="translate(197.965 672)">
      <g id="Grupo_1099574" data-name="Grupo 1099574" transform="translate(29.544 2.191)">
        <g id="Grupo_1099573" data-name="Grupo 1099573">
          <g id="Grupo_1099571" data-name="Grupo 1099571" transform="translate(12.696)">
            <path id="Trazado_875215" data-name="Trazado 875215" d="M209.17,39.318v9.792h-62.1V39.318A31.819,31.819,0,0,1,178.892,7.5c8.787,0,14.812,4.167,20.572,9.925S209.17,30.534,209.17,39.318Z" transform="translate(-144.549 -7.5)" fill="#3a1d71"/>
            <path id="Trazado_875216" data-name="Trazado 875216" d="M287.818,39.318v9l-3.275.666L280.914,42.7V40.629C280.914,14.789,256,7.5,256,7.5a31.815,31.815,0,0,1,31.818,31.818Z" transform="translate(-221.657 -7.5)" fill="#1f0a48"/>
            <path id="Trazado_875217" data-name="Trazado 875217" d="M236.69,277.452v-21.67H209.559v21.67Z" transform="translate(-188.782 -183.258)" fill="#ffbf9d"/>
            <path id="Trazado_875218" data-name="Trazado 875218" d="M201.44,128.017H144.106a5.676,5.676,0,0,0-5.676,5.676A14.267,14.267,0,0,0,152.7,147.96h40.151a14.267,14.267,0,0,0,14.267-14.267A5.676,5.676,0,0,0,201.44,128.017Z" transform="translate(-138.43 -92.813)" fill="#ffbf9d"/>
            <path id="Trazado_875219" data-name="Trazado 875219" d="M215.163,131.373l-9.775,8.553a10.5,10.5,0,0,1-6.911,2.6h-5.7a10.494,10.494,0,0,1-6.91-2.6l-9.775-8.553a15.74,15.74,0,0,1-5.376-11.846V95.56A4.544,4.544,0,0,0,175,92.52l2.5-7.126a4.822,4.822,0,0,1,6.442-2.839l.01,0a29.758,29.758,0,0,0,23.355,0A4.822,4.822,0,0,1,213.75,85.4l2.5,7.125a4.544,4.544,0,0,0,4.288,3.04v23.967A15.737,15.737,0,0,1,215.163,131.373Z" transform="translate(-161.283 -60.356)" fill="#ffbf9d"/>
          </g>
          <g id="Grupo_1099572" data-name="Grupo 1099572" transform="translate(0 89.779)">
            <path id="Trazado_875220" data-name="Trazado 875220" d="M191.8,367.317l.386-46.442A5.186,5.186,0,0,0,187,315.689l-6.835-.836H109.824a5.186,5.186,0,0,0-5.186,5.186v47.277H191.8Z" transform="translate(-101.813 -314.853)" fill="#bed9fd"/>
            <path id="Trazado_875221" data-name="Trazado 875221" d="M185.966,478.878l-8.505-.619H97.12a2.153,2.153,0,0,0-2.153,2.153h0a5.512,5.512,0,0,0,5.512,5.512h75.672l6.749-.908c3.044,0,5.218-.941,5.218-3.985A2.153,2.153,0,0,0,185.966,478.878Z" transform="translate(-94.967 -430.527)" fill="#bed9fd"/>
            <path id="Trazado_875222" data-name="Trazado 875222" d="M368.382,314.854h-8.759a5.186,5.186,0,0,1,5.186,5.186v47.277h8.759V320.04A5.186,5.186,0,0,0,368.382,314.854Z" transform="translate(-282.316 -314.854)" fill="#97c3fc"/>
            <path id="Trazado_875223" data-name="Trazado 875223" d="M382.077,478.259h-9.431v5.713a1.952,1.952,0,0,1-1.952,1.952h8.024a5.512,5.512,0,0,0,5.512-5.512h0A2.153,2.153,0,0,0,382.077,478.259Z" transform="translate(-290.153 -430.527)" fill="#97c3fc"/>
            <g id="XMLID_358_" transform="translate(31.026 -42.291)">
              <path id="XMLID_362_" d="M199.3,343.693a3.412,3.412,0,1,0,4.826,0A3.413,3.413,0,0,0,199.3,343.693Z" transform="translate(-184.373 -268.516)"/>
              <path id="XMLID_361_" d="M140.6,241.383a10.452,10.452,0,0,0-7.442,3.084,2,2,0,0,0,2.824,2.824,6.53,6.53,0,0,1,9.236,0,2,2,0,1,0,2.824-2.824A10.452,10.452,0,0,0,140.6,241.383Z" transform="translate(-123.266 -174.32)"/>
              <path id="XMLID_360_" d="M79.033,147.743a16.99,16.99,0,0,0-12.093,5.009,2,2,0,0,0,2.824,2.824,13.107,13.107,0,0,1,18.537,0,2,2,0,1,0,2.824-2.824A16.986,16.986,0,0,0,79.033,147.743Z" transform="translate(-61.695 -87.256)"/>
              <path id="XMLID_359_" d="M34.092,60.836a23.691,23.691,0,0,0-33.507,0,2,2,0,1,0,2.824,2.824,19.7,19.7,0,0,1,27.857,0,2,2,0,0,0,2.825-2.824Z"/>
            </g>
          </g>
        </g>
      </g>
      <g id="Grupo_1099575" data-name="Grupo 1099575" transform="translate(27.325 0)">
        <path id="Trazado_875233" data-name="Trazado 875233" d="M183.058,137.783V97.128a7.388,7.388,0,0,0-7.379-7.382H152.392V79.47l2.592-2.268a2.191,2.191,0,1,0-2.886-3.3l-7.145,6.253a8.309,8.309,0,0,1-5.472,2.055h-5.707a8.308,8.308,0,0,1-5.471-2.055L118.523,71.6a13.563,13.563,0,0,1-4.632-10.205V39.242a6.754,6.754,0,0,0,1.707-.877,6.681,6.681,0,0,0,2.46-3.268l2.5-7.129a2.635,2.635,0,0,1,3.6-1.519,32.118,32.118,0,0,0,25.015-.031A2.63,2.63,0,0,1,152.7,27.97l2.5,7.128a6.751,6.751,0,0,0,4.167,4.142V61.395a13.439,13.439,0,0,1-1.158,5.48,2.191,2.191,0,1,0,4.006,1.776,17.8,17.8,0,0,0,1.534-7.256V57.987a16.363,16.363,0,0,0,9.435-14.892,7.849,7.849,0,0,0-2.526-5.771v-3.3a34.028,34.028,0,0,0-53.3-28.044,2.191,2.191,0,0,0,2.486,3.609,29.644,29.644,0,0,1,46.432,24.435v1.258a7.927,7.927,0,0,0-.962-.061h-3.763a2.36,2.36,0,0,1-2.217-1.577l-2.5-7.13a7.011,7.011,0,0,0-9.373-4.129,27.711,27.711,0,0,1-21.648,0,7.016,7.016,0,0,0-9.382,4.128l-2.5,7.131a2.351,2.351,0,0,1-2.216,1.575h-3.763a7.924,7.924,0,0,0-.962.061V34.028a29.376,29.376,0,0,1,5.969-17.842,2.191,2.191,0,0,0-3.5-2.64A33.725,33.725,0,0,0,102.6,34.028v3.3a7.849,7.849,0,0,0-2.526,5.771,16.362,16.362,0,0,0,9.435,14.892v3.409a17.945,17.945,0,0,0,6.128,13.5l5.226,4.574V89.747h-7a2.191,2.191,0,1,0,0,4.382h61.818a3,3,0,0,1,3,3v40.378H162.593a2.191,2.191,0,0,0,0,4.382l18.911-.005a3.328,3.328,0,0,1-3.324,3.294h-83.1a3.324,3.324,0,0,1-3.324-3.289h60.617a2.191,2.191,0,0,0,0-4.382H94.579V97.128a3,3,0,0,1,3-3h6.061a2.191,2.191,0,1,0,0-4.382H97.576A7.388,7.388,0,0,0,90.2,97.128v40.657a4.35,4.35,0,0,0-2.828,4.067,7.706,7.706,0,0,0,7.706,7.706h83.1a7.714,7.714,0,0,0,7.706-7.706,4.334,4.334,0,0,0-2.828-4.07ZM168.8,43.094a12.007,12.007,0,0,1-5.053,9.838V39.605h1.565a3.493,3.493,0,0,1,3.489,3.489Zm-64.344,0a3.492,3.492,0,0,1,3.488-3.488h1.565V52.932A12.009,12.009,0,0,1,104.456,43.094Zm20.789,40.211.172.15a12.689,12.689,0,0,0,8.357,3.139h5.707a12.688,12.688,0,0,0,8.357-3.139l.172-.15v6.442H125.245V83.305Z" transform="translate(-87.37 0)"/>
      </g>
    </g>
  </g>
</svg>
