<svg xmlns="http://www.w3.org/2000/svg" width="68.749" height="68.749" viewBox="0 0 68.749 68.749">
  <g id="Grupo_1105422" data-name="Grupo 1105422" transform="translate(0 0)">
    <g id="Grupo_1095345" data-name="Grupo 1095345" transform="translate(0 0)">
      <path id="Trazado_875520" data-name="Trazado 875520" d="M34.374,0A34.374,34.374,0,1,0,68.749,34.374,34.374,34.374,0,0,0,34.374,0Z" fill="#0b47db"/>
    </g>
    <g id="Search_engine" data-name="Search engine" transform="translate(13.742 15.742)">
      <path id="Trazado_890089" data-name="Trazado 890089" d="M39.9,15H3V40.968a1.367,1.367,0,0,0,1.367,1.367H38.535A1.367,1.367,0,0,0,39.9,40.968Z" transform="translate(0.68 -6.116)" fill="#ffcd00"/>
      <path id="Trazado_890090" data-name="Trazado 890090" d="M40.484,42.323c-.036,0-.068.011-.109.011H6.208a1.367,1.367,0,0,1-1.367-1.367V15C4.841,29.966,20.732,42.091,40.484,42.323Z" transform="translate(-1.161 -6.116)" fill="#ddb200"/>
      <path id="Trazado_890091" data-name="Trazado 890091" d="M36.968,21H11v4.784a.683.683,0,0,0,.683.683H36.968Z" transform="translate(-1.853 -8.016)" fill="#ed1c24"/>
      <path id="Trazado_890092" data-name="Trazado 890092" d="M3,4.367V11.2H39.9V4.367A1.371,1.371,0,0,0,38.535,3H4.367A1.371,1.371,0,0,0,3,4.367Z" transform="translate(0.68 -2.317)" fill="#2488ff"/>
      <path id="Trazado_890093" data-name="Trazado 890093" d="M45.4,7H29V9.733H45.4Z" transform="translate(-22.587 -3.583)" fill="#f1f2f2"/>
      <circle id="Elipse_11891" data-name="Elipse 11891" cx="1.367" cy="1.367" r="1.367" transform="translate(35.114 3.417)" fill="#d80027"/>
      <circle id="Elipse_11892" data-name="Elipse 11892" cx="1.367" cy="1.367" r="1.367" transform="translate(30.331 3.417)" fill="#ff9811"/>
      <circle id="Elipse_11893" data-name="Elipse 11893" cx="1.367" cy="1.367" r="1.367" transform="translate(25.547 3.417)" fill="#5eac24"/>
      <path id="Trazado_890094" data-name="Trazado 890094" d="M53.9,47.866l0,0,0,0L55.833,49.8l0,0,0,0,.966.966L51.566,56A2.733,2.733,0,1,1,47.7,52.132l2.2-2.2L52.934,46.9Z" transform="translate(-46.217 -16.217)" fill="#d80027"/>
      <path id="Trazado_890095" data-name="Trazado 890095" d="M46.918,49.18l2.3-2.3a8.234,8.234,0,0,1-1.948-1.948L44.95,47.212Z" transform="translate(-37.3 -15.593)" fill="#2488ff"/>
      <path id="Trazado_890096" data-name="Trazado 890096" d="M34.2,42.4a8.2,8.2,0,1,1,8.2-8.2A8.2,8.2,0,0,1,34.2,42.4Zm0-14.351a6.15,6.15,0,1,0,6.15,6.15A6.15,6.15,0,0,0,34.2,28.05Z" transform="translate(-17.537 -9.599)" fill="#00479b"/>
      <circle id="Elipse_11894" data-name="Elipse 11894" cx="6.15" cy="6.15" r="6.15" transform="translate(10.513 18.451)" fill="#96c8ef"/>
      <g id="Grupo_1105424" data-name="Grupo 1105424">
        <path id="Trazado_890097" data-name="Trazado 890097" d="M28.683,10.1h16.4a.683.683,0,0,0,.683-.683V6.683A.683.683,0,0,0,45.084,6h-16.4A.683.683,0,0,0,28,6.683V9.417A.683.683,0,0,0,28.683,10.1ZM44.4,8.733H29.367V7.367H44.4Z" transform="translate(-22.27 -3.267)" fill="#231f20"/>
        <path id="Trazado_890098" data-name="Trazado 890098" d="M8.05,10.1A2.05,2.05,0,1,0,6,8.05,2.05,2.05,0,0,0,8.05,10.1Zm0-2.733a.683.683,0,1,1-.683.683A.683.683,0,0,1,8.05,7.367Z" transform="translate(28.431 -3.267)" fill="#231f20"/>
        <path id="Trazado_890099" data-name="Trazado 890099" d="M15.05,10.1A2.05,2.05,0,1,0,13,8.05,2.05,2.05,0,0,0,15.05,10.1Zm0-2.733a.683.683,0,1,1-.683.683A.683.683,0,0,1,15.05,7.367Z" transform="translate(16.647 -3.267)" fill="#231f20"/>
        <path id="Trazado_890100" data-name="Trazado 890100" d="M22.05,10.1A2.05,2.05,0,1,0,20,8.05,2.05,2.05,0,0,0,22.05,10.1Zm0-2.733a.683.683,0,1,1-.683.683A.683.683,0,0,1,22.05,7.367Z" transform="translate(4.864 -3.267)" fill="#231f20"/>
        <path id="Trazado_890101" data-name="Trazado 890101" d="M27.084,26.834h9.567a.683.683,0,0,0,.683-.683V20.683A.683.683,0,0,0,36.651,20H10.683a.683.683,0,0,0-.683.683v4.1a.683.683,0,0,0,1.367,0V21.367h24.6v4.1H27.084a.683.683,0,0,0,0,1.367Z" transform="translate(-1.537 -7.7)" fill="#231f20"/>
        <path id="Trazado_890102" data-name="Trazado 890102" d="M34.834,28A6.834,6.834,0,1,1,28,34.834,6.834,6.834,0,0,1,34.834,28Zm0,12.3a5.467,5.467,0,1,0-5.467-5.467A5.467,5.467,0,0,0,34.834,40.3Z" transform="translate(-18.17 -10.233)" fill="#231f20"/>
        <path id="Trazado_890103" data-name="Trazado 890103" d="M3,37.431l2-2V4.05A2.05,2.05,0,0,1,7.047,2H41.214a2.05,2.05,0,0,1,2.05,2.05v32.8a2.05,2.05,0,0,1-2.05,2.05H11.2L7.832,42.263A3.417,3.417,0,1,1,3,37.431ZM41.9,4.05a.683.683,0,0,0-.683-.683H7.047a.683.683,0,0,0-.683.683V10.2H41.9Zm-.683,33.485a.683.683,0,0,0,.683-.683V11.567H6.363v22.5l1.87-1.87a.683.683,0,0,1,.966,0l.483.483,1.428-1.428a8.916,8.916,0,1,1,2.9,2.9l-1.428,1.428.483.482a.683.683,0,0,1,0,.966l-.5.5ZM11.147,26.6a7.517,7.517,0,1,0,7.517-7.517A7.517,7.517,0,0,0,11.147,26.6Zm1.745,6.739a8.915,8.915,0,0,1-.967-.968l-1.276,1.276.968.968ZM3.967,41.3a2.1,2.1,0,0,0,2.9,0l4.75-4.749-2.9-2.9L3.967,38.4a2.05,2.05,0,0,0,0,2.9Z" transform="translate(-2 -2)" fill="#231f20"/>
        <path id="Trazado_890104" data-name="Trazado 890104" d="M13.683,34.367H19.15a.683.683,0,0,0,0-1.367H13.683a.683.683,0,1,0,0,1.367Z" transform="translate(13.914 -11.816)" fill="#231f20"/>
        <path id="Trazado_890105" data-name="Trazado 890105" d="M13.683,38.367H19.15a.683.683,0,0,0,0-1.367H13.683a.683.683,0,1,0,0,1.367Z" transform="translate(13.914 -13.082)" fill="#231f20"/>
        <path id="Trazado_890106" data-name="Trazado 890106" d="M13.683,42.367H19.15a.683.683,0,0,0,0-1.367H13.683a.683.683,0,1,0,0,1.367Z" transform="translate(13.914 -14.349)" fill="#231f20"/>
      </g>
    </g>
  </g>
</svg>
