<svg xmlns="http://www.w3.org/2000/svg" xmlns:xlink="http://www.w3.org/1999/xlink" width="400" height="260" viewBox="0 0 400 260">
  <defs>
    <clipPath id="clip-path">
      <rect id="Rectángulo_405002" data-name="Rectángulo 405002" width="400" height="260" fill="#f0c518" stroke="#707070" stroke-width="1" opacity="0.68"/>
    </clipPath>
    <filter id="Trazado_879125" x="321.945" y="3.738" width="76" height="76" filterUnits="userSpaceOnUse">
      <feOffset dy="1" input="SourceAlpha"/>
      <feGaussianBlur stdDeviation="5.5" result="blur"/>
      <feFlood flood-color="#fff" flood-opacity="0.902"/>
      <feComposite operator="in" in2="blur"/>
      <feComposite in="SourceGraphic"/>
    </filter>
    <linearGradient id="linear-gradient" x1="0.35" y1="0.433" x2="0.935" y2="0.848" gradientUnits="objectBoundingBox">
      <stop offset="0" stop-color="#f0c518"/>
      <stop offset="0.371" stop-color="#d1ae1f"/>
      <stop offset="1" stop-color="#78630c"/>
    </linearGradient>
    <clipPath id="clip-path-2">
      <rect id="Rectángulo_404999" data-name="Rectángulo 404999" width="303.574" height="303.574" fill="none"/>
    </clipPath>
    <clipPath id="clip-path-3">
      <path id="Trazado_890062" data-name="Trazado 890062" d="M193.269,197.718s-.049-7.583,6.484-8.348c4.954-.577,7.923,4.378,7.693,6.885a7.982,7.982,0,0,1-6.788,4.882C195.188,201.628,193.269,197.718,193.269,197.718Z" transform="translate(-193.269 -189.324)" fill="none"/>
    </clipPath>
    <clipPath id="clip-path-4">
      <path id="Trazado_890070" data-name="Trazado 890070" d="M247.877,195.2s1.4-7.45-4.614-9.374c-4.56-1.457-8.245,2.884-8.476,5.391a7.825,7.825,0,0,0,5.519,6.017c5.064,1.463,7.571-2.034,7.571-2.034Z" transform="translate(-234.786 -185.529)" fill="none"/>
    </clipPath>
    <filter id="Trazado_879126" x="-7.133" y="135.825" width="100.633" height="100.633" filterUnits="userSpaceOnUse">
      <feOffset dy="1" input="SourceAlpha"/>
      <feGaussianBlur stdDeviation="5.5" result="blur-2"/>
      <feFlood flood-color="#fff" flood-opacity="0.902"/>
      <feComposite operator="in" in2="blur-2"/>
      <feComposite in="SourceGraphic"/>
    </filter>
  </defs>
  <g id="Enmascarar_grupo_1098793" data-name="Enmascarar grupo 1098793" clip-path="url(#clip-path)">
    <g id="Grupo_1101791" data-name="Grupo 1101791" transform="translate(0 -0.083)">
      <g id="Grupo_1101790" data-name="Grupo 1101790">
        <rect id="Rectángulo_402974" data-name="Rectángulo 402974" width="381" height="240.832" rx="15" transform="translate(19 19)" fill="#a854f3"/>
        <rect id="it-developer-using-computer" width="381" height="240.832" rx="15" fill="#3a1d71"/>
      </g>
    </g>
    <g transform="matrix(1, 0, 0, 1, 0, 0)" filter="url(#Trazado_879125)">
      <g id="Trazado_879125-2" data-name="Trazado 879125" transform="translate(338.44 19.24)" fill="none">
        <path d="M21.5,0A21.5,21.5,0,1,1,0,21.5,21.5,21.5,0,0,1,21.5,0Z" stroke="none"/>
        <path d="M 21.5 6 C 12.95326995849609 6 6 12.95326995849609 6 21.5 C 6 30.04673004150391 12.95326995849609 37 21.5 37 C 30.04673004150391 37 37 30.04673004150391 37 21.5 C 37 12.95326995849609 30.04673004150391 6 21.5 6 M 21.5 0 C 33.37411880493164 0 43 9.625881195068359 43 21.5 C 43 33.37411880493164 33.37411880493164 43 21.5 43 C 9.625881195068359 43 0 33.37411880493164 0 21.5 C 0 9.625881195068359 9.625881195068359 0 21.5 0 Z" stroke="none" fill="#fff"/>
      </g>
    </g>
    <circle id="Elipse_11619" data-name="Elipse 11619" cx="16" cy="16" r="16" transform="translate(359.945 8.738)" fill="url(#linear-gradient)"/>
    <path id="Trazado_879127" data-name="Trazado 879127" d="M66.209,29.45,69.42,17.221a6.178,6.178,0,1,1-1.809,4.37,6.165,6.165,0,0,1,1.809-4.37M70.755,11.1a10.8,10.8,0,0,0-2.421,1.031,10.924,10.924,0,0,0-2.126,1.6.376.376,0,0,1-.45.056l-2.872-1.657-.015-.01a.715.715,0,0,0-.954.27l-.014.019-2.02,3.5a.715.715,0,0,0,.263.974l.018.013,2.847,1.644a.38.38,0,0,1,.179.417,10.678,10.678,0,0,0-.24,1.306,11.112,11.112,0,0,0,0,2.662,10.644,10.644,0,0,0,.241,1.305.383.383,0,0,1-.2.431L60.144,26.3h0a.712.712,0,0,0-.263.971l2.031,3.519h0a.7.7,0,0,0,.43.33.715.715,0,0,0,.539-.069l.022-.013,2.852-1.646a.379.379,0,0,1,.449.055,10.931,10.931,0,0,0,4.564,2.638.381.381,0,0,1,.277.363v3.312a.71.71,0,0,0,.709.711h4.064a.716.716,0,0,0,.711-.711V32.451a.381.381,0,0,1,.291-.369,10.864,10.864,0,0,0,2.422-1.031,11.023,11.023,0,0,0,2.124-1.6.379.379,0,0,1,.471-.043l2.852,1.647a.717.717,0,0,0,.973-.262l.013-.019,2.02-3.5h0a.709.709,0,0,0,.069-.538.7.7,0,0,0-.329-.432l-2.868-1.657c-.149-.083-.178-.417-.178-.417s.183-.861.239-1.305a11.274,11.274,0,0,0,0-2.662,11.626,11.626,0,0,0-.239-1.306.377.377,0,0,1,.2-.43l2.847-1.643a.7.7,0,0,0,.329-.433.715.715,0,0,0-.069-.541l-.011-.019-2.019-3.5h0a.72.72,0,0,0-.973-.262v0l-2.87,1.657a.376.376,0,0,1-.459-.064,11.022,11.022,0,0,0-2.117-1.593,10.838,10.838,0,0,0-2.438-1.034.381.381,0,0,1-.275-.366V7.417a.716.716,0,0,0-.711-.71H71.757a.71.71,0,0,0-.709.71v3.312a.381.381,0,0,1-.294.369" transform="translate(-38.606 9.293)" fill="none" stroke="#00ffdf" stroke-width="1" fill-rule="evenodd" opacity="0.67"/>
    <path id="Trazado_879128" data-name="Trazado 879128" d="M67.627,34.475m3.921-14.931a7.543,7.543,0,1,1-2.209,5.336,7.528,7.528,0,0,1,2.209-5.336m1.63-7.475a13.189,13.189,0,0,0-2.956,1.259,13.338,13.338,0,0,0-2.6,1.955.459.459,0,0,1-.55.068L63.57,13.327l-.018-.013a.873.873,0,0,0-1.165.329l-.017.024L59.9,17.939a.873.873,0,0,0,.321,1.189l.022.015,3.476,2.007a.463.463,0,0,1,.219.509,13.038,13.038,0,0,0-.293,1.6,13.567,13.567,0,0,0,0,3.25,13,13,0,0,0,.294,1.594.468.468,0,0,1-.247.526l-3.475,2.005h0a.87.87,0,0,0-.321,1.186l2.48,4.3h0a.854.854,0,0,0,.525.4.873.873,0,0,0,.659-.084l.027-.015,3.482-2.009a.462.462,0,0,1,.548.067A13.347,13.347,0,0,0,73.2,37.7a.465.465,0,0,1,.338.444v4.044a.867.867,0,0,0,.865.868h4.962a.874.874,0,0,0,.868-.868V38.14a.465.465,0,0,1,.356-.451,13.265,13.265,0,0,0,2.957-1.259,13.459,13.459,0,0,0,2.593-1.955.463.463,0,0,1,.575-.053l3.482,2.011a.875.875,0,0,0,1.188-.32l.015-.024,2.466-4.273h0a.865.865,0,0,0,.084-.657.848.848,0,0,0-.4-.527l-3.5-2.023c-.181-.1-.218-.509-.218-.509s.223-1.051.292-1.594a13.765,13.765,0,0,0,0-3.25,14.2,14.2,0,0,0-.292-1.6.46.46,0,0,1,.243-.525l3.476-2.007a.851.851,0,0,0,.4-.529.874.874,0,0,0-.084-.66l-.014-.024-2.466-4.271h0a.879.879,0,0,0-1.188-.32v0l-3.5,2.023a.459.459,0,0,1-.561-.078,13.457,13.457,0,0,0-2.584-1.945,13.233,13.233,0,0,0-2.977-1.263.465.465,0,0,1-.336-.447V7.574a.874.874,0,0,0-.868-.867H74.4a.867.867,0,0,0-.865.867v4.044a.465.465,0,0,1-.359.451" transform="translate(288.88 79.812)" fill="#fff" fill-rule="evenodd" opacity="0.84"/>
    <g id="_9550761" data-name="9550761" transform="translate(-32.847 -43.65)">
      <g id="OBJECTS" transform="translate(0)">
        <path id="Trazado_890013" data-name="Trazado 890013" d="M.019,259.769c5.336-5.112,10.23-10.376,13.553-16.168,8.8-15.355,6.712-34.328,24.587-45.773,20.063-12.847,54.482-9.034,77.637-19.392,14.32-6.405,22.435-17.425,36.063-24.456,18.068-9.326,44.012-10.212,65.487-4.851S257.37,165.515,280.239,167c16.536,1.069,32.822-3.084,49.422-3.546,23.174-.644,46.117,6.223,62.348,17.122s26.027,25.525,29.711,40.582c3.656,14.912,2.364,31.626,17.173,43.174,6.223,4.857,14.606,8.16,22.749,11.633v84.9H.01v-101.1Z" transform="translate(-0.01 -57.291)" fill="#fff" opacity="0.13"/>
        <g id="Grupo_1105384" data-name="Grupo 1105384" transform="translate(88.272 42.942)">
          <circle id="Elipse_11886" data-name="Elipse 11886" cx="42.986" cy="42.986" r="42.986" transform="translate(152.534 121.584) rotate(-135)" fill="none" stroke="#c4b9fe" stroke-miterlimit="10" stroke-width="2" stroke-dasharray="0 0 6.01 6.01"/>
          <circle id="Elipse_11887" data-name="Elipse 11887" cx="42.986" cy="42.986" r="42.986" transform="translate(60.792 263.525) rotate(-135)" fill="none" stroke="#c4b9fe" stroke-miterlimit="10" stroke-width="2" stroke-dasharray="0 0 6.01 6.01"/>
          <circle id="Elipse_11888" data-name="Elipse 11888" cx="50.266" cy="50.266" r="50.266" transform="translate(180.881 98.76)" fill="none" stroke="#c4b9fe" stroke-miterlimit="10" stroke-width="2" stroke-dasharray="0 0 6.05 6.05"/>
        </g>
        <g id="Grupo_1105386" data-name="Grupo 1105386" transform="translate(102.108 261.02)">
          <rect id="Rectángulo_404995" data-name="Rectángulo 404995" width="89.263" height="15.98" rx="7.99" transform="translate(0 0)" fill="#ffc25a"/>
          <g id="Grupo_1105385" data-name="Grupo 1105385" transform="translate(73.678 3.42)">
            <path id="Trazado_890014" data-name="Trazado 890014" d="M448.6,436.489a3.229,3.229,0,1,1-4.566,0A3.225,3.225,0,0,1,448.6,436.489Z" transform="translate(-443.09 -435.544)" fill="none" stroke="#3a1d71" stroke-linecap="round" stroke-linejoin="round" stroke-width="2"/>
            <line id="Línea_983" data-name="Línea 983" x1="3.109" y1="3.109" transform="translate(5.513 5.517)" fill="none" stroke="#3a1d71" stroke-linecap="round" stroke-linejoin="round" stroke-width="2"/>
          </g>
          <text id="http:_www." data-name="http://www." transform="translate(6.764 10.051)" fill="#3a1d71" font-size="6" font-family="Poppins-SemiBold, Poppins" font-weight="600"><tspan x="0" y="0">http://www.</tspan></text>
        </g>
        <g id="Grupo_1105388" data-name="Grupo 1105388" transform="translate(48.232 125.511)">
          <path id="Trazado_890015" data-name="Trazado 890015" d="M438.7,337.116a10.005,10.005,0,0,0-14.869-6.922,15.207,15.207,0,0,0-29.028,6.345c0,.395.018.789.049,1.178a9.793,9.793,0,0,0,3.57,18.913h39.118a9.795,9.795,0,0,0,1.16-19.52Z" transform="translate(-388.63 -321.33)" fill="#ffc25a"/>
          <g id="Grupo_1105387" data-name="Grupo 1105387" transform="translate(14.572 21.53)">
            <path id="Trazado_890016" data-name="Trazado 890016" d="M437.86,363.651l7.122,8.8,7.122-8.8h-4.62V356.79h-5.009v6.861Z" transform="translate(-422.542 -356.79)" fill="#3a1d71"/>
            <path id="Trazado_890017" data-name="Trazado 890017" d="M426.868,365.594l-7.122-8.8-7.116,8.8h4.614v6.861h5.009v-6.861Z" transform="translate(-412.63 -356.79)" fill="#3a1d71"/>
          </g>
        </g>
        <g id="Grupo_1105389" data-name="Grupo 1105389" transform="translate(318.654 207.869)">
          <circle id="Elipse_11889" data-name="Elipse 11889" cx="25.367" cy="25.367" r="25.367" fill="#00ffdf"/>
        </g>
        <g id="Grupo_1105393" data-name="Grupo 1105393" transform="translate(305.06 114.891)">
          <g id="Grupo_1105391" data-name="Grupo 1105391">
            <rect id="Rectángulo_404996" data-name="Rectángulo 404996" width="63.884" height="53.611" rx="3.86" transform="translate(0)" fill="#e4dffe"/>
            <path id="Trazado_890019" data-name="Trazado 890019" d="M31.614,189.23h59.2a2.353,2.353,0,0,1,2.344,2.344v5.27H29.27v-5.27A2.353,2.353,0,0,1,31.614,189.23Z" transform="translate(-29.27 -189.23)" fill="#ffc25a"/>
            <g id="Grupo_1105390" data-name="Grupo 1105390" transform="translate(2.659 2.149)">
              <path id="Trazado_890020" data-name="Trazado 890020" d="M105.86,194.428a1.658,1.658,0,1,0,1.658-1.657A1.656,1.656,0,0,0,105.86,194.428Z" transform="translate(-94.452 -192.77)" fill="#c2e185"/>
              <path id="Trazado_890021" data-name="Trazado 890021" d="M115.26,194.428a1.658,1.658,0,1,0,1.658-1.657A1.656,1.656,0,0,0,115.26,194.428Z" transform="translate(-109.559 -192.77)" fill="#fff"/>
              <path id="Trazado_890022" data-name="Trazado 890022" d="M124.65,194.428a1.658,1.658,0,1,0,1.658-1.657A1.656,1.656,0,0,0,124.65,194.428Z" transform="translate(-124.65 -192.77)" fill="#e84874"/>
            </g>
            <path id="Trazado_890023" data-name="Trazado 890023" d="M93.14,273.8a2.347,2.347,0,0,1-2.331,2.265h-59.2A2.339,2.339,0,0,1,29.28,273.8Z" transform="translate(-29.262 -222.453)" fill="#ffc25a"/>
          </g>
          <g id="Grupo_1105392" data-name="Grupo 1105392" transform="translate(13.081 10.694)">
            <ellipse id="Elipse_11890" data-name="Elipse 11890" cx="14.286" cy="14.286" rx="14.286" ry="14.286" transform="translate(11.635 37.731) rotate(-114.03)" fill="#c4b9fe"/>
            <path id="Trazado_890024" data-name="Trazado 890024" d="M88.686,242.715A14.284,14.284,0,0,1,64.011,228.69c12.926.559,20.862,8.719,24.681,14.025Z" transform="translate(-58.289 -215.426)" fill="#a796f2"/>
            <path id="Trazado_890025" data-name="Trazado 890025" d="M74.064,232.191l10.255-5.92a1.252,1.252,0,0,1,1.876,1.081v11.839a1.25,1.25,0,0,1-1.876,1.081l-10.255-5.92a1.253,1.253,0,0,1,0-2.168Z" transform="translate(-62.209 -214.409)" fill="#f3eeff"/>
          </g>
        </g>
        <g id="Grupo_1105400" data-name="Grupo 1105400" transform="translate(100.584 80.866)">
          <g id="Grupo_1105394" data-name="Grupo 1105394" transform="translate(219.861 101.977)">
            <line id="Línea_984" data-name="Línea 984" y2="3.576" transform="translate(6.94)" fill="none" stroke="#a796f2" stroke-miterlimit="10" stroke-width="2"/>
            <line id="Línea_985" data-name="Línea 985" y2="3.576" transform="translate(6.94 10.309)" fill="none" stroke="#a796f2" stroke-miterlimit="10" stroke-width="2"/>
            <line id="Línea_986" data-name="Línea 986" x2="3.57" transform="translate(0 6.94)" fill="none" stroke="#a796f2" stroke-miterlimit="10" stroke-width="2"/>
            <line id="Línea_987" data-name="Línea 987" x2="3.57" transform="translate(10.309 6.94)" fill="none" stroke="#a796f2" stroke-miterlimit="10" stroke-width="2"/>
            <line id="Línea_988" data-name="Línea 988" x2="1.791" y2="3.096" transform="translate(3.467 0.929)" fill="none" stroke="#a796f2" stroke-miterlimit="10" stroke-width="2"/>
            <line id="Línea_989" data-name="Línea 989" x2="1.791" y2="3.09" transform="translate(8.622 9.86)" fill="none" stroke="#a796f2" stroke-miterlimit="10" stroke-width="2"/>
            <line id="Línea_990" data-name="Línea 990" y1="1.785" x2="3.09" transform="translate(0.929 8.628)" fill="none" stroke="#a796f2" stroke-miterlimit="10" stroke-width="2"/>
            <line id="Línea_991" data-name="Línea 991" y1="1.785" x2="3.09" transform="translate(9.86 3.473)" fill="none" stroke="#a796f2" stroke-miterlimit="10" stroke-width="2"/>
            <line id="Línea_992" data-name="Línea 992" x1="1.791" y2="3.096" transform="translate(8.622 0.929)" fill="none" stroke="#a796f2" stroke-miterlimit="10" stroke-width="2"/>
            <line id="Línea_993" data-name="Línea 993" x1="1.791" y2="3.09" transform="translate(3.467 9.86)" fill="none" stroke="#a796f2" stroke-miterlimit="10" stroke-width="2"/>
            <line id="Línea_994" data-name="Línea 994" x2="3.09" y2="1.785" transform="translate(0.929 3.473)" fill="none" stroke="#a796f2" stroke-miterlimit="10" stroke-width="2"/>
            <line id="Línea_995" data-name="Línea 995" x2="3.09" y2="1.785" transform="translate(9.86 8.628)" fill="none" stroke="#a796f2" stroke-miterlimit="10" stroke-width="2"/>
          </g>
          <g id="Grupo_1105395" data-name="Grupo 1105395" transform="translate(256.684 198.149)">
            <line id="Línea_996" data-name="Línea 996" y2="3.576" transform="translate(6.94)" fill="none" stroke="#a796f2" stroke-miterlimit="10" stroke-width="2"/>
            <line id="Línea_997" data-name="Línea 997" y2="3.576" transform="translate(6.94 10.309)" fill="none" stroke="#a796f2" stroke-miterlimit="10" stroke-width="2"/>
            <line id="Línea_998" data-name="Línea 998" x2="3.57" transform="translate(0 6.946)" fill="none" stroke="#a796f2" stroke-miterlimit="10" stroke-width="2"/>
            <line id="Línea_999" data-name="Línea 999" x2="3.57" transform="translate(10.309 6.946)" fill="none" stroke="#a796f2" stroke-miterlimit="10" stroke-width="2"/>
            <line id="Línea_1000" data-name="Línea 1000" x2="1.785" y2="3.09" transform="translate(3.467 0.935)" fill="none" stroke="#a796f2" stroke-miterlimit="10" stroke-width="2"/>
            <line id="Línea_1001" data-name="Línea 1001" x2="1.785" y2="3.096" transform="translate(8.622 9.86)" fill="none" stroke="#a796f2" stroke-miterlimit="10" stroke-width="2"/>
            <line id="Línea_1002" data-name="Línea 1002" y1="1.785" x2="3.09" transform="translate(0.929 8.628)" fill="none" stroke="#a796f2" stroke-miterlimit="10" stroke-width="2"/>
            <line id="Línea_1003" data-name="Línea 1003" y1="1.785" x2="3.096" transform="translate(9.854 3.473)" fill="none" stroke="#a796f2" stroke-miterlimit="10" stroke-width="2"/>
            <line id="Línea_1004" data-name="Línea 1004" x1="1.785" y2="3.09" transform="translate(8.622 0.935)" fill="none" stroke="#a796f2" stroke-miterlimit="10" stroke-width="2"/>
            <line id="Línea_1005" data-name="Línea 1005" x1="1.785" y2="3.096" transform="translate(3.467 9.86)" fill="none" stroke="#a796f2" stroke-miterlimit="10" stroke-width="2"/>
            <line id="Línea_1006" data-name="Línea 1006" x2="3.09" y2="1.785" transform="translate(0.929 3.473)" fill="none" stroke="#a796f2" stroke-miterlimit="10" stroke-width="2"/>
            <line id="Línea_1007" data-name="Línea 1007" x2="3.096" y2="1.785" transform="translate(9.854 8.628)" fill="none" stroke="#a796f2" stroke-miterlimit="10" stroke-width="2"/>
          </g>
          <g id="Grupo_1105396" data-name="Grupo 1105396" transform="translate(243.436)">
            <line id="Línea_1008" data-name="Línea 1008" y2="3.576" transform="translate(6.94)" fill="none" stroke="#a796f2" stroke-miterlimit="10" stroke-width="2"/>
            <line id="Línea_1009" data-name="Línea 1009" y2="3.576" transform="translate(6.94 10.309)" fill="none" stroke="#a796f2" stroke-miterlimit="10" stroke-width="2"/>
            <line id="Línea_1010" data-name="Línea 1010" x2="3.57" transform="translate(0 6.94)" fill="none" stroke="#a796f2" stroke-miterlimit="10" stroke-width="2"/>
            <line id="Línea_1011" data-name="Línea 1011" x2="3.57" transform="translate(10.309 6.94)" fill="none" stroke="#a796f2" stroke-miterlimit="10" stroke-width="2"/>
            <line id="Línea_1012" data-name="Línea 1012" x2="1.785" y2="3.09" transform="translate(3.473 0.935)" fill="none" stroke="#a796f2" stroke-miterlimit="10" stroke-width="2"/>
            <line id="Línea_1013" data-name="Línea 1013" x2="1.785" y2="3.09" transform="translate(8.628 9.86)" fill="none" stroke="#a796f2" stroke-miterlimit="10" stroke-width="2"/>
            <line id="Línea_1014" data-name="Línea 1014" y1="1.785" x2="3.096" transform="translate(0.929 8.628)" fill="none" stroke="#a796f2" stroke-miterlimit="10" stroke-width="2"/>
            <line id="Línea_1015" data-name="Línea 1015" y1="1.785" x2="3.09" transform="translate(9.86 3.473)" fill="none" stroke="#a796f2" stroke-miterlimit="10" stroke-width="2"/>
            <line id="Línea_1016" data-name="Línea 1016" x1="1.785" y2="3.09" transform="translate(8.628 0.935)" fill="none" stroke="#a796f2" stroke-miterlimit="10" stroke-width="2"/>
            <line id="Línea_1017" data-name="Línea 1017" x1="1.785" y2="3.09" transform="translate(3.473 9.86)" fill="none" stroke="#a796f2" stroke-miterlimit="10" stroke-width="2"/>
            <line id="Línea_1018" data-name="Línea 1018" x2="3.096" y2="1.785" transform="translate(0.929 3.473)" fill="none" stroke="#a796f2" stroke-miterlimit="10" stroke-width="2"/>
            <line id="Línea_1019" data-name="Línea 1019" x2="3.09" y2="1.785" transform="translate(9.86 8.628)" fill="none" stroke="#a796f2" stroke-miterlimit="10" stroke-width="2"/>
          </g>
          <g id="Grupo_1105397" data-name="Grupo 1105397" transform="translate(0 16.308)">
            <line id="Línea_1020" data-name="Línea 1020" y2="3.57" transform="translate(6.946)" fill="none" stroke="#a796f2" stroke-miterlimit="10" stroke-width="2"/>
            <line id="Línea_1021" data-name="Línea 1021" y2="3.57" transform="translate(6.946 10.309)" fill="none" stroke="#a796f2" stroke-miterlimit="10" stroke-width="2"/>
            <line id="Línea_1022" data-name="Línea 1022" x2="3.576" transform="translate(0 6.94)" fill="none" stroke="#a796f2" stroke-miterlimit="10" stroke-width="2"/>
            <line id="Línea_1023" data-name="Línea 1023" x2="3.576" transform="translate(10.309 6.94)" fill="none" stroke="#a796f2" stroke-miterlimit="10" stroke-width="2"/>
            <line id="Línea_1024" data-name="Línea 1024" x2="1.785" y2="3.096" transform="translate(3.473 0.929)" fill="none" stroke="#a796f2" stroke-miterlimit="10" stroke-width="2"/>
            <line id="Línea_1025" data-name="Línea 1025" x2="1.785" y2="3.09" transform="translate(8.628 9.86)" fill="none" stroke="#a796f2" stroke-miterlimit="10" stroke-width="2"/>
            <line id="Línea_1026" data-name="Línea 1026" y1="1.785" x2="3.09" transform="translate(0.935 8.628)" fill="none" stroke="#a796f2" stroke-miterlimit="10" stroke-width="2"/>
            <line id="Línea_1027" data-name="Línea 1027" y1="1.785" x2="3.096" transform="translate(9.86 3.473)" fill="none" stroke="#a796f2" stroke-miterlimit="10" stroke-width="2"/>
            <line id="Línea_1028" data-name="Línea 1028" x1="1.785" y2="3.096" transform="translate(8.628 0.929)" fill="none" stroke="#a796f2" stroke-miterlimit="10" stroke-width="2"/>
            <line id="Línea_1029" data-name="Línea 1029" x1="1.785" y2="3.09" transform="translate(3.473 9.86)" fill="none" stroke="#a796f2" stroke-miterlimit="10" stroke-width="2"/>
            <line id="Línea_1030" data-name="Línea 1030" x2="3.09" y2="1.785" transform="translate(0.935 3.473)" fill="none" stroke="#a796f2" stroke-miterlimit="10" stroke-width="2"/>
            <line id="Línea_1031" data-name="Línea 1031" x2="3.096" y2="1.785" transform="translate(9.86 8.628)" fill="none" stroke="#a796f2" stroke-miterlimit="10" stroke-width="2"/>
          </g>
          <g id="Grupo_1105398" data-name="Grupo 1105398" transform="translate(92.693 75.778)">
            <line id="Línea_1032" data-name="Línea 1032" y2="3.57" transform="translate(6.94)" fill="none" stroke="#a796f2" stroke-miterlimit="10" stroke-width="2"/>
            <line id="Línea_1033" data-name="Línea 1033" y2="3.57" transform="translate(6.94 10.309)" fill="none" stroke="#a796f2" stroke-miterlimit="10" stroke-width="2"/>
            <line id="Línea_1034" data-name="Línea 1034" x2="3.57" transform="translate(0 6.94)" fill="none" stroke="#a796f2" stroke-miterlimit="10" stroke-width="2"/>
            <line id="Línea_1035" data-name="Línea 1035" x2="3.57" transform="translate(10.309 6.94)" fill="none" stroke="#a796f2" stroke-miterlimit="10" stroke-width="2"/>
            <line id="Línea_1036" data-name="Línea 1036" x2="1.785" y2="3.09" transform="translate(3.473 0.929)" fill="none" stroke="#a796f2" stroke-miterlimit="10" stroke-width="2"/>
            <line id="Línea_1037" data-name="Línea 1037" x2="1.785" y2="3.096" transform="translate(8.628 9.854)" fill="none" stroke="#a796f2" stroke-miterlimit="10" stroke-width="2"/>
            <line id="Línea_1038" data-name="Línea 1038" y1="1.785" x2="3.096" transform="translate(0.929 8.622)" fill="none" stroke="#a796f2" stroke-miterlimit="10" stroke-width="2"/>
            <line id="Línea_1039" data-name="Línea 1039" y1="1.785" x2="3.09" transform="translate(9.86 3.467)" fill="none" stroke="#a796f2" stroke-miterlimit="10" stroke-width="2"/>
            <line id="Línea_1040" data-name="Línea 1040" x1="1.785" y2="3.09" transform="translate(8.628 0.929)" fill="none" stroke="#a796f2" stroke-miterlimit="10" stroke-width="2"/>
            <line id="Línea_1041" data-name="Línea 1041" x1="1.785" y2="3.096" transform="translate(3.473 9.854)" fill="none" stroke="#a796f2" stroke-miterlimit="10" stroke-width="2"/>
            <line id="Línea_1042" data-name="Línea 1042" x2="3.096" y2="1.785" transform="translate(0.929 3.467)" fill="none" stroke="#a796f2" stroke-miterlimit="10" stroke-width="2"/>
            <line id="Línea_1043" data-name="Línea 1043" x2="3.09" y2="1.785" transform="translate(9.86 8.622)" fill="none" stroke="#a796f2" stroke-miterlimit="10" stroke-width="2"/>
          </g>
          <g id="Grupo_1105399" data-name="Grupo 1105399" transform="translate(6.946 85.827)">
            <line id="Línea_1044" data-name="Línea 1044" y2="3.57" transform="translate(6.94)" fill="none" stroke="#a796f2" stroke-miterlimit="10" stroke-width="2"/>
            <line id="Línea_1045" data-name="Línea 1045" y2="3.57" transform="translate(6.94 10.309)" fill="none" stroke="#a796f2" stroke-miterlimit="10" stroke-width="2"/>
            <line id="Línea_1046" data-name="Línea 1046" x2="3.57" transform="translate(0 6.94)" fill="none" stroke="#a796f2" stroke-miterlimit="10" stroke-width="2"/>
            <line id="Línea_1047" data-name="Línea 1047" x2="3.57" transform="translate(10.309 6.94)" fill="none" stroke="#a796f2" stroke-miterlimit="10" stroke-width="2"/>
            <line id="Línea_1048" data-name="Línea 1048" x2="1.785" y2="3.09" transform="translate(3.467 0.929)" fill="none" stroke="#a796f2" stroke-miterlimit="10" stroke-width="2"/>
            <line id="Línea_1049" data-name="Línea 1049" x2="1.785" y2="3.096" transform="translate(8.622 9.854)" fill="none" stroke="#a796f2" stroke-miterlimit="10" stroke-width="2"/>
            <line id="Línea_1050" data-name="Línea 1050" y1="1.785" x2="3.09" transform="translate(0.929 8.622)" fill="none" stroke="#a796f2" stroke-miterlimit="10" stroke-width="2"/>
            <line id="Línea_1051" data-name="Línea 1051" y1="1.785" x2="3.096" transform="translate(9.854 3.467)" fill="none" stroke="#a796f2" stroke-miterlimit="10" stroke-width="2"/>
            <line id="Línea_1052" data-name="Línea 1052" x1="1.785" y2="3.09" transform="translate(8.622 0.929)" fill="none" stroke="#a796f2" stroke-miterlimit="10" stroke-width="2"/>
            <line id="Línea_1053" data-name="Línea 1053" x1="1.785" y2="3.096" transform="translate(3.467 9.854)" fill="none" stroke="#a796f2" stroke-miterlimit="10" stroke-width="2"/>
            <line id="Línea_1054" data-name="Línea 1054" x2="3.09" y2="1.785" transform="translate(0.929 3.467)" fill="none" stroke="#a796f2" stroke-miterlimit="10" stroke-width="2"/>
            <line id="Línea_1055" data-name="Línea 1055" x2="3.096" y2="1.785" transform="translate(9.854 8.622)" fill="none" stroke="#a796f2" stroke-miterlimit="10" stroke-width="2"/>
          </g>
        </g>
        <g id="Grupo_1105417" data-name="Grupo 1105417" transform="translate(83.141)" clip-path="url(#clip-path-2)">
          <g id="Grupo_1105416" data-name="Grupo 1105416" transform="translate(33.259 66.544)">
            <path id="Trazado_890026" data-name="Trazado 890026" d="M374.693,299.727s-.874-7.644-1.864-9.174-3.054-7.195-2.993-8.33-11.864-18.476-11.864-18.476-20.552-7.3-24.638-8.16c-3.552-.747-3.352,3.758-2.392,6.812s4.129,12.125,4.772,12.944,12.374,11.427,14.074,12.75,4.62,1.4,5.495,3.364,1.9,9.605,1.9,9.605l17.51-1.336Z" transform="translate(-304.943 -166.919)" fill="#ce6a89"/>
            <g id="Grupo_1105401" data-name="Grupo 1105401" transform="translate(9.374 63.661)">
              <path id="Trazado_890027" data-name="Trazado 890027" d="M4.025,55.1H26.047a4.392,4.392,0,0,0,4.39-4.39V2.611A2.615,2.615,0,0,0,27.826,0H4.39A4.392,4.392,0,0,0,0,4.39V51.073A4.027,4.027,0,0,0,4.025,55.1Z" transform="translate(48.659 51.191) rotate(158.29)" fill="#272347"/>
              <rect id="Rectángulo_404997" data-name="Rectángulo 404997" width="29.022" height="53.326" rx="4.3" transform="translate(48.004 49.545) rotate(158.29)" fill="#3e307b"/>
              <rect id="Rectángulo_404998" data-name="Rectángulo 404998" width="23.8" height="47.424" rx="3.53" transform="translate(44.488 47.772) rotate(158.29)" fill="#a796f2"/>
            </g>
            <path id="Trazado_890028" data-name="Trazado 890028" d="M350.959,261.02c-1.305-1.87-5.531-2.18-8.008-2.987s-3.977-.8-4.675-.455-.656,2.823,1.1,4.942,6.691,1.882,7.353,2.854,2.957,2.52,3.776,4.572.249,11.244,2.24,14.438,9.435,5.361,9.842,4.038-1.172-14.347-2.2-16.357-9.429-11.044-9.429-11.044Z" transform="translate(-297.469 -167.647)" fill="#ff96a8"/>
            <path id="Trazado_890029" data-name="Trazado 890029" d="M366.156,109.7a34.549,34.549,0,0,0-34.747,34.352c-.109,19.083,34.352,59.446,34.352,59.446s34.638-39.969,34.747-59.045a34.549,34.549,0,0,0-34.353-34.747Z" transform="translate(-331.409 -109.639)" fill="#ffc25a" opacity="0.5"/>
            <path id="Trazado_890030" data-name="Trazado 890030" d="M244.2,443.62s4.523,21.548,5.313,26.775a33.366,33.366,0,0,1,.474,7.875H170.411l8.488-34.65Z" transform="translate(-83.199 -240.82)" fill="#a796f2"/>
            <g id="Grupo_1105402" data-name="Grupo 1105402" transform="translate(91.838 202.8)">
              <path id="Trazado_890031" data-name="Trazado 890031" d="M232.75,481.26s5.877,7.474,23.727,11.791" transform="translate(-219.314 -458.407)" fill="none" stroke="#7660db" stroke-miterlimit="10" stroke-width="1"/>
              <path id="Trazado_890032" data-name="Trazado 890032" d="M176.82,443.62s4.572,20.315,5.221,34.65" transform="translate(-110.92 -443.62)" fill="none" stroke="#7660db" stroke-miterlimit="10" stroke-width="1"/>
              <path id="Trazado_890033" data-name="Trazado 890033" d="M178.11,443.62s1.305,16.545,2.829,18.5,11.408,7.17,11.408,7.17" transform="translate(-122.009 -443.62)" fill="none" stroke="#7660db" stroke-miterlimit="10" stroke-width="1"/>
              <path id="Trazado_890034" data-name="Trazado 890034" d="M285.828,443.62s-1.961,12.41-3.266,14.146-9.3,4.353-9.3,4.353" transform="translate(-273.26 -443.62)" fill="none" stroke="#7660db" stroke-miterlimit="10" stroke-width="1"/>
              <path id="Trazado_890035" data-name="Trazado 890035" d="M240.362,443.62s-2.259,21.262,1.506,33.5" transform="translate(-208.918 -443.62)" fill="none" stroke="#7660db" stroke-miterlimit="10" stroke-width="1"/>
              <path id="Trazado_890036" data-name="Trazado 890036" d="M250.17,466.473s-5.452-2.131-6.448-4.353,0-18.5,0-18.5" transform="translate(-219.4 -443.62)" fill="none" stroke="#7660db" stroke-miterlimit="10" stroke-width="1"/>
            </g>
            <g id="Grupo_1105403" data-name="Grupo 1105403" transform="translate(5.007 4.924)">
              <path id="Trazado_890037" data-name="Trazado 890037" d="M383.99,121.677A29.526,29.526,0,1,0,394.8,162.01,29.525,29.525,0,0,0,383.99,121.677Z" transform="translate(-339.696 -117.712)" fill="none" stroke="#00ffdf" stroke-miterlimit="10" stroke-width="2"/>
              <path id="Trazado_890038" data-name="Trazado 890038" d="M395.156,197.322a29.577,29.577,0,0,0-40.576-.395" transform="translate(-345.13 -145.739)" fill="none" stroke="#00ffdf" stroke-miterlimit="10" stroke-width="2"/>
              <path id="Trazado_890039" data-name="Trazado 890039" d="M355.28,130.68a29.576,29.576,0,0,0,40.151.006" transform="translate(-345.83 -122.805)" fill="none" stroke="#00ffdf" stroke-miterlimit="10" stroke-width="2"/>
              <path id="Trazado_890040" data-name="Trazado 890040" d="M385.845,121.677c-8.093-8.154-18.439-3.315-23.114,10.807s-1.9,32.179,6.193,40.333,18.439,3.315,23.114-10.807S393.938,129.831,385.845,121.677Z" transform="translate(-347.853 -117.712)" fill="none" stroke="#00ffdf" stroke-miterlimit="10" stroke-width="2"/>
              <line id="Línea_1056" data-name="Línea 1056" x1="59.045" transform="translate(0.008 29.538)" fill="none" stroke="#00ffdf" stroke-miterlimit="10" stroke-width="2"/>
              <line id="Línea_1057" data-name="Línea 1057" y2="59.057" transform="translate(29.734)" fill="none" stroke="#00ffdf" stroke-miterlimit="10" stroke-width="2"/>
            </g>
            <g id="Grupo_1105407" data-name="Grupo 1105407" transform="translate(47.133 104.545)">
              <path id="Trazado_890041" data-name="Trazado 890041" d="M202.894,282.778s22.386,9.975,29.641,19.119,23.217,50.065,27.14,61.1-2.611,26.265-32.07,35.555a32.223,32.223,0,0,1-12.046-15.962s9.581-10.158,12.914-15.962a3.681,3.681,0,0,1-1.305-1.743c-.146-.874,1.6-3.048,1.6-3.048s-4.5-9-7.984-13.206c0,0-7.219,18-8.67,22.058s0,18.573,0,18.573-18.9,8.707-38.785,8.13-31.347-10.158-31.347-10.158-.437-29.35,0-39.507a30.223,30.223,0,0,1-15.312,12.519C121.3,362.132,108.379,363.8,102,346.965c-4.639-12.222-6.478-45.8-6.478-45.8s8.112-4.851,21.026-3.977c0,0,5.841,19.811,7.292,24.887a3.68,3.68,0,0,1,1.742-1.305c.874-.146,1.743,1.16,1.743,1.16s10.158-23.363,17.559-29.459c7.687-6.327,29.641-10.674,29.641-10.674l28.366.99Z" transform="translate(-95.519 -281.794)" fill="#3e307b"/>
              <path id="Trazado_890042" data-name="Trazado 890042" d="M229.179,338.3l9.89,30.455-3.3.346c-.334-.455-.662-.886-.984-1.269,0,0-.316.546-.832,1.463l-.741.079c-46.344,3.133-77.521-8-77.521-8-3.922-15.889,1.3-30.7,1.3-30.7,28.287,7.62,72.19,7.62,72.19,7.62Z" transform="translate(-109.529 -300.996)" fill="#7660db"/>
              <path id="Trazado_890043" data-name="Trazado 890043" d="M289.148,352.872c-4.639-12.222-6.478-45.8-6.478-45.8s8.111-4.851,21.026-3.977c0,0,5.841,19.811,7.292,24.887a3.68,3.68,0,0,1,1.742-1.305c.874-.146,1.742,1.16,1.742,1.16s10.158-23.363,17.559-29.459a18.316,18.316,0,0,1,2.2-1.53c-7.668,26.472-5.1,56.787-5.1,56.787l-2.981,4.044a29.726,29.726,0,0,1-12.331,8.476c-5.367,1.888-18.287,3.558-24.668-13.278Z" transform="translate(-282.67 -287.706)" fill="#7660db"/>
              <path id="Trazado_890044" data-name="Trazado 890044" d="M183.57,282.925c3.03-.735,5.058-1.135,5.058-1.135l28.366.99s1.718.765,4.353,2.064c0,0-11.979,11.4-26.138,9.216C186.132,292.664,183.959,286.9,183.57,282.925Z" transform="translate(-109.619 -281.79)" fill="#7660db"/>
              <g id="Grupo_1105404" data-name="Grupo 1105404" transform="translate(97.147 95.644)">
                <path id="Trazado_890045" data-name="Trazado 890045" d="M179.325,454.292s-8.373,3.443-9.781,4.942-5.9,16.9-6.727,20.005-1.973,2.951-2.732,1.8-.158-7.122-.158-7.122-1.712,6.909-2.9,11.3-3.382,4.475-3.868,2.538.164-10.066,1.846-14.559c0,0-4.129,11.427-5.4,13.958s-3.892,2.665-3.552-1.281c0,0-2.416,1.475-3.127-1.67s1.123-11.457,2.7-15.318c.692-1.694,1.73-4.936.328-5.179s-3.218,3.467-4.481,4.633-4.487,1.767-5.319,1.008-.565-1.208.255-2.538,5.792-6.6,7.79-9.739,5.47-6.976,7.334-7.747a25.342,25.342,0,0,1,4.857-1.2s7.79-5.938,13.564-8.8l9.368,14.972Z" transform="translate(-135.65 -439.32)" fill="#ff96a8"/>
                <path id="Trazado_890046" data-name="Trazado 890046" d="M187.293,490.3a102.422,102.422,0,0,0-4.863,15.592" transform="translate(-172.02 -459.348)" fill="none" stroke="#b25074" stroke-miterlimit="10" stroke-width="1"/>
              </g>
              <path id="Trazado_890047" data-name="Trazado 890047" d="M108.441,410.683a32.224,32.224,0,0,1-12.046-15.962s9.581-10.158,12.914-15.962A3.68,3.68,0,0,1,108,377.016c-.146-.868,1.6-3.048,1.6-3.048s-4.5-9-7.984-13.206c0,0-8.093-16.035-5.61-29.532s10.832-21.985,17.364-17.195c7.255,9.144,23.217,50.066,27.14,61.1s-2.611,26.265-32.07,35.555Z" transform="translate(23.639 -293.928)" fill="#7660db"/>
              <g id="Grupo_1105406" data-name="Grupo 1105406" transform="translate(28.324 9.144)">
                <g id="Grupo_1105405" data-name="Grupo 1105405" transform="translate(0 30.989)">
                  <path id="Trazado_890048" data-name="Trazado 890048" d="M314.029,348.13s4.79,12.264,4.135,24.45" transform="translate(-314.029 -347.984)" fill="none" stroke="#a796f2" stroke-miterlimit="10" stroke-width="1"/>
                  <path id="Trazado_890049" data-name="Trazado 890049" d="M313.7,347.89a93.681,93.681,0,0,1,.716,18.245" transform="translate(-310.224 -347.89)" fill="none" stroke="#a796f2" stroke-miterlimit="10" stroke-width="1"/>
                  <path id="Trazado_890050" data-name="Trazado 890050" d="M110.48,411.252a24.921,24.921,0,0,1,22.859-1.6" transform="translate(-5.559 -371.344)" fill="none" stroke="#a796f2" stroke-miterlimit="10" stroke-width="1"/>
                  <path id="Trazado_890051" data-name="Trazado 890051" d="M137.437,410.6s-11.244.595-17.267,6.618" transform="translate(-15.54 -372.526)" fill="none" stroke="#a796f2" stroke-miterlimit="10" stroke-width="1"/>
                  <path id="Trazado_890052" data-name="Trazado 890052" d="M175.731,383.86s-8.87,20.825-10.394,26.49.255,17.188.255,17.188" transform="translate(-80.883 -362.021)" fill="none" stroke="#a796f2" stroke-miterlimit="10" stroke-width="1"/>
                </g>
                <path id="Trazado_890053" data-name="Trazado 890053" d="M148,360.763s-8.093-16.035-5.61-29.532,10.832-21.985,17.364-17.195" transform="translate(-51.066 -303.072)" fill="none" stroke="#a796f2" stroke-miterlimit="10" stroke-width="1"/>
                <path id="Trazado_890054" data-name="Trazado 890054" d="M288.183,296.85c-7.668,26.472-5.1,56.787-5.1,56.787" transform="translate(-264.948 -296.85)" fill="none" stroke="#a796f2" stroke-miterlimit="10" stroke-width="1"/>
              </g>
            </g>
            <g id="Grupo_1105415" data-name="Grupo 1105415" transform="translate(97.183)">
              <path id="Trazado_890055" data-name="Trazado 890055" d="M212.466,127.736s3.09-1.888,1.906-6.673-9.308-11.463-9.308-11.463,1.014,9,0,14.511a23.984,23.984,0,0,0-13.673-9.289c-9.107-2.18-22.167,4.353-34.8-.291,0,0-2.465,8.707,2.319,13.643a26.922,26.922,0,0,1-15.385-6.387s-6.994,17.328,4.353,27.14a24.878,24.878,0,0,1-6.484-3.77s-6.017,14.608,18.305,22.616l8.646,26.435h24.668s11.317,3.77,25.974-3.048a44.472,44.472,0,0,1-1.014-19.805c1.888-11.25,6.5-16.259,6.782-22.792s-7.8-15.161-7.8-15.161a76.486,76.486,0,0,1,11.463.868s-3.934-5.513-7.547-6.673-8.415.146-8.415.146Z" transform="translate(-140.74 -109.6)" fill="#3e307b"/>
              <g id="Grupo_1105408" data-name="Grupo 1105408" transform="translate(28.485 79.749)">
                <path id="Trazado_890056" data-name="Trazado 890056" d="M219.567,240.95s-2.744,12.829.012,25.78c0,0-23,14.329-28.366-.99,0,0,2.866-13.382-.474-24.79Z" transform="translate(-190.74 -240.95)" fill="#ff96a8"/>
                <path id="Trazado_890057" data-name="Trazado 890057" d="M218.816,246.129c-4.59,4.73-11.767,10.9-17.462,10.261a15.494,15.494,0,0,1-9-4.238,44.153,44.153,0,0,0-1.6-11.2h28.827S219.162,242.935,218.816,246.129Z" transform="translate(-190.76 -240.95)" fill="#ce6a89"/>
              </g>
              <g id="Grupo_1105414" data-name="Grupo 1105414" transform="translate(2.796)">
                <path id="Trazado_890058" data-name="Trazado 890058" d="M210.514,143.149c-19.8-6.229-40.1,8.98-40,34.838s16.982,32.9,22.343,33.757c13.054,2.089,29.343-7.274,33.757-22.653C231.539,171.934,228.388,148.777,210.514,143.149Z" transform="translate(-161.899 -122.233)" fill="#ff96a8"/>
                <path id="Trazado_890059" data-name="Trazado 890059" d="M193.918,209.62c-.407,4.4-4.766,7.6-9.739,7.14s-8.676-4.4-8.269-8.8,4.766-7.6,9.739-7.14S194.325,205.218,193.918,209.62Z" transform="translate(-130.398 -145.42)" fill="#e87092"/>
                <g id="Grupo_1105410" data-name="Grupo 1105410" transform="translate(38.688 47.5)">
                  <path id="Trazado_890060" data-name="Trazado 890060" d="M193.269,197.718s-.049-7.583,6.484-8.348c4.954-.577,7.923,4.378,7.693,6.885a7.982,7.982,0,0,1-6.788,4.882C195.188,201.628,193.269,197.718,193.269,197.718Z" transform="translate(-193.154 -188.419)" fill="#f8f7ff"/>
                  <g id="Grupo_1105409" data-name="Grupo 1105409" transform="translate(0.115 0.904)" clip-path="url(#clip-path-3)">
                    <path id="Trazado_890061" data-name="Trazado 890061" d="M213.476,198.138c-.31,3.327-2.58,5.841-5.07,5.61s-4.268-3.115-3.959-6.448,2.58-5.841,5.07-5.61S213.785,194.805,213.476,198.138Z" transform="translate(-206.087 -190.248)" fill="#272347"/>
                  </g>
                  <path id="Trazado_890063" data-name="Trazado 890063" d="M199.754,189.356c-6.533.765-6.484,8.348-6.484,8.348s7.419-6.314,14.177-1.469c.231-2.508-2.738-7.462-7.693-6.885Z" transform="translate(-193.154 -188.411)" fill="#c4b9fe"/>
                  <path id="Trazado_890064" data-name="Trazado 890064" d="M207.387,195.664a5.216,5.216,0,0,0-.267-2.987,7.767,7.767,0,0,0-1.645-2.629,6.951,6.951,0,0,0-2.665-1.785,7.191,7.191,0,0,0-3.242-.389,7.588,7.588,0,0,0-3.06,1.063,6.619,6.619,0,0,0-2.24,2.307,8.944,8.944,0,0,0-1.056,5.877,13.084,13.084,0,0,1,2.228-5.076,6.442,6.442,0,0,1,4.347-2.362,6.364,6.364,0,0,1,4.73,1.4,8.482,8.482,0,0,1,1.809,1.991,6.436,6.436,0,0,1,1.063,2.586Z" transform="translate(-193.095 -187.834)" fill="#272347"/>
                  <path id="Trazado_890065" data-name="Trazado 890065" d="M201.407,196.986c-.073.82.838,1.566,2.04,1.682s2.24-.461,2.313-1.275-.838-1.566-2.04-1.682-2.24.461-2.313,1.281Z" transform="translate(-196.399 -190.923)" fill="#fff"/>
                </g>
                <path id="Trazado_890066" data-name="Trazado 890066" d="M209.92,227.074a13.074,13.074,0,0,0,10.753,3.643c7.626-.789,9.526-5.337,9.526-5.337" transform="translate(-187.316 -155.084)" fill="none" stroke="#b25074" stroke-miterlimit="10" stroke-width="1"/>
                <path id="Trazado_890067" data-name="Trazado 890067" d="M250.4,211.23c4.681.121,8.67-2.963,9.059-7.158.407-4.4-3.3-8.342-8.269-8.8a10.012,10.012,0,0,0-2.18.043c-.091,1.2-.146,2.429-.14,3.679,0,.407.012.808.018,1.208a46.915,46.915,0,0,0,1.512,11.032Z" transform="translate(-240.255 -143.241)" fill="#e87092"/>
                <g id="Grupo_1105412" data-name="Grupo 1105412" transform="translate(14.535 45.235)">
                  <path id="Trazado_890068" data-name="Trazado 890068" d="M247.877,195.2s1.4-7.45-4.614-9.374c-4.56-1.457-8.245,2.884-8.476,5.391a7.825,7.825,0,0,0,5.519,6.017c5.064,1.463,7.571-2.034,7.571-2.034Z" transform="translate(-234.768 -184.664)" fill="#f8f7ff"/>
                  <g id="Grupo_1105411" data-name="Grupo 1105411" transform="translate(0.019 0.865)" clip-path="url(#clip-path-4)">
                    <path id="Trazado_890069" data-name="Trazado 890069" d="M245.037,193.571c-.31,3.327,1.463,6.217,3.959,6.448s4.766-2.283,5.07-5.61-1.463-6.217-3.959-6.448S245.341,190.243,245.037,193.571Z" transform="translate(-247.071 -186.478)" fill="#272347"/>
                  </g>
                  <path id="Trazado_890071" data-name="Trazado 890071" d="M243.262,185.821c6.017,1.925,4.614,9.374,4.614,9.374s-5.853-7.541-13.09-3.983C235.017,188.7,238.7,184.364,243.262,185.821Z" transform="translate(-234.768 -184.664)" fill="#c4b9fe"/>
                  <path id="Trazado_890072" data-name="Trazado 890072" d="M234.148,190.653a6.7,6.7,0,0,1,1.463-2.325,8.646,8.646,0,0,1,2.058-1.639,6.427,6.427,0,0,1,2.356-.783,5.574,5.574,0,0,1,2.38.255l.577.231.291.115.261.158c.176.1.358.194.528.3.158.128.31.255.474.376a6.616,6.616,0,0,1,1.512,1.967,14.086,14.086,0,0,1,1.184,5.331,9.235,9.235,0,0,0,.134-5.859,6.862,6.862,0,0,0-1.651-2.7,7.222,7.222,0,0,0-2.738-1.651,6.5,6.5,0,0,0-6.1,1.087,7.664,7.664,0,0,0-1.991,2.3,5.2,5.2,0,0,0-.741,2.848Z" transform="translate(-234.13 -184.104)" fill="#272347"/>
                  <path id="Trazado_890073" data-name="Trazado 890073" d="M246.33,193.642c-.073.82-1.111,1.39-2.313,1.275s-2.119-.862-2.04-1.682,1.111-1.39,2.313-1.275S246.409,192.823,246.33,193.642Z" transform="translate(-237.447 -187.185)" fill="#fff"/>
                </g>
                <path id="Trazado_890074" data-name="Trazado 890074" d="M232.837,177.47a44.308,44.308,0,0,1,1.6,14.049s-5.732,6.108-5.8,8.118c-.036,1.056,5.835,3.813,5.835,3.813" transform="translate(-202.941 -136.263)" fill="none" stroke="#b25074" stroke-linejoin="round" stroke-width="1"/>
                <path id="Trazado_890075" data-name="Trazado 890075" d="M140.72,121.785a26.921,26.921,0,0,0,15.385,6.387c-4.79-4.936-2.319-13.643-2.319-13.643,12.623,4.645,25.688-1.888,34.8.291a23.984,23.984,0,0,1,13.673,9.289c1.014-5.513,0-14.511,0-14.511s8.13,6.673,9.308,11.463-1.906,6.673-1.906,6.673,4.8-1.305,8.415-.146,7.547,6.673,7.547,6.673a76.486,76.486,0,0,0-11.463-.868s8.087,8.628,7.8,15.16c-.213,4.8-2.756,8.779-4.839,15.015a32.764,32.764,0,0,1-9.587-1.488c-10.328-3.691-10.352-18.391-10.352-18.391-15.525,15.239-33.849,7.11-33.849,7.11a14.733,14.733,0,0,0,8.16-6.387c-26.848.146-30.764-22.641-30.764-22.641Z" transform="translate(-140.72 -109.6)" fill="#7660db"/>
                <path id="Trazado_890076" data-name="Trazado 890076" d="M235.28,176.524c.255-5.306,7.359-8.482,11.317-4.809v.291a18.515,18.515,0,0,0-11.111,4.724l-.206-.2Z" transform="translate(-219.112 -133.38)" fill="#3e307b"/>
                <path id="Trazado_890077" data-name="Trazado 890077" d="M191.635,172.978c5.41-3.455,13.412,2.028,12.125,8.312l-.261.128a15.42,15.42,0,0,0-11.876-8.148l.012-.291Z" transform="translate(-149.906 -134.078)" fill="#3e307b"/>
                <g id="Grupo_1105413" data-name="Grupo 1105413" transform="translate(63.052 47.252)">
                  <path id="Trazado_890078" data-name="Trazado 890078" d="M152.865,192.656s3.345-7.243,9.478-4.681c7.031,2.933,3.977,25.937-13.23,23.472l3.752-18.791Z" transform="translate(-149.113 -187.426)" fill="#ff96a8"/>
                  <path id="Trazado_890079" data-name="Trazado 890079" d="M166.623,205.169c-1.044-12.987-11.821-9.411-11.821-9.411l-3.752,18.791C159.489,215.758,164.511,210.84,166.623,205.169Z" transform="translate(-151.05 -190.522)" fill="#ce6a89"/>
                </g>
              </g>
            </g>
          </g>
        </g>
      </g>
    </g>
    <g transform="matrix(1, 0, 0, 1, 0, 0)" filter="url(#Trazado_879126)">
      <g id="Trazado_879126-2" data-name="Trazado 879126" transform="translate(9.37 151.33)" fill="none">
        <path d="M33.816,0A33.816,33.816,0,1,1,0,33.816,33.816,33.816,0,0,1,33.816,0Z" stroke="none"/>
        <path d="M 33.81640243530273 13.99999237060547 C 22.88960647583008 13.99999237060547 13.99999237060547 22.88960647583008 13.99999237060547 33.81640243530273 C 13.99999237060547 44.74319839477539 22.88960647583008 53.6328125 33.81640243530273 53.6328125 C 44.74319839477539 53.6328125 53.6328125 44.74319839477539 53.6328125 33.81640243530273 C 53.6328125 22.88960647583008 44.74319839477539 13.99999237060547 33.81640243530273 13.99999237060547 M 33.81640243530273 -7.62939453125e-06 C 52.49267578125 -7.62939453125e-06 67.6328125 15.14012908935547 67.6328125 33.81640243530273 C 67.6328125 52.49267578125 52.49267578125 67.6328125 33.81640243530273 67.6328125 C 15.14012908935547 67.6328125 -7.62939453125e-06 52.49267578125 -7.62939453125e-06 33.81640243530273 C -7.62939453125e-06 15.14012908935547 15.14012908935547 -7.62939453125e-06 33.81640243530273 -7.62939453125e-06 Z" stroke="none" fill="#f0c518"/>
      </g>
    </g>
    <g id="Grupo_1101822" data-name="Grupo 1101822" transform="translate(342.019 155.917)">
      <path id="Trazado_879196" data-name="Trazado 879196" d="M307.11,434.677l30.232-52.147a30.132,30.132,0,0,1-30.232,52.132Z" transform="translate(-307.11 -368.796)" fill="#fff"/>
      <path id="Trazado_879197" data-name="Trazado 879197" d="M352.529,377.362,322.3,429.51a30.132,30.132,0,1,1,30.232-52.132Z" transform="translate(-307.032 -373.299)" fill="#f0c518"/>
    </g>
  </g>
</svg>
