<svg xmlns="http://www.w3.org/2000/svg" xmlns:xlink="http://www.w3.org/1999/xlink" width="117.252" height="117.934" viewBox="0 0 117.252 117.934">
  <defs>
    <filter id="Elipse_9685" x="0" y="0.682" width="117.252" height="117.252" filterUnits="userSpaceOnUse">
      <feOffset dy="3" input="SourceAlpha"/>
      <feGaussianBlur stdDeviation="3" result="blur"/>
      <feFlood flood-opacity="0.161"/>
      <feComposite operator="in" in2="blur"/>
      <feComposite in="SourceGraphic"/>
    </filter>
  </defs>
  <g id="Grupo_1101720" data-name="Grupo 1101720" transform="translate(-321.374 -10071.471)">
    <g id="Grupo_1098796" data-name="Grupo 1098796" transform="translate(-417.307 323.943)">
      <circle id="Elipse_11310" data-name="Elipse 11310" cx="56.307" cy="56.307" r="56.307" transform="translate(741 9747.527)" fill="#fff"/>
      <g id="Grupo_1098210" data-name="Grupo 1098210" transform="translate(747.68 9754.209)">
        <g transform="matrix(1, 0, 0, 1, -9, -6.68)" filter="url(#Elipse_9685)">
          <g id="Elipse_9685-2" data-name="Elipse 9685" transform="translate(9 6.68)" fill="#f2e5fd" stroke="#a854f3" stroke-width="5">
            <circle cx="49.626" cy="49.626" r="49.626" stroke="none"/>
            <circle cx="49.626" cy="49.626" r="47.126" fill="none"/>
          </g>
        </g>
      </g>
      <g id="asterisco" transform="translate(768.838 9774.434)">
        <path id="Trazado_890107" data-name="Trazado 890107" d="M54.056,36.722,41.379,29.4l12.678-7.32A2.583,2.583,0,0,0,55,18.555l-3.873-6.708A2.582,2.582,0,0,0,47.6,10.9l-12.678,7.32V3.582A2.583,2.583,0,0,0,32.342,1H24.6a2.583,2.583,0,0,0-2.582,2.582v14.64L9.336,10.9a2.582,2.582,0,0,0-3.527.945L1.936,18.555a2.581,2.581,0,0,0,.945,3.527L15.559,29.4,2.881,36.722a2.583,2.583,0,0,0-.945,3.527l3.873,6.708a2.583,2.583,0,0,0,3.527.945l12.678-7.32v14.64A2.583,2.583,0,0,0,24.6,57.8h7.746a2.583,2.583,0,0,0,2.582-2.582V40.582L47.6,47.9a2.583,2.583,0,0,0,3.527-.945L55,40.249a2.581,2.581,0,0,0-.945-3.527Z" transform="translate(0)" fill="#00bcd4"/>
        <path id="Trazado_890108" data-name="Trazado 890108" d="M31.66,57.8H25.2a4.523,4.523,0,0,1-4.518-4.518V42.8l-9.076,5.241a4.541,4.541,0,0,1-3.434.462,4.437,4.437,0,0,1-2.737-2.12L2.225,40.8a4.5,4.5,0,0,1,1.64-6.158L12.941,29.4,3.865,24.16a4.5,4.5,0,0,1-1.632-6.166L5.455,12.4a4.412,4.412,0,0,1,2.724-2.1,4.508,4.508,0,0,1,3.455.475L20.686,16V5.518A4.523,4.523,0,0,1,25.2,1H31.66a4.523,4.523,0,0,1,4.518,4.518V16l9.076-5.241a4.515,4.515,0,0,1,3.429-.462,4.429,4.429,0,0,1,2.739,2.117l3.217,5.587A4.5,4.5,0,0,1,53,24.163L43.924,29.4,53,34.643a4.5,4.5,0,0,1,1.632,6.166L51.41,46.4a4.412,4.412,0,0,1-2.729,2.1,4.492,4.492,0,0,1-3.45-.475L36.178,42.8V53.285A4.523,4.523,0,0,1,31.66,57.8ZM22.623,37.509a1.907,1.907,0,0,1,.968.261,1.938,1.938,0,0,1,.968,1.676V53.285a.652.652,0,0,0,.645.645H31.66a.652.652,0,0,0,.645-.645V39.446a1.936,1.936,0,0,1,2.9-1.676l11.98,6.922a.63.63,0,0,0,.493.072.581.581,0,0,0,.364-.276l3.238-5.618a.63.63,0,0,0-.219-.865L39.083,31.083a1.939,1.939,0,0,1,0-3.357l11.98-6.92a.62.62,0,0,0,.289-.38.608.608,0,0,0-.062-.48l-3.233-5.613a.59.59,0,0,0-.374-.292.646.646,0,0,0-.475.059l-12,6.935a1.936,1.936,0,0,1-2.9-1.678V5.518a.652.652,0,0,0-.645-.645H25.2a.652.652,0,0,0-.645.645V19.358a1.936,1.936,0,0,1-2.9,1.676L9.674,14.111a.64.64,0,0,0-.493-.07.565.565,0,0,0-.361.274l-3.24,5.621a.613.613,0,0,0-.067.488.621.621,0,0,0,.287.38l11.983,6.922a1.934,1.934,0,0,1,0,3.351L5.8,38a.62.62,0,0,0-.289.38.608.608,0,0,0,.062.48L8.807,44.47a.59.59,0,0,0,.374.292.648.648,0,0,0,.475-.059l12-6.935a1.93,1.93,0,0,1,.968-.258Z" transform="translate(0.036 0)"/>
      </g>
    </g>
  </g>
</svg>
